<mxfile host="65bd71144e">
    <diagram id="HIP3nbAZw_EuaXWnEj3U" name="Page-1">
        <mxGraphModel dx="1655" dy="1965" grid="1" gridSize="10" guides="1" tooltips="1" connect="1" arrows="1" fold="1" page="1" pageScale="1" pageWidth="850" pageHeight="1100" math="0" shadow="0">
            <root>
                <mxCell id="0"/>
                <mxCell id="1" parent="0"/>
                <mxCell id="7" value="http://ics2o.mths.ca" style="swimlane;whiteSpace=wrap;html=1;" parent="1" vertex="1">
                    <mxGeometry x="60" y="-130" width="760" height="830" as="geometry"/>
                </mxCell>
                <mxCell id="8" value="&lt;font style=&quot;font-size: 20px;&quot;&gt;Tickets for museum, in JS&lt;/font&gt;" style="text;html=1;align=center;verticalAlign=middle;resizable=0;points=[];autosize=1;strokeColor=none;fillColor=none;" vertex="1" parent="7">
                    <mxGeometry x="260" y="50" width="250" height="40" as="geometry"/>
                </mxCell>
                <mxCell id="9" value="&lt;font style=&quot;font-size: 20px;&quot;&gt;Enter the day and your age.&lt;/font&gt;" style="text;html=1;align=center;verticalAlign=middle;resizable=0;points=[];autosize=1;strokeColor=none;fillColor=none;" vertex="1" parent="7">
                    <mxGeometry x="40" y="100" width="270" height="40" as="geometry"/>
                </mxCell>
                <mxCell id="10" value="&lt;font style=&quot;font-size: 20px;&quot;&gt;Age&lt;/font&gt;:" style="text;html=1;align=center;verticalAlign=middle;resizable=0;points=[];autosize=1;strokeColor=none;fillColor=none;" vertex="1" parent="7">
                    <mxGeometry x="40" y="140" width="60" height="40" as="geometry"/>
                </mxCell>
                <mxCell id="11" value="Age here..." style="rounded=1;whiteSpace=wrap;html=1;align=left;" vertex="1" parent="7">
                    <mxGeometry x="100" y="145" width="170" height="30" as="geometry"/>
                </mxCell>
                <mxCell id="12" value="&lt;font style=&quot;font-size: 20px;&quot;&gt;Choose a day:&lt;/font&gt;" style="text;html=1;align=center;verticalAlign=middle;resizable=0;points=[];autosize=1;strokeColor=none;fillColor=none;" vertex="1" parent="7">
                    <mxGeometry x="40" y="180" width="150" height="40" as="geometry"/>
                </mxCell>
                <mxCell id="13" value="Monday" style="rounded=1;whiteSpace=wrap;html=1;" vertex="1" parent="7">
                    <mxGeometry x="190" y="180" width="140" height="40" as="geometry"/>
                </mxCell>
                <mxCell id="15" value="" style="shape=singleArrow;direction=south;whiteSpace=wrap;html=1;arrowWidth=0.5515625;arrowSize=0.2864583333333333;" vertex="1" parent="7">
                    <mxGeometry x="310" y="192.5" width="10" height="15" as="geometry"/>
                </mxCell>
                <mxCell id="19" value="Tuesday" style="rounded=1;whiteSpace=wrap;html=1;" vertex="1" parent="7">
                    <mxGeometry x="190" y="220" width="140" height="40" as="geometry"/>
                </mxCell>
                <mxCell id="20" value="Wednesday" style="rounded=1;whiteSpace=wrap;html=1;" vertex="1" parent="7">
                    <mxGeometry x="190" y="260" width="140" height="40" as="geometry"/>
                </mxCell>
                <mxCell id="21" value="Thursday" style="rounded=1;whiteSpace=wrap;html=1;" vertex="1" parent="7">
                    <mxGeometry x="190" y="300" width="140" height="40" as="geometry"/>
                </mxCell>
                <mxCell id="22" value="Friday" style="rounded=1;whiteSpace=wrap;html=1;" vertex="1" parent="7">
                    <mxGeometry x="190" y="340" width="140" height="40" as="geometry"/>
                </mxCell>
                <mxCell id="23" value="Saturday" style="rounded=1;whiteSpace=wrap;html=1;" vertex="1" parent="7">
                    <mxGeometry x="190" y="380" width="140" height="40" as="geometry"/>
                </mxCell>
                <mxCell id="24" value="Sunday" style="rounded=1;whiteSpace=wrap;html=1;" vertex="1" parent="7">
                    <mxGeometry x="190" y="420" width="140" height="40" as="geometry"/>
                </mxCell>
                <mxCell id="25" value="TICKET" style="rounded=1;whiteSpace=wrap;html=1;" vertex="1" parent="7">
                    <mxGeometry x="40" y="490" width="100" height="40" as="geometry"/>
                </mxCell>
                <mxCell id="26" value="&lt;font style=&quot;font-size: 20px;&quot;&gt;&#39;You pay the regular price&#39;&lt;/font&gt;" style="text;html=1;align=center;verticalAlign=middle;resizable=0;points=[];autosize=1;strokeColor=none;fillColor=none;" vertex="1" parent="7">
                    <mxGeometry x="40" y="550" width="250" height="40" as="geometry"/>
                </mxCell>
                <mxCell id="27" value="&lt;font style=&quot;font-size: 20px;&quot;&gt;&#39;You get the student discount for the museum.&#39;&lt;/font&gt;" style="text;html=1;align=center;verticalAlign=middle;resizable=0;points=[];autosize=1;strokeColor=none;fillColor=none;" vertex="1" parent="7">
                    <mxGeometry x="40" y="603" width="440" height="40" as="geometry"/>
                </mxCell>
                <mxCell id="28" value="" style="shape=image;verticalLabelPosition=bottom;labelBackgroundColor=default;verticalAlign=top;aspect=fixed;imageAspect=0;image=data:image/jpeg,/9j/4AAQSkZJRgABAQEASABIAAD//gAyUHJvY2Vzc2VkIEJ5IGVCYXkgd2l0aCBJbWFnZU1hZ2ljaywgejEuMS4wLiB8fEIy/9sAQwAGBAUGBQQGBgUGBwcGCAoQCgoJCQoUDg8MEBcUGBgXFBYWGh0lHxobIxwWFiAsICMmJykqKRkfLTAtKDAlKCko/9sAQwEHBwcKCAoTCgoTKBoWGigoKCgoKCgoKCgoKCgoKCgoKCgoKCgoKCgoKCgoKCgoKCgoKCgoKCgoKCgoKCgoKCgo/8IAEQgEsASwAwERAAIRAQMRAf/EABwAAQABBQEBAAAAAAAAAAAAAAAEAQIDBgcFCP/EABoBAQADAQEBAAAAAAAAAAAAAAABAgMEBQb/2gAMAwEAAhADEAAAAeqAAAAAAAAAAAAAAAAAAAAAAAAAAAAAAAAAAAAAAAAAAAAAAAAAAAAAAAAAAAAAAAAAAAAAAAAAAAAAAAAAAAAAAAAAAAAAAAAAAAAAAAAAAAAAAAAAAAAAAAAAAAAAAAAAAAAAAAAAAAAAAAAAAAAAAAAAAAAAAAAAAAAAAAAAAAAAAAAAAAAAAAAAAAAAAAAAAAAAAAAAAAAAAAAAAAAAAAAAAAAAAAAAAAAAAAAAAAAAAAAAAAAAAAAAAAAAAAAAAAAAAAAAAAAAAAAAAAAAAAAAAAAAAAAAAAAAAAAAAAAAAAAAAAAAAAAAAAAAAAAAAAAAAAAAAAAAAAAAAAAAAAAAAAAAAAAAAAAAAAAAAAAAAAAAAAAAAAAAAAAAAAAAAAAAAAAAAAAAAAAAAAAAAAAAAAAAAAAAAAAAAAAAAAAAAAAAAAAAAAAAAAAAAAAAAAAAAAAAAAAAAAAAAAAAAAAAAAAAAAAAAAAAAAAAAAAAAAAAAAAAAAAAAAAAAAAAAAAAAAAAAAAAAAAAAAAAAAAAAAAAAAAAAAAAAAAAAAAAAAAAAAAAAAAAAAAAAAAAAAAAAAAAAAAAAAAAAAAAAAAAAAAAAAAAAAAAAAAAAAAAAAAAAAAAAAAAAAAAAAAAAAAAAAAAAAAAAAAAAAAAAAAAAAAAAAAAAAAAAAAAAAAAAAAAAAAAAAAAAAAAAAAAAAAAAAAAAAAAAAAAAAAAAAAAAAAAAAAAAAAAAAAAAAAAAAAAAAAAAAAAAAAAAAAAAAAAAAAAAAAAAAAAAAAAAAAAAAAAAAAAAAAAAAAAAAAAAAAAAAAAAAAAAAAAAAAAAAAAAAAAAAAAAAAAAAAAAAAAAAAAAAAAAAAAAAAAAAAAAAAAAAAAAAAAAAAAAAAAAAAAAAAAAAAAAAAAAAAAAAAAAAAAAAAAAAAAAAAAAAAAAAAAAAAAAAAAAAAAAAAAAAAAAAAAAAAAAAAAAAAAAAAAAAAAAAAAAAAAAAAAAAAAAAAAAAAAAAAAAAAAAAAAAAAAAAAAAAAAAAAAAAAAAAAAAAAAAAAAAAAAAAAAAAAAAAAAAAAAAAAAAAAAAAAAAAAAAAAAAAAAAAAAAAAAAAAAAAAAAAAAAAAAAAAAAAAAAAAAAAAAAAAAAAAAAAAAAAAAAAAAAAAAAAAAAAAAAAAAAAAAAAAAAAAAAAAAAAAAAAAAAAAAAAAAAAAAAAAAAAAAAAAAAAAAAAAAAAAAAAAAAAAAAAAAAAAAAAAAAAAAAAAAAAAAAAAAAAAAAAAAAAAAAAAAAAAAAAAAAAAAAAAAAAAAAAAAAAAAAAAAAAAAAAAAAAAAAAAAAAAAAAAAAAAAAAAAAAAAAAAAAAAAAAAAAAAAAAAAAAAAAAAAAAAAAAAAAAAAAAAAAAAAAAAAAAAAAAAAAAAAAAAAAAAAAAAAAAAAAAAAAAAAAAAAAAAAAAAAAAAAAAAAAAAAAAAAAAAAAAAAAAAAAAAAAAAAAAAAAAAAAAAAAAAAAAAAAAAFAUKAFAAAAAAAAAAAAAAAAAAAAAAAAAAAAAAAAAAAAAAAAAAAAAVBUqCoAAAAAAAAAAAAAAAAAAAAAABQoULShaUAAAAAAAAAAAAAAAAAAAAAAAAAAAAAAAAAAAAAAAAAAAAABUFxUuKlSoAAAAAAAAAAAAAAAAAAAAAKFpaWFhQtKFAAAAAAAAAAAAAAAAAAAAAAAAAAAAAAAAAAAAAAAAAAAAAChcXF5eXlxUqAAAAAAAAAAAAAAAAAAAAChaWGMGYvKgAAAAAAAAAAAAAAAAAAAAAAAAAAAAAAAAAAAAAAAAAAAAAFpFIpkMpkMheVKgAAAAAAAAAAAAAAAAAAAoWlhiLiQVKFAAAAAAAAAAAAAAAAAAAAAAAAAAAAAAAAAAAAAAAAAAAAAAVKggkIzGYzGQvLgAAAAAAAAAAAAAAAAAAAWlhiLSWWnPLxo94jSAAAAAAAAAAAAAAAAAAAAAAAAAAAAAAAAAAAAAAAAAAAAAFTZKz1jJJT4JcSDOZjKXFQAAAAAAAAAAAAAAAAAAULDGYCUZTlWkaTeAAAAAAAAAAAAAAAAAAAAAAAAAAAAAAAAAAAAAAAAAAAAAAABvtJ6dnPkkEkEozmYyFQAAAAAAAAAAAAAAAAAAWmMxGE9E8KY4jtAAAAAAAAAAAAAAAAAAAAAAAAAAAAAAAAAAAAAAAAAAAAAAAAHvQ7bjbzDySSSiSZjKXAAAAAAAAAAAAAAAAAAAsMRhBOOb3jnmkAAAAAAAAAAAAAAAAAAAAAAAAAAAAAAAAAAAAAAAAAAAAAAAAbNV2XK3jnlkglEokGUvAAAAAAAAAAAAAAAAAAKFhiI5mJZxvWNYtAAAAAAAAAAAAAAAAAAAAAAAAAAAAAAAAAAAAAAAAAAAAAAAAG/Unpuc6+QSQSyUSDMXgAAAAAAAAAAAAAAAAAFDGYSMTDOcB2rDkAB6kNgrM2Fp5ctbvGAAAoAAAACoABQFQCgAKgFCoBQqAAAAAAAUAKgAAAAAoAVBQAAAAFQAdYync6zqpjJBKJZIMxeAAAAAAAAAAAAAAAAAAWmMwEY9MhnA96gD0odRznZ6zUAEY5ppXSLhkO8YTcAAAADAcI3jteM+lCpQGoXcx0jseM+3AChrFnKdY9aHZ8ZqAULJYiGeXLVbxqlgA3yk9BoQqAUANVs5ZrG4UnpuaoKHKNWs2gdbynY6gPMlxPaO44zOgAAAAKHDdoiSHb8Z9uJ08vJBLJRIMxeAAAAAAAAAAAAAAAAAAWGMjmE9U1W0ce1gD2odmxtLAAAKHJtI068ezDuWNgAAAAPCmOK7R9CYWvABzXSOf3j6DwtnABzy8c30jcKz1vKQAAAKGl2jlOsAdYync6yAAAOc3jnWkdLznoFJAHKNI0u8DveFvQANUtHJtY+gsLXAAAAAiHz/vUXH0Jhaw1QzEglkokGUvAAAAAAAAAAAAAAAAAALDCRweic6vHOdIGU7lhPqJAAAA8aY4btG30nrmcgAAAAaXaNA0juWNqgFIcf2jxpjvWNgAOS6Rp146TnPQqSAAAAKHF9q67Idvxt7kAAAByPWuoWdiynaayAOY6RoV4kQ+gsbVAOeXjVbR23KwAAAAGuzHFtoHrw7pjbzTXzMSSUSjOZS8AAAAAAAAAAAAAAAAAFCwwkYzE04/rXVLBvNJ6lnIAAAAwnzzvXpGc9EpIAAAAHNNI86XXMpAFDhG1fUieyZSABw7aviy6/jO2RIAAAAHPrxzXSKn0JhbMAAAUhw3evjy71hb0QAc8vHN9I96rtmVqgHJdIvOr5yAAAABo145bpA2+k9cynxJeSZiSSyUZzIXAAAAAAAAAAAAAAAAAAoYzCRSaZzgu1fPkO2Yz78SANWtHjy6BSagGE+ed69eynbqyAAAABx3WvvVnolJAGE+e9679SemZyALT573riO7Yz6sSALC4qAAaTeOVaR6UO8Y2qAAAYz573rkPoLC1wANFvHLtI3ak9VzkAcO2ruNJ6BSQAAAAOXaRot4HR856JSdbIZnJJLJJnMhUAAAAAAAAAAAAAAAAAFpjMBGPTIxwDeokn0Bha4AtOCb1mw7fjaoB50uCbV6zlPqQHqRMsAGA8eYoVORax07OdurIA8OY4htHVsp3WsgDy5jhG0ZT6DwteADmmkataO5Y2uABoV45jpG01dhytUAoeJMYyp58uR6x7tXbcrVABqFo5HrHTc536kgWnz5vXomc7FUPQiZ4ALTwpgUOY6R4Vg7BlO1VnUi0kEolkkzF5UAAAAAAAAAAAAAAAAAFpiI5hPVNZtHGtYGzVnsmU1APJmOFbRtlXX8rADXZji20ADteNtggANVtHHtYAHdMbevAAabaOTax23GfeiQBqdo5BrHtQ7jjYADjmsa5aPoTC1wAOZaRoN46BSel5yALD573rjABulJ6vnIAGtWjjOsdkynZ6yB5cxwjaAB1nKdyrIA8iXC9qgADvOFpxqBlJBKJZIMpeVAAAAAAAAAAAAAAAAABYYTAUPROe3jm2kDf6T0zOQBq1o47rHQ856RSQBpFo5XrAA+gcLSgAc/vHNNIAyH0HhbIADmt45/pH0FhaQADnt45tpG40nrWcgAcF2rkO642qAUOP611Wzq+U7pWQB5UuE7VAA6XnPQKSAB4kxw/aO94W9AA1O0cg1gAdwxn24kAajaORawABIPoHC0U1gzEklEokGUvAAAAAAAAAAAAAAAAABQsMJHMhNhyPaNRtA6nnO8UkAa5McX2jf8AOdlgANJs1G8AT4d7xtUAHJ9I0y8AexDueNgAOPax40x3rGwAHJtI028dHznolJAGA+fN67XWevYzWQFDhW1fKl2/GfciQBqVo5DrAAHYsp2msgAQDhe9foLC1QDnt45tpAFx9B4WzAA51eOc6QAB79Xa8reUeGZiSSyUZzKXAAAAAAAAAAAAAAAAAAoYzCRiUSThO1fLkOv5TtlZAFhxbWvgWAAAAbLV2XG1ZAUOI7V8OQG31nrmUgAcH2r6sT2PKQAOHbV8WXX8p2ysgDwZjiW0dCpPSc5AGM+e962n0HhbOADnd45xpAAHecJ9JIAEc43rXtmVgBybSNNvAHpw7vhasgKQ5JrGoXgADeaT1LOfAPNM5JJZJM5kLgAAAAAAAAAAAAAAAAAWmMwEY9Mwnz9vWgOw5TtVZAAiHGdq+LIAAAb5Sen5yAKQ+fOiuAA6NnPRaSAMJ897137OemUkAWnz3vXEd3xt6kABpVo5TrHWcp3KsgDyJjhW0enDvGNqgFDkukafeEkBnPoLC1wABQ5fpHUc5AHDtq+LIDa6uwZWAA4XtXyJAAdRzneaTrJGM5KJZJMxkKgAAAAAAAAAAAAAAAAAtMRHMB6xrkxxfaAOqZTu9ZAAEU41rXw7AAAOqZzu9JAHnS4LtUAddynbqyAPDmOIbR1bKd1rIA8s4PvXMfQeFrwAc00jn947jjPtRIA1G0ci1jaqz2HKQAPJlgQNRu5/ePdrPbspAAFIadeNyrIFp8971xAHQs56TSQBjPnvetgAB2nGdhidPLiQSiUSTMXlQAAAAAAAAAAAAAAAAAWGEwFp6RoN45lpAG6Unq2c1AABDOJ7V8yQAA7XjOwRIA1a0cd1gCh3fGfViQBpdo5RrHbsZ92JAGp2jkGse1DuGNqgA47rXWLPoTC2UAHObxzrSOg5z0qkgAADmGkaHeN0pPV85AAFCCTwDyzg+9agHWMp3OsgDyZcK2qABU+gcLXmpGUkEslEgzF4AAAAAAAAAAAAAAAAAKFhhI5kJxybSNNvAGU7rjb0YAAAeNMcR2jGAAfQWFpIAOf3jmmkAZD6EwteADmt45/pH0HhbOADnl45vpG40nrWcgChwbat53bC1ZAIci1jUbx1fKd0rIAAA4zrXWrOl5z0CkgAAAAapaOP6wAO4Yz7cSANRtHItYAA9GHesbeca6ZyQSyUZzKXgAAAAAAAAAAAAAAAAAoYzCRiUSjhe1fIkAPeq7RlbKAAChze8c90gATod8xtUAoco0jTLwB7EO542AA49rHjTHesbAAcl0jTrx0nOehUkARz593rtVXYMrAChwzavkS7djPuxIAAA4DtWFLsWU7TWQAAAAOeXjm+kAXH0HhbMADnN451pAAG01diyt4x4xnJJLJJnMpcAAAAAAAAAAAAAAAAAC0xmAjHpFp8+b1tAANsrPXMpvAAB5pwbeoA2arsuVgBSHEdq+HYBt9J65nIAHB9q+rE9jykADh+1fEl1/KdsrIA8GY4ltHQqT0nOQBjPnvetD6CwtnAAAIp8/b1od7xn0YkC0uAAAOS6xp1oA9SHd8bAAci0jUbwAB0Gk9KznXSAZyUSySZjKVAAAAAAAAAAAAAAAAABaYjARj1jwZjie0AAAbrSeq5zUAAofPu9Y4BvtJ6dnIAtPn3euAA6NnPRaSAMJ897136k9MzkAWHz5vXEd3wn1EgDSrRynWOtZTuNZAHjy4ZtX04d4xsABrFo88HnS55pGc+gsLXAHiTHtxIAAocQ2r4kgNqrPYcpAA4ZtXx5AAdayncazqhiJBKJRJMxkKgAAAAAAAAAAAAAAAAAsMRHLD0zRLxy/SAAAB0LOekUmoABwPasCQHU853ikgDzTgu9agHXcp26sgDw5jiG0dXyndKyAPKRwneMp9CYWuABzPSNAvHcMbe3AAahaOR6xtNZ7FlIAHDdq+NIAe7V27KwA0W8b1SQABYfPm9cQB0LOek0kAYz573rYAAdzxn1onTjISCWSiSZTIAAAAAAAAAAAAAAAAAChYYSOXk85TpGlXgTYdGpIAxHMdI7JlOz1kADgG9YYB2vGdgiQBq1o47rAA7rjb1oADTLRyfWO24z70SANTtHINY9qHcMbVAEOObRrNo+hMLZQAc5vHOtI6DSelZyALD573rjABulJ6vnIFDlGlesZ2AAHly4RtUAdZyncqyAPImOF7QABkPoPC2E1YzEglEskGUvAAAAAAAAAAAAAAAAABQxmEjEolHD9q+JIbRWex5SAPCmOI7RutJ6tnIAsPnretgB9BYWkgA59eOa6QBefQuFrwAc10jn94+gsLSAAc8vHN9I3Gk9azkAUODbVyHdsbAAci1jUbR1jKdzrIA8iY4XtAAHS856BSQLThu1e6Y2AAGp2jkGsADt+M+5EgDULRyPWAAPah3HG3lngmYkkskkgylwAAAAAAAAAAAAAAAAALTGYSKeiD593rjBv8ASemZyANKtHKdY3Wk9WzkAeccE3rUE+HfMbAAcn0jTLwB6sO7YWSAHHda+RLvGNqgFDkmsahaOk5z0KkgDAfPm9dspPXs5AA4XtXyJduxn3YkAajaORawAB2LKdprIHmI4dvH0JhYAAc9vHNtIAuPoPC2YAHOrxznSAANypPWc58I8szEkmEkzmQuAAAAAAAAAAAAAAAAABaYjARz1TxJjiG0AdTyneKyAOaaRz+8dEzno9JAGr2jjmsAbLV2bKwApDiW1fCsA2mrsWVgAOD7V9WHY8rABDhW9fJl1/KdsrIA8GY4ltHSM56HSQBiPnzetp9CYWzAA53eOcaQAB3rG3owA1W0ch1j6GwtcAChybWNOtAHqQ7vjYADkWkajeAAOl5z0Ck6yRTOSSWSTOZCoAAAAAAAAAAAAAAAAALDERyw9M0i0cr1gDsmU7PWQBx/WNUtHXMp2+sgDnt45tpAG+0np2cgC0+fd64ADe6T1DOQBjPnrevQaT0jOQBHPn7etp3fC3qAA0q0cp1jt2M+7EgDwpjiO0enDvGNgAOW6RqNoAjyyQ+g8bVAOf3jmmkfQeFpAAKQ4fvXxZAbXWewZSABwvavkSAA7HlO0VnUASCSSySZi8qAAAAAAAAAAAAAAAAAULDERi8nnLtI0W8Adtxn3okAcW1jxbR3rC0kAocf1rqtgHVMp3esgDzZcG2qAOkZz0OkgCAcC3r2fKdlrIA1a0cd1jKfQeFrwAaXaPPl0Ok1ABol45fpG1VnsOUgAUKgHENq1O24WrIDlGkaVeO/4WmgAtPnveuIA6DnPSqSALD573rjAAO+4WkmomUkEslEgymQAAAAAAAAAAAAAAAAAFDGYSOSSUcS1r4NgHbsZ92JAHiSvPYgAMJwHeuAA7XjOwRIA1W0ce1gAdFzno1JAFprNo2es1AByfSNMvHtQ7jjYAAAAAcj0jULx0HOek0moAABafPm9dupPVs5qChxHavhy7rjb1oADy5cI2qAOsZTudZAHkS4XtUACWd/wtCNaMxJJRKJBlLwAAAAAAAAAAAAAAAAAWmMwkU9EuPn3euEA7FjO0xIAAAA0m8cq0gAfQWFpIAOf3jmmkADbqz13KQAAAB5Mxw3aLDcaT1rOQAAAAI5wTesc6vlO6VkAAAeYjg+8dLznoFJAtPnzeuE7djPuxIA1O0cg1gAdxxn2okAajaORawABsdZ7PlPkniGckkolGcylwAAAAAAAAAAAAABQoAUBUtMZgI56x5EuGbVAG8UnqecgAAAQkcP2iDICfDvmNgAOUaRpd4AGc71haUAAADGcX1r4Fg6RnPQ6SAAAAKHN7xz3SB2/G3uQAAAGqWjj+sdjynaKyB5pwXetTs+M7JEgDnl45vpAFx9CYWygA5zeOdaQABvlJ6fnOvnnGckkskmcyFwAAAAAAAAAAABQoUBaUKAAFpYYCw9Y0u0co1gAXHZcZ2OJqAADzJjj+sePIAbNWeyZTUAHENq+HIADbaT1vObwAAYTk2ldTuA6/lO2VkAAAC00S8cy0ihU+hMLZgAAAc+vHNNI73hb0QDVrRx3WB1/KdsrIA5LpGnXgD1Id2xtUAHI9I1C8AAdVzndqTqxgM5JJRJMpkKgAFQVKgAAAAAFAUKFC0oWlpQtKAFShjMRmPROY6Rod4AAynRM53ekywDzTSrxoWkYAADYqzuNSAA5lrGEAAGxVdJzt70LgYTVrRznSPJkAOi5zOgAAEsJ5stYtHlyAkHS8pAAAFDTbx4NnT85ugEtalqN4G7Un3agBz/AEjzJAevDfM5ACXPbx50gAO24z7sTpxcZySSTOZS4qUAKlS4uKlwAAABQoUKFC0oWlpaVMhkMgMZiMRhMJjPRJpxfWuu2AAAVPShmIhBkAAAAAAAAAABJJ8LTzZYwAAAAAAAAAAAAAAAAAAAAAAAAAAAACp9B4WoakZDMSCQZi8uKlQWFxcXl5eXFSoABQoULS0sLS0qXmQyFwBQAqChYRiQXnz9vWOAAAAAAAAAAAAAAAAAAAAAAAAAAAAAAAAAAAAAAAAAAAAAAAAepDu2NoJ4ZIJBIM5kLy8qVBYQjCZDKZDIXlSoBQoWlhjKFxeZS4AoRTW7RrlmuWjGe9Wffh79XsxN5UHly4RtUAAAAAAAAAAAAAAAAAAAAAAAAAAAAAAAAAAAAAAAAAAAAAAAAbbSevZyAAAKAIxRcjLMVPMI5mM5mMhcXAFCwxlpILgAYDXrRrdmtWjxpUAAAMx7lWwVn3oejDSrvBmPFsxgAAAAAAAAAAAAAAAAAAAAAAAAAAAAAAAAAAAAAAAAAAAAAAHU853ik2kat4kawq6RI0hxpGrpanzK7+fXaLF6m2a+d0Po8dLwTISDOZjIXFQWFhhMxmLDwpjWrNbs8G0YwAACUYzCAACp6kPfrPtwvNMtHgWAAAAAAAAAAAAAAAAAAAAAAAAAAAAAAAAAAAAAAAAAACpfF8ue91dL66ZK2U6fez0jV1iRpjTWAS9C2MqaQq6w66VlaIJb5v5O7b+Z5JCJBJJBlMhUGMxGAlGU1C0c+0jxZAAACQehC88qWEAAAA9+reKToWkeLIAAAAAAAAAAAAAAAAAAAAAAAAAAAAAAAAAAAAAVL4vkppdXW6ut9NL4tkia5dd9dKzFsXRe+cbI0JQATIIRImWy9m/NrWfbmV9K+Pj06EBNtn2Tt+aingkkkkkzmUuBiMJHKnolShr0xoejVLRaAZz0IZCBKGAAAAepDfc58ezSbxYAAAAAAAAAAAAAAAAAAAAAAAAAAAAAAAAACpfFslNr6bX10vrpWm19db6aXV0osiUwhnvlfOeGutkaZlZ9+ePF8Maz7Y+bTfFEgC+YzzW9ESNBJnPHFsC1xanKriiRRPZ+35nPbPVyQSiUSDKXlTEYSMRC0nHolxQ86Y0O7UrRmM558oQAAABLOiZzvFJ4ntHiTAAAAAAAAAAAAAAAAAAAAAAAAAAAAAAGSLX11vppdXW6uuStq03vrpkrpWLUTSt77Y2Lq2SRJArIUgJ9svXvzaxn3VgmfTnn8yN8qLkZ5pYmJGqICZ9m3L5ld5ls880lTnOnKXbOdbKTOfkU6dD5/Xk2zzK9M6vD9W/PqZmJRLJBmMhUxGEjkUjGAoekeyWnBdq7HWdiq0i8eLYAAAMpu9Jyw9OG71nQLxzPSAAAAAAAAAAAAAAAAAAAAAAAAAKl9b5K7X01urpfXW+t7qbX11upoWpEggZrZJjHXXOjPfLFDDXbNNI0XtWRAFZS5zoRY0qZlLpRa6VmKJyK0LiXbKbOc62Uqcp1spU0m2ynTlmtTIChUFCp4OfVy7l96TNIcadS6vB2DTk1IvJRLJJnMhUxmIwEYjkcwlhtBmPnnesyGQ92J9mrxLNVtFoBU3Ck+tDSNI886ZnO/wBJiHBN64gAAAAAAAAAAAAAAAAAAAC+LZK6XV0ui1+e99dbqa311urpki9JpbF0SmpKLogAACffL1LYeJTpj10rMT5x8+N5DPIX2rZEw40QSpE+xfngxpnVlWzkTSdOUq2cycpls5k5zLZZ5qRVIoADHExI0h11hxpDjWFXSJXTZdeHZ9eLyqb8i4/o0wOldPibRrw6qUJJLJRnMhcWmMwmAjmAwGI2UynzzvWZC4gSHuRO10RJabePaq2es6faPEsA6ZnO/wBJHKdI0q8AAAAAAAAAAAAAAAVMldL66X01urpdXW6ul9b303vrqi1IJVvzVjSkWpF0EvRtjdDzI3mzlEjS1KIATIRCQyo9W/P4ufTdK1OVTEtkRLnOZbKdbKVOc62Uqc51svRtjkRfMACpQFIRovDjX1r8/hZ9fh06oddIddYsaRYvaRK6VkESQTu+/lb30eVBrryLj+iwrUOhdHj7ft52smIkkslGcylxQsMZiMJHMBgNhMh8871mQqQZACZDcqz5EtYtAAHTM53+kjxJjh+0AAAAAAAAAAC5OSml9dbq6300vrrdXXJE3U1rTdNKRpWYpWSUiKlBAe1rxUW8bLrJTCCXpWxjxcTbZRa6RovjiQlcZprgi0iaTpy9G+OZSVbOZOcy2cycvQtllVrKiKpoVBQxRMONYddLke5pzC05rze3Err49OixNIntvd8toPP6+vZ9ueaeXXokzlhjSTNLlYUa0gANu287onT4+GLcd4/pLYmOtvO3l7z0eVrhGJBLJRIMpcC0tLDCYSORj3C8+et6y4XEGQAAAAA6ZnO/0kDiusa9aAAAAAKl8XvppfXW6Jvz6L663V1vppdXWsXpEphBJBK9GS+GCnTcrasiABWVyLE3Fpmms+cvKrvci2JCUyc4Ua5FZ1spc5+hbHLNZs5y7ZS5z9G2MmaZJihUAoVMcTFi8KusONIUaxa6bNrw+xfn1zLs5zz+0MUWxxOe1ey9nzOaYojivD9RiWtEKTPZOz5rUsfQ0rH1Jc5w66Jm5GRWTNIEaibOcGutUbLtw9N6fEpDiXF9RYnKjctvM3ro8rwCCSCWSzOZS8FChaYzCRyKeyZDiutfOlUgyAAAAAHTs532kihqVo5FrAuib4vkrpdTa+ut9NLq631vlrpSu1YWxetqImkSAAAAAl7Nuby6755plliicMWwxYEyrZ5ppCrrkRgWlTSVOcqc5lspts5k5zJynWykznJmtVazIqAARYv5FOmHXSHGkOusONPXvz7zv5XNub2tWx9CswgLpdE6PG2zbz9fz6+Z8vuZ5rhWvRQ33fyNs24KHHeP6SBXUIS7Z9U6/A17Ps0Ln9eiUQKyoZlZlqQq6UMcWI97Xk6n1eDU4vxfTRa3kTXatvP6B0eR4Z5pJJRLJBlLwAWlphI5FJhPKGhXjWLRrVgAAAA9yG65X9jLqjV1hRpDrpCjTX5mmfRfattNk0qmyLViQlntlgprdNbUjIjGlCRasetgAAATMtlDjWqKQulOtlIUmWymTlLtn7V+aiZ1spU5ZUJAVBZDX6dngZ9fm03wrZVfVvhs+vD7F+aoBrWXbzLm9xBMoEbBrydR6vB59z+vp+PpogC+W87+Tu2/mePTo5LyfQ3kucpts/Ez6va05er9fz45Vye/5ld48XkzTFFum9XhRK6c45/aBKIF0x6Nscyvj06d26PL9O2Eyc59sZts6I5TyfQeJn1S7U9W3P1Lr8HxzySQSiWSDMXgAFhiMBFIpPPUNUtGx1mKa1aPCs86UaYoSIn0YezWfSz38bD0dfp2Qa6oTbZwo0FSggEkTkmmWYjxf0LZUifPjWTOd6IVdazFSkJlqQ63CSJzTSXbOZOUu2cyc5tspc5zLZTpzkTTJMUMEWwRbIiValQAACh4WfVzvn9rz6apIAlLPNNi04ui9HjZJgeDn1cr5ffQAHr6c/Wuv57ScPU0TD1RLnOPF7E7lt5vQOjyINdeNcf0uVWxOeaY4sT1vs+c9O2PL+T3fBp1+hbLzq62J6V0+J69+fws+qZOcy2XPuf2PEz6ktl04vCp1R66dP6vB2PXjAFDl/L7uvZdk+2Uu2fV+v57zE+ISCWSiSZTIAAWmMjkYilx75qNo2Ss+bn0815vcm2ykzTPNM80iV1gV1jRpamJF8qPQth5NOn0r4wa6WRIBKYQEqaYlrE+hOMu1PCp05UZJpVMycvUvhkVm2zlzlMtnMnOZbLPNagAAFDxc+nUMvR8LPriRplRhWkznsOnHu+/l+jbGoANby7OZ83u2xJAArISpziV02nbg6R0+LU8um/IeP6MgDPNfV05+q9Xz+oY+lz3m9jNMDClDatuDpHT4uCLcU4vqERlmJE09rTl1rLu3jfyt338vnHN7Xh59eBbBFh0Lo8fcNvOAHNOb29cy7bEy5zh10HRunxds24ABQ5pze3rWXdUlzn2Tt+ZgJ8AkEolkgzGQAAoYjCRiKegTjlusbJVqHB9F5demdOMGNUPQtlEjTKriTatQthMtnEjSkSQmQiKlZTLZVhPtjJtSXOXoWynWykKTrZSbZ3AFqfJp0edXaPFrUzpy9vTllTSoABZE885/Y1PH0AkJk5w41FyJ9st638jZteKoIsX49x/R5UZ5p5lNwBWWVHoWw8mvTInPqPV4Ps354lb8X4vp6oJF0x6VsOu9fzut59vP+f2MMWwLIDYtePqHV4VpxLh+osics13DfzdOw9PGmVOfZOz5rQ8PX1fLvyq1PPjbed/J3nfywBz/m9fV8++LW8m1cUTjid96PJ3XfzAAOec3sall6NqcqvbO75eGa6ZyUSySZi8qAChYYSMRT2ChyHopPqk+f72uZ9syc4kaY4nNNbFpE0iRoJs5Qq6SLUnzlMtlJmkycpts5ds5k5TbZSJoESkCCRUAwRbSMPU1LH0LVsS0qc8cTii2SY2LXh6D0eRKmgFDmvN7esZdyASzKzLZ+bTZKRNJCI0W612fO+jbIaVh6ehYetROdTDFht2/nYIvrGPffNc81ixoiNt287ovT4+OJ4jxfUISJolLnPPNOp9Xg+NTp5fy+9jiQB7OnN1jr+fRHGOP6fFFqom2y8um90qnSunw/NrvouHrEXFpu23mb50eSANOw9Ln3P7EiaR1yBum3mb90eSABofP62k4emEu29vy+OY1gzkolkkzGQqAChYYiORT2iFMcd3rJNq8/2NKw9WsxMnOfbH074ZVZ1ss80nzlLtnKnPLMChUAAA17Pr82m/mV3ixpCrrEjTovT4ux6cYg105Zy+/wCdXZEpipmmuzacOrZd+eaRK6etfn6z1/PXyGuZdnMOb3UACb5rcjFFhWUqc5s5+/px730eUOXcvu69n2IJVLYntPd8xDrpyPj+jF0xalEezpzdY6/nqRPIuT6Pz67C09W3P49OntPb8ziieVcv0FiYtbgehfHsPZ84Ryrk+g8enTjic81wrUhfMezfm2fXg55z+ygCdx383oPR44A0/H0dC5/XyzSLGnp2x82u216+f0bp8YADSsfS0Ln9dCkz2fs+Zz2z1QzkklkkzmQqAAWGIjkU9AlGE8enTy/k9/HFqHYez5v0r4ihUGKJiRpFi8aukSNBjWkKe5pyTbZ1AOa8vt+VXeHXW6YzKxovv/R5G27eeOU8nv8Ah59SSArLcdvN1jLuiV0AHUOvwti046HLuX3fBz7LYXSlzlCjXq/V8/dMcl4/oazNUVKHv6cfUerwRyXj+iHl13vRhi+Wadj7fm70cU4vp0ABImvae75gjnPN7esZd2aaxa6SbZx4v1zr+dkTTjPF9NkmtkWzzTBFpVqdn7fmRzHl93XM+y4tATJnOPF9538nSMPWkTSNF7YbHrxdP6vDAGtZd3O+b2bE4YtfNZ9svRth0/q8MADVMe/nHN7QTPXev5z074agZyUSySZjKVAALDGRyKYT1iSazl2875/Zj10I6v1/P+3pzDn/AD+t4GfbErpHi1ZVJM5xK6JCbOWWY9i/N0To8bJMDTsfS8uu+q49+ea2ROBbfd/J3XfzPMptyDk+jvRUxpyoyTX3tOTWMe4ADdN/M37o8miOP8f0nnU2rKSpFXyI7Z3fLocV4vp8MWAn3ynTj0/q8LLNeR8f0eNMWumJM62UKuvXuz52fbHiXD9RZEgBLtnb8xlmvLeX3vAz60SQB1br8D1r8/E+L6dBL1rYeTTol2y7J2fNXy5ry+3rOfblRgW9K2Pm02vmMhPth5NOjPNbUj3NOTqHV4VQDX8+vlvL71SVOcSNKntX5ur9fz4AGu59nL+X3UEuqdXge7py6kXkolkkzmQuAALTGYCKRTAbQeDn1c15vcixdDp3V4eya8Q5hy+5rmfaLi0EqaRa3GWYxJmzSNFto14Oi9PjVNSx7+e8/s2J9y3LiXgxptevn790eTq+XdzXl9z2dOaPFoVdqo6V0+HsGnHxfi+nwLVKQGw68fUerwqHFeL6bKrFjWqLIm6Xbe35a6Y5Dx/R+ZTcD0L4zJz6F0eP6d8OY8vuRa64FsMWuRBjbrHV897OnNxni+miReRNaojVvfLsHZ83Ptly3k97X6ddxbAJnp3T4WxacXE+L6jHE3Syq4Isl2nt+ZkzTn3P6+tZd+GLYk5EXq4F8yuCLkXSvRiT6Fsew9fzdZkDx6dHJ+T6HKrhWoXHoWx7B2fOAAeLTp5Px/QAdL6vE2bXh1UEklkozGUuAAKGMwEcikU2Y82m/N+b2vIr0Viel9XhbPrxDnPN7Op5ehLmkeLWRISQCZIyo2TXh1rLu7F2/NzJz1PH0Oe8/sY4msqQzTGza8HRenxtRw9HnuHsexbn8+NaQwL9a6/nvWvz8m4/ofHp0SLUwRekPVvz9c7Pnhxfi+muIkXQFJntnb8vmmvMOX3ddz7ciuOJkWpmR0Tp8XYNOTl3J73lV3h11lWykzW2J37o8fYteLkXH9H5dOiVNJdsvMrvnmnUOrwfZvz815fb1fLuvlYIDovT422befyjk+g8anTcibOcCNaRPYOz5v0r46Lh6ukYepUvRii2Wa2pqjHEhLMrhi2aa9r7vl6pA8+uvMuX3ao8mnQkJM07T2/MgAefXXjnF9JUS6H0ePt+3nawYiSSyUZzKXAAFCwxEcikU2AwxpyLj+iixcb5v5O7b+YNFw9TUsfRiV0AEm1JE086m5F8xt+3nazl3Q406b0+HsuvFq2Pdzbm9sAE7HrxdO6fC1PLv0Ln9jYdOPxqdMKNKJ6b1eFsenHzTl9vWMu8iXbMn2L8vTurwxyXj+hiRplmsat469E9j7PmvQtlz/n9fT8fSyq4ItdK5HRenxtp14OZ8vt+Bn2YIsBdLovR4u17cHKeT3/Dp1SkJjBFsqvSerxNh04+e8/safj6V6L1cMWG+dHlbrv5XKuT6Dx6dNqaoqY09Y6/n/avzaZj6Wgc/r3ozTWNFwMqMSUABWXbe35fJMAYItxTh+nrKkAlejtnd8veACPFuK8X06A3ro8reN/L1sjEklkokGUuAABYYzARiKe0ZIniXF9Pakbpt5u/dHkDSsPT0Ln9cgBM7jt5nQOjyOZcvua7n20PVtz+RXpuRvu/kbpv5uvZ9fLuT3hdK1JHt35erdfga3l28z5vclTngi9pImvvX5Oj9XieXXekTMtlJUumCalDkPH9F5ld7i0yosT1fq+e9nTn0Dn9fS8PTlWzxxOJYdC6PH3Dbzuec3sahj6RABO/dHkbpv5nMeX3PCp15lbFo8WHR+nxdp14NNx9LRuf1Y68uc4sXQ3Pfzd+6PI5Zye94tOrHE3SuQOo9Xg+7py6tj3c75/ZzTEStx6d8fMrsgAAKJ7R3fMS5oBbDiXF9RamkCZ98YFde1dvzEiagCkOIcX1FsSluO3m9B6PI18hEglkszmUvAABQxmEjEU9QknFeH6fBFhtm3n9G6fGGsZd3POf2I9dCAmd028vfejydMw9PRsPVxJyIxpJ3HbzOg9HkePTo5LyfQoJTJzwRedbHr3Z855lOjkHJ9HnVyzWyJwrUPbvyb50eV7N+WqQAKHKeT3/ABM+pITJphiem9Xh+/pyadj6WsZdsqaehbHPNJts/bvyz7ZaJh6ul4enZE1kLU7tt5e+9Hk865vZ1PL0Jk5xouMqOg9Hj7Rtwadj6OpY+j5dejIrRNidq18/o/T4vNOX29Zz70QKyqjovT42168Gu5dnL+X3aypAe3py2p8bPpAABPXuz5z1L4ADjvH9JCrpZFpVssUXwxbsfb816FsgBQ4xxfTRa3S2nXg6R0+L4Z55IJZKJBlLwAAULDERyIegSzjvF9JBjWhsenF0/q8Ma1l2855vawRbNMYYmstn14Ok9Pi6vj3c55/btBUtTs+vB0rp8SBXXjnF9LVArISZp2ft+Zoca4vpcMXqiRNYMa1RkRiTsWnFvfR5XqWwqADmXL7mt59tsTVEu1I8W6L0+LtWvCAAABpuHpaLh6uGLJnNNL0bJpw9E6fH0Pn9bSsPTulciTNIcabrt5e+dHlavj3c45/aqnEVENi14+n9Phc85/Y1HH0QAN+6PJ3TfzPEz6eUcn0AA9O+G4bedzzm9gJmfOMCuxCXVurwPc05QByHj+igV2kTSJGlqR1nr+d9m/OAKI5Bx/SebTYn39ePqXT4Pjy8okEslEgzF4AABYYiORSWTjlfJ7/kU6LU+xfm6r1+BU8PPq5Tye+l6dsfMrtMmnv6cfRunxddy7OZcvu+nfDyqdEm2caL+9fk6n1eDhW4nxfUViAM01sT23t+YumNHw9TWsu7y67+jbKLW8iaefXUXSobht5m+b+VlmAOc83s6vl3zbZedTf1783kV6Og9Hkbjt5oAAAGr5d3N+b27YC6VyNg04+m9XhaZh6mg4etlRjTImkaL7nt5m/9Hk6/n18u5fepC6VoifZ05esdfz+i8/q6Rj6iAA3XfzN96PJ82m3HuT6OsEyiJdqde7Pm+M8X01kTlmMaaJRA6d1eHsmvEBQ5dy+759d4ddMcWIHUevwth04wBQ5RyfQeLn0k+tfm632fPeYeISCWSyQZTIAAAWmIjkUknoHMuX3I0aeNTp9O/P1vr+eqeZTbkHJ9GJk0hxe9Gw6cnTerwvJp0cr5PoKGGJkTW+YlTn1zs+docT4fqMcSAKTPbO35fPNcUTzLm93X8+u8tKlsAAl6lsOodXhTrZDQuf1tKx9OXNIsXyK2rbrv5e9b+UAAKAqa9n18w5fetgEzmU9a/P1Xq8DVMvQ0rH06Qxr5pp51dt238vet/K8mm/JOT6IVJs5wa6ejfHsPZ85pmHpaBz+uAEztuvndE6fGjVvxfj+mqevbm8evTejtvb8vzTm9vWsu7NNfRtj5FehCbbPed/J2zbgApDm/P7WvZ9uZQQY2I6T0+LtOvAAKHMeX3dcy7EtgvydR6/BgHgEglEskGYyAAAFpiMBFMp6Zzvm9jyKdXkV39O2HXuz5yqYtb8Z4/pSZ04+fG4mzn2Tt+ZgV149x/SXosSMyM859j7fm6nGOL6WJXQAUT2Pt+a9C2QwxOg8/r6jl6KJIAAA9G+PXOv53LMaVh6ehYetcUKlsTuu/l770eTiifKr0RK6RY0sT41OnKr0Xp8bx6dHJuT6FAAenfDr3Z87rufZzHl92hkRamh7+nJ1Hp8GJF+McX090xImlIR4vKtTs/b8zrGXdzXm9sIAnZ9eDpXV4lIcQ4vqaJCCXa+35fw6dXMOX3aklSKugN/6PI3PfzQBzrm9nUsvRFyKEyc9z28zct/NAA5vzezrufbamp2rt+YhGvGclEskmYyAAAFpjMBFLj1TSsPU8SnVr2fXlmvaez5m+YtOJ8P1FyErYnGm5Ha+35jGtxbi+nqjPNI8aEZle19vzFZcg4/ovMpuAEz1rr+d9i/OBQ8anRqGPparl31gPSvj5tNgEug9Hj7jt52p4+hznm9kBJE7RrwdJ6vE8ym/IeT6IXFoTOnHsfb83Arrxzi+lqgASrZ9n7fmvGz6eT8v0CCUmaZ5pKmnV+v5+yHE+L6m2JyTWTNIVdLpdu7flvDp1aFh68KusWt6yvRsGnH03q8Opx3i+khRpZEih2Pt+bmzlxnj+mjRpVFICsty283f+jyABoXP62lYemmRcj0bY7Jpw730eUABqOHo6Fj62CL1R23t+XwzGsmclEskmYygAAFDEYCMD1jS8PT03H0osaXo7L2/MyJqOO8f0nn02umLE5VfRtj1Hr8GSz5LyfQxo1hxcn0rYebTbtvd8vlmOU8nv+Hn1AJVOodXhbDpxgAUNWx7tCw9fCtIVhRqiAT7enL1br+f1zPs5jye6BPvjbE+hbLqnX4EWunF+P6WpMnPPNPMpvMtn2Xt+axxPJeT6GNGkWulZihkR2zt+X86u3IOP6QisqCHr35+tdnz1TjPF9LDromZc5xK3ons3b8z5ld+Z8vuXojNLlchsWvD0np8Wpy3l97z66x40wRbIr1vs+e9K2PPuf19Ow9IADa9vP6N0+NUA0vD0tEw9aibYZJjJMbPpwdD6fHAA1THv57h7NsTjT2ns+YyWpqhIJJMJBnMoAABQxmAjGM9k1HH0NHw9W9EKNev9fzfo3yHHeP6Tz66oJZ1ckx1Lq8D1L4cf4vo4EbVRkmMysGuvaO35mXbPmHL7muZdoGe1fQtjuGvm7XtwUALYmJF4Ua+hbHQef1/Fp1VRFrrhiUs817T2fMePTp5PyfQkAXS9S3P1vs+etTxDh+oRN0xInOLXTJMdu7vl6HKeT3/Fz6qE22cONLYntfd8vji3GOL6asvVtzeVXpHsX5es9fz9TmHL7muZdtZUEBum/mRY01bLv2TXh8PLrulEjToPR4+47eaOZ8vt+NTpiRr7V+XxKdXUOnwth14/Hp0ck5PoagQS2LTj6f1eDVIGqY9/OOf2p85QI1zKypp7+vH0Po8cADU8e/Q8PXthHjTr3Z856F8NSM5KJRKMxmAAAKGMwkYwHtmt5dvNuf25s5Q66dS6vB9rTmHMOX3INdvKp0EBLqvV4Pu6cnK+T3vBz7Lpi9HoWxwRbp/V4Xq3w55zexrGXfHi1ZUCegdHjblt52s5duk4epEjWLF5U5w417D1/N+hfHkvH9DArtUjxcSrZ9a6/nRxri+mumMqMMWTEyc+y9vzVTjPF9LDroCSMkx23u+Xqcq5PfiRpArtcjElE9Z7PnpM58c4vpaku2VCidg04+kdPi1NLx9LQef10AAkTsunBGjTw8+onPNOxdvzUmajn/P63gZ9kWNPSth49Ono/T4u0a8NDkXH9F5td8quBe5Ht35eqdXgVkB51dfEz6p1spU0nWxyTFUVSABrmXZzDm92pSHWuz57178+omUkkskmczAAAFDGYSMRz2zxqdPMuX3cEWn2y6F0eN7unKOW8nva/TruLYBLpnT4mza8PLeX3dfy7BdKqM016d0+F7enNoXP62n4+liiZ1soMaobtv5e+dHlaxl3aJh6vn13RF0rTq/V8/7enNzvm9jUcvRnTleiPGmBbq/X8969+fifD9Ran1Lc/nRvdEWnau35i+XFuH6aNFwBKtTs/b8zU0/H0dZy7vDp1ZUS7ZefXb1rc98x42fUmPTtgT5tduo9Xg7BpyDFE8k5PovNptWVyLFrkWk+crpjz67VR0jp8XaNeEDR8PU0XD1pc50JE03/AKPH2HTkGvZ9fn129O2GWazZzkzS+YAAAAAoR4tErrCjSJXTxadWp4+gEz1Pq8D39OTUi4kkwkmczAAAAxmEjEU9s82m/KOT6AUOl9Ph7DryDmvL7er59wQlWpcjdt/L3DbzuXcvu69l2CsqRKY6f1eFsenHpmHpaBz+ulKmlyLE7Npw9D6fH1zLs5hze8iAEun9PhbHrx6Xh6Wu59tUeFTrQS6p1eD72nJyXj+g8qvRPtlBrran0Jy6J0+LNtjx7j+lsgTVF0vbvydU6/Aqnza7cq5PfiV0vlKnOFXWhWSIul6dufzq7+zfl6l1+DeAQK6cx5vejV0lTn5NejKriWzKWJzzToPR4+z68QA8inRHi8ycpls801qAAEEgUKlsIkaQ41h10hRpDrrDjSVNPBz64FdamaYixbIUJs5ebGyJ632fO+vfn1EvJJLJRnMwAAAMZhI5EPZMFdOL8X00mc8a3Renxdp14Rz7n9fVsfQyTXEtZE4071v5W8b+XzXm9rV8e8An3NOTed/K93Tl1PHv5zze0l61sCPLr0bRrwdI6fF8qm/IeT6KsBWVToHR4237efpWHp6Vj6no2w8enTUonq3V8/7mnLoXP6vh07IkXjVvLtTHExY0Fp7N+bz67XFpvm/kbZtwVKGl4enoWHr5lcquS1MyPLrvROdTPNLE9V6/A9K2IAFsNez7fGp0+HTpwxe9Ho3x2XTh97TkzzUAAAUABii0SNIVdIVdYcaw66Q40hxrDrphi+NNAlEDJMXIxrWwSyI9O2GFbzqbTLZ2rTJx6v1/P2TGqmckkslGczAAAAxmIjEU9YrE8S4fqBkmNx283fejyRo+HqaNh6s2c4MaIE7jv5nQejyOdc3s6pl6FsSmET6V8N638nZteLW8uzmPN7tE+1fl8uu8uc/avy9H6fGtieKcX0+OJEi1ZKkm2e67+Xz/AJ/Yi10sTaEkdl7Pmpts/OrryXj+iyzWHGuVWZOWJaHXVMEj2b8vuX5N738q6QFDUMfR0rD1I8WuMCyCUqae/px790eRLmgAAAoAAVBQRFqY0XixpDrrHW8ynRDjSJXSHGsSumCLUmaoQACZCIulbATrZQY1QzTXEtSFZXIJkTnHi+VF0xu+/lbjt53jnjGYlEolGczAAAAsMJHIp6RIOJ8P0+KLVltevndF6fHqafj6OnY+lJmkOukGNUNp24Ok9Pi6Th6eq5eh5ld86uFaRNN128vdd/M8TPp5Ry/QIn0LYefG0iaelbHrHX8/Q5jy+5rufbSGSY9CcvMjaXOcOuiWQxpobDpxdR6vBqmhqOPo6Dz+viiSSLpjIiVNIEa2m+7+Tue/m3oAAGKJ17Ps8unRYnPNPRth7mnNImlQAAADDExa6Qo1h10hxrDjWLW8ONINdosaY0zpyvmsOuuOJTOdTBFgAAAJ1ssa0aL0BmVqYIsEghSZuRKmnp25/TvhanZtOH3dOXGaoUM5JJZJMxmAAABYYiORSeSjjvF9JArqNk14um9Xh1NYy7ebc3uUL0WJzzX0bYbPrw6jj6N6PLrvJmkWNB0Lfxtw386FXTjvH9LZAkgTLZ9m7fmh4lOnl/L7uCL+hOVEwI0zIsMaamea1R1Xq8D1b4AUR4WfXo+Hq+JTqpEjLNPavzXS23bzdj046gAAAAFCsEqEeLwq6Q41h10hxpDrrDjSHXWHGkeL3FsEpU5xa6DNNcMXIulUqjNNY8XGVXBFgAAEyiMsxJnONGiWdSXbO9Eycpk5zLZzJymWymWzlznlmAALDWiGZjOSiUSTKZQAAAWGIwEUlk2HKeX6DxM+pMe3fl6t1+BU8DPq5ZyfQEJImdbGJGtD39OTzKbw40yTXMrDjTpfT4mz68MeLcc4/pcFbAJZVe2d3zFShquPfoGHsZUelbDwqdVUS5pBjQbHpxb9v5Po3xAAFDBFoNdscTnmk+2V8xUAFADHExY0h10hxrDrpCjWHXSHGkSusSNMcWTBKBATPr35vJp0UEBmmtTBFgAEyRIV9K2MZeNF8MWtglSJqjPNZlspk5zLZTbZ+pbnkzTPNZlspClZgmoAAKAxmEwkU8oxGQzEglEkkGQyAAAAtMRHIpKJ0Obc3uaxn23on2x692fO1PKpvyLk+iCAkWqiMC8qc5E182u2ZWTNcR2Hs+bzTFsTxzj+kwRbDFglmR2ft+YyzAoRYvrWXd5ld/Jp0CZOc+2Oy68PsX56gAAAAoEYIvFjSJXSBG0OumCLebXeNGkKusWL2xNRMBAAAAABKVNL1cUXvmtImko1bgCsqFIm+a+9pyS5zwReZbOZOU2cpls5tspU55ZqESlUAFCpaYjAYjCYTCYjCYy0FQXFxkM5IJJJMxkLgAAAWmIwEUzHonOub2daz7sUWkzn2bt+ZqmHXTjXF9NkmmWaxa6SbUjVumfQnGJGlSqPTvh0Po8b1b4Acp5PeyzEycpls5k5S7Z+/pyXgAoAAVAALCJXSHGsOukSNIddYcaQq6x4vZEwI2uRLmkCNBmmqJxpzzSNW4AAAAAACVTYNOTDFvIp05ppjTLnOZOUy2cy2Uyc5s5zLZTZzkTS+YoVAAAKGMxGEwmIwGIwmIxgFQCoKgqVBUuLzKZzOSDOZS8qAAAC0xkcjFx6pz/n9fxadPm13mTl1/s+dqYoniXD9QlejGn1rYQq6yZpNtj6V8fQth61uf2tOa4AAAAAFAVKGKLRI0g10h11hxpDrrDjSHXWHGkWNLYVmfQnDz43mTlgi2Ja4uRdMZERovejGtJnPBFxQpAAAEggmhdMSZpNnKZbKZOc22XqWwzTSZbOdbK4AAAAFphMRhMJiMJiMJiLQVAKgFQVKgqCpUFSpUqVLzIZTMZzMZDIXAAAAFpjMBGKHrmk4epo2HqTZzixp2Xt+ZzzWhpeHpypzn2xkzSZbPNNQKgAAoAChGrpCjSHXWHGkSukONLk+JTph11vmseL0L0ZJjBW5AAAulamRNLYnEmhMnPPNfLpvWYvRcYkiplRhixGWay7ZzJzl2ymznMtnNnKXbObOUmaXzUmoAABQsMRhMJhMRhMJiMZQFQCoKgqCpUFQVKlQVKlSpUqVKlSpcVLy8ymUymQvLioAAABQxGEjGM9k1bLv5zzezkRSZ691/OTrZAAAAURROOJiRpDrrDjSHXWFXSHGsWNI0WxxeFGl6LE3IkTGCLTJzhRpNnKBGoQF0rYkgAAJSFcC1E55ohmmsOuku2cqaES7ZzZymWzmTnMtnMnKZbLOqkglUAFAUMZhMRhMZgMJGLC0AqCoBUFSoKgqVBUqVKlQVKlSpcCpcVKlSpcC4qVLi4vLy8yFxcVAAAABQxmEjGA9s1nLt0TD1oFdqHXOv531b4WkeLw66Q66wo0iRrDrpGi+KL3zXX8+yQrGWRJCQRJCSBKYlznZFsab0R1sqMcSAAmUQATSWRWXOcy2cuc5lsvTthmms+2MuaS5zvmBQqAAAWGEwmIwmExGEwmMoVABUFQVBUFSoKlSoKlSpUqVKlSpUqVKlxUqVKlS4qVKlSpUqVKlSpUuLi4uKlQAAAAChjMJGI57h5VN+Z8vux4vlmuSa44mJGmNa9FsLpWgzK7Ptwarj6FixCAAAAAASCJTAomqJE0mTnMnOZbKZOcy2Uy2cuc5tss6l8gAAKFShjMJhMJiMJhMRhLAVABUFSoBUFSpUFSpUFSpUqVKlSpUuKlSpUqXFSpUqVKlSpUqVKlSoKlSoKlQVKlSpUqAAAAAAULDCRiKe0YYtyDi+lyzTDF40XIAF8xejCtnQmJU5+bTe6YApAAEkE0L5iVOc22Uyc5lspk5zLZzJymWylznlmpNQAAAWmIwmEwmEwmIwmIoCoBUAqVBUFSoKlQVKlQXAqVLipUqVKlS4qVKlSpUuKlSpUqCpUqVKgqVKgqCoKlQCoKgFQAAAAAAADGYiMRT0SUcs5PewRoRBjWNW4CZ9W3OPNrsMa2VWxNIm6a5ZiZOUuc5ds5k5zbZTJymWzmzlIml0ghWQAoVKGMwmIwmIwmEwmIxgFQCoKgqCpUFQVKlSoKlSpUqVKlSpUqXFSpUqXFSpUqVKlSpUqVKlQVKlQVBUqCoKgFQVABUAAAAAAAAAAAAsMRHIhkPWPHp0ct5PfwRbJMY4nLMYYtmmvqXxyKSZzl2zlTnNtnLnOZOU62WSYqUKgAAFpiMJiMJhMJhMRhKAqCoAKgqVBUFSpUFSpUqVBUqXAuKlSpUqVLipUqVKlS4FwLgVKlQVKlSoKlQCoKgqAVAKgAAAAAAAAAAAAAAAAFhjI5FIx7JJPPrrrWXdeibbKdbKVOcq2d4AAAAMZiMBiMJhMRhMJYUBUAqCoKgqCpUFSpUFSpUqVKlSpUqVKlxUqVKlS4FxUqVKlSpUqVBUqVKgqCpUFQVBUAqAVAAAAAAAAAAAAAAAAAAAAAALTGYSKRTEe4SQAUKgtMRiMJhMRhMJhMRaCoBUAqCpUFQVKgqVKlSoKlSpUqVKlS4qVKlxUqVKlSpUqVKlSpUqVKgqVBUFSoKgqCoKgAFQAAAAAAAAAAAAAAAAAAAAAAAAAChjMRHIpGMJLJJaYTCYTCYgCoBUFQVBUqAVKlQVKlSpUqVKlSpUqVLipUqVKlS4qVKlSpUqVKgqVKlQVKgqVBUFQVAKgAqAAAAAAAAAAAAAAAAAAAAAAAAAAAAAAAULTGYCORiOYTGWlAVAKgqVBUFSpUqVBUqVKlSpUqXFSpUqVLipUqVKlSpUqVKlSpUFSpUqCoKgqCoKgFQCoAAAAAAAAAAAAAAAAAAAAAAAAAAAAAAAAAAAALSwxGEjGAwmItKAFQVKlSpUqVKlSpUqVKlSpcVKlSpUqXFSpUqVKgqVKlQVKgqCpUFQVAKgFQAAAAAAAAAAAAAAAAAAAAAAAAAAAAAAAAAAAAAAAAAULSwxGAwmExlhQAqVKlSpcVKlSpcVKlSpUqVKlSpUqVKlQVBUqVBUFQVBUAqACoAAAAAAAAAAAAAAAAAAAAAAAAAAAAAAAAAAAAAAAAAAAAABQtLDEYzEYy0tBUqVKlSpcVKlSpUqVBUqVKgqCpUFQVBUFQVAAKgAAAAAAAAAAAAAAAAAAAAAAAAAAAAAAAAAAAAAAAAAAAAAAAAAAFC0sLCwtLSgKgqVKlSpUFSoKgqVBUFQVAKgFQAAAAAAAAAAAAAAAAAAAAAAAAAAAAAAAAAAAAAAAAAAAAAAAAAAAAAAAAChQtKFpQoAVBUqCoKlQCoBUAqAAAAAAAAAAAAAAAAAAAAAAAAAAAAAAAAAAAAAAAAAAAAAAAAAAAAAAAAAAAAAAChQoAAAVAKgFQAAAAAAAAAAAAAAAAAAAAAAAAAAAAAAAAAAAAAAAAAAAAAAAAAAAAAAAAAAAAAAAAAAAAAAAAAAAAAAAAAAAAAAAAAAAAAAAAAAAAAAAAAAAAAAAAAAAAAAAAAAAAAAAAAAAAAAAAAAAAAAAAAAAAAAAAAAAAAAAAAAAAAAAAAAAAAAAAAAAAAAAAAAAAAAAAAAAAAAAAAAAAAAAAAAAAAAAAAAAAAAAAAAAAAAAAAAAAAAAAAAAAAAAAAAAAAAAAAAAAAAAAAAAAAAAAAAAAAAAAAAAAAAAAAAAAAAAAAAAAAAAAAAAAAAAAAAAAAAAAAAAAAAAAAAAAAAAAAAAAAAAAAAAAAAAAAAAAAAAAAAAAAAAAAAAAAAAAAAAAAAAAAAAAAAAAAAAAAAAAAAAAAAAAAAAAAAAAAAAAAAAAAAAAAAAAAAAAAAAAAAAAAAAAAAAAAAAAAAAAAAAAAAAAAAAAAAAAAAAAAAAAAAAAAAAAAAAAAAAAAAAAAAAAAAAAAAAAAAAAAAAAAAAAAAAAAAAAAAAAAAAAAAAAAAAAAAAAAAAAAAAAAAAAAAAAAAAAAAAAAAAAAAAAAAAAAAAAAAAAAAAAAAAAAAAAAAAAAAAAAAAAAAAAAAAAAAAAAAAAAAAAAAAAAAAAAAAAAAAAAAAAAAAAAAAAAAAAAAAAAAAAAAAAAAAAAAAAAAAAAAAAAAAAAAAAAAAAAAAAAAAAAAAAAAAAAAAAAAAAAAAAAAAAAAAAAAAAAAAAAAAAAAAAAAAAAAAAAAAAAAAAAAAAAAAAAAAAAAAAAAAAAAAAAAAAAAAAAAAAAAAAAAAAAAAAAAAAAAAAAAAAAAAAAAAAAAAAAAAAAAAAAAAAAAAAAAAAAAAAAAAAAAAAAAAAAAAAAAAAAAAAAAAAAAAAAAAAAAAAAAAAAAAAAAAAAAAAAAAAAAAAAAAAAAAAAAAAAAAAAAAAAAAAAAAAAAAAAAAAAAAAAAAAAAAAAAAAAAAAAAAAAAAAAAAAAAAAAAAAAAAAAAAAAAAAAAAAAAAAAAAAAAAAAAAAAAAAAAAAAAAAAAAAAAAAAAAAAAAAAAAAAAAAAAAAAAAAAAAAAAAAAAAAAAAAAAAAAAAAAAAAAAAAAAAAAAAAAAAAAAAAAAAAAAAAAAAAAAAAAAAAAAAAAAAAAAAAAAAAAAAAAAAAAAAAAAAAAAAAAAAAAAAAAAAAAAAAAAAAAAAAAAAAAAAAAAAAAAAAAAAAAAAAAAAAAAAAAAAAAAAAAAAAAAAAAAAAAAAAAAAAAAAAAAAAAAAAAAAAAAAAAAAAAAAAAAAAAAAAAAAAAAAAAAAAAAAAAAAAAAAAAAAAAAAAAAAAAAAAAAAAAAAAAAAAAAAAAAAAAAAAAAAAAAAAAAAAAAAAAAAAAAAAAAAAAAAAAAAAAAAAAAAAAAAAAAAAAAAAAAAAAAAAAAAAAAAAAAAAAAAAAAAAAAAAAAAAAAAAAAAAAAAAAAAAAAAAAAAAAAAAAAAAAAAAAAAAAAAAAAAAAAAAAAAAAAAAAAAAAAAAAAAAAAAAAAAAAAAAAAAAAAAAAAAAAAAAAAAAAAAAAAAAAAAAAAAAAAAAAAAAAAAAAAAAAAAAAAAAAAAAAAAAAAAAAAAAAAAAAAAAAAAAAAAAAAAAAAAAAAAAAAAAAAAAAAAAAAAAAAAAAAAAAAAAAAAAAAAAAAAAAAAAAAAAAAAAAAAAAAAAAAAAAAAAAAAAAAAAAAAAAAAAAAAAAAAAAAAAAAAAAAAAAAAAAAAAAAAAAAAAAAAAAAAAAAAAAAAAAAAAAAAAAAAAAAAAAAAAAAAAAAAAAAAAAAAAAAAAAAAAAAAAAAAAAAAAAAAAAAAAAAAAAAAAAAAAAAAAAAAAAAAAAAAAAAAAAAAAAAAAAAAAAAAAAAAAAAAAAAAAAAAAAAAAAAAAAAAAAAAAAAAAAAAAAAAAAAAAAAAAAAAAAAAAAAAAAAAAAAAAAAAAAAAAAAAAAAAAAAAAAAAAAAAAAAAAAAAAAAAAAAAAAAAAAAAAAAAAAAAAAAAAAAAAAAAAAAAAAAAAAAAAAAAAAAAAAAAAAAAAAAAAAAAAAAAAAAAAAAAAAAAAAAAAAAAAAAAAAAAAAAAAAAAAAAAAAAAAAAAAAAAAAAAAAAAAAAAf/8QANhAAAAUDBAECBAUFAQEAAwEAAAECAwQFERIGEBMgIRQwIiMxMxUWJDRQJTJAQWA1QiZwsMD/2gAIAQEAAQUC/wD579xcXFxcXFxcXFxcXFxcXFxcXFxcXFxcXFxcXFxcXFxcXFxcXFxcXFxcXFxcXFxcXFxcXFxcXFxcXFxcXFxcXFxcXFxcXFxcXFxcXFxcXFxcXFxcXFxcXFxf+auLi4uLi4uLi4uLi4uLi4uLi4uLi4uLi4uLi4uLi4uLi4uLi4uLi4uLi4uLi4uLi4uLi4uLi4uLi4uLi4uLi4uLi4uLi4uLi4uLi4uLi4uLi4uLi4uLi4uLi4uLi4uLi4v/ACtxffyPI8jyPI8jyPI8jyPI8jyPI8jyPI8jyPI8jyPI8jyPI8jyPI8jyPI8jyPI8jyPI8jyPI8jyPI8jyPI8jyPI8jyPI8jyPI8jyPI8jyPI8jyPI8jyPI8jyPI8jyPI8jyPI8jyPI8jyPI8jyPI8jyPI8i4uLi4uL/AMiZgiMwSS/58yIwtsXBGCMF/HmYSm/S5C5C5C5C5C5C5C5C5C5C5C5C5C5C5C5C5C5C5C5C5C5C5C5C5C5C5C5C5C5C5C5C5C5C5C5C5C5C5C5C5C5C5C5C5C5C5C5C5C5C5C5C5C5C5C5C5C5C5C5C5C5C5C5C5C5C5C5C5C5C5C5C5C5C5C5C5C5C5C5C5C5C5C5C5C5C5C5C5C5C5C5C+76ARgjBGC/jTCSyMKMklUdQeXpT7x5rGaxmsZrGaxmsZrGaxmsZrGaxmsZrGaxmsZrGaxmsZrGaxmsZrGaxmsZrGaxmsZrGaxmsZrGaxmsZrGaxmsZrGaxmsZrGaxmsZrGaxmsZrGaxmsZrGaxmsZrGaxmsZrGaxmsZrGaxmsZrGaxmsZrGaxmsZrGaxmsZrGaxmsZrGaxmsZrGaxmsZrGaxmsZrGaxmsZrGaxmsZrGaxmsZrGagTiyECtSIyo7yJDIWWCyMEYIF/FmDDZWSNQ1I3nP+g0rJMnhNLyRhJhIIF/EmDH1MVqV6Wn/APQ0I7VYTv7CCQkEC/iTBhn+8atd8/8AQ6cbzqoqB+CCQkJBAv4gwoMbajc5Kp/0Okm7vCefzSCQkJBAv4cwYUGPtiY5yy+saBJkhvTslQLTSgrTSw9QZjYeacZV/wAtpVvGniQrJ8gkJCQQL+HMGFBJWTOc4ofSDCemuQKNHjdn2W30VaiGwWzac3CiRyL0kcekjj0kcekjj0kcekjj0kcekjj0kcekjh5iO2yZimwmUwfSRx6Vgekjj0kcamQ0zBFGhtfhvpI49JHHpI49JHGom2WaaKS1zVH0kceljj0scekjj0kcHCjGDp0MwujQVB3TsZQm0OTHLppaOh0/SRx6SOPSxx6WOPSRx6SOPSRx6SONSNss08aYYS9M9JHHpI49KwPSRxqJtLVS2oERr8M9JHHpI49JHFSaYZgf6gw2Uw/SRx6SOPSRx6SOPSRx6SOPSRx6SOPSRx6SOPSxxKUS5W1Fb4qWfgGd1EEhISCBfw5hQLysalcwpm9LgLnvxmG4zXsaip5RnhR2+Sp+3W3OOltpycQWKemrnPmF5NhHGz01a58A0u3lUfartJS+jfSreNP9jVzm2kW/ldNVJtP2gI4oW+pl4UthHI+XgvalL44312SnJTScG5B2ZIEEhISCBfw5gwz9wauc3abU65ToiYcX2auzz04aXbyqPt6qXjAo7fJU+upV51Smo5Z/XVLmVQGkW/g9uvRfTVDaiN8dL9jVDmVRGmm8KX01cXzxHRySC8dNXOfBQm+Sqe3X3OOlbUlvlqQnnZkgQSEhIL+HMGFCPtqZzOp7aWjZyPad+0Q0i38Pt6uc+ZpdvKpdam5y1DTaM6r1rS+SqDTKMKX7erW/lgiyNlODXsVdzlqQpzfFB6auT8IoTfJVemqXMqhpRvKd7erHLRNtLt5VEVE/JAgkJCQX8OYMKDBWQKg5yztqGxwU3pWKqUEUmtuSJfR7wyQ0wjGme3qRzOqaRb8dHlYNGeR6Sb+b0Udkur5HRS2+Kn9DURd9WfsBTW+WoewtWKFqzWwjkfLwXTVibxBpRvKb0rS+SqaSR8n29WOXk7aRb+ETju+QIJCQQL+HMGFBJWTMc4ou0ZvmkJKxbqOxTXzkyqInKqdKirCCKZUYbED8Xgj8XgiM+3Jb6OuJab/F4I/GII/F4InO88zTCMaZ0rTnHSxpVvGB0qbnFTw0nN1JWT01a582nTXYkgvp01ar9ONNIzqnVdVhIX+MQR+LwRUKtFVCFDb5Kr11QV6YNJN2j7mdidXm7QZ0SLA/GII/F4Iiy2ZRdFGSU/i8Efi8Efi8EVuQiVUNtNN4UsPHd4gkJCQQL+HMGC8qGonOOl7acb5Kp0qrnFThphGVT6agXhSulBb46V01KvCl9KS3x07pqlzGnCht8dL6amcwpYoyOSp9dSOZ1VosnElZPTVq/njSLfzOijxS4rJzppVvKd11Em9KGnG8KVvU3OKn9NLN407pVnOKm9qc3xQVnZIIJCQkEC/hzBhny4NWufL20i383pqQ7UoaRb89NVuWhdIyOOP01a58rdtObiCxT01a58drhhODHTVrnwDSzeVR61FfLPpSOSo9dSryqg0q3jA6VVzip3XSLfyetaLKliA3xQt9TOYUvpRW+OmdNULxpnWOjkkEVhLOzBAgkJCQQL+GMGFCPtqdzOo7aTTaF01A3yUoUGoRYcT8cgj8cgj8cgj8cgjUM5qYveA3yzeuqnMp+9HRyVPrqVzOqU5vlnddUuZVAaRb+Ho8vjZM7nplGVT61VfJURRG+OmdNTuYUzrptGFL6z05QoqOV/pq1z5e5FkbScGumrl+OtBb5KqKgfyyBBISEgv4cwYUGCsgVNzlqG2mCtS+iiJSavT1QX/Z04jOq9a25yVTfS6Mqj1qbnJUNNozqnWsuclUGmW8KZ0rbnHSxpFv4ui1YoWeSyLI2U4NdNXOeOtOb4oPV8rsUJvKq9NUuZVDemN8tQ66ocyqXXSbd5YqB/MIEEhIIF/DmDCgjwmQviYvffTJ/wBK6yo7clmp09yC77Gkm7yOh+CfXyP76Rb8dHVYNGdz0i383oo8SdVm6KW3xU/pqpzGANLN40/pVnOKnCmt8s/rqheVR6MI5HyKxdT+mmW/6n0rTnJVN9Mt51PrV3OSpddJt2iCWd5BBISEggX8OYMfVQ1A5x0rfSa7wu0hhuQ1VaeuA930o3aF0qLnFB6aYbxpvStOcdLGlG8YPSpucUANJzdSWKemrl/NFGb4qZ01O5jTRppvOqdXqdFfc/CYI/CYI1HFixYwobfJVO9AZwd3UeKXVZu76RR8fRasULVkvrQG+OlBR5LIJCQkEC/hzCg15cGrXLMb6Wf45veXHblMVCG5CkdqC3x0vpqVeFK6Upvip/TVTmNPFDb46X01M5hTBRm+Sp9dSLzqiSuppODfTVzm2kW/mexq1y8gaVbyn94jPD0qbnFA6aVbxp/SqucVO7RkcUd08WiBBISEggX8MYMKEf6jVLmU/dpxTTkCUiZG71WEmdGcQptzpa4jI44/TVznyt205uITijpq5z4yK5sI42emrnPgGlm8qh1qLnLOpaOSo9dTryqQ0qjGn+xqJzOqjSSPle3qVzCmdKK3x0zpqdzGm9ac3yzxOVZggQSEhIIF/DGDCgwXwCrOctR6UioHBkNrS4331TDsfSC3yzeuqnMp+9Hb5Kl11K5nVKcjkn9dUuZVAaRb+Do+rBm9z0y3nVOtWc5akKI3x0v2JrnLMGm28KX7ernPg3SVzaRxt9NXOdtNt51QVE/BAgkJCQX8OYMKCCsh5WDRnkfWh1T0a0mSi7VBkpELpp1vOq9a25yVTfS7eVR61JzlqGm286p1rLnJUxplGFL6VxzjpY0i38XRZ4oWrNZFc2UcbXeSvjj/AF2pzfFB3v7GqXMqhvS0clQ66oXlUuukm/jE87vEEhISCBfw5gx/sV1zipfeg1X06i7yE4yN9JN3f6GdifVm9vpFvx0eVg0Z5HpFu7vRR2S6vkdFLb4qf01U5jAGlm8ad0q7nHTRTG+WodZ1ZYhyPzHHH5jjCoV1mRDDCOR4isW8p3Gpd605yVTfTLedU61dzkqfXS7eNOEg8nyCQkJBAv4YwYMN+XBqxy0X2NPVS3ef++30m3aF0qLnFB6aYbxpnStOcdMGlEYwOlUc4qeGk8jqSsXTVrnzRRW+OmdNULxpo003nVOtYXyVPpQ2+SqdJzv/AOSdlHZLq+R3fSTfx9Fnihas19aQ3xU0/Bf7IJCQkEC/hzCgwXxDVbmU7aEz6iX+XIw/LkcflyOPy5HD2n4zbQoE45kXrMPKXvQW+OldNSOYUvpSW+OndNVOY08UNvjpfTUy8KWKM3yVTrqRedVSnJTScG+mrnNtJN/M6KPFLis3OmlUZTujrmeqO1Tc4qf00sjGndKs5xU3q2nNxCcUSTswQIJCQkEC/hjBhQj/ANgrTnLVNtNozqnStucdLGlDtO6KPFKzuveMjjj9NWufK3QnJaCxT01a58wiubCONnpq5z4BpZGVQ61Fzln0pvlqPXU7mdSGlW8af0qznFTuukm/k7n4KM5lVe2pl40vpRW+OmdNTuY0zrRm+SpioH8kgQSEhIL+HMGFBsrIcVghas17aSb+b01U5jBGlC/XdKgvihF9NoCOWb11U5lP3pSOSpddSrzqlNb5Z/XVDmVRGkW/g6Pr42TO56YbzqXWruclSFEb46X01OvCmddNt4UrepOcUCOdn+2rnPl7pLI2k4NdNXOeOulW8p4qJ/EQIJCQQL+HMGD8mK25xUzfSaLQumrV/NGkUddRuYUvfTredV61tfJVN9NoyqnWpuctQ02jOqdas5y1IaZRhS+lcc46WNJNfD0cVg2o8lkWRspwa6auX8PWnN8UHfUrmFLR/enyXXVLmVQ3pbfLUeuqHMql10k38kTTvIIJCQkEC/hzCg35cGq3MYW+nE40rpqZWVUGl2sKb01a78G+km7yOh+CfXyPb6SReT0cPFCjyVpJv4uj7nEyZ5GKY3xU/pqpzGAKJH9PTulbd4qYKa3yz+upkOuz/TPj0z49M+FpUg2Ecj5fTfVy/lBg7sday5yVTfTKMqn1q7nJUuum28KUHTydIJCQkEC/hzCgwXxDVjl5W9D/APJ6agIyq0dlUh6M0TDHTUjvJU99KN2hdKk5xQemkS+DpO/ZjT8fgpvTUb/FTA0nN1JYp6aghSZqqdp/Fzrqx20UaaRnU/ZrTnJVKGjkqnTVTmU8/pCO8Too7JdVm7vpFv4+i1YoWeS+sFvihuHigEEhISCBfwxgwoR/7RXHOWqb0P8A8rpPpseacGnR4XV1ZNtvuG89vQW+OldNSrwpfTSKup+Qihw0vddTyuWWKK3yVP3NTvclQGkUfM9hR2J5fI9pVvKd0rbnJVBSjyp3SpucVP6aWbxp/SrOcVO6xG+WUJh2YIEEhISC/hzBhQaKyFHil1fI7vptzOl+1qeXxRd/qIyOOP01av5XTTDvHUfaqcsocRSjWoaWbyqHtvuJZafdN54aVbxp/sVJzigDSLfytzOxPKzeFDO9K6amcwpfSjN8dM6ancxpvXT7fJVRUT+AgQSEhIL+HMGD+pCru8NN6aWlccj2ZchuKxNkrlyd4DfLN66qcyn9GHDZejPJkMewtSUJrM850nbSKPg9vU0++9Fb46X7GpV4UsabRhS96i5xQdtPHeldNWufBuRZKaTg301c520k3eQKgfzCBBISCBf59xcXFxcXFxcGDCPLg1U5jA6JM0qo1STNZ7zprMNqpT3JzvTTiM6r1rbnJVOtCqfo1pMlF2dcS0itVY5h76Zbwpns3sKvXEoIzuYIrmyjja9jVznyxTm+KDvqRzCl7aYP+l9NUryqG9Mb5ah11Q5lUuulG8YIlHlIIJCQkEC/zLi4uLi4uLi4uLi4MwZiN/eNWuXf6tOKaXT9QEZMSGny3kTY8cp2og864+51os1uC/8AmOOPzHHH5jjj8xxx+Y44eXyO9qZVXoQh1aLJIjvu44lsplejMifPfmq6Qa5HjRPzHHH5jjj8xxx+Y44/MccfmOOPzHHCtSNB3UbxiXUJMrpHUlEj8xxx+Y44/MccfmOOPzHHH5jjj8xxx+Y44/MccVmcmfITbItRRiL8xxx+Y44/MccVqqIntbUartQov5jjj8xxx+Y44/MccVKR6qbvSpKIk38xxx+Y44/MccfmOOPzHHFQkeqmdaE3x0sKO6yBBISC2uLi4uLi4v8A4VxcXFxcWMxxgkFvgQNoG2oHchcGYif2jUDnJVe5GaTRPloH4nNDkuQ5/kNvvNgqnNIKqMxQWtS/5wiyNhODUhWLIIECBAjFxcXHkWMXFxcX964uLi4sZjjMEghb2jQkwcdIbRgkzsUhfK//ANDS2+WoCbc2SYdMFFdBRFgooJhI4kjBIsXQ0kYWg0i4IwR+5ceRgYJsgREXV6SywT9fiNh/Ub6g/UZb4ZnSmQzqCWgM6jZMMVWE8EqJRb1Rzip//RaYbzqXtqcQkJcQrd9GIIwRgjBewYLyZERdXHW2ifrkJoSNSLMP1SY+D8+w24ts2KzNaDOpFBmvQnA/6eoxXtOOkHqTNaC0KQf/AD+lo3HGFwqQ0kKqMRIVWIhBVdYCq8FVt8xMm1Bg1zZKluOumf1CTNIptXW2ZHcjK5K+FRGEmCMF2MGG/wC0KUlBP1eEyH9SB+szXQtaln3aYcdJ1s2ldvoGajLZDOoZKQivRHiKPR5p1mB6CR/y1gSFGCZUYJgwTANhJDiQCqMpKFTJCgpaldYTTbzkLFp6W7yvEdjUZqPfT0vJImJsCMJMJMEC6mDDR3QKlRESjmUyVE9lllboaabyecQHXDdX7MClSJgS1T6MiqzjnyP+NwUOFYJlQJgEyQJlA40DErmPI+uyfbjP8BvukUYNY8iPSm5vCd4ZRCSV2SCQkEC6GDCg05ie82kRZImUKSwFEaT3aaW8bbTZKeWkOyFuJ9mFBfmKZpsKmon19awpRqV/wlgSFGCaWYJkwTA4EkCaQME3sQv1ZbN1aEqss/JeDdc5DcJBQuZPpWGuVXpUYYKx6ISazkIQlUxJIkptkq2TDjaEqUfELnstGJbw1ZxnPtkEhISCBbmDCgoJdWgIlpMEZGW0uHHkpkUDNLkKQ262y2lTykkTkha0+zGjuyXKfp9CAlJITWUON1H+dxUOJY4VAmATJAmUjjQMUj/Xk90lfuQP67Qn/TPuyk23bX+gDasTNRpJyUtZSHDc6k4XMeTi2Y7infw2UpSaNLMFQnTCKERD8GYMkUmIQrURlmEGGHH1OcBN0o708/p/sgkJBAtzBhQUDBhKlINqYEKJSXPtx5L0Zb9VdmU06dHkxZlMlRPZbQtxcOhkhEmtMxm9MPOPpGq412v5TBRlwrBMGCYBMpBNIIYJIWIX7NIUtS0GkEHGuNw2iTDu36dpGZtNcgsfUiuclnhEpJIdL6qtdo2yBuHwAjtslakkqxhLa1BMKSoJpUwx+CyVBFCUPwNo1Jo0QgimxUElhpJEki9itNqcgGVg+SG3BQjvTQr+9ISEggXQwYUDIGQPaN9hz7YZ/bS1GidDr0lkY0qqCZQpLIMjSe5eTgUJ14nKjCpqJkx+WsaR+yJTJSI7qDac/icTHEscKgTCgTJAmUgm0ECSktrn70EiU/HacS/IdN94XMw0r9GGXOMId4VOyTW3Ic5erKrqdUp15uO4ozpsk1po8swVEfUE0EgmhxyCaREIIgRUhLLafZNxBBcyOgKqkRIVWopBVeQFV1wKrUoxRJTspAqZmVP308d4Ae+8kJCQQLoYMGQMgZAyBiP9lz7YZ/bTv3m0KqSogTU6fUCk0DJMiO7HVT6PIlg3KdRyn1KRN6aR+ztqiLxy/wDPLyMFjhWOBQJgEykcSQSEELER9L2BmfVmOlTRRv0gjkg1Ktl7LeZG4+pyGElcwhxTeyW1qCYchQRS5ih+DylmmgrH4G1dNFikEU2IkkstpQSEl7F7BUhlIVUYqdptSTFcVXgquPmFVeWY/EJJmUh7OWvlf7aZPyJxZQ+FwiMrbaaP9MJP7ggkJCQXYyBkDIGQMhH+y59sM/t537zpGkvRlR9QXRUKzIldtI/Z2rEX1UH/ABrGONY4VjgMEwQJlIJtBAkIIeOh9SK/SnxifQuObULryGcEn18UYmzcQplTa2TJtaDQe6bXfWlaiIwhl5Q9DLcOPTp7YTRJBpTQQmhMBFIiJCKfESEtoSVvYNxBBU2MkKqsRIjVNiQ9sYOe8piY5IbBqUrdry3qNP6pLvGKilJPhlxKCI7E6SuMo6gf16abP9SHvtOPurW+rNwaZPaZ+4IJCQkEC7GQMgZAwx9pz7YZ/bzv3nuaR+xvXYvpah7ZeRgocSxwKBMHYmUgmkAm0ECIi2v3NKiC2loQPp2LyaSPIERnsSF4VG5uixdI5KUkJSowcZ5wFTprgVRn8U0F0JoKAmiRiCaTEIJispCUpT7ClpSFSmEhVThpCq1FIKrrYOvKFLkqlxhXVrbhcrixHURPO48gYcNl1pZOI2fLF9JX6Qjyiak8LPyclj06trXC3DUh1a2lbRE5L208f68H5JXhz6hrI16ftzCf90gkJCQQLsYMKCgx9pRXTUaZIhGz+2nfvPc0kkyj76li88HYiMxgq/A4OAxwAmUAmkEEtpCCLMz8lufu1BLgW4pYRh6VJ5IdZS2t1s2nN2DsfEtD5/EskqJsNtOrBQZSzTSZZhNDkGE0EwmhMhNGiEG4EZpSI7KAREXsvvtx0KrEMgquRyCq8FV18KrEsxRZr78sai/e9CPxpw/0grpXpySRxxlYOO2u2ypa30JbVp5/kjbTytO3Qzdum4+i1KXyehGZbNHZxTBrKwUmxbUM7VHaUWMoMmaDon7wVD+8gkJCQQLsYMKChFX4Blcq9BYjwqlT5KXfaiUqXKEajRIhfisNslVyOQXXiCq68YXV5S04JSQuZg9j+vRKT2vv8OG0hvic9kzI4oI7GZhJGoGxJeWmmS1BNGlGE0J0JoKQdMZUaaTDINw47YS2hPczJJSKvGaDtdcMLq0tQ/E5gRVpaQzXVkItSjyOuoCvT+tCO1RGpfv9EHZWmleBVyvTh5JL6+U3pXgUh/gnbVRszqr7XCu3hLKuI1HjQjvTdRF+j6oIjU7FJDkl9NhApyJUFNEikE0qGkNxWGj2qrCkTBFZ53aGdqkKh9CCQkJBAu5hQUD8G1Jvtqb/AMlj7MiDGkB7TsdQd05ISF0OckfhM4fhM4Iok5Qa07JUG9PxmiP8Op7cituqCeSXI2fXmjb/AF1QRqN9CEgvq20akyDNLoeUlRRmDe3MjLZLRKj9EtOKCYMpQRSZagmiSTCaCoJoTQTRopBNMiJCIrCASUlup1tI9XHCZDKvaqFRbiFLlvSldnGXG002rLYCFEtO1bK9N60g7VEal8FsxGefC04LGmj+cJxZRAlViLwGCQp3AwSTvTn/AFEQVxP9SJHmWtZJNRmkaeO8CfGKWwmhsEE0iIkJp8VIrLZN1DZtxh85DvM8KCd6d1raElPDRtoVTDSVUE/7RBISEggXcwYUFCMnJ4aoURUuMolR6nOTDbclPuLRUH0oTWZZAq3JCaxIWFViWYcnyVm85zyXm8dmlqbcWzyKBv8ALIXbLuyZthZEQ8XadwcN9kjCk4ttm42SY7yginS1BylTHlJoTwTQSCaHHIJpEMgmBFSEtNp9qZUmIwkVp9YckvObcS+MNPutCLWnkCJMZlJ61ef6VCjNR9S+v+5Eh2RtRJ3C5tUyvA6MqJC2TaTMGpC/TAmlm2pXw7acO0wPFdrZptTrhR3UvVd1KTMxQJV1DURfrnmFNm5kZ7aaP9N01CVpx44la6HeJzbTh/outdK1SMjI0lc4R2mCd9ggkJCQQLuYMKChETZI1Ld+Zpxz9HUnSelgmDJnaIorp8iSaVOuKM1mo1BScdjeJYIr9iCSNRuRH21JhyVBulTFEmiSQmguBFDbIlUiKo00yIQTGZJJERdFKJJO1OK2HK3HSFVwkmVeQG61FUGZDTxdlKJKajVlOn0VJdNjYwh7GPSaiUot5DpMMvuqfejMG+ZRD9H0I7GjESWi9KGOPmpckpMYSyyjdE2vGk8T41AV4EhTVidWTO9AO1RBhf3A1913gOQ5jyCK8bEhCiUnUpfOQ4aFsSTaCXTVEGmT66iL9U4TfEGVFk4RJWNMn8rrqG6JqlGpQaPF0TP25BISEggXcwYUFBvwh1ZNtrXmdNk8E6uxzakosS3ZClK8YBpKjUZ/E44k2Nm3kkyEsOqDUCWYZpEozRQ3wmghNDYCaPDIJp8RIQy2j3HXUNImVszDrzjx+EmMjfkOpSThFc0KW0uFV3WQw+h9vpWZ5vudEq+YTaXI2zxNE6k7pZyzgSPUxdtSPWRsl1aUbU6kc7VVphREBasjNp30+2nHcZIX5RtHIjfkFZ+GlFoDjaVNndFbK9OcUal9KOdqltKLGUtGIZQTjrDpNIBC9lUOVzxtTF8O1/A02v5nSvEnMGk2076aP4+upi+Lds7okfYIJCQkEC7mDCgYITWjfivIWycGK5Ke1ColqHiyIr6yTSpaiZpMjj/AVZM0NtCk0SKQTTIiQmJHSEoSn25dUajSH64lJKrj5hdWmBVQlqBvPrFBMzgbSpCIzM2W5Lc3IrmSHCVKS3Chmq6TNCo4psxUR9J5FtW5PBF6mr4UpWadiK4juE2IS3mGdPyjNzavLyqO5ncxGK0eqI5IG1zttSVEieDEppJyTSYtYfUQFZj/AFEPKNPVhDyQbZkg2d6ceM7aptoTUFJxIF8ST8GCSZpoz/BN1IX6XpQVqTL6ajTdjHJUh5TxiC5gaiNKtNn+r66lL5W8M7xXfLZBISEggXsGFBQYVkkLbQsVOR6KKtanF7U5WUHqpxCQqZHSDqcQg5V4yAddYCK0hZJrjdkVuMYjymXy6agK1QbfZZVynzPvOSHHCabbJxRJ04d4u1Xl+pk9C+ptqekSjRz9KE9ywdq67yTzMz2Sk1KdjLabECC1HZqMVD8Tb/SjyO/inqZbc2qp/wBRfkNOoUlSDU04gghtbi4p3jvlkz1jqwf2kG2w4pZmbLhJQI7nE8f1pZ3p80sog/8AgYXaEXxJ2qzd6iDIy6NqXh9DqLvqaIVrJjuqIyMjFEumodK+nKIhWC3TJSwi2TynFM0A7VDrqMv0W9LPKnn9CBBISCBewYMKBKNCmnkr21AV6ellxTW1GO9O2qs+SzMXPlKCnnVbJtdVryZC5K93sSjrVHNun1ZbRoWladqqylyo019k3l/3tkszdXmY0yfyxUXeGEMTwx+WFIMkR2HJCyhTIjXXTTnzNpCHHXgRXPFTDn+2/uEDDycHt2orrjMJhpbTSs2xVf8A0CkWDzjjqzM1AjS0wS1JOnHeEYWVl9PoGjybFcw/EOtFO9Od8tfTfFPpw0rBtP0FeK1Q/wBvHdQYYzihBGal3UGHv0AayzdyzaTkulr/AFfSuf8AnAvqtqzO1FO1R614r07ehnemhXhZBISCBewYMKCh/wDQrZXpvO7w7UA70/avlaobGRpPaQ8b69kmWxmcmU4nBygzON3atZc6ixUPWuepzQ8okpU1pk/mDUKrQQmy4UhHCylJmFJURUJkm4KiuT6OJ4EV96CrGo7OqVnGU22d7KWpS1BPhSfoJ6SKfvFNm002m41MVlAE5GVZkO3l1FxLkttl1aZDL7ZCjHemiYVpYbaU4TLeaASSNEFWUMV0rVIf630+d6cYc8OhJ2VyquP9RzyYGoEmc2OHSIlf6avmsi4yOxoXZOyTso7K2g3TL6Vcr05JZGpvFv8A0LeKadp/WsFem76eO8AO/eIJCQkEC7mDCgoGE/SpleBHQl2JtQFNnF21IX6sNPKaStSlq7p8ErOC1kIjvNHFfPBLmOe5Ks3ps7SxqT9qX1hWSbqiUTJGtRmZik/+cKuVqiGXDQRkZGKUdqjs6Ss8XEo6MndoVBg3auEER7Yo4pbhLXQjvTRWvgqUskpeGSnEeoS462pDj9AO9OFTLGoBtXwmRIikVyeQknKOd6cNRJtOCEmtW+mz/SCS8aZR/VKcjk3NsysYpp5QRqPw4R2CSua21IIOOKWMfgx+DfkPhDJ4vdKgV4RxE4VFrgc3jHjI61Arwt9Nn+mEn9wQSEhIIF7BgwoKDX25RZRmGFvFtpk/l7alJIbewj9GGHXw5Bktp2RfN9t1cmSfzRp9eVPGoivB66fP+oDUZfpGTJIZb54j0VTTKFGk1FidBXnAFWbyqYL6um484mM+oQYMpMraQr4yWVnHWVPSEEh7annlCFWRjPIrjErBJ2M0njp0/wBCNQl+vdc5D3Sdhpw/0YrRWqQtYO/CpBXVI+/QTvThqX74Qo0KcSad9NH8AnWRVlpIgSjIZKDi81ijnenDUqfkhSTSHHlLa3Nd09S+qDujd4smiB3PojwtJ3Lo+WTG+mT8CZ+4IJCQkEC9gwYUFBj7S/KPJb6ZP5m2pi+X101fmFejkzLNJkElkcU8DHi2mVfKFdK9N2IjMtqKdqiNQFen38ElZt/7T/cyZJdpkooUlJkZPwGH3ypsQgiMygERF1qZWqAT4UEYhSbCkHenDUSlJkB9BINttTh7aaP9ONSF+p66ZP5Q1AVqgx4dYWnmfTif0BjTp/ohXsUvPoNDocbWnfTJ/NFcK1SO3GDO4aSa3HE4uUU1HTxqL9i24psSDI94DXO77EQ7xtz+iysu/jZqMa0GGDuz0P6KKyttNH88TvvEEhISCBewYMKChH+0H/D+2mztL2r6CVEwSbPTTy8nxqRN0ryIgREZbaaP5wqxXp28d4mw4aVLph2qAqTfLBBGakxLc2JpcV/cX1hzn4YiVFiT7FaK1R3j4kbhLIqGf9OFcYcdcapspS00aUYaoj6QmgpCKJGIRIjUUhqYvK04qBfW22mT+MakL9UGUksHYLIyV/a9QlEpoalL9OlV9kqxUs8ljTh/rBqErT9yOxqUalacO8IV4r04Gd96KdqlV2OCd3ph5QOj7S1TFpNChwLJlxWW0A8oXWUVpW2nTtNFQ/vIJCQkEC9kwoKEX7YnljNLbT5/1HavlenpOzQ4zwBfXT9kzhqAj9IajMitcjsajNRjTp2nCeWUPcvB/URTxkgyuUto2JKPoydnZCycIWO2Z8Qh1V+OIc5mUXWvJ/qSvB7NurJpSjUNOH+h9nUpfIdXmezLq2VvPKeGmz/VDUpfGE2uXwuSM3Adr6ZV8Q1CX6HNWCE5HvQDtURqUv1PXTJ/KFZK9N6Us8ahqJjOPuzH5Gd6Kd6b0qZYz20ZCU7yOZGadqQd6d1qRYz9qEdqiKgQIJCQkEC9gwYMKEX+0VNF6sSbvOJxcox41PatFem7IQaGRGRmKU2aJQrycqeZWOYlCWwyglkKGdqkHiu10IyJpB2Wn6DUMW4S4t5J/Vm3DHWpt2Qq7O1/BGZHArKkhtaXEb6kL9WhZoN5915AjEttX+tNH8j2dQIziGVj2Irmo8hp87VAalL5QQm4O97uOoGnEKS+K4V6dbwEqNO9GO1SGpi89dMn8QqJXg9Ih4y32yeZWk0LBkdjKx70A70/pVkK/FWDcQHL570I707rWStUtqSdqiKh9sgkJCQQL2TBhQi7VnBNVwInfK1UwyKdtUiyg7JcQlwJVZNNWfMKqZpp7XxG4jHaOs23nEt4Uo7VAH5JwrOdWTuyFoJaJkRcJ8ZHf6AzM+0Ga7EXEktymttTF8YSZG2ZWC1msJVYtMn7Vc/YGdz3bNBCiHaojUZfo5DKG2Yyvky7lIgKSmQXhVDlG5MFVK9P2MrG8tk2RTjtPGpS+T102f6oSSvHBfVJRHJIQdl/6r7HFMDWSTakch7PyDda04q8PpW1G1VEq4hzEUd3BTG2nTvC618rVDaGhEeSJ32CCQkJBAvZMGFCL/eK82aps5xStm8Ur2kleOq2SSNRvJZKNs2d1Cf+zv5LJxaixMjsal+IVyk7SytK6088oWziEuIn0dbY+h+xAlKiPtrJxA1MXywm2Rnc0maTGmi+MOLS2g6nEs7WYzalVtImVV+MtdakmINSkuzRVi/p/WlnaoCvlenXOwcVktJGYIjMUI7VESyyjF9C+rSCddcaNtIinaSNQpvB66d/fAyuR+D6MnkzXWOWFtGQha99MlZrpqQrStjO5F9Taya00fyOuoy/WONLaCkpJppR8wmftyCQkJBAvZMGFCN90Vsv1lUbbRLP6o8BP9oMrksrG0vjXyrNlR32SdjaO7cgrsbG7djZpRkraqFaodaQd6d0m09mUJcAokTdLCFQumnZGTI1GX6Prp5ZlNFTK8D/AECvvBO00T05Q+sQ8ZQrBXp28d9yOtUk1tUY7VILK6VeFBVrJkGmIEnZReSrf/mwVxkpkrSt0F5NxOC9P/v9pDKyWu+e8A7wlESkyWjYkAytuXgaaP5vTUxfHulJrU5dadMn561kkplPnk+C8G2d0SfsECCQkEC9kwYUGPujUKMzlFi7/wDJkfEwd2dpCSSYO2IcTg4ydkQ1ZRVFdLxxkB4/k7SI5Nxw0d2xWitUeheToJ/07tOo7bwkx3Yy3G1tngZR+lGd4qgK+V6fvHTHNp1tCY1DO1SEoso2yHVNIl4G2IaybkhwrobhOrbfNvYiM9m/DifJVIrwdiK+9I/9LaYnCVtykUbaErOJXD/pxuHxOtYIBXyeVm5p0rzdn3HWai8w4lptCVJ/242ps6crOENRsYu9dOHaX01KXyreLHYNrU2tw1pVps/1PXULCnI/GrBSVIH+op5RnfLZBISEggXsmDCg190aj/bSbqU2065H8YU88oW1QK07Yg84brjS/NKPKniU24w+ZmZIQpxa23CdUkzYEQ8oo1AX9Q3Yc4nSmmpenFXhdDURBcthAXVIiQpDclmp0xbAh2W7BNgnl+N0/KcI7lWCyp3RJZHSjxqIUV07KM1G60TaA39zZ912HIM7mIbhtyD+ojnkxM/a7enSbe1HK9S2rpr9cCtfek1RtmPV6kmSgi809CChqNCXGiSshpxnFjaptvlNVHc9ORXOmNKMGo1HQTvTRVWOeF1oB2qPTUZXhhEp9sg2klFI5nnKCy83N66jL9It9xbS1GbIph3p6yukgQSEhIL2TBhQT9wV9BqgLIxFkcAeSpLlHVlTtpzxxqqiXjF6UQ700VF4yWEmaTJxXJfnajpaUilnenjUKbzX2jZdBed9Nn8gVuS7GbVUpagqS8oGZmGHENpFNO8AyuVSj+llocxRxHw7PqI0wlZRJqcogLya21IVtCPGXtLShMjo39zaqoxqi0qlLt8Kk+NqQ5yU+evCHs2hu0hTSlG4WGn2VKl7ajj5N947br1Nkpcix9mGlPPR2iZZ21E7aQqVeCw1yGTaODFQ09+y2qTHp5qbZPY8gSZEqkf+l0nRilsJoccIpUVITAipCG0IK3evl/TgZ7Uj/wA4f7IJCQkF7Jgwof8A0KwV6c/9EeDes9JoxEiHtXStUQq199PHeAKwaCmbED8A1/Io3/mjUhfNdUS1hhjn30yfkV5KTYekGadjtcUY700akRaQIra3DkGyTrZko1f3Uc8qcZXJxODiTxVyOSkOoNtx1vjDZKuk8kiV+56RU5ydqzHYzlutIbCV2TFjlI2gz3ogm1F6WnaSy2wdQZQy/wCLUdhDTOziEuNz4qoj4IrhKTVsRGZBpt1tdRPKWX1sKNA9MjfUl7CK7wuvKLkcXIkHRMyibVKnFMWihNECpcbNNNiEERmEAkpL3VPNpC58VIVV4hBVcjifVkyo+9DUaqcF/cIJCQkF7JgwoGC+lUK8BSyNppLhhpBqOimZsbaiL9dvGJJuPyDeLTZ/phXitUdr7EKCvKCNSIu1s0i6XuEkJW2Tem/3Aryb07rQDvThqVPyqffhS07EY3of/mirt8dQSlSgtUo1OINtZEHlqSxSJKX4kuQiM0o8lb+LURvkqG0+OUmNKcW48DSoksEtPVPhVTSr1a1qWdOilLNJYlvLjNymp0F2Ipg7FHLj28kQJRmFCMw5IXTaWmN1mQGpa00mGQTBjJCWkJ925BcphAVU4iQqsxCCq60FV5QVW5JhuqvOB2bLupxagaU8LJkkl2y4zBfEEw3FN7UprhhBX95BISEgvZMGFBQR/ZLK8Yvo28ttKVqSnT9vTbalL5ylI42WORDZoJxSr7aZP4RqIv1vRDZqg0dOEIajK8PZyMhtuVGS3ETYafUXqxU0ckDcvJkR304r5A1Kv4EpcJFRcJ3Y/qKKVqaNSM/FSnMJMd7ilur5HTj4tSGzbBXSalGrY5TLjr7nKtLRcSEkbGn43GxvW6fnspxakfQ1tNFLlYtPGdzBtLJmR8TUWO5JdgxERGepkRk9SI61O0uQlBU2Zf0UtITTZag3RJKgxSGUsttIaT7inEJC5sZAVVoiQutxyCq8QVXXQqsyzCqlLUFSX1AnFkZ+T6IMiDOfIojI9keHCWt6oSpBPKEZkn1LQRNwmeRDaSQh88WiBBISEgvZMGFBQZ+26V2/oYIiMtMn8W2pi8eLL4uHfTR/OGpP3REZ9I6nWHaO5msV8r0/afkbS3FLTFSRlRnC9UFpyS4nBe0dRodbQa5VPnHFkqq8Ympslct8nFYK+u8JHHEE+P6mKjJp+Zb1QuWLctaVtOH1pxmo4UA32CKxdKlSCdMo6yfPENrInN02W1Dozrgjx247f+DcgqSykKqEVIOsRblWWVEqvKCq3IMKq0wwqfKUFOuK9u/w7IiPrTsy6tlZ+TBfW/wpUpBsIaUjBWDZqQFL+VQ4BtEKgv4SBBISEgvZMGFBQj/aDpWdBmZjTh/qttSF+lbU02y+Tb5+mPk206dpgqrfPNjJNKR8SCC3nFp06Si2rCcqdsZ5QBHeUw7T3MqrtWIykzz8GCIErFReDStxnfL4NobKZk7esU7mDi1LXuSrEhGRElJKMrGKLHWTaSJJdlISsPUaM4FUEFQVAqCgM0eK2TLLbJe0biCC5kdAVVYiQqtxiCq8kKrroOtSTL8SmrCpchQNSlbQlpbkwzNClqI93kcZ+zGNvGTibxEZ78S7PKJS+xFcNx3liPTXluPUyWtCaI8amKa028FqJCXFm4sgQSEhIL2jBhQjfbE9OM3bT52qG2oCvTyOwI7BF8j8mhlxxFJfRHmSK42RNqU/MWosSMO3aXtp9xbpCb+1cxz6QjtM2qkP1bLp7Jb8vEtRhazWlCsVbOt8ZsMrfcp0RMNjpOprUoSaXJZBkZHs0SjUd3ER6TJdVDpLMf8AwVPtJC6hFSFViIQVXWAqvBVcfMKq8swqoSlBTzqgfkGe5x3ib2Q6tCdiK4UZGCWokYI4LGLHi6tSvabxCpHykOLbCLKW9i67xTHkppcxQTRZRhNBcCaCgJokUgmlxEhEOOgEhJdlKJJSX+UyBBISEggXtGFBQi/2isZHUNqKdqltWyvTekZtZhVroLJUNtC1yErN0iuHlGtbWHANPtYQRIK8dSiU10aPF3eq0v1AfStC2lmS6sZIln5B2xcYsjaFTHZKYcRqIju4024FU6IofhkQJgxkhKCT7JrSQVMjpCqpDSFVqKQVXWwqvLCq1KMKqkwwqZJUFLUr2I/p1oP67tWJx1w1q7oZcWiFFXJTKf5H2VklxViVuXkJZdUEwJSgmkSzCaG+YTQQ3RoySRSoiW006IkJYaQLe2biCByGiBy2gucHHFOGCBBISEggXtGFBQi7V3xKIrmpdyph41DaqFen9Cti+pK3C+rK1ID0lwzMrBZ5B9k20xWFSX2kE22FFdK3fieSSXd7kYbPJveRHakJOjE2/UaZIXJVTpSUeglmhFMnGlqhKEWnR4/vKebSFTYySKqxDWuuMEFV4O1tzBVYlmPxGWYW88YPz/gsmykPvk4hL7iUR0IM0LbTIfd5X+hedySahBbk4HSpBNJo0owmhOhNBSE0SMQTSoaQiFHQEtoT7dyIG62QOU0QOa2PXEDnKBzHAcl0wbrhi5n2sCIEQSQSQIF7ZhQUIv8AcNRpIpLZ/Ff4Yh2lbTCyipOwbwNx9DSdm0IU3tBWSHnPC3SSQeO4jRpUwQITcNvdynSlPJo8swmhvBNBCaHHIJpEQgkiSn3jURBUphIVU4iQqtRSCq60FV5QVW5JhVVmGDnSFB5UpKjFvgS2lTWxf2OpSlzI7K4+H/AL6m2ww3NNv0qVWJDikpS04sJgylBNJmGE0SSYTQTCaEyE0aIQRTYiQiMygEki9s1pIG+2QOW0DmoBzgqasHLdMG+6YNaz9qwsLCwsLAiBECIJIEQIF7ZgwoRvujUpfOioeZS60pk30JZBbOeW9jItvWfNQ2pSUwpKg3Sphg6I8pxuhowYpkVkEVv8FTqEhybHbCqtESFVuOQXXkhVdeCqzLMKqUtQVJfUDMz3U4wpoRVcbrpFyhJ4mtZrUWPGlxRRyMyCUmogw5xqUeRqTiZlb3CIzCY7ywmmy1BNGlmE0J0IoREHKSy6ZUyLi3Djti3t3IKebSDktA5jYOckHOMHMcBynTBuuGDMz9q21hYWFhYWFhYWFhYWFgRAiBECIEC9wwYUGPujUhDIyGS5b60qQGTuyD+n4EkzRRI6Q3S4yCTAipBNNl717BUllIVUoiQqsxCC66yDrqjI63IMSalJsqdKUDdcMEpBs3vslWIaMiT38Yg3C4szUs/qJLamVw3Us7oVip1fI5sZ3Disz2S2tQTCkqCaVMUE0SSYTQVhNCaCaLFIJpkRIRFYQCSkvbNSSBvtkDltA5rYOcDmrBy3Qch0wbiz9uwsLCwsLCwsLCwsLCwsLCwsLCwsLCwxFgRAiBECIF7pgwoNfdFeQlTaLZtuG2p1xThwTvD9s3EJCpsZIVVYiQqtxiCq8kKrrphVZlGFVSYY9dJCORxA8YgysEmkm1l8TCeVabZLJHB0K3sv25C+oabzDCsHn1qWRWvILzHaWoip8tZpo8swihvBNBIJoccJpEMgmBFSEstp9u4NxBA5LRA5jQOckHOBzVhUp0xyLBmZ+3YWFhYWFhYWFhYWFhYWFhYWFhYWFhiLDEYjEWGIxGIsLCwsLC3vmDCgn7gr5F6KSTSXFXyI7HS3OWADOwU+0kKqEVIVWIhBddZIKrwVXHzH4rNdU7InEuetxlJ+Q4pKk+3IcS4G1WDn96HONQy+X7ZIUoJiSFBNLlqCaLKMJoTgZoxNpTRYxBNNipSmJHSCSRe2aiIG82QOU0QOa2DnEPXKBzHQch0wbizHn2bCwsLCwsLCwsLCwsLCwsLCwsLCwsLDEYjEYjEYjEYiwsLCwsLCwsLCwsLCwsLC3+AYMKH/ANCpuGzDIzsRqfcfIkoanSGmlS5Cga1Ht4xBlbdi3M8ptx9dsv8AFSw6oIp8tQRSJZhNDfMJoITQ2CCaPEIJp0RISw0kERF7ZuIIHIaIHLaBzUA5wOa4DlOg33TBqUftW2sLCwsLCwsLCwsLCwsLCwsLCwsLCwxGIxGIxGIxGIxFhYWFhYWFhYWFhYWFhYWFhYWFhb/DMGFBQSd0yEcjGZJNtDmTy8j6mk8VN2aDrZthhHK60smiH+i9okqMIivrCKZLUE0WUYTQnQmgoCaJGIJpUMgmFHSEtpT7dyButkDktA5jQOckHOUPWOg5Lpg3XDFzP27CwsLCwsLCwsLCwsLCwsLCwsLCwsLCwxGIxFhYWFhiLCwsLCwsLCwsLCwsLCwsLCwsLCwsLf5RgwoKEY7tiewUWp+pVzrNg0GSDZ6ZckSbikiSFEZbF8RfTYrhLTigmBKUE0mWoIokgwmgmE0JkJo0QgmmxEhMZlIJJF7ZrSQOQ0QOW0DmoBzgc1YOW6DfdMGtR+5bawsLCwsLCwsLCwsLCwsLCwsMRYWFhiMRiLCwsLCwsLCwsLCwsLCwsLCwsLCwsLCwt/DGDCgoRlYrFThlMZeSttQuWAUksQ2V1NsPcX4dLWTdHkmCobxhNBSEUSOkFSYZBEGMkJQlJe1cgbqCByWiBzGgc5IOcYOY4DlOg3XDBmZ+xbawsLCwsLCwsLCwsLCwsLCwsLCwsLDEYiwxGIxGIxFhYWFhYWFhYWFhYWFhYWFhYWFhYWFt7C38aYUFAww5yJEqI1JSqgoumgtBNGikEU6KgJjMpCUkn2zWkgb7ZA5bRA5rYOcPWrBy3Qch0wa1n7VtrCwsLCwsLCwsLCwsLCwsLCwsLCwxFhiMRiMRiMRiMRYWFhYWFhYWFhYWFhYWFhYWFhYWFhbe38qYMKCglRoU08lwu9yHKgHJaIHMaIHOSDnGDmuA5ToN1wxc/bsLCwsLCwsLCwsLCwsLCwsLCwsLCwsLCwxGIxFhYWFhiLCwsLCwsLCwsLCwsLCwsLCwsLCwt/wRhQUDIfQIlLSPWpBziBzVA5jo9Q6DcWftWFhYWFhYWFhYWFhYWFhYWFhYWFhYWFhYYjEWGIxFhYWGIsLCwsLCwsLCwsLCwsLCwsLCwt/xxgwZAyBkDIW2sLdLCwsLCwsLCwsLCwsLCwsLCwsLCwsMRiMRiMRiMRiLCwsLCwsLCwsLCwsLCwsLCwsLCwsLbWFv+VMGQMgZAyFhYWFhYWFhYWFhYWFhYWFhYWFhiLDEYjEYjEYjEWFhYWFhYWFhYWFhYWFhYWFhYWFhYW/6EyBkDIGQsLCwsLCwsLCwsLDEYjEYjEYiwxFhiLCwsLCwsLCwsLCwsLCwsLCwt/1tgZAyFhiMRiMRYWGIsLCwsLCwsLCwsLCwsLCwsLCwsLCwt/29hYWFhYWFhYWFhYWFhYWFhYWFhYWFhba3/wCgLCwsLCwsLCwsLCwtvb//AAuv/8QAOREAAQMCBQIEBQQDAQAABwEAAQACAwQRBRASITEgQRMiIzIwM0BCURRQYGEVcHFSQ4CBkJGhwOH/2gAIAQMBAT8B/wD4YAf6WH+9R9UP54P50Pij/RI/fR1D44/+QQfx4dY/0ePpj9GOsf6AH0w/bx/Bx8IdY/ch/JB9MPrB/Ax+7j4Y/ng+qH88H+nR+3j+Dj4Q6x+/D/RQ/nQ/0OPqh/Ex+0j6ofxMdY/jA/dx9UOsf6FHwh9Lb/QI/aB9CP46PjD+XD9oH7sP9rX/APsLj4gaT2RaRyPqL/Ht/JRE93AQpZT9qFDMeyGHSdyhhv5chh8Y5Khp6eTcJtPEBfSmsZ2GRF+VUUId5o+f9BNY53AQo5j9qGHylNw1x+5Nw6/3L/HQ/wBoUcI7IQRj7UGgdumZ7oxdouprvbo7lRR6G2yAt0YhBb1B/NxG48BCmlPDUKCY9kMNk7lDC/y5f45rdyVHTQONgEKWFv2pscdrgJxjvpPK1jV4Y5ykcOCmgNFh8KSPxAEyMl+l54O2Tr2OlO8UADnomZrYW/y4Mc7gIUsx+1Nw+YpuGuP3JuGDu5DDohyhQwjshTRD7UGNHA6ZpfCbqtdTFz2ho2JUbNI35ya3SmtvM4rwvV8U/hPfoC8U33atQ46SbcqNxI8yhJLASigntc61igBq1dAN+iUaXkfyMMceAhTSn7UKGY9kMNl7oYYe7kcPjb7nIYfCEKOEfahC0HYIhg5WpoOnKU9kxgYLD4U8fit0psJ9rjwduhzfVaciLhaQd02FrbpjdNwOnR5XMatmiyfK0Nvdfq4hy5GviX+SZ2ajiR7NX6+TsjWzHuqKd75LOOT5Gxi7im+ITckWVV8538abG93AQpJj9qGHzIYa/uUMM/Lk3Do+90KGEdkKaEcNQY0cDqlIaNRULnOvdH8prtQuEDqmI/C8O8mtOdpT36eyBHTwo5NfZREkXOQTg4+0rQC7WcrZFoduV/1F7RyUaiIfcjWw/lf5CNOxEdgv8i8cBGvmKNXMfuRkee6v8CieGSglXUepzbuGVcPWP7GP20NceAhTynhqFFMeyFBLq0lDDHd3IYazu5DD4QhRwj7UIIx9qs0dkHOcdhsnavtV9Iu5Rv1i6aDc3+DMbNuHWUj2lrWON7qNgjbpGVk5vqNcMns1JzNfKbFY6jumN0XA6XbamhNAY1OlaOShVx28xRr4Qv8AIxjgI4kezUcRk/CNdMe6NTKeXIvceT8HSUIJDw1CjmPZDD5Shhru5Qw1vcoYfEq2FsRAblTD1RfoxAer+xj9kETzw1CkmPDUKCY9kMNk7lDDPy5f41n5TMPiaN90KWIfahG0cDoneG2B7qFrgPPynbC7eeh8pDgxo3Rm84Z+cpL22CHwnafuTYg2Qnm//wCsjtk5gdzkXN/KM8Y5cjWQjuv18Q4RxIdgv8k/sEcQlKNVKe6L3E3JVz8ERvPAQpZT9uUFIZm6roYZ+XIYbH+UKGEdl+liH2rwmW4UTdDbDrxIe05QG0gWtpvuueMsSHnH7GPqtJ7IQSnhqFHMftQw6UoYY7u5DDG93IYdEF+kjbw1R07W3uAg0DhSP0DYLtumt0i3wakhrmlamySW5HVotLqPdeGNWpSFwb5UQ8OAB5TZN9Ka7V0FNaRzkZGDkr9TC37lJVU7ud0cQj7BHEvw1HEZOwCdXTO7o1Up+5F7jyfghrj2Qp5Tw1CimPZSUkkTdTuj9M0OA0bKJkbr+VBoHGbtiVhx8hRZqVOSW2I4ye0utYohNI1EBeKN7durEh5Bk3kIRtaLWTBYZYkPaf2MfQhjjwE2mld9qFDN+FFQvffeyGGflyGGs7lCghHZCkhH2oRsHAQ26wQVFI573A9sv+dd9r9BcL6VBxt1PIBDnZEjuvGY3ly/VQN7oV7Lko4k3sEcSd2ajiEqNbMe6Mrz3VyfgAE8IQvPAQo5j9qGHyoYa7uUMNHdyqYRC/SMqBrXS2cgxo4CkF27Jt7b5PZrbpTm6TY5xm7R0zi0jgsN4cFwFFL4lzbO6DbElMa13mtznK7SL54h8rMbtydYC5WIX0gH9jHWASmxPcbAIUsx+1Nw+UoYY7uUMMb3chhsQX6KEdkYImt2ag0DsnXttlY3vdAW+LT6d2hNaG7hHVrH4R2N+AmvJ3TXahcdD/8Aq8RpbshwtQvpyL2De6/UxDujXQjujiMY4RxL8NRxJ/YI18x7p1TK/YlGV7uSrnv8FkbpDZqFDMeyGHSdyhhv5chhzO5QoIQqynZHHdoyw75R6bLER6gOVCbTBHVqFuFINQ0pn9p0gAJ/CjcXDzCyxCLTJr/OdPvE3oMljpA3VRfxDdYafM4dbuLIP0kMOQOdcPROcRuwHJw1bKt+Xb8H9ibG52wQopj2Qw6UoYae7kMNZ3KFBEEykia47IRRjgKVhIuxALw22smXAsel41WyI/HUx2oX+EB6nGXKsr25QkjYLXRq4R9yNfEEcSb2C/yZ7NQrJBx/1GtmPdOnkdyUXE9YBPCjoZX87JuGt+4oUMI7L9JD/wCUaGE9k/DW/aVLSyR8jpw8+t1VwvDlhvtPSViQ9pypDaZuQ3KjbpBJTIfuDtsquPxIiM6V9oAUx+sXtl4g1aRygByq75xWHfMPUdgmTXBJbayijO+rcdsp6sxSEAI4hKjWTHunTPdsTnSyAxtGUknht1KtHon68NJ4UVLJIbBR4c0e43R0wt2GbG6STfbO3fqdbkphJ92TnWO6ZuBkwEXupJNFvyekvs7T0l7RyUamIfcjWwjujiMfZHEh2ajiT+wRr5SjVzHujM88lEk5hjjwF4En/lGJ45HwqeldNv2UUDIvb1tka64CqaIP8zOUQWmxzojaYdVWPRdlhv3ZvmZH7igbi+WJe0ZQm0gytk8kDyq/9q6qI/DkIyoT6KJUTWnz8qw5yxAeqoJjC7UEcSkPZGumKNTKfuVG4uiuc3MfHYX27qNmhunKvFpuqhcfCGTtRBsqkHwDf6empjMf6TYWNFg1GljJ3ajQRFf46P8AKNBG3klCghCbSxt+1MZoZZNdfbJzQ4WKD9NrbjIR6GkNQ/v4DxqGlBf9TmXC8N/GTTclO0u57IysHJRq4R9yFbCwWCOIs7BHEj2ajiMnZGumPdGplP3IvceT8KKkkl3Cjw+Nvu3TYmN4GWturTffJ0bH+4KXD2O3bspYHxe7qpKXxTc8IC2w+AyJkftGVbTa2628jOmNpW9LwSLBPDzG/Xlhp85y1i+nugO+eIj08me4ZucGC5XiNLSQVSMJ87ucq+G3qZYefSKZIH7t4TbDjPEh5wenDzeJBdtk5moWcc8RHqdVCfRXOU3y3fT0rNEYGXieYAd85R3RUYLRYposEBZA3yDLe3j4F7cps8bhcFGeMcuTq2Ed0cQiCOJN7NRxF3YIV0o2Rq5j9yMryb36QL8JlJK7sm4fIeUMOJ+5f4x3/pOoJRwnRuZ7h1gX2CpqEM3k56fBYHa+/QY7u/pVdJ4Xmbx0RsMjtIUbBG3SFJJ4fZeN6nh26eUbnhRvOsscd8pNWk6OVVReE/KI2eOkjbZSQ62+c5UB9VRh/L1oGrV0V49HNvGTuEzxAzwC3fsm8b5Ss8RhaiLbLDT5XBFoI0dk+IOt/S0WfryxIe09OHewhMLtVu2TgbbJpJFzliQ8zerD/NGQUBbYZOF2kfTBUMutmn8I8bJsQAH9ZuIHKsg06iTm6NxcCMjIwclOqYR9ydXRdijiMfYI4l+Go4jJ2CNdMe6NTKfuRe53J+I1pebNUOHd5EyNjPaFzlbw2Wamk23yIDxup6Fr92bJ8bozpd00VN4bdbuekjbZF5bJ5jzmzVp83KtY3Kda1ip4/CeW54dHuX5ljSbkZ1Fd4btLFSVnjHS7nICy1sLy0c54iy7A7JvIzk9pUftCmJ2aO6nYSGtanbFUXzgmiwsOms+S7OI3YEDdPdpbcJ7C8gjbO21lWw+G+44Kww7u6cRbsD00BNnW/rIO1XHRiQ2aerDT7h0OFifpsObYF35zM0beSjWwjun1sd/yF/khbhPxFx9oRxCVGrmPdGaQ90XE8/Dio3Ss1gpmHE31FDDoxyU2hhQpYR2QjY3gKuFpc4onSu0tUMDYRZvRwtTbXuoi6eTVfhW3ViHf1lUwCZv99FFD4slzwOqyJAO/RIzXYKZrJHBruVXwi3iDOhbaHqk95VM7TK3OwzqxqidnE46AXq+c4taQdspRZ5UAvI0LS4Gw4QJDrHoqBeNwzpnExAoG+XG5zLgDZVkfiR/8WGnzkdNeAY9Q6cOPnKvtuo49HHfKZmqx/CBuLhYiPID1YafM7olFnn6WlgEz7FNaGiwzqBaV3UGk8IQSO4ahSTf+U2hlcv8AHP8Ayjh7hbdHDXf+kcOkCfC+P3DpoD6SdG9+zj/+FoGnSmRtjFmppe8knhaQbFYiPOM6SHwmf2ekoPDG6dNi5RX0+bnpro9Ev/c6FmmK/wCVbImwumzNcbDKepfI5U0xjkB6ALZVAe4PvxnSj0QmRPaQOyBB3CD2u2Byc4NFypPeUw2cD1SC7SM49UgDT7SEAnNJIIykbraWoKp+a5Qmzx0arGxyl9hzpHei3IG/Q5o1B/4yp2eHUluRla3koG+VbYxH+umgNpERcJoyPGyYGtdsq8ej1YcfV6KoWld9LQH1UZGh2k851nznZ0tLFJGHOCFNEPtQY0cDMKOJsQs3oZfW4pokudRuFUUTXjUzlEFpsc6WQthdb8qpieG7FN43RLRsSmi2WJDduVOzXIBlcXsr76cgd7J8rYxdxRqYZiB36sSbsHZxua1oZfI7K4eNsncHNhu0HodOxrtB5U0j2kNbv+U4aSRlS/KavCv7nJjGsFmjZCwRBe7nZEA7FVHzXZN3F+p2xOVDfwt+qsFpime4dGo6rO75OFyjzlQfKyaLZPk0vAyPG6G2yfH6rZMnAW3Cba2ycbKpHkdt00PzhmH+bTnWC8J6qE2mHRWj1j9LRn1gvCZq123zrx6udAfSzBvnHGIxYZlFW8JiaSRdV8GpviDOjtpdftugbi+X6dugt7rS5gswK5BWJDytOWHj1b5G4ktZRnW4uV0CFXSapSPwgbbpjtTQemvF4c2gWUjXO2aVbsgA0WGR4R5ygPpN6JPE5YodT3+LwCqkWldlA7TThyjZ6ap2lsYunSNabKORj/blWC0zsod2DIusnOsQPzl3U4tIRlQn0R1V/wA7Jm4GVr7LSM5BZxGWHm0ZTk03yda1im8oi6Le+Z3QuMp943DppDaZqJsg65srZ1IvE7qpDaYdGIfN+lptpWp7iyQEnY514cJLuzw4+mcnM1nzjZBoaLD4B3QtUOu3/wCoVvypWeG8tyoPMXN/pNvbfoI3WI/LGWHe85Tb2KYLJ2wvlVC0zsqQ3hbk9odYnsucqv5Ts2kWCuDa/S8WccqeTRThx6Lu1Wtsom6Ruq4WmOVFvCAoSS3fINDTdeFpGlicC1t1Xj1sqU3ibkRvdC7n2KumONgSqsWmdlh59LIm2/RiI9QZRRgsab5E2UdgXNvc51AtK7LDuHDI8IPBNsg0Bd7K+9ujR5tWTxdp6YNpGoTm7rt4VO/xG6/z0SC7D1QG0jejER5wfpYjZ4T5GsNjniQ3bnhpPmCdHd4f+Ol8jI/cU2pidsHZnjdRua1hDRuVENrkWOWINtLlh/zeqv8Ak5YcfUKcCdk92h+/CZKHusERcWKBVc3TL/3KlfaFv/c2hrBa6MrByVNUxFhAOcTbhr/6RadymseG7ndRkltznPtI7KkdeIN/vK+d+yxAerlh59JMbpFugrER6mVF8kZt33R/KZ7Qq4WmOWG+x2RF9k1wPGeJDdpyg3gFkDdWWkJo0i2VX852WGnzOGV7psYa4uHfoDd79Z2PQw2cFytht0Hi3VGbOHRiY3b9KOVsd88SGzTnhp3cOrEfaMqCUvjseyuibBSi9nN5zxIeZpyoTaYdVaLwnLDz6ysrtB0nlf8AEeE7cKqg8Znl5C4TKmRjdDUaqY/cjK93J6qbeJuRyN+yBVWLTOyw4AtOTHF3Kc4N5zxIecZYcfIR1YkPM3LDz6SeLiyeDp8qYb54h8y+VBcte0JhBbtk1wNyM8S4blRG8IXfICycdIuU03aCqy3jG2WHH1U5odymd853+G0O/v4Mgs89ATTcdDpg02sUE/3HqbuM8SHlB+mj3aDniI9MZ0DiJLLUdVunEG2aDlhp3ch04kPK05Uh9ZvRJGXcGyaCB5lUi8TsqZ2mUHKwvdSXsr3CHGU1NHN/1S0kkX/PgURvCOh/4CaQb2VaPWOVDI1rTqKfVxAco18I4TsQYftX+SP/AJRxGVSzPl9+WGH3BA33zvliQ2blhx8hGTzp4Q/Cab8LluyrxuMsN95Rb3G2RF0BYWyxEemMsPPpdFkBYWWIj1b5UBtMOmtHolUkniRD4FSLSu6Y3gRtJQN98hK0u0potlOLSO6ojdgOeID0/poDeNudf8rOgNpUR5stW9s8Q3iyw8+pZWzAtliA9LKA2kaeg5Si7DnFJrYHIpwuEwacrq298pqJkm42Kmp3w+7qoD6KGZYNWpAALEPm/Cw0+YhNbbN7GvFnJkYZwsR9gyw3hwyK5CZpb5AgsSGzTlh/zVpHKPRXi8OWG+w9WJDzA5Ue0w6aoeiVh0lnlh79D5dLg23RWC0x6aY3ianOsomaRzdW751QtM7qpjeJudcPRP01K70AVfy3TTcXVYLwnOiNphmXXdY5PNrKpdqjtlQG0q5UJJJuMnuItlXC8JyZ7genujuEcsPm/wDhlFoju78rsnchPbqFioxZxzsrXVRQA+aNOaWmx6MNPplEA8pkbGHy5SEOvftliQ8w+Fh5tIUPz0DbYLEPlZYafM4ZE5Wa0l2WIkFrcqE2mGZF86wXhOWGn3DqxLhuVObSt6ZheMqN+hwcE06hfLZX6K/53TSOAgBKeGnlC1tuiu2mPVR/JGdWLwu+mo7mDyrVcabrhVPynZ0xtK3MsJFsrXN1UAaSMqUDxQj/AEgb5SN1Nsml19JVULwuzbwOp+zjk0lpuFBO2dv95Wyt1T07ZhupYnRHS7PDTs4ZcG+QaGqyxL7T8Kh+cht0OB7KtF4Tlhx9QqOQuc4HspBuCovbsp2ksNsq6HTG0jtlSm0zehjXhxLjlUi8TssNPmcOrEh5AcozZ4zJmaw33OTtxlQSao7fjJwB2KdHo3YL5si0OLvysRHqX6aIa4NJRGrlaPNdN1B9u2eID1OqgPpZzOdKx2jj6agd6ahYBk65D75xmzwhe26JtuUwv1nVmRYG+UHzBls0XQN+MgFNuwjOI3YOqcWkdm1xabtVPXh3lk+FPCJm6SiC02OWG+52Ry5yxI7Nya0uNgv0k3/lNoJXC6GHnu5Q0bJRe6GHxKekjZGS0ZUnzm9VSLxOyoPnBWyAsiQOcq75JyiNnjNx0tumyB3GUouxwyw82lt1Yj8rMdLxZxCoZNElvznI4tHlHRiXub04cfIR067O0uWJDzA9WHH0yE14f7UCblOHlP01CfTcqRznMydujzm03Cc3ULLQ3VrQyO6dyVH7xmGWdqzcNjnTG8TeqrFpndMFU+HjhQ1RmfsbDoMpEgZbnpxCOztf5yw75hHViDbx3yptpW57Zzi8bsoDaRp6pRdhypDaZvRJG2QWchCGkEdlWfJOQ2N0N8gjEDJ4mRFxbKi+cFM2UkeGo2kDzc5tOoXVf8rOORpAb/SFrbdE4tI5A23UT/EaHZA9GJDytPThp2cOgkDcpth7liQ9p6qO/hvAUYs0Zco8/S4c7TqUW4vkDvZPFnHOM3tt2yHOTTcXThfa6lFnkIJniu3fwm+45xy6nlh7ZO5OVF8kdVd849cFc5mz9wo5WSi7E14eLtWrzjprGa4TlQG03RIZNQDAmPJeWlVo9E5RGzwcywOOq6huC5lthlM3UwgHJuxTqhjSblR6uXHodwcqf5rc+M6v5Ls4TdgP9Z6PPrvnKLPIVD84LTvdMfckW4y7Jg0iyxE+mM2MZJC3UmStLtDU5xB2GTXB24U4tIRlh0l2lnViI9MdOGnzEK6uMnNDhYpuk7hYkPIOrD5A1+k91qF7IEHjKUWefpcO95Cj2Fk57Wut3XdTi0js6c3ib0MboGlOb3VSLSuyieJG7K1k5waLlBwI1DhC2o7ZSizzlh59Hoe3W3SjT2ADSsQHqdNihDIeAhSTHsg50TtuVTVgk8rtiprtbdvKmEmnyJv/AKIzd5gRlRm0zeknZVQvC7IZjZMk1Ei2TuDnGxs7A54X/MpWhzd0MniziFD7xn4pBt+c6s2hdnQAeHcdVVRue/WxUlIYjqfzlUOcZGxsNkASBdOuOMsRfdwZ+M6VzPDaHcoSN1+GMql4FmIC2yrhaY5Usnhyg9VePR6cOPq2yMMbzfJxtwo9DBYKvkY6OwPVh3zCEI2g6kGgOJyqRaV30tA60u6Cki8RNNxsqsWmdnAzxYGgowXeHfjprRaY5U8ezZB+MiL7FaRbSvY5rG91IXgjSLhVItK7LDz6ZTH626unEvcDlRQslJ1oUsLftQiYOAgLcJ7S61jtlUfNdlTS+NGHFFtzcrWL2zjBuTflTC0hChNpAc2uBzmF43DOEuLAXdLuDnSuvAEHCIBr8gc6tumZygGqQDNznfaFEHgecoMN7krEJAI9OeHS2JYfgSOaya7v/wDFGWyvJ/B2ze8MbqKe8yOLjnhzPI4rwfVMikfp4Wt2obXWoLEPm500niRgopl9O+RCq/knpglMLtQRxGTsEa2U90amU/ci4u5+BQG03RV/Od9LSH1gmX7o/hMuxnCrDeW+dCbwjIdGID1cqO5jBv0hvmLlWfOOWG8OCaLDKSTw93cZ4l9uVCSHG34TIh7zznv3yrBaY5Ya67CMpXBvJtdRh+nz8oiyCqxaZ2TTqF0RcLQ2I6ydk1wcNQTX6k63COxyi9g6ZTZhOdHLJbw2BQsc463cHIjupZTHvbbKemZNu5Q0jIdxznHI6TzW2Kp3ue27squQvdpd2za4tOoKCYTMvncDnoe5jw5qpxpjAy/6qyp8U6W8dGG/dlKzW3blMBt5uUBHGq3T4l2nOmqvABFkcSf2CNZJawX6ub8oyvPJVz8UMceAhTSn7UKGY9kMOk7qnoTE/UXdFaLTG30tMbStQbuSnFvBTnWVYAHiwttnhx9LokJA2TI9G97rEh5wcqA3h6q4Wlyw0+YjNzu1rqPWSS7hEOvysS9gyoDabqrxaY5YafM4Ko9w3si9kzvDPHRW/OOVI/VCESBsUBF7wmkOFxkxoLtZVVCY5CoonSOsEBYW6a1+mIj85wS+E/Uomta3y5Ag7KSx2PSeFTEeHb8IN08KomMN3XV77noildEdTVBUtm45ThupPNZvRYDeyCklbELuVTWGXyt46Yal8Is1GtmPdGplP3IvceT8YQvdwEKSY9kKCUoYa/uUMNHdyGHRp1Exnm/HKZTxdmoMaOArnURbZOBKHC1LjdGdoNjnUv1yk/SxGzxk6Nr7EjhFoO6r/fnhp8pCAdfcp8mkho5RBIQFssSG7Tlh3yuku9X3Ksdqkvlhx9Q5tmc92w4UUpfI5h7ZV7fTvlTO0ytPT/axEecHLDRu4q7b6Sqdum7e3RWfOOWGv2LFVNuy6fHqj0hMbpaGoS3NgFG8O7WVr7FAAcZeC9rTpco2aBZF/msET5gFXza3aB26KKpt6bsg0AkhW2Qe4s123UN3NFxZAWy1gu0qPZzgpZWxN1OU8zpnaj1DZMrpG7HdNroibuX6yG3K/UQnujVwj7k7EIxwn1zy4lmyc4u3d8XS49kKeQ8BCimPZDDpTyhhh7uQw1ncoUEIQpIR2QijHDVpbxZDbpITg23m4QzPCLWsi0uUUegWvfKSTQAUCbqZ+k79k46jf6VvPRiXDc8NPuGTdWroxL2jLDfYUTboeGSNICq26Q3KgPrZwWu5iDQCSpSRbeyrG+R2QNjdNOoXGbxcWKcQ1llPT+MwN7oUMt9KghETdK0i+ruh0Su1PJygk8J4ciQ5uyh9gy7p0II09k5nFumosBrJU9SI3Otz1U1do8r+F4rdOpu6F+Ci02sOg+V1zwpq9rdmbqSR0hu76KyETzwEKaU/av0MvdfoHjkoYaO7kMOjQooR2Qpoh9qDGjgfD73zM8Y2vm9geLFcdBAdynlwIDVqHCdZyDRe6rqgPPht4+nZ7RniXywc8N95Ra9zrA7KMuZcvOy8UW1HPEB6YypX+HHc9ypTezcucmxtbchYgQdNsqM2mGfEv/cnxh7dJU7bQFudHKDFv2Qy/pEXC5Wlr7jO2c0hhiN+eijqtHpv4TQANuiyc6yJJGpqGVbK29u4RN9+sOLeEzEJW87oYl+Wr/JD/wAr/JH/AMp9fK7jZOkc/wBx+HpP4QgkPDUKKY9kMPl7oYae7kMNb3KGHxXX6SFvZCGMcNQAHGUwLmWCmAI03sgLc5sdq3+FIHbOb2Udw3zcq/5z1hMbYc36/wDqMrG8uT6tjW+UplXC0l35RxFnYJ9W9zdI2H1FObxtOdePSzw8+rmbWyLwDYqriMselqjw5xPnKLWxx2b2TQfK53OTfML54g1rNIblD7whe2/TMLxuzpZ/Bd/RTf6yLu6bbnINtf8AtHfNjtSkkbGLuVROZnX6YKt8W3IUdZE/+kN+M3WtuhZp1M2CfWxMG26mrZJNhsPoRG48BCllP2oUExQw5/coYb+XIYdH3KFDCOyFNEPtQjaOAhtwgM/FYTpBzLA43PSWgm5Wo6rdlfJrQOPhG/ZCLzanG6LA7lHYbJl2t9QrXCwk35RrIR3RxCJHEm9gjiTuzUcQl7I1kx7ozyHlyufz9bR/KGdbvCc6I2mHTI4cFBE2F1M5wH/UwgBFMAAsE6+oEZYg68tvxlH7ggLOJ6XbtPRS1nheV3CY4EXanN2VLd0e6CCbJvnNWMiNhupp3zG7vgNe5vBQqpR9y/Vzf+kaiU/ciSefg6T+EIJDw1CjmPZDD5Shhru5Qw1vcoYfEhRwjshBGPtQaBx8CTxGklo6Xbt2KYwNH9/AMjQdJKmmER3HKij0ttdOFxshxv0l7RyUamIfcjXQjujiMf4RxL8NTq+U8bI1kxN7o1Up+5GRx5P7PQ/LGQCqReJ2dL81vTb8qMEDdFPa07OTIm2ugm7Jj9SllETdRTnFxucgmt2J/KYbtHRunCxt0RyvjN2lCv1NLZAqasjayzuUKuIn3L9TCDfUnVkCdiQ+wKWqkl5Pxgxx4CFPIeGr9FNa9k3DpDyhhv5cm4e25uUKCIL9JEOyDGDgIbfQv1/aVHFpOom5RjaTcqRzgLM5TmuLbX3UbNDQ34BICnfFcEr9bEXXKNfEOEcSb2ajiR7BHEJeyNbMe6M8h5ctRPf9ww4+Qpw23OUu7DnCbPGTr28qjc8+8Wyc4hwtnM24TeE0k3umC191JNFDuVPO6Z1z0NqoQ0XKNfCjiLOwRxL8NRxGTsEa6Y90Tff49kIZDwEKSY9kKCUoYa/uUMNHdyGHxjlCihHZCmiHDVGIiNTQh/SvuiSDmebppJFyFZDVqN+PotT3m47KHVrdcqyLQUXtHJRqYh9yNbCO6OIx9kcSHZqOJP7BGvmKNXMfuRleeSrn95w0+VwUrmPPh33CY8P3CY8v13zbzmDl4G1ie6LwO6NREOXJ1bD+UMRYBwnYi6+wT6yV/f6IMceAmwSO4CFFMeyGHyd0MNPcoYazuUKCIIUkI+1CGMcNVsw2QH3XGUo1tLRym+3fIi6aLbBb3RYC8OKtdE2ye3UENkDf4twjKwclGrhH3I18SOJM7NTsRJ4am1r2+0L9ZLe906eR/J/gmGn3BaQVYQts1Agp4s45/wCSIFgEcQk7J1ZK7ujUynly1uPf43KETzwEKSY/ahQSlDDX9yhhv5chh0Y7qOjivuEKaIfatDR2VnBw0nZcZEXThe3wO+QbuSUBYWGcbxINQUrC/YZkXFk1ukW6Gi2eto5KNREOXI1sI7o4jF2RxIdmo4k7sEcQmKNXMe6M0h5KuTz/AAygJDjZHhFuoJrQ1TC0jviBrjwhBIftQopj2Qw+Xuhhp7uQw1vcoUEQQo4R2X6aL/yjpaRtlvfIG6sbocJ50jZG9kL6rHp37fBZxvm92lPbqbZMAb5RlGdjdPeBvdfqoW/cjXwhHEWdgjiX4ajiMnYI10x7o1Mp+5F7jyf4tQX8TZRF9vPyhxsrX2VS3RKRmI3nshSzH7UKCYoYdJ3KGG/lyGHR/lfooWC5CbFBbU0BU7WvOvTYhBC4+JG0tvdEJuwRbq2ytvf4moBGeMcuRrIR3RxCJHEm9gn15dbbhHEJTwv1cpN7ozSHkq5/j9M0PkDSrDhWDB5U3cp1PG52ohCCMcNQaO2XfK+b76TZMDmt8C29rpt7b/TGRg5KNVEPuRroQjiMfYI4l+Go4jJ2CNdMe6NVKfuRkeeT/KY3aXAhWJ3KLmja6YOq4vZavMRkHXT3aRdOGu23xbgIzMHJRrIR3RxCII4k3s1HEj2ajiEpRrZj3RnkPLkXE8/zOCTxYduUIhosNkPEBAAsFd2qx6dOl/8AShubuKuhlxvncd0XtHJRqYh9yNdCO6OIx9kcSHZqOJP7BGvlKNXMfuRleeSr/wA8pqgwu/pMc141NytkDvY5EoyR3BLl+riHdOr4uy/yLBwEcSPZqOISlGtmPdGolP3IuJ5/0PFM+I3aUMSd3ajiTvwjXylOqpXfcjK891e/P/8AMXf/xAAuEQABAgUEAgICAwEAAgMAAAABAAIDEBEgMRITITAyQUBRFFAiYGEEQnFwsMD/2gAIAQIBAT8B/wDuyAxU/rxb+2a3+wvH7Rv9idj9oz+xOx+0Zj+xP/aC6q1ha1rWv+sPz+zFpNEXVva6yqqqqqqqqqqqqqqqyJVVVVVUzMieVVVVVVNzI4VVVVVVVVVStRWtBwteqqqqqqqqqqqbmTlVVVVVMxMnlVVVVCRKqqqqqqqqqqqqqqoTOf2bc2E06mmsnY7G5vZeyT8dbXWO6WSfay9uUf6GywmvUMyfjsZlHFzMI4uZiT+xpqJnPSyTs2skbWJ2OxuZnH7RmJvPa/sYn4uGE7FzcSdnsZ2DEjayTsWswn47GZm/H7QYm7k2tbVFtL357GYT739B7GSOPgszJ9rcJ/Yyb/2YmbgnYtGZEGq0laTfpK0laSgnZtGZPtHQxEXMk7F2krSVpKDTI4uZmT7QnArSVpKpdpK0laSmik3Z/ZtzN2LRJ+LW5tdm1ubTm1mZOza3MnYuZi9kn9b7m5k7Ngza/NovP7Nk32tzJ9rOpnUy9kn4uGEcXMxJ+bRc+4ZkbG5tObW5/dMxN+bW5k4ErSVpK0laSmilhuZY7FzMI4uZJ978XNxI5tZm52bgjazqZc7H7QYm/NzTXqdi5uLH4uGE7FzcSdm1uZP7WXHN7sWssOLmYuf+3dm4cJpr0vuFj739BtZmT82iRuZjtdi1uLH4ubi5+f2bc2PzeOE016H5tFr82tzJ2bR0Mkc2tzJ2LqqpVSmmTsdDul/Y7P7Nlj+gcIGt5za3NpzazMjm1mZHFzMXsk/pZJ/YM2vzaP3TMWkU6AadjOpl7JPxcMI4uZiT89LcSf2Mzac2tzccftBa4V6WH1abmWHFzMI4uZJ978XNxJ2ekSdnsZ1Mudj905vQLXYubix+LhhOxc3EnZtGZP8AhnsZiw4uZi5/7Nuehzex9wsfe/oNrMyfm0SOLg2q0LQg2/10NxY7FzcXOz+zZ0ub7vGLH2i12bRmTs2iRuZJ2bW5k7FzcWuxaMdj+w5/ZsmVrK1laytZWsycKXDFjs2tzac2szI5tbmTsXMxeyT+t9v/AI3i1+bRn903E3YtbmT8d7Opl7JPuGE7FzMSfm1ubn2+r25tObWZuOP277WZk/FosOLmYsOLmYRxczEn3vxc3EnZtZm52bBler2dTLn4/ZtzY+1kn2tzY7FzcWOxcMJ2LhiTs2jMn9rLjYzPQzFhxcy5/wCzZmx2bWYk7NrLH9T739BtZJ2bW5kcXMVVVVkbWdDcWPxc3Fzs/s2WOza3CrS5lj7Ra+0Sdm1vQ00RfcyTsdTcJ2LWYl7uFj+w/s24sdm0GiJr1Oza3Nr7tRuYJOx2sxJ/UE+1uJHNotfm0ZuP7h2etg99TLX46wKzf3u6RmT7RI5tbm05tZm52P2Yza8dWUBSw3MxaesCk39jRM56W5k7Ngm7NrOplz/2bM3EU6AKoClrsXNxc4dLW0sdnrDfvtZI2NzN2bWWHFzLn5/ZsvLPq2lUGfd7hVaFoWhaFoQvLQi0i0NqgKWltVoWhaFoWhaFoWhaEALCtC0LQtC0LQtC0LQmiktC0LQtCa2k3NqtC0LQtCApYVoWhaFoWhDgXHP7NuOmgWkKnyKLSFpH9xH9iOP1GkrQqBUC0LQqG0f2N3ZVV+PpK0LSOrSFoWgrC1rUP7C+ZcAtYW61bwW8t4pznjK1uVTNkSmfhaStC0jpr06QtC0lfyCaa/1guAW8z7X5DUf+mnpH/p/xfkPW45ajc0A5TeOU41uhO9fADqIEH4xdRcuQFP6dqC3W/a/IYvyWr8n6C/JKMZ9KrccfaJKGrKoaVkETXqBoieOJBcWNND8IOIQePhE0WonCDP6PUIxWD2j/ANDF+SPpfk/QX5DlvPW477VTa1upNoDyiayPKr/GgWr+NEBVaf8AVS4hOzMEL/OhvI+GDRa/tVCr2Voi+Tf32oLcb9rfYvyWr8n6C/IccBfkPW6/7Worn0uTzIImvU12krV9WA/xs1Imtv8Aqyg1bbltOWyVsraC22qI0ASAquKJnj8Si00KrTKDgeou+kG/acKSYfX7UuAyt5n2vyGL8kfS/J+gj/0OW+9bjj7VTc1OEqUWAg7+NJAVvIojMKvFLqLQVtuWyVsrZC2mrbaqDpiCrZH/ACUPx+KV6RaFyEH3FyoTlAUk/Mh+rqFuN+1vM+1vtpVfkj6X5J+l+Q9bz/ta3fa5VAEKSIpx1NyhXKJrP1IIGiLkebQigCtsractkrZWyFttWgKg6arUFuNW61bwW8t1yhuLsyfiyFj4wxMtBWkhB33IuouXINpY/M2H9Dqb9rdZ9r8hi/Javyf8X5JR/wChxwjEcfa1GxrapxHpD/bA32tPFZDsrUXUWkrbctpyEFbIW01aGqg6tQWtsnRNJot5bpW65a3LUUeTfBk7CpODj4pQxbSq0fSDaXPzMfHqtxo9rfZ9r8hi/J+gvyT9L8h63XH2jEJVSgKyPPSytEKtF3/jRVQXHKpcZUK0FBjltFbK2gttq0NVOrWFuNQiA8Wa/wDUaj2qzCi5QNE6QnS6DmRVSjKD8UoY7X5saajt1Bbrftb7E6OG4X5P+L8l30t963Xfa1H76XCgHb/qdcJ6Stty2itlbK2gttqDQOrUFuNW61by3kx2oVlFJA4VSgjIGhqhzM5tbhRpEUsqiaTbODm0KFn4gdVFDHa/NjTSdQi4BbrPtH/oYvyR6CP/AEn6X5DlvPK3HE5VTOvHc5VqvUqKlgVJUlQ4Why2nLaK2f8AVshbTUGNCoOomi3WreC3lvFbrlDcSeZRs3QcSi+K9IIoBHhQnVFJuzZRMwo2OilebYXlM5kFDz8VpQPWXAIxFuNW6Fvf4t4rdcnRXELUU0/cqo2jjoIp1eraErbctorZK2VthbbUGgKnQ6IAt76W45bjluOQjfaDwbYvjdC8pRroPuUTxmUXShmhm8fyRFJU9yheKi4vIoifqTGVC2gttqDQJvHJkBUqF5fFbmVSFrWtagtQWoLUFrWtOiUyjFPpcumeoyARzIoCttOLaLQfpbbltFbK2Qtpq22rSLKhagqjqc8NRcXX0ITIlM2RPG6H5SjTAJxODJ2LBzNhqJRPKRPqcLxTm6hRbIW21aGqJmYIKJqayheN0TMhRM8viszJ79KLitZW65brluuW65F5RNSqSwqSrU9I4mDRVEwtJWh30ttxWyVsraC22rQEAB1OeAjFJwtRMqcVkCRhCKfaa4OxdEfp6S4mUN9ODN/jaEKVFJRsSpZBzIzCoaqIacShO9Si5RFEZwcWxczrTE4OLovlNufitCeE81MqcTEjbXoytJWkoQ3LaK2StlbTVttWkC7WEYoC3lvIRQUCD0Pi1xbqOLK8JkTVmwmgqiaoCq08VvI4rIf6mOqJHFwNMSi4Roq2Qs2hGldU2mhlGVfaBoq8Sg2xszCMoN0XMx8ZwqFFFDKsxL1MHiVCtDvpCGVtFbK2Qtpq0BUHZWidF+kTXM8lGWE2IfaBrzbEfXgXUqOJmQ/xNNRWcY+p1myFUVKfD08zoaTgnmloyjlNTT9yieN0PymcyAqhxZDdUKN6tg2xboN0WwfDCyiaKL9T0n0ttyEMrZQghbQW21aR2GIAaIxlvFbjlrcqlQvGZNBVOcXW0KNGCljHaTZEdQdYNE0kBQnepxfK4YT/ABuh+UznixvPEm4T8LherGZm+mqeZ0UM0KjYthZpbGxImsmmkoObo1jcfFe7SFmbMXVWoLcb9oxAFuhboW8t0IOBti5QIGFXmqJJyuAqqDib3ajdSprVH/LYZq2cU1dYW+5MaAE5tRc2gpOJ5IkSpKiGEbhmZ4lWQ4kzxTsXCbx/I3DFJONWVlQzh5ti4tPIULN0bFkPx+LF8VQ5nD8ZveQaLW5VNhNbDhEinCZE+7Hj+QTHCsuUZQfcnmguAJwtLm3QTM/c8WmwNNKpoGUJPyq0RJOZYEmePQJRfK6H4o2U4kJxc2AcWA/xIkJBMzbE8Z0nD8rovjZC8fixPFVOJwvGcXyuJrbkohQnU4nEzPUs5lBlF8ZZCOJwh/GR4theVg4vd5GwU9p3A0pnjJwq9E8p2UGlEUlD8ZHMqICbcSi+V0LxkbhiUXKHY3Itf43MzdE8bIWPiv8AFAVE4VKTjZkDTHV4BVQNRKL6N0HMo2JNRQkzxEn+UgZs8plc2iThV9LPScoeJRPJOzKtVq+0CoXjJ+Z+pFQ/GUXN0HEiaGZmzEo06SJ6Ba7C08JwpxY3NzsWQcfFOEBXE4PucZV4paAThaDMJ1a1TpQj/GUXF0LylGwghyERQThGrZP8p5WkprDWZ+pcVRm3En+VboOJRfJG2DiUTymZFQvGUbN0H3J/lZmUPxlGxMmvHeew4sg/JgzjXQZRRQzb9GcH3KJ43Q/KUXxlzSYTHaZFgPK0NVBc/NglD8ZRcyIVKzg4lGzdBlF8kEP9RnCxKL6KNsGUTysCKh+MouFhGbRU9IxabA2sh0wc/GOZwczi4uhZlGug5k/xsaaIpmZPxMWNeWprweiJ5WCULxlFFUIbltOQhFbK2WprQ3Eo10GUbMhZClGwv/dsHMovldBxKL42w/JPFD0M8bSOZ0m3FxzOFn4zsmcLynF8boWZRcXQsydi5uZuFDSQRNrYhCa4Oui+VlZQvHqjYsBoiaqDmUaw1zKDKLi6F5SjZugyieNrPJRW8VsDaitkPxtflBE82M8bn5nC8vjP8lTlFQ/KcTxn/sgEwcyi+Mnf5ICULy64zfarqkEOEcWti/aBrZGzIuJkOJQeqLi6F5SjYszxKDKJ43Q/KUa6D7k/BtblEV6IXja8fyQrbC8bonlNnl8aJw5Ukzym/BuYZP8AGwcKgymeXSMSKc0tPU15ag6s410H31RPG0KH5SjYRFAE1HKbmUJ3Mn+NhpJmZRsXQcydiY01siihmDXMy6qg4ti8OlXhepwsXRfKbQAfjRfJOkPUziZpS12Lm5mcm5uJ0qnQqY6mu0ocyjXQfc9bVutW8nRC1bpTYhJlE8bmeUovjdC8pHExyqUk3MouLoWegYUQVExZBtjZtooOLouURTMgfjRMhPArIIWBVsCOJ+pib8m6H42uYHJzNIspxW2CeKSjYuhHmT/E3NzJ2Lm5lE8bAaLUofldXilkTxTC32j/AJZCzMi1uJEUNLoNsa6DdEyEc/Ii+k6YxM2UQTcSNPSMy2grISieV0LxvdCBRaRlUovVsM0dKL42CntU4UPyk7EwaJ2KyaaGYYSEbn4N0Pym7M68Um3Ci+KrYVCzMkhyI9zKbiUYe7oWbY10HN0UVFjcfFjYRVKyZibsrMyayZiRFDOnpepNxKL5WA0QeoOLtQWsKgcnw6chNTaV5sHEonjczyuItJLTSbTQzGE7E6e5w/KcXNzIgAoU9+rEm4qZCUEe5vB1KnFZMHuULxk8VF0LytjYlUiQR5UIEG6NhVmzx+LF8ZA0RyofjNx0uWrilsPxk85E6+1mqFCmeMovkiKWwcSiOLcLW5ajISZ4yeNJWFSZTcJ2J0m3M3Z6H+SpW2GatTsTp9o09ShDms4o99AFWo1AmBU0QFJxStXFEAvUoWJvFCgjNnla5uoUWyEIbVoCpToi+NjPH4sTxRkeSoeJxPK6D4yiZuh+MoyMgKzgyi4RPq2H4yjZkBVGleJw/GyteERRUsObW5nEAyUSMCbRWTXlqc8um4AJ4oZQxQTIqnN0m8AjlOzOGzTzZGkDRFclQ8TezUtkLbC22rSO6oWsfa3WrdCdE1ClkPx+K/xXpBUUOcXysCJqoOJRfK6F4yjTARp6XCg5lF8boXjKMmYVC3myH4yicOl/LE/8THVCcaC6GP5TcKhEyoh/lzsyY3Va5odlOYWoIcXBtUyHTNrmB2VttWgKg7tQWtq3Qt4LeW6UIhPC1FVXpCzTNgoPiuxKsoWJxpAVsgyi+Vv/AI4UMUEouJ6aIt4BlCzJ/Iug4lGXOU41sh+Mow9pmUDzVHlURFLNVUTVUXpQm0FbIjPYspzRHidOKopo1YTW6bzCBW0fS23LQ5aHLaKEMKlO7WFutW8FvLeK3Stxy1FVvH+W1q6qJrICsmivyoM40jiyDKLm0VChmUTxm70VVBQzzcF7TXaSt0JztRubiThULBTsz1IWt+k1lRc+HXkLSa0uGE2FXKAAx8PUFrC3WrdC3lulbjlrKqe7SZg0twh/shKEynJ+VBzONhcI0OFScHMnipQsqVClE8Z+pA0TD/KcRvN3IuaKmyIyvI6obekwgVsrZ/1bKEJoQAHZrC3Grdat7/FvFbrluOWozbwU2w9Qoj/llET0aShDJRhuwtkoQwOfkOzOFmcXFtFDNCjGHpZNV9iWJwjWTsXNzN7dQmBOtoFcJrdItdDDkYZFgXrlCGSmwwPg1C1tW61bwW8t4rdctblU20M621K9Tr99QWrjhV+kF/6VHFbbltOWytlbTVttWkfOieU4flOJ42ibRVEGRQxKEOJHC9WjNj4dcI8IJ+Z0m2GXJrQ3HRQLQ36W21aG9eoLcat1q3lvLdctxy1H7VegUtCJ6KFNbVONULqFaHLbctorZ/1CEFttWhqoP08TM2eU3+NxkP8AEXGZFEG6kBSftG0WEA5W19J8M1W25aHfSENyEH7QYB3VC1BbjUYoW8t5brlrcqn4Qp7RNVUoKvKJqeloK23LactkrZWyFttWkfsY2ZtzN2JmnqQm2ZTWucmt02aHLactkrZWyFtN+DqC3Grdat4LeW6VuOWso1nSYnx8LgJ2J0K0FbbltOWytkLaattq0j91GQqOURREUp0alRaChDctooQkIbR8KqLgFuNW6FvLeK3XLcctRs4k3go5t9fEoVtuW05bJWytsFbbUGj+iRvUvI8qiE9lbQW21aGqnfqC1tW61bwW9/i3SjEK1u+1X4ZFE3iw830WgrbctkoQVshbQW21aR/TYqEspuO3UFuNW6Fvf4t5bpW45ayuTePgGY5QR5kUAVoctpy2StlbIW01aAqD+rRcI09TZidQtbVutW8FvLeK3HHhFzvaeSO4ms6079JW25bTlslCFRbQWhq0j+wPNBLOUUHkcLUfvoCNPL49CtDltOWyVsrZC2mrbagAP7SZUPVRBDju0lbbltFbRWz/AKtoLbatICp/c3DS5auUaZurwndFCtDvpbTlslbK2Qtpq0NWkf317NQVKcXgGi23IQnLZK2UIQW21aAqf/A5aDlbIWyFtBaGrSP/AMxf/8QARRAAAQICBgcGBQMEAQIFBQEAAQACAxEQEiAhMVEEIjJBUmFxEzAzYoGRI0JykqFAUIIUNGCxwaLRBSRDc+FTY3CDsMD/2gAIAQEABj8C/wD6/mr+6X2cVisVisVisVisVisVisVisVisVisVisVisVisVisVisVisVisVisVisVisVisVisVisVisVisVisVisVisVisVisVisVisVisVisVisVisVisVisVisVisVisVisVisVisVisVisbFYfuhJuARZoQ/wD2H/hTiRojv5Lbd7rbd7rbd7rbd7rbd7rbd7rbd7rbd7rbd7rbd7rbd7rbd7rbd7rbd7rbd7rbd7rbd7rbd7rbd7rbd7rbd7rbd7rbd7rbd7rbd7rbd7rbd7rbd7rbd7rbd7rbd7rbd7rbd7rbd7rbd7rbd7rbd7rbd7rbd7rbd7rbd7rbd7rbd7rbd7rbd7rbd7rbd7rbd7rbd7rbd7rbd7rbd7rbd7rbd7rbd7rbd7rbd7rbd7rbd7rbd7rbd7rbd7rbd7rbd7rbd7rbd7rbd7rbd7rbd7rbd7rbd7rbd7rbd7rbd7rbd7rbd7rbd7rbd7rbd7rbd7rbd7rbd7rbd7rbd7rbd7rbd7rbd7rbd7rbd7rbd7rbd7rbd7q57/uQEVxiwsjimxYRmx1BH7mdGgn4Tdo8R/yF+jOOq4Vm9aGn9wkKIj27Z1W9f8i0frQ3r+5aPC6uP+RQzwgmhg/cDQ8cADf8ijxMgBQBkP3KNE4nk2vhQXEZ4Ba8SGz8q/SR9q1dJb6tU2hkToVViscw8/8AF3P430P/AHABRn5NNmrBb1duCDnjtYmbrRZGYHt5oxdEm6HvbvFLWjeZKXYw/tXgQ/tXgQ/tXgQ/tXgQ/tXgQ/tXgQ/tXgQ/tXgQ/tXgQ/tXgQ/tT39jD1QTsolQK0JhdVF5C8GH9q8GH9q8CH9q8CH9qaGQ2Nc5+4UQK8JhcROZC8CH9q8CH9q8CH9q8CH9qNSGxrnOAuFGjsImK0yvAh/avBh/avBh/avAh/avAh/av7eF9q/toX2rwAOhXw3xGflFzPjM8uPtZ0h8RjXASAmF4EP7V4EP7V4MP7V4MP7V4EP7V4EP7V4EP7V4EP7VqQ2Nc5wFwoiF7Q4NZvXgQ/tXgw/tXgw/tXgQ/tRENoa2oDIUw3RIbXF0zeF4MP7V4EP7V4EP7VHiCDDmGH5aIIfCYXVRMlq8CH9q8CH9q8CH9q8CH9q8CH9q8CH9q8CH9q8CH9q8CH9q8CH9q8GH9qjOaJAvNOjjyzoJ/bxQ8cZDbFUXQxtOQhwW1Wjue3hCUKJiMjRo7fNPvNIPKSY0bzJADdZ0eHyLlJMZwtAs6PD5l1BdwM7t0eAJRhiOKw53G89zo8Pq6jSImZAswzmymAzJgsOHEQFDZxOAUu7iuyaaQ0b7k1uQknnl+5aPC6upaxgm5xkE2E31OZ7qOzyzFBdwM7xrOJ60ceadpw4WgLR2ecWmt4WUaRE5hvePqjUfrinRx5Z9zV4GChh4yXWdHPlNEJmbhZ0eHmS5QORrd5G82rTo7fNOjqf3Amgt3MaBS/SHYQ7h17t/SjSInMN7zR4eQLkXcDJ2tIf5ymHgBda0g+aVDTxuJ7zR4nMiiQ3pjRuEu50h3mlRAZkwWdGdzIogDI1rLW8LFEfws7yEzifSXcDKGD9yjvzeaYQI1naxshjBXjHdkmwdIa3XwIsv6GgO43E944cIAWkROjbL3ZCaJO+9R4mQAskp7+Ik0aO3Jgs3kC3D/wDcFGjs847lzshNOdmZqGwfM4C1BOT6Ij+FlnSD5pKO/N0u8gMybOnSInMNo6fuAUV5+VpKvohwx8zgEAMBYJOAUWKfmP4Wj/VOzpDsmGiBDdGaHBt6/uGr+4aq8F1Zudlz4hk1uJX9w1f3DV/cNUaIMHOmg7jcTZ0g+WVD38b7OkO8hoYziMkBlZ0eHkCUwseas9Zu42oDc3UNPC0m0WujtDhcV/cNX9w1RhBjtMQtkBRo4yNa1PJ4ojxOJ0rBKe8/M4lBkWMGvLiSF/cNX9w1OMB9eWNkk4Bf3DV/cNX9w1PfDM2SABpaeMl1Dzz/AG8URPNJtLDuYC6zpDhwUA8DSbMfndZgcxWsvHEQLOjt8lkN43ijRxmJ2XDjcG0aOPNO08cADUwZkICzo7Mmk0aRE5Btkk4BOcd5JsvfwstReUjRD803WNId5DZLuN5s6Q7yStwGZMCJ/ctHhZkup0iJkA2zE5kCjSInRtmGzifZhs4WgWdHh5uJsNYPmMkBlZ0eHkCVIb1Dbk0Czo8PmTQ53Ay1pD83laO3z2nDhaBQ5/G+zpD/ACWtIiZuq2tJHkogMyYLDhxuDbOjjfVnZq8bgLUJg+ZwFDv3AmirwNApiuzfZjS3SdQ5sZ5Dy6eC8U/aV4p+0rxT9pXin7SoPYOm1oO6xAZm8WmM4WWNHb5p2nDgaAoDM3i01vAyjSInMNsvfwtJRKnwtJtaQ7z0aON9WdkjjcBahniJNqOPIVBZxOAs6PDzJNgNzuTW5CVnR4fU2oHLWoaOf7h1o0h/npHNxskG8FXXwXbJ/wCO6h+UF1rSDkatgu4GWtId50w8IJtaQcnSoB4nE2dIPKVGkxOjbLnZCac7MzQGdyY3IAWdHh9XWoDMmC1EHlKgDhJNlreBljR2ecWqvAyVqNE4WyoaOX7gFEfwtJU6WfUbTocYTaVJ18M7Ls+5jvyaBaiP4nE2NIidG2Xv4RNE5rSImQDbJJ3J7jvcTRo7MmCyxnE+gu4nmzpDvJRo7M3i0G8DLMNnE4BSt6Q7gBH5s6QcnSsA8DSbWkO80rUaJxPl7UO/bxRGzdq2IrN7X23Q4razSpHWhO2XdxEfxPsx35MNkO43E2dIPllQ9/E+zpD8mGhjcyAgBus6PDyBdRo7fLOzV43AUNPA0m0YkWA1zzvK/tmL+2YoXYQWse52IogDIz7jT3f/AHatgk7k92bibGkxOjbJdkJpzszO1A561BOf7eKIEPidOw6EcIgu69w6FFE2lGHEw+V2YtwOYrWXjjIbZ0dnkstZxPogDfKdlw43AUaOMnTtPHCAEBmmt4RKzo8Pq6jSImQDe5gQ8mzoe/hZ3EXzRC6xpD8mGy53E+zpDvLbhs4WgJx5fuBNDWcDLDYjNppmE2KzfiMj3BYbni9pyKcx4k5pkRZkobcmgWdHh5kmw1uZkg3ISs6PD5FylmmM4WgWdHh8y6hzuBlrSH5vK0dvntVeBgoc7if3MTJsm0aREzIHeOHEQLOjt8s7NXjcBa0dmbxQed37h1o0h26tIWZm+E7bH/Ka9hm04HuG6UwY6r7MBmbxaYzhZY0ceadpw4GgLR2ZvFpreBlGkROYFmI7JpKnmgeBpNrSHeaVGjjyz7mO/ieaGHiJd3mjw+ZdYAzKazhErOjw+rrTTwNLqGD9wCe/hE0XZ32uyjeA7/pQIMwbcaGd7bMPJoLrWkHI1bBdwMtaQ/N5TDwAm1pB80qAeNxdZ0g5tlRpETo2y45BOdmZoBMYPlEu4ivyaSp0QGZMHeNbwMsaO3zi1V4GC1pETkG0SyH7jHOYq9wIGkH4JwPD3EUZPP8AuxHiZNDbJKiOzcTY0iJ0bZe7ITROd60iJkA2yTknv4iTRo7fILLGcb6C7jeTZ0h3llRo7fOLRgva9zhkvCirw4qiwobIgc8SvohszcApWNDh8VY/juNIPmlYaeBpNrSHeaVqtxuJof1/bxRCh8Tp9y3RdIP0OP8Aq3pH1mxEfxPsx35MNkO43E2dIO+rKh7+J9nSH5MNDGD5jJSG6zo8PIE0aOPLOzV43AUNPA0m1pLvNKzo4yNb2s6I3hH+7ZKe/iM7GkROjbLjkE53EZ2tHb5Uf3AmiGzgZ/umFB4zJeLFXixV4sVeLFT39rF1RNTClE8WHcedqMfObEDMidl44iBZ0dvknZazjfRo4zFay4cbgKNHHmnaeOBoag0YlNaNwlZ0eH1dRpETkBZJO5PccXGdmI/hZZacoobb0h+TDZLuN5NnSHeS01uZkg3IST/3LSDuBlS08LSbOkHlKiIM2WSck45mxDZwtAs6PDzNaw1o3mSAGAs6PD5FykmMHyiVnR4fMuoc7hZa0h+bytHb57VXgYBQ5/G+zpDvJK1pETNwFmHEzjT/ADbcONwFnRx5Z2avG4C1o4806AOf7gE5x3Cac44uM6dIiZANssZxvoinJlmO/JhsQGZvFpjOBljRm+edpw4WgLR2ZvFoN4GSo0iJzDbMR/C0lTVbgaTa0l3mlRo48s7JbxuAtMPGS6xpD8mFQj5hb0eHmS6wAN9yY3ISs6PD6utOfwMoYP3HSD5ZWIr+J9nR4fIuo0l/RtmIOIhtiH5QXWtIORlYYeFpNrSHedMPC0utaQ7zSoaeJxNnSDmJUaRFzk2y5xwAmnOO8zQGdyY3ISs6PD6m1AZkwWHjjIam9QgbTW8DLGjs89qrwMAtaREzdKg8v28UQ2cb7EPmSbJHC0CisfncTZgQsyXWI8TJoFmaiP4nE2I78mysuOQROa0iL0bZe8/KJonO+jR2ZMFljOJ9EJp2jrGzHdvIlRo7M3i00MhvcGs3BeDE+1eDE+1eDE+1Se0tORUNnE4Czo8PNxNEM+UWtIPmlYB4Wk2tJd5pWofnJdQ48/28miDD4WzsaN9NmNPkmQoYm5xTITcGiVlzd0MVbER/E+zHdkw2dIPMWY8uA0MrCTn6xsvG+IatDGcTgEBlZgiA0FrZzmZJsTS3AyvqNtQofE6ftQ08LSe60g5GS0cZGdljOFlEE+QWSTuT3He4mxpETo2yXHcJpzjvM7UFmTAnHl+4GiOcjVsaN9NkGM01h8wR7FmsfmONlz3YNE0+IcXGdiBzFay8cZDbOkt6GzJdpUJ31SbrTYLdmFj1o0ceafehg/8ATbKjSInIN7klPfxOJT38LLOkHI1aNHPkFnSH+Q2S/jfZ0h3ltQWcTwKHfuARJwCe84udOwwcBLe7EBp14uPSxIKGwbmgWdHh5uJs1D/6jZd2+KdrBozKLnGbjeaHO4Gd4+I86rRNPiuxcZ0OfxP7nSH5MNEeJmatiaiOO9xNGjfTZcONwbZ0du+rOzV4nAWoWTZuoaOf7jpD/LKy+A7CJeOvdOixTqhPjRMTuyFiAzN4tMZwsssiNxaZpkVmy4T7kueZNGJUx4Tbmj/mnSInMDvP6SEeb/8AtTo48s+5eOMgUQzxEusR35MNMH1s6PD5k2AM7k1uQlZ0eH1dajxOFsqAMh+3ihrON9kOaZEYFScZR27Qz59xXjO6DeVWfcwbLcrMPygutaQcjVtdlGPwHf8ASUCDMG2XxHBrRiSuygzEAf8AVYB43E91ejC0M1omBfuCmcaAM0xnCJdzo8PMl1EBmTBYeOIgUt+o2Wt4GWNHb5xaq8DLUR/E+h37eaIEPJs7QfDcWuGBCDdNEjxtU4URrxyNj4sZg9VV0Nn83/8AZF8V5c47zaiRIrXOm2QkvCi/heFFXhRV4UVeFF/Ce8/MZ26u3C4T/wAK6JUfwvuV1M3uDRzKIg/GfywXxnau5owFmFB7OJqiS8KL+F4UX8Lwoq8KKvCi/heFF/C8KL+Fq6PE9SF8KCxvMma+NFNXhFwsQ3vE2tcCZLwov4XhRfwvCi/heFF/C8KKvCirwov4XhRfwvCi/hNexpa1rZXoTwmpCFFXhRfwvCirwov4UNkNj21TMzpMKIx5Nady8KL+F4UX8Lwov4XhRfwokYTAdhOw2NEBIbPBeFF/C8KL+F4UX8Lwov4XhRVFjC4ON07UAZitQT+yYK82MFcaLxSTRG8ur3E2kg8lq6TFHqv7mIviR4h/l+o+HFiN6OX91E91fpMX3Wu5zup/fJDE3JjRuEk88u6wWH6fHvLwt6kpqI/icT/kWjs89Emic1sFYLELaWJows3qYw/UfFisZ1K1K0U8gvgwmM63r4kd8shcvhx4g9ZrXEOJ+F8aC9vMXrVjtBydcptII5WNIfkw/wCR1uBpPeaz2jqVquaehpmMP0c4j2tHMq55iHyBf+XghvN161o7gMm3K+/r3E4b3NPIrxa48wmvjwAebCtZzoZ8wT4LI7ZO3tK+DGY76hJXwC4eW9Se0tPMf5A+O7GIbulOtFYPVXx2eiue49GrVhxCtWB7uQqMZMpgiOa2sJ3NTm9vEnukVJ8R59VetWY6IM0k1mcW8KYwUkR303EAc1fGDjk29fAgeryvFqDJgU3uLjzPcEsGqMXG4BVXSzmDMHuPh6Q/1vXxWQ4n4UtJguHUVgpQywPPCapQaxxcxwmJ/wCMXNK3e6vIC1j7IaxKwQayJVaLgAFfHie61nE9TZLIsTs7rinxtZ8OGZSlinms4sndNTCvsHR3nZvbQHd8Xsiva87iZhTfDmzibeO51BcMTuClDb/UxPZgXx39u4YQ2XMaqxkOQwHdTa2pD43KtENaNzvcq9Wq0CTR/h2yfZbKxar3K8n0V9ZYK5racaJ928hodWbVvQfAY34jA2Jyob2gJZvAUU3sEtQPvsQomRod3kjhYJLKj+JlyJg/GZyxUnAg5GxKG2f+gqrQdJi5N2R6r/zD+0lhChXMCq3Nh8Dbh3UoLNXiOCEXTHh7/N/wFU0MdmziOKLnElx3n/BcCrmlYflXkBXuV5JWE+quaFgPa0GME3HAKI5uDcZhYzFAJF/JQDVbMkzIxXZhgrl062+SIrBshWJKNXSBWada65F0rhZkJT5r4Tg4JzW4BCsJhGrgoleHXJF3JNhylK/rYaZgzysQnZtCd0724rXuV19Px4bTz3rtNBjB7cnf912b4Lg5Vb9Ii8DNn1KlpDwZYQINwHUqoJQ4fCzuqkBheUH6Wa7uAYIBoAA3BRWxXOdfME5fv2yfZbK+X3V7peivcfRXzKw91c0Lmt/d3U9rUrEC5OiwYWtFh/FG5tiNDIuBBnLfRuvuKLGk1XbQzTRc0NwkmF5nElfZ0eNFDZSwaESJumcZKp2cSq441FdAcBzV4YP5LXjN9lM6Q6fIJtdzzL8rwp9Sq0GG1prDCiUJhd0Ra2HF7XNzlA+lHv8AVMl8QeoQIwKd0VaBEczoo8OK0VmyNYb0IWhx+yc0azW7zzXxIc2cTbx3NWG0ucdwXa/+IxBDYPln/wArsf8AwyEAOKVy0l8Z5e6sMaIektF7dV3T91mGmSw/Kxar3fhXkrCauaFgPa3VYJu3Ba1xwIXVVS4dVDi8TyFh8WfsEd0hMlXPaJY1tyOQsyGKuex3Q4KTcKoV+CuwT+0aXXasjgUIQEhi7zWHAG51xQlktVjj6K6BE9l4UupV5ht9VrR2/apuiO6BXh7v5IygtvzvUhDblgrgB3DmsaXOmLgrzfvTmwXlwHzZ0Q/Wg9f0DOid0o0noP8AaiuYS01sQpRpRm88Vd8CMfRVoXxmcsVJwkcjYkMVX0k9jDy3owv/AA+GIj97v/lVo755DcKNI+oURITsHCScx+00yP7VgVslbvdXkAK93sr5lYT6q5oWA9lj3waYPbDhWkRYcLsnQ2VmNKdEdKbsqBPco7DgJOHWdDtUOrCV6NS9jhJwO9MhtaGNb7pjnSr4H/vZ0Z8UAMBqzkiTM85KqyE5098kezgvq7i65Xhg/khXjMWtHPo1az4h9V4Zd1KugMWrDYOg7m9zR6rWjM914wPRXV3ei1YLvUrVgt91d2Y9FFMYzIN1EctMjVsSycaH9f0DOid0o0noP9qN9VMmPrM4XXqrp0Go/i/+V2mgRhEbkf8AuqseG5h5oOI7OFxOUoY7bSPz/wDC13VYfA3CxpH1Clsdo1YmPX9guWyVh+Vi1bX4V5K3rCfVXNAsi/fafEiRA1jbupyUSNWvaZSoAiOlNGWHdEw605blDE3MqNl9dG6h0sHCRo1WOPoroET2Xgy6la3Zt9VrR2+jVfFf6K+ufVS7Fp6oNaxoaMBJXNHc60Vg/kr47aKhhucZTuWrA93K6HDC22jo1a0d8uSB7WJP6k9xbI5W446URh5SmzY7WwUjcaIo89Dv0Deid0o0noP9qP8AVZnAiOYpaZAD+bVVZ8KFk3G1pH1CmIwbQ1m9f0+BWyVu91tBXuPsr5rCfVTkFcB3N1iKTK4at+9VnirEa+UjvtCG0HUfWcnQ53OMyvizqgTu3qKTBaGsvArSJXaXBpwCvl6GdjWwWqJblgVqwnn0U+wd6p1QNZWEjegHRWBuS1o/s1a0SIVsE9SroDPVarGj07m97R6rWjw/deLPoF2cMunzFhxdphEWtIMDUyekvfMTmHq9xPrS08lDlvagKgNUz1lNrw6uKxqiQFESswOLmyHJSkmPMgxxMlCm14D95H+ldhZijNtD+irOcawuElW5CjSB0NB/QNTulGk9B/tRvq73SPqFh8tiJrDvLlslbKxb7q8yV5KvmfVbM+quAHc3tI3prntkHbPMUXi1cpDGi6jtZGoHSnzQrtqxJXyMxQb7EVjMSMM6NUOPQIVIET2QnDddxFQg2pOWtetaMz2WtGd7K/tD6rwp9SroTPZXNA7jWcB1V8ZnuvGB6K6uf4rVgvPqjKAPddo8AGZF1FaG4tNYYI1orvVxTS8NI82CdU2Z3UMiNxaZpr24ETpiDJxV1iCc2haO7qpoNrseSJ6u6m5Q28K7IRS5rPakisG6pxplm00u5GgNZi5RS0i8XtyoHT9A1EZolwrwuMLSeg/2o31d7HJBkXCVjtGjXha3pTgVKqVh+Vi1bX4V9ZYTU6oQuH6KE94a0Vakg6eCbWM6okFF1QYkxfkEBKvENxBGAVXtOtyLHYiwdUFxwvwR7S4t1yjzKriUp1aAAx5bPcFdBieq8MDqVrPhha2kezVrRYhV7XHq5BzITQRvWrCYPRXAdzWiuqtXiE9AtVkQ+i1YB9XLVhwwrnNb/FFsaJWFWhv0WSM08ZOofyIKeXOk8bIzTX3Eg4OwUxv35pgmAHCczuC+HEERuYRhHGH/AKpj/WbHaPeGMJqqDUNZoEpqCfNZuoDjfK/qnxQWSB1g35UJ4IHccKWdDTGHmNHaNIrNwTX3a8M3DrQz9BVovUaNBZUc6QIGCfGEIuhuvm2/u9WHVbxPuXaaZEDz5rgpB9w4WrVbEctSAfUrVhMHqiD2cj5UC1ovV1yxpusmYOFF9OOtSWznz7por3tcdWidGqCeiLuyiOd9K8Ejqr6jfVa0ZnoFrRz9qm4v2Ozx3Lwp9ShUhNElqtaOgtzJkFqkxD5V8OE1vW9bYb0C8c+wXiB3UL40IH6VJr5O4XWScnC0zoaIP02ZlaQOc6I/00SzvUEMwawNknQ4ujw61WpNu6hhOy7VNMVglMneqpc130lTlcu0dqsnIHNVK2pOah+qacnWgCZDNQ2sjsiF+FVM7MVIhbUiN3UQ3Pe4dFf2h/kvBn1KnDhMac5Ux3XVa08aKgMjK5Qx1FDP0Mn450P6hQ/pC+LBY7nJfCiPh/lfDiw3dbl4bXdHL+2d7hf2zvwvCDerl8SJDZ+VPSYzj/0hNcyGwzwq3kqUBgYMzeU0RHlznbzTDBZKI0SPMUytVW4lN7N1YOE+ivRAOs3WATpZ0Q6u5sin3yaxtYmm8SodEDtZpvbys6rHnoFdAf7Lw5dStZ0Meq1o49GrWivKvDj/ACXgtPVasJnsrmgU6z2jqV48L7lqxWH+XdVduLwqcV13Duttc9hAdggyOS+HnvCDmmYNMX0tQOtEHDfT8KGXItMpjKiOOQojDymgiU5qYXxiat8yrgZHBCShv3yketD+YClgmwatRkp1Qg2dwwFEsnFdmXVb5zWtEiFbBPVyugMTwwANkLhTFeIIZFaQ6GG7+SfEIDS6+QobyJFqIQb5TM6IVfDF0lDLdmtdQOv6Ecr6HAm8uElCc0zBaFdfEOAVZ8V8+qFWM+YG++avLHdQtmF7IBjIfOaMiwcw1X6Q6XK5EzJaTvUxs0B8O5wwUUvlBiNEyw7zyohOiXSkCjVvE7u47W4yQIIvvlkhJOcRulWCLhNxNDSfmwKNUOk9srlqwoh/iroDvVBzgwGUscFrRYYWtHPoFe+IfVeHPqVdAZ7LVY0dB3Ui6s/havhAQx7la8V59aO0qGphWldR8OI5vQqUYCI32K+E6/LfaqQ/Fd+ES4zJ39wO1fOWFAgxD8N2HI0x/pszORWiCAS6R1jLE0Qjk6ivLVnKaa0NkRic6XjNlDx5TSGME3FMa+GQScCuxhVDBcA9svlQX9OeG6hvNiqxHivLZF8k0udWJFMUeeyObEJYoTwTnwm/ST8tLxk+1cJ1mhSOKkoH1ij1/Qk50AQ7+zEpLsXGbmJ7taeBDt1EVzwQ5krutJbvfcqqLmCTCpmU+SvV9BMVteKfmKutyaJqq+C+fSa1YD/ZbFX6irzDHqtaO30C1o0QhAkOuEsV4IPVACEyQwuVwsTcQBzV8UE8r0KrXuV+jPHUq+A/3WtXZ1C+FEa7obZLjIBFmjasPi3myIJd8IfLSL0JOLYjXash/wArs4t0Yf8AVYfEdg0J0R+05OAexkhPWKMeuLjKqBOzMIl181Cjw4dRh1cbyaG9tPs98lMT1TVvoijymzfgmmExrb5TN9HRwTWwW4YvOLl2U9StWsN5tNLupoZrFt+I3L+uhxq0MasQS9E6pszu6UQ4g+UoObgb1BdyQjNdKIDNRJNBe/5juRhENkL576I46WYJPCmOa74h2hlQ0RPDnenBrqzdxojjzC1Be241UXOMyaGHI0O/Qt6Jz3YNE0Xk43qFfqvuKLw3UffPmhW2Z3qNLZicWS50TZiL1MJjQ2TpkuNMVjxMuGqcqNWE8+iugO9VrwxLm5a0SGFrR/Zq1nxCtgnq5XQGey1IbR0HeF8Rwa0ZqrorZDicpxXuceZV+tdROKdo3lEQ5kK7FTaS12CDY/xGflB8J022TChn4Tf+qyHRBMJ5hs1mGbnE7qfhFxh5lVWisJ3ZoOh3ObfNMi540w4I36xpLGvcGnEUiJHcQDgAhEhOJZgZ7qPwmxCD2U7utL4e5wnQ7pTDBExPBPAbVE8FGiRAHVGzAOajxIwbKrhJNPJRPRFxEibMHrTFHmNDWueGA/MdyjBzq4wDNzudM23Itcddh/CgHrTKiK2riBfZgVpXhwvohvne4WI46G1APWw05hP6foosNpkXCS7OK0tIO9NbDF073ZJkMETYKxo5rUgxD6IfCl1KILWMiT2625H4zQ3opxIheJYSV/aH+S8EK6BD+1arQPTu+ye188wmmFDrTF8zgtWHDH5V7g3+KvjuV8WIfVX4hxFJiRDd/tVohu3NysSGKq1HTdqylimw6ld8S+vkmjJNGD2/mgH/ANM7QQIwNNVu3EuFoNT6oNUXusRScSwtCiRYdSpgQ7enQHSq7TRS4cIAsTNEL6Qo48s6QJmQ3UwDvJlTEGjtNUGi73FETR3k1YrZeu6iEfKFGdKcm4JxeXvinBVmggggGxAPmpiDWxmUOdDWNbrZ0lwGqMSmz2X6pUM+eyYLrpNNmCfMiGJtYAVRK6iIy6cUVQTuRa64hRBmy1AOTjYgnyBO6foeYo12td1CrQmCZMuiLnmbjiaYB8trWc0dSr48P3XjtV/aH+KuhxE+UI6rZ3lTMFw9VeIjfRfCiA8rIngWhB0KCS8f/UK7USDpzuFyrRDWcmga0bEu3BPbxYqIMn0kDw2XCzkg/wDqu1h6OROtkn9k4uhz1bLQcWatLhuZqq+gNGJVZ5hjy1pmhuoC+V5Ke2UiLxKxepblojmz7cvk6/dTH6qI6q4RjcMgFJ4IPNTexzRzFFRjZuyUI+UJ7cxahuycKYz2GUeHF2eIFO5qIx2Dh7GhryJy3K7BQPpUYeU2K43YiiETOQcKdJ5NrUXiVh8Jp1X4+i5qHF3zE1zTy1hNXHkpESNEInB4MrLL5a4vTp3hTFArGQzTi+pImvzQGbTaafOLEA+X9FMLI5UE5OCdFDT2bcTTB6SpfDhvqtHJXx3+ly1ojz1NF+CNXBBz9wq2IAbKteXFQ6jIkOKMb7lV0ib4ee8IOYZtO+mD2mwIZJ9Ea0GGwOBJ5CSdLCarMhk1RuCF0pCVEccxRGfvldRW3Tkq3OVDXZqrCaXFRXSZ2dXXGM7UaHmK1MaKGOLaxvoAGJWu0TaZEGhvWmI3JxsGK1oMMYmafEe7siNaGZ5JrsxOiP1Q7ODDBlLCfqq0Zxc7mrySnfDrRXXTdg3optcQ7NQT5aHDI2ZphzFD6rZH5udqCn9LFaC/WY3XbQ475gIUYyrNCzWM6Iz/AJxh/wA0auKLyJbitJgHfJzaNV5a7NHtDN2aluWja+DiA2y84yINF67Vp1S6rKmF7Wn8iDYhcqD+hFEVdlXPZ8NLeTjSebRTIgg86axa1shIBop15y3UZVzLonNrB0jiv6d51HbPI06O1pl2k4ZPVObPAyoZFv7Jrp1WmXonRNJiTO4b0SJ123lRxyFEs3Ch04sqo2GhQ2X6+uUOa8s7k13zPvKIOBT2cJlQeVLeYIpeJmVY3TTnxGdoRg3d6qYuOKLnGZN9AKFGkT4jYqxi8TcMMkNFBrxIb9qSgHy0Ph3a5ATrxIRJAZCae5hmM0CLmT2nXBHtWkCt+aIPSiMPOaHEblFdPYbOhxKgnyih/MCgXWBycaHjzGgEbkSLiRI0wzm0UQpNrTZgnBXIrVkCE01XBxxyUxing/NSDkicDv50aO7dXFmP0UgmP4qQVo581qP0sdHGh/X9EFH+lRGta0RG65e47qXCGHXG+dMM5sonCe9r53oueS5x3nuDuKLXhhLmThRA28ckCNoGc1DicQo0eJwxEak6vOw4DaP+lEGbKIX1q9RAW7UseFC91xkJ7gqs9xV6gfTRH60PAE67aqkRI0QPqpjSGrWM/dPAvb80rLDmKIkMXTv/ABQZmVAdX162zLdmgGOLmNwJUPlMURHAydcQjVyBPWhrK1zWyVeOPlDZAIhzBJ5u5JvIkURx5qKs05zBe41T0U0+odUZqB0oBzZQGtxNiIMn0R2mFDcKxuq0Su9VBf2VRhEhzV+NEA+QUQHTlcaJTkgSNV2BzovKrc5KtuwsdnISnOe+iGcnWY48hUGWkQi5+InspsEkOLBtCxCPmFqP9BsRRk6h/wCib0UUeUp5YLmi+mOOYpgm+sosKqDXlflZPYsL5ZKboD5UiWM0x0R8N8OE4B1UflOY2L2kMGYNAHC4igHJwtDm00M+tOJxlcmyui1droVXdKc5SU2mRUimje0yoj/+3WFAlii4sNbfILVgvPooTzBcAHb6Y8DD4tZNhuNVrcSPmTakKrDwkU9rDNoN1MA+QURospkQw8e8qBfK6dGar3SR5PNHVgQNUAykZb7BThk+iLzlQbpHBFpvIQHNRPqKZyJognymgObiECfmFamOOYNEWthWVxmjLehedXBFxxog9KILsnUCe9Q4btmHhYqyAE52weVh4zFEzfYaeaBsxBm02NIHMUH9E1Hoi2ZpjjkDTAPM2o111XGis0SbEE/WgAYlRoUY1YR8TOgqO3IiiJ6Uzphc7qDycERmnRGTDG80C6+fNYT5K8eiqPuhvx5KYvC7WIDX6rwGLVhMHosLMf6qBOjW911wUHpQyRuLJUNqzILQUagnITNMUeaiEfLajjzCjq0JplWluXxtgzmmyM7leEL5lFuTjRosSIJsBMwiHCW+hjHb7xTHHIURPQoATnvoE9yaxuLjJObkZKFXoH1hGoZTElDlw4ZUvh7ywy69zCPkFgpwyKluprGLCY3zORkmHyi0RzpjDyzo9P0QoiDzGmIM20glwFVyLw/WGLbLwNUVcM6IB5lSOzOjHWnTGb5Z0R/psODoTIgdnuRLGVG5KAfNRGbvq0Vaxqi+SExNDdO8FGeNEtuFwlANdVfwnuIvvYrPBkN6ZXyuUPlRCLIbnjfJCcEgc1fVHUo/Ha2dxqrWju9AtZ0R3qndi2VbG+jRz1Uqbr6I7ehohnNtGvKqxOIuvuC1hIppf1USWdEI5OT2xGdvqyY4fLQ05JxlKdDxmyiebRYmES7EpwyfQ/kRZheqiAbLtYdxAPlsxmsaSQ8qq7GhsQ7LpyTZy1RK6iCfKLUYZPNLhmyhvT9F60Rx5ir6BzaaTycCn5m6iuJFtJBxLbqGuHyvUlfgrlM3mgjNtEYeU2BdNFQj5hReokM7inHJNPNTAdMXUdV2e6c6AH/Eh818N2twnG11aFjSYYvZiUKxnLBO5PPdQT5kDKV0qa8Jxa7NCvL0ElFGbaIB5Gi/BbMwNxXbObVa64K5R29DRPJ4RbPVUrA5tNEI+W1GHMURulmAfMmxRiwyPSxEiGIxgbnvsQbOkDzImWq3GS8NrA24AINmZDdTA6Wo481LOhoYf0TqIjSZAuF6qT+aU05uRkoXtTGpbEZrznXHKh903AXBNcdqYodyIKkVBENwcAKIhcZVWz60Q+hFDxysm+8nBNORQobpDejlChhomwSAG9FRd9yD2CZChX+lMlMGRQZpV440HMILTvFiGc2KbV8Rrb76wbKiHULS6K06p3URh5u6ZLjCIsFxOspZtNEE+aVF9wzV+KbCGsGTIFEebSLgKInKRRoupg0QD1FqOOlEf6TZgnzhPhnBwknNdiDKhu9SOIsDk42YgYCXGUkRDq1iZEJ1fa32GdTajelMDrKhvX9E6gmIJtkDIJ0UNqtqVmBX4lQM6+NMceWmuGZ6tDhxJmtqVgBOiORkjO9cqGuDa3LNF7HSNaXZnGSgfVQU4c7TDyFBa4TaUJGUL5X/APFB50Ce61qXs3tVeGeoypgHkRQ1pOE6BPcJUaQOndOI3EIk2HV21rruqheooacnrR3NJJeKxUZlcCtK4jmn15Vt8kyt7oHmozSPE1qI/wBNMlDZDhEOGLycaIH1UQTk61EHloijNpovTA2uyHvr0NORorjCIJ+tFdvypzdIfUaRe5ovJpgsLWjsxKY3p7cn2Q9txqhGUjWEr1Ua3XOLkx4AD60jKkjJ1o82imAY7X13SLZG6j1/RGgED5J9U2ZlMXsyo0Mtxnre9MUeUo1Z1eak0TJUIw69f554Tph1bqlEaWNUqaDZ3m5EG4qYUgFCfuDxTGHmNqAfIKS14DmncUX6NrM4d4V/ch7cPmGaa9pm03iiAeZoFbCiYojndIUFzzJo3ontRIIjXd0CFSA908L0GmDDnjtTVwY30UFsSJqkylKiNLcJ2oH1UP5EKU7hQStUE9EZDBM6GiKPKaS0XZJtYtmdwM5UQTk8UTycLR+igoiyw5gIuG1D1qT2r6jQJzsRzm6zDObaRyV67SELhtclGHmtMPkQ7UVZiYTCHTcdoZKGfMKHfpNHmZBzSE6VevkaA7mhQQrxJVhiEIROoDOVM008lEHlNLYeRnOluVYUxx5rUDpKzrCq/iCNdjokQnbbg2xEjB5rsxbKy6CcWXjpQw5PtFs7nNoj/TTMbt9MA+cURx5DahHzCiP0nYrwjJ0pKI14Be8g1sFBoIzRHOhtXGV6do8hJzq06AaIqi/1IfMiQIXw59nK4HdSWzBlkv4mmNElqNiSmjWxsQD5AiDgVEhn5TRfYjDkLMA8iLEmiZTjCmGMYGu5qOOhtaLEduKiEuLtY3mgFNPJP6fpNH6yVXISnmuSndLBMPlFMbWbPtCKu+gXX0FuSDuybICq7zc1Cdm0Ipo0dr3vG0X71BllTCiseXtfvldQ08qIvORs3XpnIkWy6D8N/wCFVjNkgHiRImom1MEVr7pWYeTtWh3JwNh5jxHB3yhoUJ7XTc4mYyUP1oijNppfDLWkG+TlBiB4L3i9gEqtENxaHX4Ghw5JhDXaz6oyQbDZKrcXT2qLhOhp5iiOPKbUDrTGbk80mEGCZMy6mE7NoUT0Qh7pqG6sCHict9AljuTnSlNOOTKYwhCvJ5dVlNdtFIBc7ZOKJdFDJbpXq5EPFV2RUEyA1d1DIw+bVNqIM2WYB8yxvU5GVAcwyci10wcCFFGbbTXt+RVqurmtZpHWiEfKE7p+ibRDPmTXH5mhEiXZNm4lc1APkFMcec2C8gAnJNF101APlocTqzJkhPcgxgm44BGG4HtBdJM17gDd60Qj5RR1aLDYgAcW5qI6Kxpc5sgWiUk4ZPs3kLWjQx/JXxh6LWAex2aMSES+HzxCDIpPZXuI6BT0guaNxCqNdWaDjnTDeCDg65TUbpZkMSoH1SoIpmUw9oxxdfJu6hn1CmLDgRSL9aSmaGlrg2d0yjRDPlCi/SaXPY6bWM1r/mpgdaS1x1Be2i/CwIWkTFXAoQoM6k5knfRHjxoTYrWkN6BRKms35SnV3yIGrOiJFPzmQp0l0OsGbzOS/qHbNaripBPij5Ab5YXYqbjMlQ+UxREb8wvFoc2my05Ooqh5lkROhxLqshMXYoFzZuLRshTfCe1tXEi0w5PQhk6gwCY124miAfKndP0TaDIEycChfMblc0OrHWnknB4kVB6Spjua1jj5hNRYUpF5nMWYXK6jSIDmg/FrB2VALTIhdpMl05zUeLEkKgAaG3C8qKIkSo+WrcoB8tEHzNl+U6G4zIsxR5qIZgmUzIrx3eivjRD/ACV5mn1oYe4iQnuogfQFenMYdXEJ7QBrb12kxKmGAyqWtv5qCfKFGHlNFycHDZxpgHJ4piCGS4A4myz6hTEngSHKLEhNEm3y5KarDZpgnISUYnhNPxI1W7cJodgwsaBvOKqthNHPeu1lqtGPOlkcfLcencShthl1aqOKW9QwDIRYcntpbDZi5MhtwaJUwWj5RWkho8vmrTTqzqrWiZKiSjRGVXVTvaVgck4Hc80xGbsQhWwR7MSbuovUMgGVnsi4tvnMLWfEPqtgu+oq6AxSY0NHIdw7kRYgfTQf0IojXykJppa4FmWSrSmAhrgAjFVA6tVcROl/MCjVnLnY6ONEZoZrkzLibBAMwmsAGMyVB6UQHciiQJUNbDmX/NkBTHHSiFXNUdoL06E0Q+zn8rJTpuwog0Qn5tlRqtrtZrObyQ7Hwt2Y6qq7ZR3qB0RCc07jJAjcuxZCBe59YuG9OYZTBlchrMdPhKrAGTTeckDnRG+s2YTc3CkR47nCYqSaMU2DCa8RYdxfhWoIxCkIjWvvMjvoIhyLTuKqvk1nCKXMLnGIzHJVYU6tULmnRGYRMJ5UuY4TabkWO2flOdFy1RO6dBNECJVxOpenulJ3zXzvouvOS7SKPiu/FiFICqcTRNwrMNzmneE8QroZOzNN1HauFVqqxWOa4b3b6WOr1CLsFrRXlViC66reV4DVqwmD0VwA73WiMHUq+Oz3XiT6BXNiH0ToQhET3zsQ626Yod1/Rx/pTGAYb04w2k1RM8lk2d7slFrRDElEIrGlpzZY13NAAnrb0BVhsaNzBJRRk6h3NoNMt1OUnEUQnTAkTSSYzIfVMbCJc/5nZqXZAv4iVF+mh3Ig2m8iaIJ80lG+EyJlW3Ff1DdWIHFjhYhetEYZmsiQCZYpsJzok3YNTmv2hihzTYTZNYcZb+qZfrtEiEXxD6Zok77GF6Zk3WpdDOOI6omKAH4GgOIMjgU9zXOYQ2d2+yDKac50tfWuU3GZTWVcDN7uWSAGAsVIo6HJawmzc8J11+ajRbqrRV96OooaHPNUYclecVVgtmUIkXXi/gWWui1rrrivCn1KugQ/ZarGj077WisHqvHaeiuLnei1YT/VasAerlc2GPRGG297hqVReCiHx4kx6LWe4+qa6vN5N7ckZX1m38kbpBGd0kAJDqq7TDdyD6YbZz34UO6/ogoo8poe1jiA8SKkDq4yTtab3OrEZUwTyTQ2HJ28zT3lwYxu8/6TS4au8KV0qI45ihpzZZEtGYXumGvnfcmD1oYcn0snEcXvvAq7lo8Vpvfir1VAvqmdEceWxIYqW9RYe9r6ILOc12ja1QHFQXku7RzNYG+VGdEGiFGH0lSmKrsZpsV03SdNPefmM1XfFaDjVF5QBiBxFxGSumCtYk9aIZi6M0NbwHFT9MJKs5waTszUV29pCMV2MTDpYOkQRrfMM6Gsc6bW4DJNDXeVPhGJVYDIOUTs3MfWvBCmaGxSNQmSgGsDqyIyVSEL95yQYzHec7UiJhVmThny4JzGOY9p9ER2K8CJevAd6rXcxn5TWxviEHHBVYbQ0cu91ntHUrWjM914s+gWq2IfRasA+pWrCYPVXFg9F47h0WtGifcp13T6ok4myZicwm9lOvukiHY0trYTTnwmtcSZyOEk89mGE8Joc2cjKYRLZmTpVk/AlxDAP+UGjACSceX6NqcOVOSjjkKYB6rmrjrVrhYjjyiiF9KusQXFr6s5tGa0m920NrdQ7k4U6LE+UslimNODRIKIeyMVzRhyUESbPWbzlQWnA3JzTi0ypa5kptvvUyRxlOfKbH7QTX65nyRiP6AZBdnWNQnBYz52ITMmih8Pfu6oTGs12CiyAArUeYKuQ10Ticnh2y7Gy6C2G11YYkTUARNVjSS5uausmJo0mv3t3FdnFBhnmFWYbp3TxRdEbXnYqNa90WtdLJVo/wANuW9VITZD9FitaKweq8dnopBzndAtVjuVa5asADq5XNhheIB0ar47/QrWiPPqr+6q01hDNWU5m6mtDMnKZpl+VNpIPJRTFcRVGqBvVaqauaeRlIoNFwJnVXbxhJ52RlQGZ3/oxQ8eY0XqIPJTCPnTSYYfEM8d2ShiAxgc4VnEbjkiwOaXUvGbKC1jaxZCvm6QCixDKoAW+tF/zihjXPJDNnko9fEyNEaWVIvGo/DffQ17HESyUOIfmfS6oJ19ZX0B096lxCRoYeRqzpq0w+zbKG0AusdvAHxN4zRL9rfYIRv1tzc0YUUcq3CVKgGrVhvBrzxOSkLes0HqptrQzyK1Y/u1Xxx9q8d32rWBifUpQmNb0Hd3vaPVa0Zg9V4s+gWqHu9FqwHepWrBYPVXVAeiuin0C1o8T3Ws4mhr3SkJn8J0TsRFa28g7lcJCkAtc10r590+HFuryFfhTuy2BcrgTSDVN+HNarKm6U7d161ITzLkmiJBiMbvdkocOTCIdwfPEKbokMdF2r5xH891BJwCLj+ljjzmnq00zycKLiVMY4olOcxswMUHxTJtUhfAY5zudwTXRHXxDeo0OFIsJrX4hGW9PZvwpjOfebhOiL0TqmzuswD5xSNz23goVmkP+adFQCZI90GbhQxp+QSUy0O5Glt4M2zuQhwmzcVVF7jtHOzW2InEFsdo3NqkRI06hkRfOckYcdxiRawlUH+ytYdm3MoOd8R/P9DrRWDqVfHYrnl3QLVhxCtWB7uWrDhhbbR0ar471rRHn1V6FwEqS90NwYN5pcGGVbGkoSCc0EhpxCrVj2k9lYKe5NDnVqokO6NcE5J0KHDaxrsd5K1HFvRa7pN3uR/p4TgzLFMb2USTBVGrJeDLqVf2Y9VrR2+gWtGd6BX13eq8EHqtWCweiuaB6WpuNykNn9IetEYnOVML1pi+llz2OlVbWuWqJBBuaeAZVHhPLmylRXIlWUWYm87JyorcZnREHlKY2Ws27rZYedgxYN0Xf5lVitLXDcgW7iJNxRENsp6xU80M02peaQXDsm8R3qrCHU7z3GuxruoXgMXghXQIfstUAdze4e61o0Meq8YHorq7vRasF/qVqwWj1Vwhj0XjS6BXx4nutZzj69xDbFcGFpLnGWPJGwK7S5ovIRvdVnMAmfcV2scWzlMKJI1SzCf+lWDQ26RAzU3YI1cLFy1Ybz6K6A/1WwB1ctaJDC14/s1a1Z5zJVTs58ziroDPVasNg9O8vcFthYk+i1G+61j+ldQ/nJSCkoH1Ux/pszY5wfK9TbROHIumnDVyMlcU0NwARqnUTYbN/wCE1jcGiVBChyaAWXTzTw0zbO6xN06yacxYqxWBwTYmjxMDOT058JtZm69N+C6teqv9McZzUpBo5uXxYw/iFNrJuzdf32tEYPVTMZnug0RMeS1WRCtWAfVyh1GMmRfyW00dGozjOkteJE+5X3/ofjNe/kDJNYyG2HDbuCqNfJvJTjEiGL7sSg/s5wwdhPiYVj3FwJ6BRGs7Rta6VW4otDZuD7jW3K+oP5LWjM9lrR3egWsYh9V4U+pWrBZ7LVa0dB3eK22rbW9XMKuYFuW0r3lXk/qnUMO8hAhs5IDJQTk8Uxh5TR8WtV31cUOximJPNspURC5wa4CbedN907p5J4E5T3ptUz1b+qYKjWybu3qq2dTiOCky9xxdnYiVIJlWKva1vUrWiMHRa0f2atZ8QrYJ6uQAwHf3kLWjQx/JeMPRXF7ugWrCeVqwAOrlc2G1eLL+K148T0XZxYkS/dWRnisD1QA26ZEas8ckQx9duaI3FMqk9p836HCaDIomXsr1v+FAqMa0uvMlIoiruktVjz0CugRPaS8OXVy1nQwtaOPRq1osQq9rj/JeA31WrCYPRXAd3e4LbCxmrg5XM/KuACx/C2yr3H9k9KIJ5IaQIdaG+bUGvuMprRqsiSKxIPOl3SnVmbr6HFsNsiyoBkrobiei1YET2UxDq9Sj8RssypRIhJniFMQ6xzdf+i1ntHUoV4zBMTC8WfQLVbEd6LVgH1K1YTB6q4sH8V459FrRon3K8k0+CWxM2uuoZEeysyciM06qDKd1E1NyIlrzTmAioTMhXFEgTlRrCbcqJFX95cCVqwnn0XgOHVXhjfVa0VgV+kO9AgYjohkJYprTDrVcJlakFg9O8xV7wttb1cwq5gW5bSve5Xk/too0c9Vc43YXoujO1pYpocmHkKSXRj6BaznuTgGGTsQStWAz2VzGj0769a0WGP5K+O1XFzugWrCiH8LUge7lcyGFJkQAic7lfHie6viP91EEQF0W6qUOWFB5qJPGV3cG6/OhjQ2RaZk5oufeSrqOyfKsJFPe4T+UXUgjcnPwmZ03rDdKnVY49AroET2XhS6lXuhj1WtHb6NWtGeVfXP8l4LT1WrCYPRXADu73BbYW0rg5XM/KuaFiPZbZV7j+7togV9muhNtYZZolqv9FBPkHeXuaPVa0eH7rxZ9Arg93otWC71K1YTB1KuqDoF43sEZx33iSfNxLWCd7qPNQOd6G4zv6IywTu0ExVOCFbZ3ouhtur3E7rJn3JDXBwG8UvvkGtmmODQ4gzkVWfMuPzK8pkm/LiBimAQXVq851VPsHD8K9rW9XLWiQwtaP7NWs+IfVeGT1KugM9lqw2j07y9wW2Fv9lc0q5n5VwCxl0W273V5P+AN60Ctsh4mm9hfDAF+aMxIqYxUFxxlRer4rB/JXx2LacegWrDiH8LUge5WrDhhBrXNBN1zUGxXxg47kIPbdrDdrtM7wr0CLiO8h1W1arKqGc8k5TblKirzn3mq1x6BasGJ7LwSOpV/Zj1WtGZ7KIDGOu2qblf2h/kpdkCOaugs9lcB3d5CveFtK4FXMWyFu9ltlXuPv/hQoiPa0OluKdEGq68iruXxHF3MpokhDhxS1gWtHie6vc73o50Y0w6xk2d5X9bXnCa+oRvkjV2d36bVhPPQK6A/1uWwG9XLWiQwtaP7NWtEiFbBPVy8BnqtWGweiuHd3uC2wsSVc0q5n5WDVtLbKvcf8UBURh3hODZy3TRf2RlK+6SAkRLO0Hbimv4qGzM5iaaysGz3lRRXmAbmynWo593c0n0WrBiH0XgkdVfUb6rWjM9AtaO72V5iH1XhT6lXQIfstVrR0Hd4hXvC21v9lc0q5gW5ba23LH/HelGv4RdW9EIjyYrA4kX5p73xHRInyj/uqzZ127Qsu269bdsyTITBczehkhOgNA1qbprVhvPQK6A9eGB1K1nQwtaOPRq1oryr2uPVy8BvqtWEweiuAHd3uC2wsZq5rlcz8rZCxHstsq9x/wAnlnRLB42SuziCRFEhjRNpnRsuPQJzGwIkzyV0J2O9GsGtuzXxIzPRa0c+gW1EPqvCn1KugQ/ZSa0Dp3eKveFtreVcwq5gW5bS23e6vP8AmPOiUVs+e9asZwHRa0Z59FeHnq5XQWq6Cz7VcAO7vcPdXvC2pq4OVzFstW72W2Ve53v/AJ3MK7HLuMVttW2t5VzSrmLBq2le8rE//gW5a2stgq5iuaFuW2Ve4/8A+UC//8QALRABAAIBAQcDBAMBAQEBAAAAAQARITEQIEFRYXGRgaGxMMHw8VDR4UBgsMD/2gAIAQEAAT8h/wDmkX/5q/5i5cuXL/8ANAAAAAAAAAAAAAAAuXLly/5O5f8A6EAAAAAAAAAAAAAAAAgYMP4+4sWMZS3ky3ky+R8TsfE7HxOx8TsfE7HxOx8TsfE7HxOx8TsfE7HxOx8TsfE7HxOx8TsfE7HxOx8TsfE7HxOx8TsfE7HxOx8TsfE7HxOx8TsfE7HxOx8TsfE7HxOx8TsfE7HxOx8TsfE7HxOx8TsfE7HxOx8TsfE7HxOx8TsfE7HxOx8TsfE7HxOx8TsfE7HxOx8TsfE7HxOx8TsfE7HxOx8TsfE7HxOx8TsfE7HxOx8TsfE7HxOx8TsfE7HxOx8TsfE7HxOx8TsfE7HxOx8TsfE7HxOx8TsfE7HxOx8TsfE7HxOx8TsfE7HxLcnZJIIIGH8asXYdNILrNP8Az2qBFM+MNtFBg/xaxdhrdG51DzOg8zoPM6DzOg8zoPM6DzOg8zoPM6DzOg8zoPM6DzOg8zoPM6DzOg8zoPM6DzOg8zoPM6DzOg8zoPM6DzOg8zoPM6DzOg8zoPM6DzOg8zoPM6DzOg8zoPM6DzOg8zoPM6DzOg8zoPM6DzOg8zoPM6DzOg8zoPM6DzOg8zoPM6DzOg8zoPM6DzOg8zoPM6DzOg8zoPM6DzOg8zoPM6DzOg8zoPM6DzOg8zoPM6DzOg8zoPM6DzOg8zoPM6DzOg8zoPM6DzOg8zoPM6DzOg8zoPM6DzOg8zoPM6DzOg8zoPM6DzOg8wDojtwuvx3HlBh/EsWKdh2KWCtXhGDzWEfhLbzuJ+5z9jn7HP2Ofsc/Y5+xz9jn7HP2Ofsc/Y5+xz9jn7HP2Ofsc/Y5+xz9jn7HP2Ofsc/Y5+xz9jn7HP2Ofsc/Y5+xz9jn7HP2Ofsc/Y5+xz9jn7HP2Ofsc/Y5+xz9jn7HP2Ofsc/Y5+xz9jn7HP2Ofsc/Y5+xz9jn7HP2Ofsc/Y5+xz9jn7HP2Ofsc/Y5+xz9jn7HP2Ofsc/Y5+xz9jn7HP2Ofsc/Y5+xz9jn7HP2Ofsc/Y5+xz9jn7HP2Ofsc/Y5+xz9riVieinGoLRdmVy5YzUzOXpptpxQ/iWKOUnXOyt2tF4Ox/6HTUC5DXZRzuNsKPYP4d2HAT1NiMPlH/olYcUe2zXQ4oo9g/h3YcyTyNmKvAXsff8A9FyKZ8Vsp5m2OKPcB/CsdhQ4fXZnawDxb/6K8zTfVv7bLd+FR/Cu1UFDrnZ+XA71M8+/kZ7VVxV1vT/c+5L/AHDkQdN8M6LZNb1y5cuXLly5cuXu3LNy5cuXuWc9yz6dm7cs5yznuWbL37ly+uz1ly5cuXLly5cuWblhcROxjZcOteN+o/hXcREcCE21e9anfXcyHBrRP6D2DsQCqOG6vCcBcru2VyPTmbW1MQ8wxoitE/Qp+hT9Cn6FP0KfoU/Qp+hT9Cn6FFlXorgT3BgVfpCreZ+jT9en6FP0KHPEWI4zsC9yYVzmfoU/Qp+hT9CjCNFEddgGCUHRDM/Qp+rT9Wn6FP0Kasnpmu+mCav3AS+ve9JRiHEQ0wlO4ZJMq5z9Cn6FP1afq0/Qp+hT9Cn6FMR4iI1x2aFIwstZ+hT9Gn69Fv6Ue5KTRx2sQ3aa1c/Rp+hT9CgqtI01mkCNlQWtT9Cn6FP0KfoU/Qp+hT9Cn6FP0KfoU/VoQCkBoF7cQ0tvdzFRXhOoDe/EfwrtDR67Kd19E3Mx83lnI6wzvBc+r9EBYGDT/fZ0u9vP1Kt1a/VqNmSPug6OAG7ZwR9hBQOLUo/+hN2rmfAx99l06I+rj6YMy2HD/e5YvEeMfR0LqfGyhhovobv5C52OkMD9DcpNz77c40+4MNA4FfTuHF72luTq52NrRg9YA2Ao7uPoKj+FdqL7DZhJza/G3AWQ5s1dTPmH6QsFvlGZwl2mEb6uPqZyyfgmC9L/AEzusrFx95i0F3Z23si4LyuzJuIPT9n1CNRhe+vvt622+ufo1fCDznZ+HI/5u+jz32MBqb3gBRobn4UDH3lCqxl6H1OsQD1dtxllV6Z2YXkG+qQ/iEfi2Zav1Dq7a+YPXf59M2XX8TAJ3GD0z9/qWfjCp1oPLG91ADxj7T8aTH33st2FPpjZzR+w/b6hPEDfXY4ayoh6aP2fRzJZi9MThiUFj7Dd/KDGzrVeBDczDgvLOwF5fqUe8Z9Dbi3CPnGzyl33D+FdxUPXMZ+Nwx9tuPwPXd2v8N2cHmwYssY9O6rPL4poJze+w/b6lROPvrMm5g/P23RVaHhdRK0ucaL67oMaBcZbXyrssXDY77tXnObDO9+G5OzrAnjP2+jdHGjqDebcbW3uEAAaGN38hMbLiMVHdd3k2eziVrNA+h9SrXXXq7cj4g+dlqcgb6R/Cu4qh0gaW9klrnU67FyZ95gaaKNwHVBbGru2vhEGcPYN3q6vaGkPu6tOvGfqGfqGUz31Tnun1NacJ+oZ+kYM/YYS60jtPzxcfbdzTS0+uNlwcTwFbuYaQDu7OjD5tSqOCt2wC5HPP9SypkRwRXY0c7tXPr4NloGPtMN1l40cmfpGfrGJcSLiw0lgaeyPoYPSJ8T/AHcJzAFxteIerENUQeM/QM/UMKGHSDTdUOgtZ+oZ+oY/5DKS9zJW24zPomyiOL3yj+FdqKXN2VscvyO20j3BwhuNqoVeuIYCfjqY++72dPN3ajxTyb3crZ993OEwdTRe7nd6Rj0M7Oclv1zu/gYN/bZf+hb6Z3uUH3T7yldRe86AFbt3+kWvtss4Y+43T0MWxNae+btzae8u9+HGdl1qlp53OENAd0rd61jxjdzHWXljedJUUHQ4WGW+e/UfwjHaj0dlYOIemPvts/2Jndet/rbMnNKPndqpzY9g3KvBxld/4G7V/kk/3cXWgn1lL6AN24jqJ8QTNbAhklfEbtRnVPps5Ep772cLKHacv0L6Z3uXf3rZ1mPbG70CR5xDTdo5CHof7vKNzTWYgpI+NzmH7hf23bNKVndzu234W/tvPmT7pAFBQYnd5X0EB/EI59LZjbj1xzt7Y/g3XJq9o7HbvYNxu7bbbDzXxaZf1ud5h2veqBwXldy+jGb0z9t78hHP3n4MDP23qp4B5zs7n+4++7+ohJ1AbldWz7ZvctrB2NlmlKz13aB19F13r0KWfNb3Un4Z+xKYFFblQHVfTTcrTVnlOkf4G7hTxU3qI6N8TY4DjvlD+FdxZjmvZy+UHYxttfN7ph0KSOwKb/Nr9K2/kV94btSaeyNzHuEfVxvZPsUHYxLUMb2/lZMbLHM+k3u1Tq1+rWztQ+9ukxo3hOrF5MoHiPKfr/DdwZ4p8brpLm1I+N7rQHtMe2Iehu9KQ853OUjZ6Z+29Rcp5Z3roMeUv+bL+Ttv7H8K7iFLpP1vJGx5m9tnQD33vgS/qSry/CY6Hr9GwzSXu7qEXQzET19w3PUf3N02NF8CXfxLLPyJe6OihbEbW+8RaLn4QNd3MGS8Gdl3lLPQxu0LqIPXECgJYhZa7b3TsPOd3FP3BlQOBW8LQ8cS/wD0h/jd4llHsbmB7N4MnWXHY3udHtH+7O3Mb5R/Cu1Ch12Y46A9XcHjhfJvgWHkZaKx/m9foeld6FbvYYeN2zDPoGm7VOr7mNnMZvbG7+CBxDQiA6+cYeghRu2/iCtnODJ653boOfRNdnEM+w72tSyyfns/PZ3QFlBnZiaxH6H0LkMr8M/fcHQQtjtt/MblvIH3N0GtGjrd+TvVB1KvV2dd179R/Cu0HZZ2UrxWdj/dwWteGf59CkGfUeZAHvVwOdv0KqWXq7v4kjf23HAstTUHvndoByXgzss8yu9d2hXOwcX2WfTerBsm0XmwQT9B8Dd/DOmyz8QX9vo9QLzf82fkVb/n0KFtfN7n4INIFAbmAcs+hjdqXUYeuIYN0FwFriVn/QE6ZL6CI/hHcAv02yv9C8udxnaM3WMecHkD6FNcDHTXg4O7bBq4JQZXxG7QR1U7G5gO6/JgFaBurOX+wlBzKn6GE3cAdUeK2dbR843vwQafacWxC9jO9X3wDznZeer+D6NFHD7GythkXsH1Knc+m7vMzL653bsNPomu9gC8jsN7KNzxq38j+EdxVW5tlet29gxu5sYf2XWHjPYcT6HYeHs/bd6Qz3/yG7QXW9W9zB9hd2N7INkDDFljtvdLT3zsoUahfndv3HxEUz1Vs/A1x996o3Fx6Y2dafdz9HrKPfZZ3+x9SjmEfH33KN4BAG0HwN3B1/sffeu/T7B99nq29xHaH8K7iqHSW5xfAjrat8t5QRW8+faCWFYnHf44VXfhM8ddy6p9kY3s2cF6bnW0fON7lBQ9MTAlivit7NthT6FbPzMMfbdyJTR9cbMn4AfP9bt68RiI6t5RjMq1C0QPgfQzJXxktStXMdGAF+huIEFy6fQ5Sh77mH7FHsZ3qa9gPV3rnmgH3ftspN8DH8K7VyTm7M6Zqd1+grLZn4v6issbN/pWfducpvMN7pOaBct1v5jcybmH33erv7IqurfKfsFM/bd6ULn7AV2dBUe7nd6QB4zs/LQxu5upuO7iGk6ho9jO8AMBU4zP0hP0RKjoTSjYg2vvEIBoY3PxNH+voUS4KfQrc/ARx996qtMXpjeu+PwmNlo7N8o/iCeyzspt446B9G5hXHCdX2hvfkue5zPq8bv5NKhgNy7PxT7btTtKju42Woa2ehjdoRpod4aR9SD7oB6Ao3biOqmzB9KX653evvuv22fgw4++9Xmh7eN38MQ3bL+Kfdv2RwLlxcXzdy5RoB87t46Ix3dU83d0IqJTVfWO1yLl2nm79R/CMdszcwFbOSNnl/m2+FC0k/cE/eE/eE/eEQmR1nAg6JXEilLzfJwd7ql8u5QEyH6u7Q2vvO72MeWd3oAHjOz8sTnd54/cftsuvQ9nO9+IBn7xNYIEAZQXs3dCeZ8Gy5BoH33T0cLj66K3b0OV3XdrFx4IrfqBpod4abn6zDG7mKmwd3ENN3oH+TKq0CLZ0r6CI/hHcQpPN2Ui3R+mNt7GPtO7RLS1esJyz+7u9NyzqevvtC0OeJ+mwN2riF8CvvuJrAhB08AbtxHRBEIauCFowfZu0C4o9P3sxrhvLvdpB2MTqOHxn7b3SHqGXZ1AHxjdyPWQ7uN6pnCfQ/3cdi6Bcv3hee+59+439t3B9Xf653br8Lf23sE2FvY2UcwdxDaEP4R3FQOkFRQyj6+C9dt1TH3Td5yB7Z2X/gb3b2/QgobcbWEe173ID5H/ADc7IPDO9Sbj7z95+CAzvUa4D1OdncfgZ++6CmngCIiyrc0FZ6ppvdzJ9MbMAUtvrnd/MFz9t7nF7p/m5kCsDvU6EfOb9A3UPT9u4uqlSGCUHusDeKfb773U498bPRN76x/Cu1wDmwwTmq0+uNz8YKK3b+APtNmTk/3btXOfeNy78PaK++9nTFP0Nz8snH33uo6PQxL0MfaPvvcg7jsY2YTz9p+27zM93jZU3iH0zunrZL0j6waFB1funSf9m7hTxX7b2BqbHetznL7pf2ipOt7xdUL3uRoHq27nUIPjP23sE+4OfvvVI4RexspPIG+EfwrtB7rZSrnQ6H4bl5/c7vJLYy1WTe2hu1Gco+mPvuWFwn1f83VYtAufs2Xc6Cfk/wCboq6IxE9UrM40KfndLRz+JGV1TDoy+NbG7UDk/BOEo9Q+q7tHNUfriaTlJY9M/beJSYtU1ufu0/dp+7TomVpn7rFgoHLcpI6idiXWeU6wJ7b3Sv2cblvmPXNN78MwxvWSs+4f5s6pLaDcR/CMdlS7lDZTrh/Wv+bhoPzl3eYKx4iUKY6dZoW87tcOD6tXcu3pdg3eY9DvW71lR87tzjsfiGkbNC+tp7btUtEP32ftgWVjoA3bh4kOTEI500F6sMGN2j9b2xjWz7T9LNFlP0JahYj9CG5QTjN3W5qdp1O+HdDSQuPr73jc7CPuboaUaHeWt7t3trMB1Ue9ToomG/UfwjuIZubsrbQj6G4rf85d0ZgqFpqXRtBW90n9Mb2mqO/PcoP7je7zX90v7bveT726AKLHE4kKmCgBpuk5sfLswbYW9g+qWgjXdzst5L7j6NmcC5+whZymq8u7+WYI6O8kXBwDzj7w03OcSPjG70HZ5xDBu/gIMI9bjjfRIfwjtVKH0h6CLYyy0e7cC+yh5+mXwsDruU8w4IWhPaN2snGfQ/3dyphB3M/39NcBp7Al1o2PF2dbz3x9SkgpTW972YCy3gx9GpGmhDSUV9HwL++4TLQzHzp942WLt992gXO6F0HEeud27Dn0ze0jdp4hKedtvqH/AHXLly5cuXFijmQIKAnMC49cQwVuC7rwv/PpVkODxXkTAAuPANyhP3L3qAcF5Xd0d+Y8N0n0RcFtNAiC0zrjtZUah8fUPXAbT22rp1bPXP0c60i+b+2y1DPvGNy5v0IaGztKnvu1Ccqfjc64jynT/wDA3eJZyfG90dPN/wA2W7/Hj/ruXL+gAYUcKM527Mt5DwZ3XQKsODBxCf0n0EQR4PsE6fKuP9btsTHtH+735cgrevHW3fudoJIFiaO+Fg7RQRqi2eD39NyxzP0hQFQBqss/mD7PNiIiptXjs6kAlCcHxPo0c6np+46M6Ez23Koc++7bOkfvu9HT3zuXOWKPYzvUXAB5zvXCZanoH72Wnk1vBUGXLly5cuX9e5cuXL+sG8BacjZSrhn3XeyWD1BODFqsPc4QK+dbcvnScnxLBp/hiNcN28V4SxcZn4n9p+If3PxD+5+If3Pzv7RNfP5u/T+rtO6Dgk6yALQnM29SOVQlD6HyluoPJ7pdTbyVn3n4n9p+J/afiH9z8Q/ufif2n4n9o8P8neUsh6CGpyRXslmI/AG46oQakJ+J/afif2n4n9p+J/afiH9z8Q/ufmf2n539p+d/aVmqTXdxhboF1yhKiCjT+5+d/afiH9z8b+0OULi5xtsZpetZn4n9p+J/afif2n439oJVLDUG4UvqGu0n4n9p+J/afif2n4n9p+If3CENsNQb34cnMWi51KXcSjg7wCCBg/UuXLl7Rh2BMF/RB9e8ANCIOpcXjmB3gtKYNYI7IO+dmGaV8T6HWASphtEeuLn3yFvqanG+PP8A5q5z30Cad6sH045YRO++T/OOGsUgmqD9k6GwbVx7A2doD4vEea2CSCBgw+jcWMMMsmiGCa0g9cwBoH0tBWP0R6yrLdcYTrQLipt/If8AouQiHxn7QgaxIKJ98JxgO7OMOVa+2C1SB8HzAOCAaBuaSmcF+ENtBgw31ixjLQYLqhOItmiAbrBqO5L8rOkeWXATwXaXncGntNNzk0e80Tepb2lacxwpSCDqJ180r3FI1oQwf+i0FZ6o4+op4AI7TvQdtnjtem40oMN1igapwTdYnXEiXoZ4We8sjqz8CXHpgxKtq5q/oU47nkozE4F7obHZD7MqD8R5jQIqRqQ1empF+hOLnocxj/0DiKpdv/diDVJ73Rmsjuue7iQHuQGxwMHwVSsw82VeIkWtWAesavDriuovdiFpOqojd8X93mQjQUWJCdaMC7w3IlCG1iig1c9nXDSqXoC4NoWRn8GCWZ6ITqfe5+hzgsvKmenAKQeI742sw9JpROSp7zT06Zyl96MAWgUTwQLcM6jo/wDl1GoncjdI9JyJ3pGf2kE1fRLblZqpk1JyWUjfQyifFxk+TM3culaq88pTNUYF2vXxFNeaXoMYkpJaMncSzkWvLibLBmuHcgWwbWKOUGziO0T+nCWiy/M4fRXc+otdxhLY9a8t4+xAJ+4jcfSNBwUDQcg+lVdIlHpzhIDGos7HCHeN1v1f/GmdjsN/Iii6Oiy4xHYucfoDlIOcDtHg0YaIPQieNeIWxri8svRkhdXw2DDDr9JrQjoXxleOtu7cCueypNXahIzoB6ZdcdxSOHfbjFZZpO3sxxRR7BDdRLqoZ2VMuv8AgNJiF6Xxi0j1Ck3HiK6unceE75ajvcUCAL1r1L/U0pWg/s9fpX4c2I+sPvMjov3Jd8HcZ2OE1saJa/8AhNdJY18EQyLL0gmg70j7+WhVmHoQoUzyxAOoclAbA95kut6QpKVlvN3F5Y4IX5gyMQcJbWSXMKGlRIJqRDQBTzQP19nYcGNu5KZhwFxCxPoIEyFEWVUdG5mlGC3mxKcid9zUOc1EyNfLgw5aIoO0YTmBO8OICHRNYvulLxreLso4vLZoBt0tO+10nV3e0Fh1RxRxbY3k5bcmYgX58JemDmbWZ4mPWEi9o1+yBFfSzHe9KnwE1+HCUjv4KPmVF7GPXn6/S7ON0O7OdncD35zSjsFBHUuS3lp/OmdMz9wmO7V3g5djowiYVyyn28Qt4HVqANl+iuANh7Es4DqAnfTKbMjnpHeoOSyMUijltMqHArgecpIwrGy6v1htvM0YcRcvjZb6gZDgwVCrJjkhfwaBnHWWKYDTXOPbc46D3hiy29CGBqCzuylrho45dXUHMyxc0nuAw3flmLAA5MpqJqxqNT9WYeCgXYaszLyEVZBpJRzwS59B4hsukMI6xxxbY3EQQwS0KukUxfDInoT3qIEF8WH0hNoaDS9KhJTB39mWipfmcPomtPwWxRmAinmKIJi9PQcfWL8mRdHZqwNnVp7/AMpTyfEO6CqYbpXZEml0gVovqnHXtFG13MHX2DmUthvSFOst57qZ7mHiwnQLzJ3mbWOC3hNJzU4ajStsKeBKWZOoxUwgRmgEr8NXwLNGYlaslXw3UIbWAmNlTJerjcrrVj1qVD6kzfShtsa4HUgrnN3FcPTYisadlb86eDFgerHGe32p8/qR08owVZ3KzDog6F5aZHggT3RIKFGqQgcCmGk9rQ+hcoABbrNPRdByjbKwGtGzsVHvsFD1bwjYwQwbYETZHuUdXvsOKycUpJQH6N5ziPLa7+GXdP5WIxYeoU7gQBU0BqwJx/bWfaaSC2YvrxSxGujjsGz8ZydmvH4G6lF1P4kzpP00R1kV3JAPMEzrvRC/dVFOF1XFLD6Si7oekC4t5lAa39oVWcPQnxsaxp9FSbDi0+kwJcq6t18XB2GZ4NiAJQUdJeOPb2D42WsVbNPeek8EeUpo3VZSaW8YnA3CVdabrQVoaq585ZurVOCJQSDPiC9G6C099WLcGitFrZsfbDTX+458rC57WKSvoe84Cac5+OFZpntVnG/sEVo+7Zony4ZkMoVitjaAeTcvORbDRbwxsYIN2wGzPco6vfYN7/tpEl03+QCbnMnoMkzAuR/gTscBh7TJBcDL2IorZl19TpCicswernufjOTt0oGuz/n8AFUFe05x+kw38UwX6VzBmryitr+kx1l1uaafLC8S6EvzFXVXZUwUotCI1R6wXTXpcdcbXSkYFqmINzo6NHT+9hwDqeRNQrbF8vopSjhjokFbwnGCnVW+fn02LUI7uwgsKGmpErXvmewAmfNysU+EJUK8ycAO5LggKCgT5z1joWNdc6SQATQD2NlbyNSHee6sItVnpmDZcbl17oqdFhbe8s0cPQj6dSqJsV8ZRbWnNrzArTe8rbOqcmsLg1l9IiQQ1HZZyNvbYa7t71DaxN8qi9yjq99i3uu7bqchw+kylzTmdmCLday7u9+M5O2j1l6Cd8PL/lM6Zg7RZ2lepdyYNPHCi/RzKGq6RR1Xo1Nc9ZMYN5ayg2R5hUVdW4FnHGxW3us6ydzMJqShvpEF5KGl3vF1CnT3gQeVplW8prRoSjfBlaaq+McFaM1uWVK69GhuYefPWsEtMNXGI0TsRwavk5o7XkqNrWeLZAjzSy1C48A+xoR23u+aqOy4MAAorRAGgb61rPfYE00T9+hge4ijQbdDWsI5qAqr1uIgDhg9iOW112NDEXVixrdVfhhXqLK37Ash4bLv0u8fOXiDaZrJK0dQOOM4po6BIpbLkvdq5Z+dgs6u3r2hqiOEo5Q3Ct2XzrOz8257DXUD6VCRNwoz2c96jq99i3u/1fynLcxDXuep5+oFULekyV5Conqj12KRcVyq5S9mENo6mE4Qg8vp042UPQqKdVe7v8kLUVjnNRRcs8zYahrTG8EAWsSL7tURKUeEvQWxKaYSqqVtdkaYaBgOENZg4hpjWU0vA25ezPMDLUs5z3PCLrQdMCFbAoI9gBWeJdIzSdmwuv7EmpV9MD+UYF8PPZIK+h7kSpp99M45uQWa27cDv1QE0q8rnRMc0Y2VAwFVR5B7yI1BNPCObO7/AEVi9miU40CMNvTde8V0NrpOu69oUXUBEstWXNcLV2bSo1PLlEboUPVhBY4rQ8a22eJS+mGmyh7CFhzxNO1WvMVSurDrkBXOEGOguUPxsFPvqDcSCGCCewnQhUUrZgcevL653FIWBMONzUYujjxbVKEe0H1A5zoc9Ew+1KVruKGSejCM+swKig4OYegrc0Sy0WcuOudmtVGrnFYr6tSlMY3q8wMOO3k5QOLXiV7QTgvhC0gBFacNDylX/HrTcMIWptO6Gk8vM46TIaWOZcKzBeb7TLzZYNLUiRTe5Jr5mv8AZs0guisq4q5f6Q3sFE9yUmmDKBPFGaKOxsN+oeyrZoPcs+EYQ/nQZ7pbPb2hHiJCg2BGzSPllHLcULpF/wCdTZ+PC4xTQw+uEVgtGjnc0riy8Kvh0mqNrY5jDoqLCr0qWpzY7ttVgY02kGTVSt1cSuQQirrpPUY9pSi1g13HbVbCoNpRfCN+c4raQIrjx2Djrnt7/D2hps6Y/NspVtg/M5Fbo1oNgydK36jdEEEEyHw02AgBHUZfSPWDlKiFnhK4zRRwnD6PGuLKhd+ggMyzlT6cYmcOAlT4hKn9Mc94NMdIFSHBKULqxcMNgXQqGA1t1czirSXlSi+kr0NyujD1tZGwDVLDbklWem2laQE5rPpHfK1nOsnjYwDUlralxYFOFIzGNWPmtCaf715w97k4p9hLIClaBE+85L0tkNXU9pUNtbjgQariWgL4HHmXVRwXC2O25+Gfaal2nHgH5qmNlr6Du9cJvd5H7bACcVfO6BZKlnOHYo/dsVTKONK1WC6uMuqPmq5tNl9K90024ETq1GSPYauZUsoKnGsRXBJHF0g2U6DhfOdgo95fyzOG7Y6kHkiNI42DgsczIixYZd4uXYjhwZmoO/HCC5owyQ6DLY6RJ2eUHHYtWVNuLyis8vb2HL1d+o3XYEEtYakuB5aDZ+W5z8xymsR2HzLta5aZYeVToXaUT/A94P8A2/2mpdpT2RrmgV45IWSGsPMl7Aku1jVuo6tabLJ7oquRtvsb1UB/ZEXWuWvQxgEWcpg14HmsQNSuGygdI4OJEFlnJkNiNMuuziOte7d9x1Z8z6fM4F7efOCdl4TwwBPdnU/uomgP0z22jb7L6Sj+jEPDCCJZ9GsMhgOneWgvCMDfA19t4xD8YnqQ7RrE47e3be+93ZX2hLICjRaztuag1dA9YiRJTazZ6wvfZ1U+KGkwkorPCJQlJxgOkxBrpLU4otxI/QXo3M2/AtdmncZ7RnOW4xfAwUu+r1i1Te8AvZ2xpbcKUdJ9uEmvd+M4s+0u2oAo02qgJKn7kR1C2gbK7uo6SvAhzD02Ndm1muuUVVLMtaYQ5eW+qN13EJlGmwHIGDnC5KBO00y/f2XKteKBKNdRtktznYKPFN6v7j4GjMOOuukxAxr/AFSvp/NpLRxlfhFuKY4vR2PhxSrhJtm5lFA3ZxOcBN0q3M+gyAyAGXFK2HsjxE015zIVo5a5QfNbxO2nWUGdbwEMRCCjA5J7bkaOPGaAJHKjvaLYb29M+OsTUX3s+Ydp7bxADQ+im+uhiadjwu+2uM11V7wRim9Q2IXPFzmlC+GnV4HpvU6CWOnnFaOtWq71KXddI1o06xZNw2gbFzt0n8q21frd2o94DHGsSr0VtFHZf+Fp2VC/Sr5Q3MKA7X4oZ2dZg9pVY5Y2cKECEto11ZxlCOYLca6MsOgqXiNFrvG8wmXOB8ssWHVWXKYsO0ynTb2Bb23b1yH3Z71zjFtmuUKn+Gb3d6238wbyMixUl9IiFBhGUdgviy7cvm2C7cg74Ruu1GxzVWxY03epzcQVx2dmEGtuYDgdNmAx1HDaC20HDUxwYk3xm3pOFupVVMEVDRKgV1pEQcUIQozK8KoiaF43qWXpLWlyJVx6H8Jrp8IqxPKmJ+6IzSHViwdagBLxMMK3XODmm5lnB2M2qCAAGlG51IEqiaAuEiFZF6VUqzSXQk4EemVIk9CW6CXvFkFavCPE6T+GicdumuJTh0AY2gClmrekclylX5jCInoOZuceuRx7S+3Sa7AlFy16Mge7dYkpIgBxJRhHnEjsrd+Ka2azN+vUuBZlxVwX02dV/ihpuIBK8g1csv0aiF5pYS1dNV6xL/1g7cCUhyjrVbnYA2CxOcNDyL32MEQVtqRxZXiptV1WjqxqlV9eVsbOc0PbjEYsqMp55nhmAArjnnA13YOyWzPSuHTZh5a/ndArqaZ6MNYVXgjYWURrE0PHZ2WntvNA1YnMY2BVq8XZ01X3hBe+hG67qGlVQ7lITAs6ymoSwa330gGD+xETJsBHMl71oHU00nC4XZRm47XitupR+eYOVbcTDIAXQXsT2u3LLXnTMBtHucNIv2i3ZYf5cJqPfE+Udp7MZtrcuDem5rMgVG3oKz6GypQBqgcAeOyibg6REGG0KaxABaaIpE7sakesad8P9wujceW7kTVKcX9bp9YWI9a1TTlK20DGuY84C0hJT3StlwI4VCqqTh1Ndqqtfomm3SgEuHaWVP19c2IE7Rr2FJQKDCAuTVrjmo2svwbuf5sNDmpVY5bCJsbXGBRA65YTFTfDai+kFwFg4a6BOpgZgOaV7yx0LSq3e/Ue23pl80xc2MQIFOhHcwDbm7bKWWWcocjGzpGBmk9VozstPxt5I77NBC0Dp+91yYhnQNFbDAbCFaZrZl4Oz0zvHdYNpqd50NGGw3xRuu4Nc0EtKOGJsxhxRuVA04EvMvb1xs1catYeQXRJbjJwIqFQLmq5KgvQCkszQ4aHrGcu7GnP3Vn24GezNT6bJYAtFQLGUKb8mff5h+E+RX5nxlolp5PDGdgvbXqGhxXKLaB0tNwxBaaDnK4FslOyB3KcBR/UWl1rfOEDg3p2WJVa6fOCrsLHa7rXoRxd62sYXPOXMRwaHfaixmHgumeCxd+D9k01GICqbye+2ytPvn3iJqJ32CiJqREyLrHSEA4fFDV4LwztXa2knBtNi2X6kJolzfKtzjVgBdQLYp2rD0IqrW3nLAKg6HKjldp1U+KccNcquaY5N0Dmsd37Bu7HPtudkMIy0+Sv68o6VvVsoQ5q31gUHU2Ldw8guZWr/Ana1PZ3S5PUtTdcwuq+3+TBDXXWaAzwVsrUHC1IoOEjrKPxF71/Kj22uk6kfDBT5rfiN53BjXkbPYUGLpqeKOqMNbacdvWA73wKk+Pl5qXgY6AsLKZZ6wGo9AiSfhUvpFIAdMXrvF4ObLTQ+N0k2yVa6s4o9DTwTRHeY7TTHKwTXdqji5HOGxKl10Pfaz3Knz5u7gM6teUFZUrCqWt84wCNkrx3bFW6u3DblnGDvxlbbQo2VIuAtqag5QD4Ca4NYbK4TW3DERLism0q2cxbKaVgqW1Hiq5a6TwAsaQjLGeBiQQn5nM6ZqFTrExDZeBSvozOonxTq0ntvdZl7w2PFcv8LjEXQdoQBV4bgaOw30vQ1KWy5Lll6Z1R+KGkUoGvGthmN2rlcnYwAkmu8Nh6ixPXSLzZW3WLL4kGtGtta5Qh4uiZ4gIPCHYOjAsl6YfFN1i9LkJWwmjk3PdwLD2msAbsxYazphNhVxfkcJQiGFc8UV039BbyX3tztgIbZzJq3tG87qhg69Vs66SLbLXDNvYfybT/ANCsXUny/R777LeKvrMOurNT2olQ9mK5G5SSw4hrpMVRXyRzOMHt+KdYTwtg47VQWD84MlM0sHQQgDuyk5TqWh+Y1laA7PUV7bKwcK9zs4bznWX6P272KhK0zm3mtDuxmWLK0HKOrit2rgAHxtuoCa412NnCUd45uoyRccpoL5TO/l+ZpILxOkg99y2OeCVUsZJ4pxFQw+FsYS8OYC3WcHWOETjK1tdW4aUQsrD7pisFUczs9ILGdbA3RscmZ0lX22NWRhbgue92cJ7w0ObPaVo5Y2GsVFdtuqLsqbV6a7jtumxrTUTKquAPpBKnQrLeOGwK0VKrw4th86hAJFE7kz38kOdjR5ADUtZHyptZkimprlMbmPZoJrcNw6IwB7zjKUpZK0mI4jGxV1V4Tu+/ZvXr9ptJ6rHvsFHku9I3ncQhhOuzs2n3mJX5WDb20dtz5jYWtBb0nTCAp2jKQVADanDQNGwnboXRwhA4FTjFLKdX4Z22BKWDQpKs1FjjUNZQnQlRUCxWa2jlKJYUcEuerbcvmwiycDwX+5QSsGdNKojvAcUsLegoXw1b4g6aKZ1XdhAgUyem2kXjbjkueQaspAjNxc4GGIaVwig3WXi7H0Jue2jCFVmNyzz/AC8c9yxLjWgDwnYieMbHKplEurCDihq1VRoPkOaobppkoe84gxNlfg2dmo99nQr5dhktCzGvSC9TT881sQCq0nWnZd8rYohQTjz3KD+BgsTnD0APfYmslZGwbKnjeuxcjhOuI9tmc56jMpmq09pW2Vy5QrJd8JhrCu1qFE2W3BwqMSUNGGfWmvXb1qXUdDzbcV8IKaMKYpEPru07lePaA9Wo1p2S3C2ta2NOcnazvVw6vfcxvJbDXcfUgdqIJqitukp/WzQ2kztNoBnHeKcNtP5C9liZ0KquHrNViCWu+CoGVls2zFVl7TEEAlllqYaX1hAJ4K99mH7/AKpqJWw69ltVeNhPMoMfiRnZ+R0ZSmVcagSrQldU5hENcCuA8MpDxcoLLRUd9ns7uD7bNVYsZKDCOy69ntDYBEpcrTKprX6tkc9xnS1fbYhYnk+rYLoFbDLukjR1IFCK1LzlJ5vc2XXyxO0Mr02HMW/OxuQKquKu4ZUgC4NFXrrMIVFo8s/OpcZ65POxb3Vd1wmbh2vThxFSxRAzO0cbOwq++zoFbBgvQiUo6mNtv4CjY0yXLPzrFaaCMwRhbVQns5RvHjEYKcjuLByB02RLVxwwhVDx5RB5ZyuzYjeLlwluhC4MLNM5dwsZLTfLZ0xn3hudTPglw/2UIhgXqdNzpr829TvwqG2/rXybDXcv6tDDDBBPZp13L2gUs5rRt9RXttvPxQxiphCNX1puqBbVyRIYdWr26jCil4RmT9RVl2lShvg29XZZOyeqG3qC2K5uX2MXNj55Uc6pnpCzIyr5OU7nhFWizkw7XKewyUqUB1a2LWasVzmLMhf15z5msN15XDa5Zov9pmIzr4RgEyOblmt0Bd429UPg2YsW55wZoVzl94bkdlC0U4MRxDlLj2Cu3MfMu8MJyOO4GS7qipfz5s9dntsLLcthD1CrOcBZoQXBR/hc7MHvsNc982xAKyEcQOInXc6GNXq+yRExHjCSsCmYjcKxeCNULctnb9PfZZzgeSAugvYmCMCzrF8MnXnaLVcNaj0uAG9gO5OtQdzruntMKTCZuJVlOq7i6AH3nUQvd6Yj23PXp7bDXVB+rQwQwQRX24KPNSzoC8l67yRbyZe29xJi6LuVAOiAac0AtMRRVpQc2VJgwXJNA63DTMNQ54Es5hHjZ2gr32qAYNdvr97IS18x7wQDTVLdeDhqN2brJqmh/olw0cXiXBdLd+DBSiZElougYYTjV3JRYrSjFFALxDdovXsYjRHVl7Vy07CIyzGXUS+9uzUcyPWcJYIOr7wNdtVwDZeK4Szl7+2yvma++9Zyie2y5ea+Y7SpWxzgmQvLxhGHHdFU8oa8jWIOCxr3mTa7NjplRrLNNwDk52JsEOFszOeyjmW93Z3aexFZMyh06bH0mFEFSwAnWq90wVvNdrxsNvy+5G3YR9pYLhTaf139klVrvuk6vfDuZl0nWwPeCGFtqc9vGU3ErtMclhozqEntui0c5c3BG3vse7YcfqqnYMEEc3SGy4B77fxRztHU2WuuHBDMhZDhzHdwuG9eK9YTp8U1Apg89hTiQlNbK+me7Z27bcDLKufseEMBwC3WxqRgy0k9Jwl16E4LmoXEPKZWrwktlXZt5wWBa6sXA+A9GVwocl/36Hd9ezc4hlosusEF9OfbCTK1DTfHZW7SUwxbuXConQMwNuJkFRgLZDar0Yp5KkDGOWpezwD8RGbabBYFDq8IJUD2F7PRGwp/KjBRs1ht1Zm8X0Zf7oKI2KbhMgQ0w5S4diH22X88/ErNIvGw6ub4GVzkXXLZT+UveUkBERsSIlbWs65HwbLlzHvsTU3w29w09pQivd/odsBu4VyBwzHNFNab2NRhwu0RDRA8UdGdct66Uj33Mggy/VVMd4LvpSl8nTZQHJbbzAwyrT0a/NbHJANNcO+wCBaOcWpJII4UwLfKmAFoTjKdEQlUmRil7NV2dUuE6r/FDTaxSAOjxjkgo6aE6bfNsBDQ4gna4duEuF6NZzKgJbNl0rYgFENHWcKNnI7O1nZmk3iwDeyuEgHKNcdo25Kq97gxSmrcCWByHx9K/lWe0DMQF1rbRC8Ujyzl6Nnmyr8jez0+/GzBz5qiLmw70tZ46GOU4Sh1iZmK2F5gABQm0IVjluUnkISjnn873Z7e3+bKr0Pvu+iSUH90NzhrGPL5G0naYnvuoIsZgmp41dJVAHquXN4xUG0rYNvaFd7utfO3vIvbZi7h/wAVRPByZwgFOaOGIYaD7qZPu+0Cg2N29NtB5A++1STC4PdAXSBaaptLgJ5E9k2XurffIjhSThLYa3z2LZwoGx357CE6gM9oYNwCHrKYqdLB94rbmbGA9NPlwYqO4Okc2Zs4bmGumacmCp4ZLlnMEb5W9dq0cEJqDRGp0k9NTvNGOm4UfiLhRARHS8kz0YUKQ7bK0lHgOsB9Et5Uvk+kgNWK/WZsGmtuKsO81J6KrUlJsL1+9mwlm8DguZmfNesDa0gMl67KqgZZVN7O/nuQSgYNdiCulK29wqe0N95Tz4vnZX+tu9IvlmuaINKnL02JPiugMxVB4hy3KnyG6tu6AXeIsrMnK19oDU1bjt8PfdZ3nb229+fFCDNy+361TuJ6NllLsSrjaXWHP8JdlZbVmIQOo8Khs7qXaCwqGWMlQU0YhNVgy4YltZvlscGmQUd64zAc257AFIdfsib/AFWQc1y386QhocydCme+66M61fFsLcGkeMu6RWj3TA404TIDVKe0F0KPSGhaKN61KzX0f6hi8aJquu60JhHQ7sTBizpo65RGNR5z3j8/Svx555jaoW3c479c9Oad3fBst5Y+GMxfgxrKMINYLpmErVdDSV0yqF6rEfSLQbY646Vw2V/ugtNOuxmVWQQR8YfbZfek2Xc2fG9RzV/eE6cr22UpwcZh5LkKsOfWLbdVfCdLRhmMDfuGxcR53yhXb6XyVx12A1amp3Tng3vurE2VnqRLMxVLwzuwKKyFDyVjb1Wd618xtVTSkdkILXQfWqdxJBrFa7CJWDRzaQQqjeBjsX9lqTYDF0hjtNMjg4oLZoghj6ox6G20GyFzrkhLaajFl5ilcTnENiKAtiC0NRjElJxgPG9WfhQMNnRj5t3hOqu0x9wYMWdb7TnEUAiaj9HL08clKqRs6bLeUL22MIFtkGoiLfrLQ06bG6QXsELmK4QF+WlBmQIccMKlDlCXlk6LvU9nq0JM3wBCMrqoekW23ds8ksXN+8UCToDw2ZJW+bmL0hrQgiRMl5TvIoTqv8U0JSl6RwaotviOmW6x3bOtg99lfz7SBr0lNXWOe4qPmvk2VDmQ2nBrd65r2lGbSnbjsFBBw6wetzBa9NxVNAr0N38SadpBCqVKhRZxOcK8I8fNO2S+29QnRHyxQK651SZpy9RiEQrWo9YQX6H1incSqnM2AgbAvcjQtDGUlajygpBAFbENdY7TmGwkOJHfULXmMOkNdI2A1PVCBTb8bNCiDxnUgPtOt3wbESrsuMwWrbrXLaLjqPeGS/oFO3va3T15Hr+vOafntC67mNBeFy1ru3Xyeq2X8ob1zFyztsErzstwvGwZm844RbVW147OnECdTfghpu9E/m2dvbkxG2SrxK/YUGjoazvBT2hOjxIOhI2E3rXkgyyxxdtlFcEY6U4kI28K+YFWXpP7iRrANbhsFAccTV4KvRuMKsl3rhPqe51o+GGHYUkMLgnbhsRV3bXa6HvPX97/AEXg459AmMLBphriej/k3qIapzprHQDUrUvY+gIzqIGC/rBp3E6PbY4SsqNYXVZdxbhWrWpXtyozmdbk9tvQanoON8tiQlBq84x223CCGzQ1pzHTERgBRRppKC6JAXJTCPRAQpVvOxs1IuAE0BXDvBpvlmdRi+2z88MbhnSBoFuRLCdfcN5LESyYJ8us/SWgvg8HsxX4BHiOkNMKZhZpjjspq6xz25A8V6wl+3IEZ+KXOy94DTE7jB7QnTNe2107iDjwhwlLIHpspapycecJ1uRLgYmrRWs4pdRZXPpsZplyC9i6E3vFS8y51e23QHHO33P4YbOSgNp1gYPbb1aXtKusj3iKBS3eULUDgbDg3IYtyxaTkonybcMUjrt41FHJMn1rlODelipV0y5SgM96CGBGNGyheB6ppvfmhnd9aD2iKpZcJ1oVdYvZUANGeaVDvK+RfZ3gZu9pxplOVhfJHAbdKVHVOuHxQU+a+tU7iw72wNcMcZ0jDtUdZlhSDomsVCuJ8S9OO07lHmU8nYqR5NzM6FNEUpCgtdbnZbsNXmfKXyhpoFEYQ2g4yxmLamZDWF3BlpHRnXL4tlDdxK8xYabiFgkWnjZOo0exsvboy7s9ywTU32LC4ZWAlcn11D/UOlGZ1sYQHCw2D1Iy5MIStp2DDkaZ4wgGjmVs5H33VEbwbABLi4iRKUeGxQ9sNQazX69n5jmbbHMqaBXh6VmIiKuq7NbJI2VHbPNjo1OqKe0Fj+VQ0Nie4iuZobewE+zDZp2AFVrrsxM+atxMh0ZZULHkC7CWAur4spwILzxa8wEdtiHCEOIbNlYvgDaYbUoyY94UZHlbNx+MazC8OIL5EJmZSuspnN7myiyw9c3qDyO70UYKNjkzMfi3jBjly5nXVsW5QJ3tBipzZhl43krrg+GCPvsCosy3C26GsbL65ZQrq1n6zDuLHubEZjEF4hOR5SvWCgdeSWIdWjSdp+07W9lK0lkcCvrk8Td9ePdsUIWRqORsUoqxOECVrIdWUNoZsn7JzeYWFl/a12Vg1gEw4k2Cwc8RKa2FSW6L42H/AL6JfCWV9ihPcoURtl1ZkVE6Ni2wFgWOEYDxY7A8InDBeicBL1XG9uFby5+c62/FOtfxQgQMlaCVzF107eqohOEZvUorN7v4DntyeGScoIhoJTTj1hd8I1FM1vV7StM2e5A0MSNDYwYLanV8pUSAciucecTp1r+o41edyGxBOfPfQzmRYFs3V1lIt+uu8m0ls1H9wMdI22mynqM6i75G8QqrdYvF194cs8PoXGkSL41MasbVIkp12JKiKb6bO4Oe0bdOCSthpokdXoU06Q3HAhHYQ32NFlUJSqz54FzokyiACjG/c/N++ywDlsCXw6Mfe+rh3FonXYyBLQMotpoNeljzL7MJSN09DvDJcYGOe2/cxsyex4tzA7GmFD0JoHLbpcYcXymbPupow0aR1svKe8fOyroiUlbwu9l3Pqlo5m44XZ6PfzsRxGxFh6Q/3TS22ZdeC9l85Ce+zkJ7R2JhXUdXiqZbpLsZOUMaTJDkwUC4NXLV2+8JjRKjakdeYuokJK2ibcvr5itq8ViapUXqVKF4CBjKGDoL2fgee7U3Be+0uByuK4RgSCeRxqcIrIJLQ5ORg4e+zIhrdO5zJDm99gWhzgziL1k8iF9YM5zUBakt6S0HE0U0x/u2sEbEv6VnktiKhbGUSllctggMGuwPvGrC37Qc99BR2PKEQLRzlELKtUI+hHTl5d9xnOBwZvgX52CBSQCmTaUsMyYmi2PEyhpsKds1UNnKyeCsAhLOOVVVTQ175nwjZ7Lh9X2+UnwstNLfewP29MR/5Hg7nP4HsOz3L6uHdXMRDmt5UZurzXABKxCwdYBciCjFoMJEJqY218gfLuP7k4LEaE1LwKK+ct/Ipu+C1ZbCpurlGVQg6bA5sJxxtMsNMlX0JX0LXKOQCI21xOPSNp6fnZdf3m9W+W99hPHi8iWV6cYFfSukuuo/wO24r/Nq7OTlT1ggZnQ0gRlBbV+kCqlodZbyCqH9lhqfOBevXbEGyUY4lF1Erdy8PqS21dq+0Nn9LhaQFrxhWmNggWsaMuGCHgbrthR0eMJbAhciklj/AFIXufOnB6swRVBQbji4cDVcyZdcMY9eUCl+bSCr7GnNE0IXgyWNZrZTv7r0ECN2OUt88Z5mOHA+zupBjwoJ91GfPK89v8ECvqZKsuWOP5ma15CCeGk+v7gnA2F55s/eU8SygdTwqILEpB+ye7+5VDVKNHBuYNXAJXolFC5TwhaUDUsA7XzVSlONQWbDWZd3M2muz0Vvn/iortek6vfFNCVe2JxIseJFwNRaegL0Hxtp51nvGpB5q4wjueO8nWKRRqcZTwHBjZ6rPbZVyh87rE6A5NTjnK4KsF3dnRU2FXnBFkzp19VxPyLVeMCW6FQZoK5zyVs76nxmGdoQBVoEQQZNVM2xYTuf5sLnlSxAAEtFzAICqnI+uwggQczZ3mL7uygjU+8feMNQMeKs+ZhUNq1jkqVpLYBAca0vlElEQXb5MV9aLDTErV6rneVrcvUBz5zhvGoyF4xLHj4NYgOA+txz/WblsiGn7tjuNTQqsq+A4qM4VaX5jBAYHYHLvGbUdmiARvjED9ziGGrvoB1mZrVx1vOhJqM12/RZekyiHpys0hrbTVSvSFgApTjUjVAdaEY9yjJMzQ8OsIhvAV9X2YAmiPymlerM+zCn2NYu+7KZoA9J1bsATXR6iBTRyNsR64S157ovCAjLa/qwGELm+e2tBoWaYjdigcur0iMaZMFmNj1r3Ex1uUQOh4YpQfJqXwTTPQmXq/4yg5dqdTke0Sw5Y2UBpgtvHpO7l+dvZ6Jq65e0ad1RyKrLuevD32D8POXtFotrlsBRocbFgMhwW1qBnLYnErQ6bO6h77RoGrGyJrEJv3V/sq/A8hxPeG7NtYLuEDTiqLhyFtCpJ0JVOTJwqI9Ow/MNFLQDPGsxgEQF0rjwR28yYNrtLa1M962C3qLbw4JQHCCudwAyCwabBbONCuPViJqw5F7mjKWaS4aPPdegNeK5X0l+tK3NiAAKDG7d8cpj+iDs2ryAvHOVNvgPcglMzTzeO4Q9UQYaVzuMny7/AFCgvfe/0q2VvJag9Z72xh2V7rlEoYuKGuUC8o75wnx3rNFL0J9qZPdwcVdS94Y0+jfhVd6Z2vRxwNXrt0BZLq4lEVdV2AaLRzjdUFu4xhqr5Iglt4jyhgcisMXG6ImZyY11asGjwmIg5ODn32Ui1Vv+NQVcWXdw+TY7atlfP299tnI/YxbB55lOSBfei1mukabGsXVxKUdTGz80KdiHFphRdb5xkrNb4jFbEHQqw7bBpVQh2hAz8nY1NaB99tV5/wAamp02JC0XbUvSLRBRx12OkxmjX7wKApOGyo6B1mH0XXHDvHmoa55g1ZVlGM6sctuwzUG+O06QE1pX9w2utF0/f3jB3psU7iCaMxXg1GXCJjgnCmcxEWo1s17gPEciCAoN84KnSlxJFHa8bHLmk6RxXjRxfPFf1KaX6Z7zA2M3hXvmfbi/M42dmK90bGpltThimu1OayPWT3w29hAIcnO1SmHtF7rlCV60XdW7Vo4EHj06fSXqFgaLyxZwkBqrrF+sZpjkFxEURHk7MioN4aOkx5IFNt9NJ7C5a+oMXxcMHqiAtOFs5k1Z3QLGmV4dPYbHLqHGI+uo7id15OzoTtMJyUNl5zSXWi+ETQOzUtOUuqLqDcYrrxwjZMoq4nOGkwsshWPszhUMNKcohSmFTAhoS66abWBo03I2C+QNncnw3ehHy7RoNv8ApRlBPuLs0pAp5lnRF54PG5opBMNB2u4QAPQ2uRYXSvhG4cJy6sEcZc1u21Pfe8TUodf2jJQcEraBQ1hghsYY2XZr6kWgh6/pHsH4nB2IafXUNWe3mk+HmZ72TCe4gbHPvws0cPQmlPoNT51MTqX3zAQlRWDXbqrcGttS2KRqnLbQVhUAxKM9ZppxOMxeAaGK5wqKVdpwnVVy6vJHga19JGxtaGswr341Whpll5nNbVCNay9Z/cCGmjU7xvQqvAnFHYRTMfXGaHus439gnzGrPngXYDfb6pvNyA4x9NOhz2BBBB9Od08yoOAB9NvedPaGmzty3vugsJhqXpEuFtLuU8haszO9o5uKlmiba5XLtDXWJ7TLvwmBMAJyZdjWSl/Rps6xF7TDRfY4P73egJffcBoOEdP9RLipYqKSlriM8Jg8RZzY7LS1pNG75ZbPqGfG2lk6Bn0zXJdXfKglHdyIZDsVA/72fLa8CoTkFfR0c94+LTPjBWfHavzOOnYI33Rs9km04q7EnxOrPck+gKhAGhHAaXAXQXsbRZoU8KSlbKS0+gt0bC8ypvXtCxonLBh4mVXt2J3hDV3w7bOcDoL2LntOOac+yprfbk+/C7NH9UFcB1jpVuVflNZHZcMQ15GBNA8fSUNUJoD9Z9kILTsIKqa+cW67pygQQwQQQfSO4dPdGYjmR4iAGXSVWjjLz0kNlT62E0c7aqhpQ12jk6EL6tZYwslnKO2JGEuq4xa0C9SPrC0DjPSXMsAdImIulHUhxZWXk5w+aINnUAqEir2HVC7BkNphgJTJip03Hc7pQ1JQMrpWeZcba5p0mcNNqpxiAQGuAvtrNBTqqI5Ehy/slN6ukr6r9M9THdOa1aWJ1UNqlna9qhzRWM5Lba5okY3ya00URrKUvK0iXbe7Mr/gvlbhT+dZnWCZFeaxuptShcSnmwfRIxsls3jlGosxo4HLdNqutlnMnzXEJpftWTC9KgXrc6DTXvH/AH9orRdkzjT2Sa8vpnDPfM0J+c9kQPpusB6zVPJOBHsQOg/SP94lnQ9WJ0D6TjU7E1k+sdUO7KlSpUCG6IDsH0XcCwdNo512uVa49Y3qlcVZnW0e8NnVX4omRKC4eoX6JgyaixsEbEDr07bVkFa31NRWW5ci95xdA9HFKSJqfkesIAF8jX+p1JC13FrPEVDF7LJf88YfHfQnzihPl4Qw6Cg+voSOrPf0E19/U7LhP78hPvoob7QstcewEfXQ4vUMWhEVxvrAcVLAZlw5BiXINtTQOsSlNjeJcK6uMqXDitXACrxCZpN2jpXD/hoBaDhzgEUqHI8BEKP4ukwhZLGm2MPGe8as+d0NZPaT5x1+0/LD3hNY6UT3I1NAXynsXGaEuxsr6F9Zox9Zq3p5gePsIPVQf7YX/fTQiRqnoTXX6xV1WVKlSpUqVK3QIN4EQ2D6LuLU2O5me8p9gM68IVtpryuDtjb4LwekyNhp818SqxyxsxLBlY0djZbs3NIsCvEc18eESBI4iR4T6hWH1GqaxyigA4gABQf8PsYhGxrMOpPvTMvPZE+yvGHl0z2A41IToCa6/VM6x1dtVDyjJdUdgVh3BfZACC2iZDYojUzLkW6RZws09IH0OhmyWFheGmU2moNdg2Jm9TMogdCNx0iVoll/Ts5k9twufPdmlegE99C8f7cLHRudMiSmrolrRNJrhPyCU5H00NQd2abfWBND2g9L+k4g92fchi9A+k5F7E++qasO7KlSpUqVKlStivogBsCSTdrwgh9J3Eq62wW4vJ9oKNRumiWAPJeI6EMWeZ1qb22C0QqTrdRcGm4KFzQ1BFGaSY9t4wA0K+qgWgOs97QT4sW7NZB7zUME8QdwPS2AGQiDPKcFXIh9WPfEgxy7qKAWwV0GxsPBUtRSrhx+gNZ1cW0NmQJOZRZ3EspalE10lSQCV1LhaSTAHKaw0h0iPnIcMsYNEOG1mqtla4UNr3+xnz8pPtixj5tOEkDe1ATSvdj++ifANntvH09EPdmpeeB4nsTiB6QeL6xwTi9Aj7FTUH6xV1VlSpUqVKlSpX/MAB/ySDdqAgfTdxYd7YjKhRfScwDNoHQL4PCXPgKBPwox9K5c98wTSRPCvcM9rqnzON3pT3zR2M3iM7BFQoLmYkruDQXGwz5cscq2Pk0FO0dRbY6gAOxDQiJlmyZ8LbA1qXE3XEDdwZLrFfQ9us4ECAoYwKl1wnGZpSTauPyFUmUZUyuPS5dSo7xnNKVgOu9lEbWjzAT2tCXx8oxDb9oG+CE13uWfPu09vswA0PpINUmmv1n2IgNFxxL7zD8scG5yO6NmNWXrsqVKlSpUqVK/4wA/zc43Ym0EkkkkEBD6juLDYGrexprU0jU5nrf2hFlZdJUYloZGICBVa6Y2ALQd57tQnx8zPmas+xTD8Wf34WCOjTmRQ6FUqyXcjPfiProVC8MJxr9C8bit8EjmnGFplOKxUV96YmctX1nCffn07Oc96UZrq8Z8UAn91cfouzjwegHS7lfZfRNaYukuZ9puUVKsafT0Jd2ffnObexOIPpOKfMbcVxGlY4MdpqThVqr3ZUqVKlSpUr+LAA/8A/8AjYEEBK/4VonXYtSrhsS4dFbggOksq1ZTNQjZaXNGQABL+ycpTtz1U11gZL1adNmJg2XtRZiNGoXrAttruRqd8yk+M5cuH1zDjWLbbq7oLoL6T3u3YMNXmPbptn55959sEmr92TQG7LntqGaIHY+lZzJpL9ZrHoZgtOwJxRi/2wjQot0HYmoeeKZPrNdZUqVKlSpUrYr6AA/ix/8AAH/gBUqV/wAidaCEAscqZj9PHjRaQIYgHBq3h1temI24aV22YAcE4S17GuEROioohZLzoThMc2UCtGsRFHh9CznPaaTsbPyahPmdeO0ncYbW9Ak9+WeG11GfNws+DQlfST1DuzTT6wZoe0FpePuGzhB3YppX0nEh2moeSOoT6ypUqVKlSpUqV/0AB/8AzaCTbzdeb/c+mACpUqVKlSpX/MFKdmzADQNHNmIFpPB1RWBxxgrHomFpATRHibvHaTZ8CXuGsnVSJk4UH5+Q2HJ6decRSJSY2FZKrkRfI9VnzfKnxxZ8sq7LAnsVE95MmjL5QuvQs9rg2V9C6mjH1msenB6PsIPUe0/1YXoMTwO0ap6c1I+sbdVe8qVKlSpUqVKlbFf9AB/3Daz/AJv/AMAKlSpUqVKlSpUqV/3DavT57NG8vkvKLnv0fzTY0eIzsyGA0iZDnLOZFDF5Ix7ohm+YgCXm1wnHlDN5U+EWcZfRiQrjtjl5Oaz5MXleXyFSg0+klqD1mln1nDD2LgtPSJ90Wfdhi9A+kTy9iatBqA92VKlSpUqVsV/CAA/8g/N359OAFStpUqVKlStlSpX8E7QTFs1g28OpsozRoMD1jL8uJahH2IbPEfu9VZzNGvomC7QV9PQjsWeJOwgtRB4/qx4RReiYS+KaoobdW5UqVKlSpUrYr/gAB5/C/QD/AMACpWxUqVKlSv452DBBBz5+ZmCuNfQS1B6xHXyTWx6TSHsE4n+04L9WJ0D0i/6E++mL6t6zWVKlSpUqVKlf8wAX/N/ibvT6f/D6IAqVKlSpUqVK2V/KsYIINllWqSYYHdrOd5ZxB6sXo4jRPYi8NTfrMusqVKlSpUqV/wAgAL83PPpScf8AH/wAqVKlSpUqVKlSpX/gWCHdqGK2lSpX0QA/iz/4B/8AABW0qVKlSpW5X/iWJBu1D/1gD/0A3HP+P/ABUqVKlSpUqVK/8qxN0Ffpf+bI3gT/AJV/ABUqVKlSpUqVKlSpX/nkiR2hf+OG/wDm0H0ACpUqVKlSpUqV/wCrqJGGHe/Pr8gCtipUqVKlStlf+0qVK+qABUrYqVKlSpUr/wB/UqVKlSpUqVKlSpUrZX/4OD//2gAMAwEAAgADAAAAEJJJJJJJJJJJJJJJJJJJJJJJJJJJJJJJJJJJJJJJJJJJJJJJJJJJJJJJJJJJJJJJJJJJJJJJJJJJJJJJJJJJJJJJJJJJJJJJJJJJJJJJJJJJJJJJJJJJJJJJJJJJJJJJJJJJJJJJJJJJJJJJJJJJJJJJJJJJJJJJJJJJJJJJJJJJJJJJJJJJJJJJJJJJJJJJJJJJJJJJJJJJJJJJJJJJJJJJJJJJJJJJJJJJJJJJJJJJJJJJJJJJJJJJJJJJJJJJJJJJJJJJJJJJJJJJJJJJJJJJJJJJJJJJJJJJJJJJJJJJJJJJJJJJJJJJJJJJJJJJJJJJJJJJJJJJJJJJJJJJJJJJJJJJJJJJJJJJJJJJJJJJJJJJJJJJJJJJJJJJJJJJJJJJJJJJJJJJJJJJJJJJJJJJJJJJJJJJJJJJJJJJJJJJJJJJJJJJJJJJJJJJJJJJJJJJJJJJJJJJJJJJJJJJJJJJJJJJJJJJJJJJJJJJJJJJJJJJJJJJJJJJJJJJJJJJJJJJJJJJJJJJJJJJJJJJJJJJJJJJJJJJJJJJJJJJJJJJJJJJJJJJJJJJJJJJJJJJJJJJJJJJJJJJJJJJJJJJJJJJJJJJJJJJJJJJJJJJJJJJJJJJJJJJJJJJJJJJJJJJJJJJJJJJJJJJJJJJJJJJJJJJJJJJJJJJJJJJJJJJJJJJJJJJJJJJJJJJJJJJJJJJJJJJJJJJJJJJJJJJJJJJJJJJJJJJJJJJJJJJJJJJJJJJJJJJJJJJJJJJJJJJJJJJJJJJJJJJJJJJJJJJJJJJJJJJJJJJJJJJJJJJJJJJJJJJJJJJJJJJJJJJJJJJJJJJJJJJJJJJJJJJJJJJJJJJJJJJJJJJJJJJJJJJJJJJJJJJJJJJJJJJJJJJJJJJJJJJJJJJJJJJJJJJJJJJJJJJJJJJJJJJJJJJJJJJJJJJJJJJJJJJJJJJJJJJJJJJJJJJJJJJJJJJJJJJJJJJJJJJJJJJJJJJJJJJJJJJJJJJJJJJJJJJJJJJJJJJJJJJJJJJJJJJJJJJJJJJJJJJJJJJJJJJJJJJJJJJJJJJJJJJJJJJJJJJJJJJJJJJJJJJJJJJJJJJJJJJJJJJJJJJJJJJJJJJJJJJJJJJJJJJJJJJJJJJJJJJJJJJJJJJJJJJJJJJJJJJJJJJJJJJJJJJJJJJJJJJJJJJJJJJJJJJJJJJJJJJJJJJJJJJJJJJJJJJJJJJJJJJJJJJJJJJJJJJJJJJJJJJJJJJJJJJJJJJJJJJJJJJJJJJJJJJJJJJJJJJJJJJJJJJJJJJJJJJJJJJJJJJJJJJJJJJJJJJJJJJJJJJJJJJJJJJJJJJJJJJJJJJJJJJJJJJJJJJJJJJJJJJJJJJJJJJJJJJJJJJJJJJJJJJJJJJJJJJJJJJJJJJJJJJJJJJJJJJJJJJJJJJJJJJJJJJJJJJJJJJJJJJJJJIAAAAAAAAAAAAAAAAAAAAAAAAAAAAAAAAAAAAAAAAAAAAAAAAJJJJJJJJJJJJJJJJJJJJJJJJJBAIBJJJJJJJJJJJJJJJJJJJJJJJJJJJJJJJJJJJJJJJJJJJJIIBBJJJJJJJJJJJJJJJJJJJJJJJIIJIAAAAAAAAAAAAAAAAAAAAAAAAAAAAAAAAAAAAAAAAAAAAIIIJJJJJJJJJJJJJJJJJJJJJJIBJIIIAAAAAAAAAAAAAAAAAAAAAAAAAAAAAAAAAAAAAAAAAAAABAAAJJJJJJJJJJJJJJJJJJJJJABJJAAAAAAAAAAAAAAAAAAAAAAAAAAAAAAAAAAAAAAAAAAAAAAABIABJJJJJJJJJJJJJJJJJJJJJJBBJJJJJJJJJJJJJJJJJJJJJJJJJJJJJJJJJJJJJJJJJJJJJJAAAIJBJJJJJJJJJJJJJJJJJJIJIJN8222222222222222222222222222222222222222222222yPJBIJJJJJJJJJJJJJJJJJJJJJJBN/8A/wD/AP8A/wD/AP8A/wD/AP8A/wD/AP8A/wD/AP8A/wD/AP8A/wD/AP8A/wD/AP8A/wD/AP8A/wD/AP8A/wD/AP8A/wDgEggEkkkkkkkkkkkkkkkkkkkkAM//AP8A/wD/AP8A/wD/AP8A/wD/AP8A/wD/AP8A/wD/AP8A/wD/AP8A/wD/AP8A/wD/AP8A/wD/AP8A/wD/AP8A/wD/AP8A8gAAQSSSSSSSSSSSSSSSSSSQSAB//wD/AP8A/wD/AP8A/wD/AP8A/wD/AP8A/wD/AP8A/wD/AP8A/wD/AP8A/wD/AP8A/wD/AP8A/wD/AP8A/wD/AP8A/wD/APyIJIIJJJJJJJJJJJJJJJJJJJAAJ/8A/wD/AP8A/wD/AP8A/wD/AP8A/wD/AP8A/wD/AP8A/wD/AP8A/wD/AP8A/wD/AP8A/wD/AP8A/wD/AP8A/wD/AP8A/wD/AIIIAAJJJJJJJJJJJJJJJJJJBAJP/wDt7bX/APf/AP8A/wD77b/ff/777b7f/wD/ANttv/vttt/t/wD7/wD/AP8A/f8A2IBAAJJJJJJJJJJJJJJJJJJIIIn/AMkAADn1ttttt/vv+btvr3tv0tn/APB7b/667bn9bfTbbbbb7+oAgkAkkkkkkkkkkkkkkkkkggkB/wCQAAAIuQAAAAA6AAAQABeAAAABDvuAAAB+gAF3gBbAAAAAM/UAIIIJJJJJJJJJJJJJJJJJIBIAv7wAAABXgAAAAA7ABhwABuwAAAAJfgAAAAeQAJ+ABOAAAAAP+QABJIJJJJJJJJJJJJJJJJJJAJBewAAAABPgAAAABAABHAABewAAAAAvUAAAMWgAF/ABsAAAAALukBJAJJJJJJJJJJJJJJJJJJIAJJ+mAAZAALQAAAAAWAAKAABXQAJAAAf4AAABTAALsABYAAAAAJvgAIIBJJJJJJJJJJJJJJJJJJABE+QAAbAAO28ABH22ABVwACzAABYAAfYAJey3AAH6AIA3gAA3/wD2SSACSSSSSSSSSSSSSSSSSSAQA7iAAugAPN5AAVtuAAPsAC8gACEAADQAAVv9AAC8gCtvMAAN/wDegAgEkkkkkkkkkkkkkkkkkkAgA28AAvwAD/8AcABf+4ABlgAF0AAP4AJ9wAA//wCgACvAC/8AdAAe/wD7BIBJBJJJJJJJJJJJJJJJJJJAJh0QAH0STv8A+AAb/wBAAAIAAXwAEIwAlZAAf/8AyAAEQAD/ANwABf8A/wDJJAIJJJJJJJJJJJJJJJJJJAAJD/wAI/8A/wD/APcAJf8AwAAGAAC6gAdQAAX4ABf/AL4AA3AAX/8AgBl//wBCAQQSSSSSSSSSSSSSSSSSSSCAY/sAAK//AP8A7AAFf/gAJkAAKgAB9wALzABFpvYAAAAAL/yAAL//AOwSQACSSSSSSSSSSSSSSSSSACQP/MAACP8A/wD+QAA//QAP2ABuYAAGQAGgAAJ/PgAANwAP/wBAAS//AP8AIAJBJJJJJJJJJJJJJJJJJIBAAf8AKAAAJ/8A/wDQAD/+QAOmABeYAAeAANmAAABOAAAIgBv/APgABf8A7AEgkAkkkkkkkkkkkkkkkkkkkAC/9AAAAd//AOgAFvyAAEQAAvgAI3gAt+AAAB+QAAAAAf8AsgAN/wD7EggEgkkkkkkkkkkkkkkkkkggEB/74AAAm/8A/ABN/wCgAAMAAbAACEgAQ/gAAAf0AAAAAb/uAAZ//kCACSSSSSSSSSSSSSSSSSSSSQBH/wD8gAAGf/IAG/8A8AAGAAAcQAL4AAKYAAAN+QBAAABP+wABv/8AgCQAQSSSSSSSSSSSSSSSSSSACRv/AP8AwAABL/4ABD/6AALAAJWwAPmAAFwAAX1zAAQAAIf/AAAAH/8A5EgEkEkkkkkkkkkkkkkkkkkEAgr/AMkloAAP/wCgAb/7gAFMADugAAfAAP4AAH/9gAAAACX/AKAAk/8A3ZJBBBJJJJJJJJJJJJJJJJJJJAF/7bRiAAD/ANgAHfoAAPkAC4wAIUAAbgACX/8AwAnAAAD/AOQAC/8A8yACAASSSSSSSSSSSSSSSSSQQSA/wACvAAD/ANQAA/8AYAAHgAFkABOQAAOwAKf/AOACEAAC7/0AC/8A/IAAEAEkkkkkkkkkkkkkkkkkkEkf4AA/wAC/7AAC/wCUABTABJwAAigAAfwAH/8A8gD0AADL9YABf/8AwgkAEkkkkkkkkkkkkkkkkkkEAjf/AAABwABf/wAADP8A5AAFoACvoAFSAAg6AAX/AOwADQABJ/2AAN//AMiASQCSSSSSSSSSSSSSSSSSASAf/kAAYgAT/gACH/gABEAAYtAAdMABtgACf+8ABaAAY/8AAAAv/wDqIBIBJJJJJJJJJJJJJJJJJJIIAv8A8ABVACH/APAAD/8AgANyABdQAA9AALwAAIADcAF0AAL/APAAA/8A7UAgAgkkkkkkkkkkkkkkkkkgkAD/AOwAIAAIfyQAD/8A4ACGAAL0AAAAADdQAAAAiASuAAR/vgAB/wD5gkkkgkkkkkkkkkkkkkkkkEEggB//AAAAAAL/APoAAf8A4AAAAAJ+AAAAAEO4AAADOAEvIAH/AOiAA/8A/wCkgEkEkkkkkkkkkkkkkAEAkEEAD/4AAAAD/wD2AAF/+UAAABP/AIAAAACbqAAAAXkAb9gAL/kAAL//ACEgkgAAAkkkkkkkkkgkgkgAEEg+/wD3AAAKX/xAAL//APQAACf/ANAAAAEH9AAAAD6ABXIAC/7gAC//AMQAJBAAABJJJJJJAIABBIJJAIBJv/6sAMr/AP8AV/8Az/8A/PQCP/8Aa/8A/wAkV/z/AP8A/wDv1+7/AH/7/wDf/wC//wD7EAAAggkkEEkkkEkggAEgAEgkEf8A/wD+sv8A/wD/AP8A/wD/AP8A/wD3aT//AP8A/wD/AP8A/wD/AP8A/wD/AP8A/wD/AP8A/wD/AP8A/wD/AP8A/wD+hJABAAIAABJJJIAJIJIAJIBABD//AP8A/wD/AP8A/wD/AP8A/wD/AP8A/wD/AP8A/wD/AP8A/wD/AP8A/wD/AP8A/wD/AP8A/wD/AP8A/wD/AP8A/wD/AP8A/cgAgkkAEAkgkkkAgEAAiYf1sgAX/wD/AP8A/wD/AP8A/wD/AP8A/wD/AP8A/wD/AP8A/wD/AP8A/wD/AP8A/wD/AP8A/wD/AP8A/wD/AP8A/wD/AP8A/wD/AP8AQAAAElXgkgAgkEkAAAIL3/8AmWqQz/8A/wD/AP8A/wD/AP8A/wD/AP8A/wD/AP8A/wD/AP8A/wD/AP8A/wD/AP8A/wD/AP8A/wD/AP8A/wD/AP8A/wD/AP8A/wDIHHNOss/EAgEkgEAbR/8A/wBm/wD/AO6jP/8A/wD/AP8A/wD/AP8A/wD/AP8A/wD/AP8A/wD/AP8A/wD/AP8A/wD/AP8A/wD/AP8A/wD/AP8A/wD8X6UiN4elbJC5LOEEggkEAlv/AP8A/wBpv/8A/wDto/8A/wD/AP8A/wD/AP8A/wD/AP8A/wD/AP8A/wD/AP8A/wD/AP8A/wD/AP8A/wD/AP8A/wD+/wDiOz873D4tsApBFgtoSCSAQQCAMX/00/8A/wD/ANrP/wD/AP8A/wD/AP8A/wD/AP8A/wD/AP8A/wD/AP8A/wD/AP8A/wD/AP8A/wD/AP8A9KkovBeosOl7yLtsjSVEBN5SSSSQASQCWekv/wD/APyQP/8A/wD/AP8A/wD/AP8A/wD/AP8A/wD/AP8A/wD/AP8A/wD/AP8A/wD36xDke8pTjKbFbTvHK9YbDcl7HKrkEgkkEEAAG+TX/wD/AIhcH/8A/wD/AP8A/wD/AP8A/wD/AP8A/wD/AP8A/wD/AP8A/f8AkfFgEGUm2CocSG2dZmERjqj6SqBAIDeaBIABIBBIIn/MG/1mVQr/AP8A/wD/AP8A/wD/AP8A/wD/AP8A/wD/AP8A3eDpc4oM1gbbbcFU4ehLOWwCrOooEkjmor4SJgEkgkAgggCffYcvLfVAH/8A/wD/AP8A/wD/AP8A/wD/AP8A0iinpwC6TYzWEA2wGbgwPczTLrpJBJnAKkleSmmByRJIJBBJBAAm/wD/AHE//UAP/wD/AP8A/wD/AP8A/wCtWZyJORGgaW/WizCCo2QbXFXGmKIBGOwJAzm2hUOX2+EVUAJIBBAIBJn3/wD/AP8A/wDQAb//APf/AEB4e4+UWWbAw22TTZbezhr8VWkIAIF/YYOZmKLiXI4GN0SM6EisBJBIJJJBBH//AP8A/wD/APUCFZKgMZXoVtttttlFittG12buprjyAACTXUSYtgA7SDiClsEhunw1OQR6AQQCCQQCQSR//wD/AP8A3xR1MympSJEwuNtttpCsTJs4fSQD288CAB1hMShtzikaJSMkJukN+9kpilhCAQQCSCQCQWJ4G7P8xokFspmyAHGMNlOs8+vCCkAAACYMtoR4CltuQE4mAQm4QMgmC51lFcACRsWSCCCSQCQQEfWGroHXAttFtqc1WKccCAAAATU1S6QABhNtk9mBJtqWvYuDB5QKHQkAAC2N8ACSjUAASCSQSQCC8Mvl8T+pgN4/i2JWSAA1yAABJsmAAeAS7tt1IEh5pAprFtC1uM/iJCgAPMJ4AAaDCCSASSSAQBTt8tiAH38tz23SUAAB8gPqwAQFs9s1ogIxtwKoPhl8u/5tuzwp8nQEFAAJIQ4AAJu8CSSSSSQCAoNRGEVbgQAAAVUqUDEoiEdrgMttXt3JgGunSpQO3QA/p4Nvw/tF/EtoAAEUiQAAUuIASQCSQQAAQFZAQDmsyYwAKu5kDMtgVtsCQPEo8SQkptrglttCyhE56puCKikEUIOgAJZWYAANsGSACCSQQCACVNgULyVk1JAAQIsItlSdtsilxWzdti2o/wB4tbbukKbaxdyrDPMdWa2sAFppIAAALpggEEkkgAgAyLYFNBIbRH0HJ6pAQo3bNbIl4rntbd2lw/CkMrgCIbC+YbMFOGcyYVvABnBAAAEbekAAkkkgEAgTqIBILZbFEkGTLymGroidr8khbkkH5VC6uTrScNCYrbgBRSAIy0bZ79ABTZNAAB7IAkgkkkggEkgJ4BzbcibnJHbbU3XzpGXoch85gBfY0DTbjBKAQEAbcr0/IEvJNxbbKAGcbJoAFLfEkkAkkgkkAVJgCTbAGkcrBbgNnlpqtl9gjMr3Ex5pDTbSHsEgEUNcj7G2DsbFbbbxAH0aBgADrNAEgkkkkAEkmbYAqbCiptFFLLRuijBMIAAnZIwEuNBFLAkAOH3BocAjDY5CZbpbbbWAAHV2IAEDLkAAEkkkkAgmpoGbzJjUIElzcikjOkxMgACuYNAAAADbFnmY7vD2pY3bbeCbb6bCTqAA2UAgAFDU0kEgkkkEkkgP8CZFhjZRP2jbdQBIWbkrAGYTIAAAABDYyuKlNF7hUjLbeDrDhrdDfAEJKbAAEjWAkAEkkkgEgGAkHJl9gwaGgTbcg0oIbbIQCJPoAAAkFDY+2OEgjtqcDbbGmIdL7/rTAGUfBAAEDOgAAgkkkgkgHBtG4YEFMkXgLbeIHcTbbbKGMoSHngFlrbdlgIg3RLYhtbWjgCApOLbAAQFqQAApgkAgAkkkkAEAlOBDtNYBoPQ7bYIAhNbDbJAbZSmpBHkzbfiLMMnCSYbkYvgVb8eFbwAAzAk4AAUBUkkkkkkgkAC6xAi0sj+MHYbbpAAADdM7Qhbd2ip/ajsUIeTpbgbAeZ/F1gBh8FbbfgA5DgYAAYgcgggkkkgEEDbHAFdZUctCQrbg4ki8JtzM6TbLgqFYEqeipwYFgLpbOlYEAbAmEpLMoA912gAA46UkEEkkkgAECAOA+TZQyCWYaZoIXEMYTSQ5xSOgTaYg0BKhyvsghbbIua1A75oESYIwALq8oAAZroAgkkkkgkgkkjAxDZALcBYWer4lDJ4x/QtQYz4bbYg0MJRVo0AYZIJUtAAQGFApdSAAAAAEqvTYAEggkkkgAAiS/AxLgwrYUozIlw4bZ4edZQfhCVHzLohaSwc7dAHhwIZ7AAQZgAAIAg/CuoPwqaOwAkAkkkgEAiTtAiZJwrbSYbq9g1bI8dBoQ4viiIMPgmCdUDXgAAaPDmwAAAEkiB4XlRIbDDOdbj8gEAkkkgggD7TANRaogVQI5ltMRbm1mxB4OYT6IB+AEyvLIhAAAAkggE//AFXHF4W2wHG+XgyxbhRBBAJJJIBIJG54IZ66CIgAGVzCJw342QJaIE060KIAABylvIAAAAG80H8JLmM2222/LS82S4AxEIAIBJJJIAIBE24KYaAJ5AGHGm8AKfKjTCgBXol8LAAAAABEAGCUSaGe3kwEAs222w1tMJ9v4gAAJBBBJJJIJAJgrYLmVxLhSUCG2fBMBoWScAAAIN1AAJJ24p6mjE2Ia3822wUBIzvrtGhHYAABABIIABBJJJJAJBkeYCa2fPIs+Fm3RwIQITrAAAAAJTPD5EciW22222ZsUW26dT9E2fboABABBBBAIIJJIAJJJJBBJNY6EvXGNlqgBb57QAJJIAADRjrNwfCUC2222222yZNDLLEVhAAAAIBJBJBAIIIBIIBJAJJJJIIIKbSOzb0mD4AAAAABIIpcUVJwxuQyYxdK222k0pHdnzAAAAAIJIAABAIJJAIJBJBJAABAJJJJJIIJWqC+2TIAABJJV9MQNYbU223BMT5i0TUn7u449YAAAJAJAIAIBBBBAIIAJAAAAIIIAJJJJJJBIIJOEAAAADHfX+aiS6BGS2k222XZEvv74gipoABJBABBJJBBIIBBIJIAJJIJABIIJJJIIBJJJJAAIKZcICqCUximSnWiWfY22w21Kwi4UgIAAABIIBIAAIAIJJBABIAAABJIABIAAAAABJIAJJJJJJJAF8Y/KwTyQW222227UTKWjqJOAAAIABIABJAJJABBIBJBJJJJIABIABJJJIAJAIBJIAJJJJJJIBBCuk23eURoS22mlKUdHeYAAAAAJBBIIBBJBBAIBIBBJABJIAJJAAAJJIJIIIIAIIBBJJJJJJJBBBI462wWfKUQXIf35MABBJBBJBBAJIIIBBIAJIABJJABIBJJJJIBIBBIIIJBAJAJJJJJJJJJJJBAJIc85hGz4v4IAAAAAAJBJAAJBAIJAIAAJIIABJABJIIIJIJJBABJBAIJABJJJJJJJJJJJJJJJBBIAJs1qAAAAABBIJAIBBBBBAIAJIAABBIABIIABAABIAIJBBBAIBAAJJJJJJJJJJJJJJJJJJJJJAJIAAIAIJAIJABAIJBBIJAAJJJJIAIAJJJJJJAJBJIIIIIAJAJJJJJJJJJJJJJJJJJJJJJJJJJIJJIJAAJBBIIIIBJAJBIABAJAAJIAAAABJAIBAAIIBAJAJJJJJJJJJJJJJJJJJJJJJJJJJJJJJJJIIBBJIBBIIJIAJJBJIBJIBJJJJIIJIBBBBBBIJAAJJJJJJJJJJJJJJJJJJJJJJJJJJJJJJJJJJIJIJBBJBIAAAAABJABJIAAAJIBAIJBAAIAAABJJJJJJJJJJJJJJJJJJJJJJJJJJJJJJJJJJJJJJJJAJJJJJJIAJAAABAIAAIJAIIIIJAJAJJJJJJJJJJJJJJJJJJJJJJJJJJJJJJJJJJJJJJJJJJJJJAAIJBIBJIAAABIAIJBBJJBABIBJJJJJJJJJJJJJJJJJJJJJJJJJJJJJJJJJJJJJJJJJJJJJJJJJIAJIIAJAABAIJBBBAIJAAJJJJJJJJJJJJJJJJJJJJJJJJJJJJJJJJJJJJJJJJJJJJJJJJJJJJJJJABABBBAIIBIJAIABJJJJJJJJJJJJJJJJJJJJJJJJJJJJJJJJJJJJJJJJJJJJJJJJJJJJJJJJJJJJAJAAJJIJABJJJJJJJJJJJJJJJJJJJJJJJJJJJJJJJJJJJJJJJJJJJJJJJJJJJJJJJJJJJJJJJJJJIAABJJJJJJJJJJJJJJJJJJJJJJJJJJJJJJJJJJJJJJJJJJJJJJJJJJJJJJJJJJJJJJJJJJJJJJJJJJJJJJJJJJJJJJJJJJJJJJJJJJJJJJJJJJJJJJJJJJJJJJJJJJJJJJJJJJJJJJJJJJJJJJJJJJJJJJJJJJJJJJJJJJJJJJJJJJJJJJJJJJJJJJJJJJJJJJJJJJJJJJJJJJJJJJJJJJJJJJJJJJJJJJJJJJJJJJJJJJJJJJJJJJJJJJJJJJJJJJJJJJJJJJJJJJJJJJJJJJJJJJJJJJJJJJJJJJJJJJJJJJJJJJJJJJJJJJJJJJJJJJJJJJJJJJJJJJJJJJJJJJJJJJJJJJJJJJJJJJJJJJJJJJJJJJJJJJJJJJJJJJJJJJJJJJJJJJJJJJJJJJJJJJJJJJJJJJJJJJJJJJJJJJJJJJJJJJJJJJJJJJJJJJJJJJJJJJJJJJJJJJJJJJJJJJJJJJJJJJJJJJJJJJJJJJJJJJJJJJJJJJJJJJJJJJJJJJJJJJJJJJJJJJJJJJJJJJJJJJJJJJJJJJJJJJJJJJJJJJJJJJJJJJJJJJJJJJJJJJJJJJJJJJJJJJJJJJJJJJJJJJJJJJJJJJJJJJJJJJJJJJJJJJJJJJJJJJJJJJJJJJJJJJJJJJJJJJJJJJJJJJJJJJJJJJJJJJJJJJJJJJJJJJJJJJJJJJJJJJJJJJJJJJJJJJJJJJJJJJJJJJJJJJJJJJJJJJJJJJJJJJJJJJJJJJJJJJJJJJJJJJJJJJJJJJJJJJJJJJJJJJJJJJJJJJJJJJJJJJJJJJJJJJJJJJJJJJJJJJJJJJJJJJJJJJJJJJJJJJJJJJJJJJJJJJJJJJJJJJJJJJJJJJJJJJJJJJJJJJJJJJJJJJJJJJJJJJJJJJJJJJJJJJJJJJJJJJJJJJJJJJJJJJJJJJJJJJJJJJJJJJJJJJJJJJJJJJJJJJJJJJJJJJJJJJJJJJJJJJJJJJJJJJJJJJJJJJJJJJJJJJJJJJJJJJJJJJJJJJJJJJJJJJJJJJJJJJJJJJJJJJJJJJJJJJJJJJJJJJJJJJJJJJJJJJJJJJJJJJJJJJJJJJJJJJJJJJJJJJJJJJJJJJJJJJJJJJJJJJJJJJJJJJJJJJJJJJJJJJJJJJJJJJJJJJJJJJJJJJJJJJJJJJJJJJJJJJJJJJJJJJJJJJJJJJJJJJJJJJJJJJJJJJJJJJJJJJJJJJJJJJJJJJJJJJJJJJJJJJJJJJJJJJJJJJJJJJJJJJJJJJJJJJJJJJJJJJJJJJJJJJJJJJJJJJJJJJJJJJJJJJJJJJJJJJJJJJJJJJJJJJJJJJJJJJJJJJJJJJJJJJJJJJJJJJJJJJJJJJJJJJJJJJJJJJJJJJJJJJJJJJJJJJJJJJJJJJJJJJJJJJJJJJJJJJJJJJJJJJJJJJJJJJJJJJJJJJJJJJJJJJJJJJJJJJJJJJJJJJJJJJJJJJJJJJJJJJJJJJJJJJJJJJJJJJJJJJJJJJJJJJJJJJJJJJJJJJJJJJJJJJJJJJJJJJJJJJJJJJJJJJJJJJJJJJJJJJJJJJJJJJJJJJJJJJJJJJJJJJJJJJJJJJJJJJJJJJJJJJJJJJJJJJJJJJJJJJJJJJJJJJJJJJJJJJJJJJJJJJJJJJJJJJJJJJJJJJJJJJJJJJJJJJJJJJJJJJJJJJJJJJJJJJJJJJJJJJJJJJJJJJJJJJJJJJJJJJJJJJJJJJJJJJJJJJJJJJJJJJJJJJJJJJJJJJJJJJJJJJJJJJJJJJJJJJJJJJJJJJJJJJJJJJJJJJJJJJJJJJJJJJJJJJJJJJJJJJJJJJJJJJJJJJJJJJJJJJJJJJJJJJJJJJJJJJJJJJJJJJJJJJJJJJJJJJJJJJJJJJJJJJJJJJJJJJJJJJJJJJJJJJJJJJJJJJJJJJJJJJJJJJJJJJJJJJJJJJJJJJJJJJJJJJJJJJJJJJJJJJJJJJJJJJJJJJJJJJJJJJJJJJJJJJJJJJJJJJJJJJJJJJJJJJJJJJJJJJJJJJJJJJJJJJJJJJJJJJJJJJJJJJJJJJJJJJJJJJJJJJJJJJJJJJJJJJJJJJJJJJJJJJJJJJJJJJJJP/8QALhEBAAIBAgUDBAIDAQEBAQAAAQARIRAxIEFRYYEwcZFAobHBUOFg0fDxcLDA/9oACAEDAQE/EP8A9si5f+PDBv8AlV/yE/lH/Ij+Uf8AIj+Uf/jipUqVK/8AhZ4SBXGnBUqVKlSpUqVKlStAlSiVKiaBKlSpUTQlSpUqVKlEolROElEqVKlSpUqJoSpUolR1CVKlStAlSpUqVKlSpUqVwH8m8Fekmh6jxvG+qS+A9F4zqcD/AII8AV6SaHqMN+JhxPrHU9F0OF0OFh6jqfyjqH1J4zDidD1H1HfQ4XQ4WHqOp/LnCtQfozDjPQNvUdD6F4z6p/mRxMOMZZLOOyWSzQ4XQ4X0GHE6HFcslkvQ34nQ4hlks47lksjqfybqcLocLwnC8JwuhtwuhxPG+qDidDgduE9Q/k30Dxn0n0nQ4XQ4zidD0zieJ4TheI/lH0DoMuXLlxeA9IcTDifXHQ4XiPUeE4XiP5c4n0jifSMOJ0OF9c8Rxm/C8BvxP86OKo/wQOF0OF0OJ9U4V9I8R/JvAcbmV6AcLwnC7eudDhfRVKiaHoH0o/k31FXK4zheE24XQ4XQ4njfTPrHhP594T0Ev1H0njfQMN+J0PRfWPCcL/NPCNS/QThOJ4DiYcT6I4nQ9M9R9J4j+av1TieA4zidDhdB9Gbeo8BxP8ydvQH+FBwuhxnFcuXF0PVeA4n+ZPoj6Z6RwuhwuhxOhwuhxPCcLv8AUD+TdTMqVKlStB9I4XhOF0OF0OJ431Rw8/UOF24j+UdThdtD130nQ4X0RxOhwu30R4TbheI/nDoeu8BxMOJ9EcTocL6R9B9J4j+TfRPGeA4ngOJh6Bwuh6r6T6DwHE/zJ9E6HC8B9SHC6BwuhxPCcL6DwHE8R/JvAbcLxv0ocL6CQ4joemcLoekeofybwG3DUr0jhfTVxOh6rofQHQ9c/wA8em8Jwv0B+iHouhxnC8JwvEfzC9K+E4nhIN+kvrl1PRdDjOF9J/mTxDfoLL4TieIfRXgPTX1XQ4HU4XgOJ4j+TeIxB4b9AS5cuXL9C5fCsu+EZcuXLly5cuXL4bly5cuXLly4sJcuXLi6jLly5cu+Aly5cuXxn8m+jcv6q5f/ANTP4i5cvS5cv/M1zZk+JlkPH096L9K2XLm+iv8AITQL2m8L4m3qboDzFbBH/qlstR7QJFa6spgfmCLI8QA2gYCyFuEcuv8AcRGn6GyXL+iuXLmI/wCLWRxhitM+J0h7zfqPMzKPEFuQHaAb28zr33WbeJsQPbhM94gPgZN9oRIB51EEpgDHBYOdv78n6BJX01TaL/hpnE3JfDN/J0p7sTsET+uLhKRahTfLALpAUVe0GaegqB9Iuu0uAu6npBJ0ekQFSkcRgjI93f2ntGiVPKBNlzT9cBvcz7yqU+hqV9EFypf+CiO0p5zeJvtNlU3ED3ZuQ8RCnxE3ws6l8zaz8TAgeIWba4jVEDftOgSL9pUo7u8QSmVqIDm4FX75qWegp5hEotoUR57ExkvvjtMhzQRLG+AhcYMp/OggFGpai48qwlpa7K9vbSid5ecbak7br9JXrho7/wA6NzcB8M2tTpX3YzcH3n9clPZmb4L5mbylwAPaY4HxAIoPI/1LgVdT2nIvxN1iA1nVcuhc10jkx7lzSr4MMeT8f+zcnPKggW5s9Llw3WGwUXjhtaN3u/MKaxMerO8rYLg9rfEQw05A8squoXOhYjU4dKgD3lD2iDfyw17n0ly5iV6VS6g3o/ydkBZu++Jt6/ERuB7sfsn3g/1xuV5VOvfM20+JsgeIUbcPTJ9pTq1uMAG7HKY0zO2D8suKNiGLc3BeU3tUUHV4VBbAsKPfnFfUY3y3lqzHgoLz3IIpfQ6TeNoRQDJBpVTYT5guRA9XiJ7DF7vzKFB5zNkQ8RkVeIharind9BKaMwbk2iBSeZpR4vx9PcwyuIJt/HMTeboPhm8nxpFNAPM2gHtOemb5b5m3xsQ+I0QGe0M4ua8PiFOR5Im0gVRDvCosO3os/uMoelSwTtE2gDadeGx+LlzBzVNwiWyZHow3az8Z3qHyPT30rkw0bl7wwXA7H2uDCN86m0K+I4Dz/eGI2BNop7E3sm7j5024xcgzcxnTPvN8o8zluE3fiA3Vh+0JoSYsuc9aLdT6kalypUrS+Mn19kBcE3sfE3tnLh7sdsH3nefY/wBwrq9+P9SoG02sTY08QK20wx1NbPPKXeBWgLq3W7As9g6xCtgXKvaPLZLAX6DBHaWFUTvKIFl/876Lm0oHkbJcFuCbWfM659olQL4g935lBQ+ZsFHiP2uImW84tu+gC4Jvr8TY1O0ogBdT+qIDdPxOeHzDZCJop8Stazjxe4aWXuS5QYggtWaUL1Pq7gy/RP013Bdi+Jvp8Tb/AJM3qiN2DxOeH7TelYq3/d59IglXtjJ55zBA+Iu5LsSr5FxhtdaXqtQzqhLvnWyd4jVFDPRmd3hAibKPcloXIqdYcb8u8XSti6sgZMsAWD5xwWrEJyihuzZc8xBsgpdo2b7wSq3P7ZithOSD2Jg1RBUz3iru6VxYQU3UnQsxirUq8wFAsy3MSJXUzNiHxNpvDS7zDdGNelL6THRai+ej2BTb3Oksbuc8RX3jgoXk5+YXWeGx++mPvEaDBzMfpV5P4c+ncM7Tdj4Zsyic0PMpyENJF/1kPuv2m/J92bWJtqeIOTj2Rm2MglRtq3EobxBZtDJZFDfRtrlLrt1hBisvpWltks212kDn0uVB7iJ8HzHa/Eg0XyrH3gt1nJEVsB4nQPibs/mO+b9DKi5vb8aAbvR5nLpB1+CXHsq9KFWVBcPwRELDyqYvPoTPnEUsmjLF2Ioa3ynuYxX7WVZ0IBBFffVpvD65+iE3q/KY5aUNLzqd/c0GsyoXzCABRGjkTAmzv7n5+kT6M509pshcsXWf+Im50eY3Z+Jz14JuCs2+d944oH2h9A+Cc9qZ6yq/DpCGPUq8R3ard5K3iiGVthRjsfnlcCqKPuwVpiHy54DYXQ5nWNHz4mAinW3igRm4uupEeSe06w8TZj9oH9k5HJ0B4hDhzfn5im70ah2zpjzFbBH/AKIPdfibwL5h6tnRnklvWYNaLco6g095XEAHcy85N+8TVf8Aj3lOL2V1YkyDlKIbflqrHYmHfVsqpcoc0rKuw/cs61L1Qd9BfLxDsYuy7MvEvUHbWzxa9wg0IXMMtbpPpUienUZpt7Q25cpQm+LxCOVmWRfMOc5sj8QZgT7wDNZgTrjfzCGPPfXE2rYbl84pat4RLwwsa5a58V6JvGE8xV+0InNCEi1iYIh7zkhm3W+IPdjsB8wGqbvy/U6fh6PmbkvBnVChbNkU7wm++06w92f9LhPJ5iM1+8t2w6nDQDqM9+G57Jps+/DkYlL2NPIJ3gLJt3VZS2rN0y7zKw3MkNAT5H7h1Ee8surLjzF+HvLWOdoK79RUXUlGlPTVqJl6RWIdUAhZBXOBLu0RsB4nTMLtpo7TmsrTMC6Yah2fpXSpUqVKlSpUdoW9pU6q3vEzX4hAtqCGQYBm5UFl9nprS6b8DnSjtwZBSPzHbEpkYf8ArgIjae6OPaAQZSg1EdtEFGHZ78+HYQm5ibZb2IHYs5s+YjAk2ZDxOiZvb8zdHXfRh1Xwzcn4ZVej091f6h9DPXnxsrtN+0FcHRyY4Ck9Ed3sfvSi2emu0Q9OcIjs6HL3dLj3NELdxBKZg/OIGmxZvEU3OhO57OmH2WUFxBDbJf8AqBKDL+tKL9QlDrmwAnNA8TdlDaW26hO12J5d5Vluuu8JYPUOJGKzQi7+UQG6j6V0zPZu/qUbVGgCPips1nmPLX2gS9ptOsPuwq6X8/eVQAe0JdWj7ZZWBudzp3nObqrzGoO6vQsm0Ma2MLpiqDHaCAsBC8SnDtAmzLrNvTzN5+EYK17Q26zkr5idgToWbspuo+Znn6OIKOrMglfabfniFG0Q+E0wwviBK2+0fo468uJuV/v2hgCg5cS4nKXuK9AbvXc1uXeVXB3UHxEU1e3PBCUD2/elGbZddpnbb62h76Kk7ku86KHoImugbnWZkaqN8zlftAlKnXPty08Qwyj3bX3gNBQa0dp++G4Oiy12xtphHP31c57aUB7cRVHksEFkWi4bLs/SrDMViu1aJVLLfbVEByi5znlgoEDIgbNFqKhyi1xU1EG8JUj8zaz5ifN7E2YXQTMifeDITKu3WKbo+Tt7xV3ZWqOhftMuVO8XpBCbA+GPIHxMpR9mb0HGz3GAGbo5HAZLgvTLnoZgrLsq0Zt/BEe4/twAN5gzbIYFTbWImm8l8p7cCUpgSuWZ3BnbFdNKG+SLS88/70ufcjwIrml0I49jySqxGKnRlpa15cj+5fhzVeOCxdk0Gm5kXsaFXReNpsKWV5v7QNOei/fQ0uZEauUs7kl7GRUpS0chz94mld9OWmb3OFeV+pZMw0uHfyhEK0zHbiJsa4J5Bp7QP0jtooVpzh4hVG6XCU226u8zehlPeFCoVrDt+9CMDQbyw3/M23PM3QQpk+JzRP8A2IrAHz/ubJTxN/U36fOlcFkJs08FcrYAi+CCUBMixqWylBtGBOYtXnaVw2MHQt9pUWnhGgy27TtwNcUBGDAO+m0bwH4doqwhvzjiovRdbncijQYCIpz1vDut1iOVcmgioIDAzjlrUPJ/Oipu8G86JGGolZbiV9WrvXONC3cFoxBZzs+YHIDhF/JrY+xpkYrTl1hCW5vMOh76O0o2c5iyGB7GtZvTe3N+/DUFm/7TPKEgNtMGnyA4sXsau0oXR+jSybSukR3ZUeJ2mbmMM8xGsvYirC9CufWdVv3hdUN7xRQHxN1nKr+ZuRfTqijIortv7TcJ+0DyvzNgM2NPEOo6Gv8Aw4nP915vAoLYtgUZ9ondDCusMzBd3WisdmzERR1PuBxBFbgTC3bVesYBsI/EvS5hOUMdzZ761T1WDeiXhgAUQazEqvVlw71860K1l1pXQvQvlDslzod5Y4YFYJVDl/I4YYlT7szJWSAIhzyyG98HtJo849K6HjrAT20Ra2IN6BG5ZehvkSjrj98IhryfvhqF6TC0AG16Go7K66wi2GX99xVB2OCp938/SVLj4C4AKg1qHfi2Ys34+ItqDLx8w54mZHLW0A0B8TakY9SEvgZYOywDHOyvuzJdvLP+5U+iYiNtc76xZ0JQ3bUzXuf64dji4j3Vt1/1ATSqZ4bFNsv961/UuANtARbEqe+9Y+8usxm3QbEWLZs+zqwNko3SD22Y9znCMqHtLsCcvVYbZZHKC6Wzom17v5naxOLu4MCsaUtvcdElNdo4VJooGL5y3OCi7yx9yO8rOlIxBY9RhpWndJUDYytUoM/tvAsrkxu3syRoKr2gZDohzdHDc+zKHEoK76XtzQZngrt1mY9E4qkdngoXf6VghzGAGy5amu463FF7zZhNvSARtEN4mow5yvzpXOYZnWxVQxByev8AqKMPRyjg6TUG3oDzLqqm3uuftEpd1S5APvDLTdulTdnS39r05zmY9ar0FUYtj8wKODh6d5VY4fOk1q0ujEzyiorymTWHZlVi5j7THeWmSd7A4CyZdmGRRx2XOyqx2j+KOex9mvEqiOyDZAgnYM0br37fmC0YgoO8N4qeo4UsqGl3dATazNduOapO5BsvUGthYfGledn+oKRor23TFx0ZUwVo/J27/WjBOyIQOcxY6j8Y0TW4gADRKFy+vkM+3CqDrf4hiPaXNmQvTxKj54veA8FT9fpao7l7mtTeoa3E7suooFrAFjo7RAi23nOoTaCzEBhLqG61Bq8m/tq7fQ8iEVIuGdyDd994Be+iCOzPIE0tXQaAWQebF6Fj7xBcQtGY17jAiKm5O9IaKG+to9EdatrNH4hJUOv+pRLdKhgKDTJE3IxlzpwVNQ0O5zhQyhtd5OftKd30NXkP7lAHdLe+IIbo8eXobxIXbX208gjFb7GhsOcrrmqEVAE93nSxOi6Bm+A0nqEGm4rR0NEC3OGIc1Cd52OXQbbVMO0QZmbl1DETcuz7+YApjKDlEzoKVANMSeGMOCwd4QuXPRKXfPQZQu3Fce/AKv1D6VWu5LomADr3htnQZRkxXTW4Oj+tDqBioNHHYZZTYXzlYzhqzFdSIbNjHR5Oh7n+0VRW+2nO9LDexDa99Ptv3G6xLAHb81N1W+8Zc6n3YAZJUO+ntDS0FWuCZHPQWXb961t3o/EtrdynbgoHd0Hkr/daK8p7xschvfPpHVFLuT3RWlHNs/mAXdk8C1PeIq5W777S15zu/wBQYHIfMoV8wdEV20FsiDsGT3mDUSTl6Sgd9Lkd9ANoIlmtSdT96A1mDnC9mCbSPBJn2giWQlQ7ujureSIO8SKi42Lk5Qm0y4BYGtHJmqrSo9RhwO13IiwC1d/aXwKF+OCo9niuXc4Peh9Lc+5AG67a5rs64hVYmWObHvw5yq4hQvVluSo0AFS+dNVLCRCk9uUqWacwdHSOo8RtPRNMB2lQNpbuV9vclasVAbYlhcdXoHRqjV0ZUdm9pUgr3Js78w3qpDQAd8IBEtaq+URZN39QXu6G8FLu6dC1D+ZdFwe4XollQq0lVuxpZ7FltbF488uAXVSovU0V9m9B6Z5xODaKhEdt2J4gaOw7mgG0JQbY18U0xu6o26IYCrWWYRoa9zSvrD8SwgLE3Jv00uVzgHEJYkNhwWDuR6oYBwG31DEpThBT1Iba5Ds/S7XvKopr80Nau0OKu/m/tmEsFaoBalgrRKp7G3TO/wBtHeeAae8rNbBqb7aewdKAdRiFtiTuoVmlVMIGw1EuygiqZezG+03RTen5irvK4Ha7aBSiG1RAuBdpQO+lvGzcIQ84pBxdW1p3qUL20u6J4qk7aWV6LLHqndJX9xQqVmJcHCciHHqNLI00Q8u+UMbzo4hkvQ5vfT5hC7LtpkQ1xBBJ5wjR0L2YOB2blyj11cHkL8y7zxkqPd4NxKF7SuetQM9iZbwUHd4RpuKh7Gvk30y7sGtydHVEC7IkWYdnhszLdeKdKS7Eo556Wi10htpZ3mlHua0ShWR0/cCitlC7Qgt9ZUQwZmSjKJzlHAl0S1XHVMwl9R6H2D9+BKWZYl8sYt51oegZi9LvaZSzOtqyX1jy/ujNgIqKutMHsSrTRalKtam0zHvpd0jN4uHPLAKAL2QyEIO9NFQ9SNYu/J1l87lJDnGJctLG6OljO/AhEecCptKh1GlA63oFa2P7S4O5h9Cpd+FKawQzTaAxAdyZFO8JUu/D2ntMa3F6MPpbl2NTftTXzIxEPTQLbh0WoGw5OgjTuQpG+USymAKISwPRhPew4ApRiFBV5lD7P4hBpsne2YNS5I9hd5iAuiBJ1jM/q08xLDHXlxfAWK5WlUt9ooobw4PY4q4PFpRS71oXZC9+erDn7/p0fkGmREarqVFrTfzAk+QaOkdmZLGYqm+tw9E0Vn3/AFxVdl+9Hb/7bhsHtOTD8uCmUrzNj0JsJz0mAbLtDd3M/wDkALTLrUO/CzwLW7sJ9MgItCLMOauUXVGW9tbH7/jWyOqqve443j0Xh3hoOn4hKc6jDCyK9GipDdrT4Boq7g4aXthsOzBSmlS+8f6i7OFbcMUl7jrCnUH76gIgU7QRwvTlKB08Fg9GGpsmVKrlboLlBlPWWXKX7ekLHoxWU56rUBgYgu/chPEISjBCksi04Wh8aVk83T5BL0AZ1+I/nTF7HEcnvpcO5r20oPZicgQQPPSwqwFXfAaXscKl0F/mADepicnAfhcTvz/nXwD6anFTaXBCrN0wo0Qr7ENLB30b2Imb0zN94kOiVoZp0Zf1mNGrAyagwN4y8lngGhhGK27cJBQ7ugh6SUN9x+ybxDV8ph3gC3rw7ZJRzTyekrZ/evxDRtRCnMITqxtDfk9JYDzEhpRwJq9ZzPYFaVF1ITmFU2dtefDiIS7IgfCJYjBYdHzpcO8rQeZL5o7FbaULtCeKcXk36dLj0TRusTASwqu7C+cFp2iUpMt3/DQDrRgXg7LgICb6EEra/aUnqPxwimTL+mHjyMu3uDaXDbp99MyovU4ridF1BkU3s+mqYvOMKHNz1h3gC2Vj4hpcDkn5nvMA8glRRXLrWtT5tFu9YFFRsLYhEVKEpimWHu463PscO2ZUu7rYqklHgevWDZfo81nJ7xweTR0HY0CiECgiG6ECrnnQMdrBkIOKi5TUipXLr2ht7fMyfAhHVnNhjhqXbR13BgBUN5mqhCiAWqIoYecN+LS59zRFGo5UuIoGjrjTuIOnvg0EduAWPfQabisue0t5a+5DAFbYf60oczcgvAxq6cN3TP5NSNu0Moy7d5R2374ru4/RDlV00x5JRinrDRDcfx9MggXT+oEWq65+GGTM3A6Q0jQabgWDcuICYM1UFTeDZBRd2Ok7mg5qCluWpPtP4lVpcu3F5BwpUr6GA6g5O69uBuYbG+h04a49j7mj94cRjTIwjtdyUXcqouxgUUaVLs6e5hxVPsw4dUusjE0WK33hvx/nR0dEVB6kIlW4IywVWlhCUpFX/fKM6KHn/wBtKv71aLQs2xU/MQ0QTltGg8Chd38xGDlBF5mlmdXaeQPD8Qm+oKlBLpvVU7TF7nE3DAwVgxolE7Q0j6UA+lMR3UKGBCp93Vg9iG/1CBErCCYjpWd2duxBO5LFTcCKgtg/bClvXQY5SnuzKvEFF30V+Xg2zLrLDSdQ/HFaZJT/ALiXgv8AJGiWGIihrJiON5219s50qO48AwSc1ftB8wVX7l3j/Onb5NTRQnSJhRMK76LXmNFS9GCWwWwUzLyHI0UC3QWXZiUpHSdzW92v2H71HtzQl2zA2NAvE9/mD7kCPnZzJQxpRKWKC6urgqUC7rBylCbA35f+yhK95ytgouHnHe66WjyyeeK5Oj+nh8SlrzMlXnRAOJRhYvfiQeRLsmYLauEoPd+lZa5n7IRByWW9uwEOaVLu63LsRQ30clQRGxMjFS76FRXguAtURPQS+2WbjHPQwyh93SynReC+TQwEYBHLdyovU/bwb7QbYm6PxolouhKr9Y/3EsuQPLGVIvP+pZ2S8tRfnUiUpLh34aMnBPENHSPSGdBSiJcAObz0+2fxrZJ294AAbNHYL9pgUQ7z3sYqfuRhKlmVj2mzUqf9DrrR7nP/ALpo7Yhq+G7394z9pFxZFINz2Xl/c2qtZ941K31hiGJyZ93VdUxebwXFouWhzTyXVQTTYmEc86Xxs4eK5PRIcFS6iVe0xhntAooIqAXePESkrPNgAa3y4qXOZHYMsMBvUJQu/wBKFXMMq3RUuXdUY94Q8k8w1FUh2xzh76Csx4PeOhqdbE5PfQAhYxbFjpKcwLXfQIudUlS76V9thEOejCG8D7bQLF0TZBfebO/EDYqL4I+8FhoO8MNkbcG3xDJNpyvMqG9QSbCx27T3aZ79aKArBRHfOlXvO9A6iiD21vT7Z/GtUOQnmOJvjzLzUtad9NsxyPW/mOF10IFu2uuIuLL27QVw9uUoHdftqHPW02w8NaXsaq3ucH9xlHOX+pVTMfNgm8EuuQ88Qp2NRCUtcHvFGTYs6nUzvBLL/wDJsJzDXPmQplqUgAvmUxEqGxXhpNcTsHiF0U9puCjVtfM3lcVR7OgVorTv9LVh3Y7UMwiUcs2GyRmZVhrUOixumpas8FF+oaFvgYCvzq9oFlpmLcbsA1LzO0cxbdFDUcnd6Q20OF76GYt5NoJLMObepYvRgOnYN/Og92MB7xnc+PeMLN4rLqUA6wUbIIjmSwHnFbBFA8vaG9hmRhK6lR0W7kFh00+zPxw9mhhtpc2qbt6Ra47B0lEFeyUKsq8e8qK5B6kayPU6bQoHQdfecx1xs5Q5kejUHukOHc30Wo1Lb6Xy0QLsZxcews5e0zyl1nZD5F+7wEtLk20ShUMj3la5A3l7bV72yyiROXLV0bDGbZF2A9opzzf35i27w16G/j4m3qblTyRu4PMAEa5VwD1ivx9LcnrGGu8FS1eCEE51t1m8ADWtiOi8FVKq1jp1gpCT1ZR1xCUHZda03LJf53DSkRuGriB+yv3NkPIc/LFXKnSoMveEoDqM34bR1rSjqAlLV9VcwzKzWgR4Px/xpZemPiZQq4YQKN2CNtl8otyPK+XYjZWHNwkcAujStAbW4HsiGiAPZ9oLHY50UQ5JhGJfxOvAbRdRwJ0MIVJ/MFB35sUuY8H/ACxgfJ0RkW46R7PK34I1MOWVUWIyfmdHSXTonJn73hUV5n9Zm5L5m4jx3xU1c3pfE21n2m/AeYzZJzZC7qwYWBbmyvGYEsPzAcBB8QDD3jJnZ3/qWpm5Rqs3FTaZdF9pcqY7r+vpbn3IxiydkQEZl6lYCjvrd3UEnBBAWuR+YxBzN1p8w0Vo6PDWy9FKcs7S57tKA6mmeUYGHBb/ABNmVYltlRvIaXB1lVjWwyy6OiBT2TTt2qjUYv8AUesFFp5/8TaDZcI78Olq/cmxMiVL7FZBI5Ez+TrsY/MyBRyesRgXNpVoFXV67EClFwbreMddf9SpTH5cBu/HL/Wg5ZYhSnf4h/IjaJRqcnrKFGgpzkFgVmzvLU0RX4TocSVYw+2nf/cBEiRpLO/TOQpiysxVHlv594/Zb6ptE+JvbOkZvAJ/UoTdZvgvmdd+82U+IsKFQAolcDO0Yz3ohCtq1NqoBWitze4x7Lro1RZcdRwua5yucDLt7RVfNv6V0XuQbL0VErnDk99an2JlaiB6VwHP30+7gC2VUvlo4hez2qPZDZ255hKB3HQjDjN3DQZYoMTz79It2aw9r2hGIcoIcwNTfaZ8CQxMDZ/Uc1QneAxvuxXBFA203g1mVfzXT7++0TqwkS3t40R9kpxToIGW44QJBXIx/wAxQzQA9OsW23hQGfq5xRuDH3i/41GW6htrkMFee9wfdfaX/t9TPEJ2JuK+Jz55xCuwHmLaDxmCa+Agd1Z1x5mxCbeniGNpelHHWozaz0MwbLNKJ2QAUbaMDnMYLhy3e/YiLlmGgfech3VXLw2N39fTbZitOxoFFEGB1/TqqPtGFHDb7wpCjQNZOtwwRqDelzd9KtqMGLmC7tPiO7BHjcdEQUu86elmlt1C3Gz8aNhx+JW3IPtqfvnCISzRysDd0iQ0Dfn42gVLlrvQiq8lDzDUcnsekrW3gbNyyKY5vSCG8dSKy9FO10V0Ot94jVx7wqE1T3TH+JjVj7p23zGfxRq0fTH2U38Z0j7x24Jy5A7r7EJlb5ga0+WbafE2RUuOmy1+YCtb05xxleolCJ29ILlZY6sJHeiDog3s6FqCY37RM3EVFDdK6j5jRFTlLwo8lbPZhikfifEo5+/1Hs4a3X6JrRXqMS4g7kGBMQKKh56WNQtslsoO2YxCjZHKcMWc5QypaTEQwt350dP3hAN3DQuzqtrnAwgZY5aIF2VqN2Gcw2iDSrqe8JlNVWPeWHoid4OR24Gbq7DDau3RiBavVFBsiARS3eOfImcLdCCKex9AZwTcx8Ta1N4K92cmE/8AOgtx+JzwzbxNrfiU6Eo56OIGhV1KBdfnVeUBzAhZJbi90QSy6l2mry+/pF1epjNRt0z2Jizcbi5NiKgK/EKI3k5nVvzAbC+JzD8xGx94vkPE6d9pu5F919aQMlaD4f51+dfjhAg3bUKFLcsOiClzRh2neLrLXbQNzBdnWd5/zXfRU3c/MSww8Jodng6z/GWcsZkj0cyrXdKHiCsS1yxDoXuR0tunSWEx05ehkGJsSi2LTdF8x21crj32g+y+Jn0+NJ71R5m9E+Ybdg91fM2T75sw+JsYPEt43Ya8B07wtIoFrHGlkKl2d4A26mq9DFw7wcWH2HWZfbme0eiEpYs1UN5s6eZuwnWHiC2T8Sn9jHdnsIZx18Tfl+Jm0fMVd3+F5zJPeLRbEGVLtqqbvL4GziJKD3QWVAeRAAfeK7uCisHdvGvLiPedFSMcsWUftEsb8CbDnLHoeDAlF3UNyBXobxphUewNVAN3fiE/bMNUdD1bm/r4jdJEEtsAtB94x/qlcZBxN+F8wwgzbn4gNk33+gDqo9y2W6k6/iiUWzKAZbdDvFJzG/eDutHDtDMqboxlK1bvtW0AGwmcXm9pzY+IHc+Zyb5itgeJ0D7TfyO+T5lSv450ujAsUXABW4afZhpY+5EzKdi++0sT5V6Agsd+2qY81vBZXeYBrMyGVvxMyZ6GX+pyUmxwb7dEJzX2IPcY/wDdE7BOgPERK3fXE4C5vq+Jtrm7Ae7EbJOuPYm/Fn9hZst5iIWO0w7IrCZTtCk03hv+YfpPSIW2csdH0L2gk+6q/fiABYEZZG9pnRm5j8zbk+IHYs5oidk+ZtCHibyvxN3fmLbulfy/kkXKlDA3buYsoMB4/cqsaOi9yDZcublzMQHILX1jV0r3myECVl7Eot4yxhMW0O2IvN+h3EfEPV2pnMfJH7gnLfiF3Wb9b5m3D7zaT4gDAa332CZ0VBVMf7jUWt/elCmCWCZ7xAgtCUGYKp56LQOYKVKFkEdvTqIbp8zZ35nLUHsr4gNz7QSgg6AXFUKLN62e/wDgeT2JkWb794GBRe0vK8ygdF0Gm5SfJjigEolyNsTeSO8XzFXd9UFUE3Z+JtKm5AeYnZIP+om5Jlw3TbxDbD4lwoG5AyrnpgMRUjvXGjkS4txhMQS2iGnKPn7YjA1c57S4VyEN9tQraCaJTO8dgHmbaTqXwwGxZ/dJyLNoQ8aJ3l+Y7xK/wsR31+4VYNQgubRKh3fTM4myF8TLC+NIq5CP2PiB3Zu1vmbBNWwhrsnG0MFEXAbaBYOWJa+nKXcop95ClW8dCZDhfQHZiWwpjnTCDdal1er5kz7XaZ3CAWOfNI8ohXXvEFUm0K+JXpftECvuRewTojxNwU3cY53lf4ogzdTUY9iXxEOSIyT3T0BcE2BfE2lTeAPdjtgn9cQ26YqMQzvGJQIg5ATl7kAXULN+hXPgz/dt+IjYQUkrW9/U5KjuEJsJP9NgdrfEHuxxByvebQDxHZGbq/MU3f8AH1AS+k2nk2zuzEipdMx9fWbWfEDsDxDEt0Cd9QqltNHWNcDoeV3s+0wOfn7+vVwOFQ3m0p5m5CbI34htyf8AuR2wTojxNyU3UfMtef8AlCbqEgAQvdhxRmAF3fEMuYglPLTNxtLMl1HbKNb9Dp7xZm4voUymO4Q8za08zrObFb4nMk5M+ZtgHif1eb+Tci+ZR/mT9FKgqYkB8Q0EN/6gHIO3B2gh2w83Li94kiHJouScQR2ZTEMKbOnmbkJ1J4gdiz+1RuyfP+5tSHicwTeX5indlf53c+bclorHQs50SCoIb1DFjzF11IbmY7zYv9jMYB8Tp3xN1UTtLFvf/wCDfClyhjAsTsSbdR4g1Km7P5islf8A/MXf/8QAKREBAAICAgICAwEAAgIDAAAAAQARITEQIEFRMGFAUHFgobGBkXCwwP/aAAgBAgEBPxD/AO7IuywBqUSj1KPUo9Sj1KPUo9Sj1KPUo9Sj1KPUo9Sj1KPUo9Sj1KPUo9Sj1KPUo9Sj1KPUo9Sj1KPUo9Sj1KPUo9Sj1KPUo9Sj1KPUo9Sj1KPUo9Sj1KPUo9Sj1KPUo9Sj1KPUo9Sj1KPUo9Sj1KPUo9Sj1KPUo9Sj1KPUo9Sj1KPUo9Sj1KPUo9Sj1KPUo9Sj1KPUo9Sj1KPUo9Sj1KPUo9Sj1KPUo9Sj1KPUo9Sj1KPUo9Sj1KPUo9Sj1KPUNyRK/a1Zf9D5P2gth/og/Zjb/on+0D/RHiv2gorsg4KysAwR/Jr98r/ZhbXXy4vYNaluHcOGWlpaWlpaWlpaWloKEVZaWlpaWeDYS0tLS0a8HWEtLS0tLS0+6fZBGyK3MeOiTUtLS0tLS0tLRrwaEtLS0tFfJotLS0as1uIstLS0tLS0tLS0tLQUcE3fsz0Vot7+GtTwq+QLhaJdvU+Z4i29TleFp8dDT03+E74366PGotr0NwqH5At5WiO/2Z88upYv4nQ4Xyh1B1FRiuw4LIfMBHl8IoXh31evCoXqdsVfIF8t0P2Yq3NBXxm4RePkO2KqdjQjrsx4O/kPKcMdvwMNU4Vr134ddQhafIeSg/ZmqcEXU2GGLvqbhqL5Aq0eupuGo9dgo4Vq/Jvw6UPgDMItHwCx1FRtXzlmv2Yt5VD13iCiosuuiMckJ9E+iImHqZwT6J9E+iGio+6WeubwtD2O4adt+HUHUTIT6J9EsZON3wG3UVUU2E+ifRFG+30T6J9EoU8u/wBmN8nUHQ28YU6i+giy659TvqF8Muo3ww7BUOnscLx6dfMCjqsV2dcFa6Gx8Rm98n9mc3y/HU3wfjqM9XK9Tt6eL7HzPDHqcrwuzGHS7DgurN7LNfBK2+hvqd26m+xwfs2CvgCrgpYdALo+T0VD2OH4gQ67Di+H46nCqDro4d9Qv5FtMB6nL18vU5vtgv2hr4BdTS+J1B10dFp2NQ+wQdoXwfjsa4XPXe+yu3Y32xjo6TDpcHY8V+zC2GvhkqyCPhwOwo6LXUhqLx2CiuFa/IGbw6GHURUrlaL+B4HUV0KqdhQ/cgvoHctiCPgXULa6q6dchw+oW1w6ex28O7dTfB12CME+6fdGXPC+ArDr4ro9dSGuyv8AZt16Cz4FFTu76jfQR2nqII7XUXwdKHXDh56nN8PXwnF8LHwLfQ31LTqbe7lv9mK6EsqWK+C5cGyzs76nN9HT2O46Y7673wqg6mhNzDqOC+Ea4LJ8g6na6m+x0v2horrSmsfKFQvYYvo6t2FQqXbV4Wa6m4FRVTsK4K18Jorh38geevm+p29nX7MFsO1mT4FTfV11MFdC7MYdQdRVIR31Z8PHqQ1GOW/gC3lWr8gy6Ol2G3Z6P2YsfBZk+A10WDtgdH46k0R+OtXDBCK16i+C06m2ajrsUXLS0cbeHT1DJ+Qddgrsd0/Zm1fh8D4xW9RadDcfVn3Qt4VEvr7witdTfB12YdSrqGffzDXR66kDHXxN37M4vl0X1ABIazLmOwro2dTfVu7BM+o3w2dhULRc831Pnj07Guqx1Cu4W9Vp1Njs4H9oa5OuoWOB2eK6LbfU3b0cE8vU7ZqO3qc3xodjQipdhwXULHbJ6VcTXub6CZ26i+x1B+yOj11HcC2uirsHRuh1FWmK7CuCzXU3DUWnYVHibOovsXQbh27nN9LoYtvU7eyr9mF9G3U74fU30PqYK6HUHXVHVOxrg76tXD11IGJ4Y9fPsrXoIe46FSh1GO29fs/J8MK4O+oeeixXYwdFiupuEXjqFtQ1wrb6i2+FduounDpQ60CU9ynuU9wbLmB1OeHfVgroXxgIr/ZjhemztNFxbb6ijora6m2p46b9duFfULeFovsW0s1DqcvDr4mEKlDpjbhKXbTo8V28V2Vr+3tnV8Iu3Uy1Aorps6m+rfti7UF8Kl8oq3D8fG06iuG7qLTodg3Tto/s/NQKK6H42To1mLbfU5XqL+NcqVXCx8hlogUVxv8ACLpws9KuCjjd1N9BHl1HY6g/ZG6dcF/EEVK6Ki+x26iyolNfCZxK3L18nneXa+Od9AtPgDt6OC47ep89tK/cDkqO/gSDHV12Cuy3J8ALgnkdH8Z9wFcOp5fhO3jJvobh33jjpuh1FC9l+ze3ZBKeAib6C0nsQA12QYl5aWlpaad2Zmw6rtB06qrlpaWlpaWl5eA9wWumjLy0tLS0tLS0tKKcWcy0tLRFbyislpaWlpUroVKJeWlpaXhwdnf7Ma+BUW3PogDUr8dDufRD0Sv3q5f2eh/onSh+mBYNKQLxPqiIrxEo46C3/RvHyU9ynv8AGpdQaHvAPEMfAgxSPqxgCskPeDS/9As1zsGJ7Yw+mPqR8NRWoU2xTbwYyRVWcG9fgjQ92BQo18FCDfwKbiPES1LhT/yN9KjiXc2TEtQjq4GH/KIQ+Kot5l+1lrvqjSlV6EsXeJrMu/xPrTSfDcW4XADXxBCwrf424jtiO4Q8x8RGsLdEzRwxmeWzBTUWtzwbyRFb8V9SHl5b4oOYLXx0zH4YI3BvooS7h9QPiEZjgxVlhj/CVLIldvCAabj44ViC+qi3mK7UW2zfOJcq6ht5BLmNcKF10S2GXEJQIFXUlDRAFCEYQRIuDoTHRUP4aaQXhBvMswF1Kl/CjaWYOFZj98htiexEPMR0MTA0SKfUWi8y5gvaICuC3cZZn31OhWMQFjZmXyFiaYYluiKT+TAXoS8imVZmItUyxwQTOIJtgfc98C8S8hw6oIppTc1fhm4hMwFhBq40HwqGZbiFcySo4qv2/Z1LJtkQ3D4MxDULhexFfMd6FtrL62WiCVW4PuNlRKf7KH7sC9TIpldQueMwU0TzwguyFKOg0Yn0QTogviDz21Be5ZuBbgGiBFBK+BECVWJUU4avwzcNTYhmFZg/zgO5h101uCYIZsBp0lTcGy/1Ool5iG4SjWR2EL6hSKQptS15iTLbPZKtxLsNYr4a7FwhSVUZW8Ku4NseFVxIsKI8V6XUWliVitEtcENlSzzAeWA7gUB0QLR8BEEr8xLzPVHxEV4OIheCR1D75d1/DNw1HZ0PATwJTgQR0wYrdC7qwp/OrhQ3EtwlCES0MfWMt0Tdqm2hTzxRAY2Zmoh9ZW66ARTUBb043zH4hTJGrxXA1Z7lQT4g+iCeINE8s9jDzQLxAtEo5rrdbiHmfdwWBH0It4inmWbYW7jUXutnBtksYlJvjd+GbhqbHYRtGAbfDOm/x0G2PhIjuEomCmoU1UN6arLLNsFNscNkQrJri+xSMQJRpl31v/2S9VK3mCrVqONxK6EQuJUG0S/RD6h52Huw97AvEC0QB4lHwWe5T5iXmN06WpvKMCrS3vnIhwfrgEGzzwgu4RGrYPCnbZ/ONGLI3FeePP8ADNw1Nj8wo3xfmIbYn4TNQympdx9YU1SLRWF9r4KYKvfGDZ2C8SuDgGvSO23sbsOKZZogniNJqD8sB5Ye9gHiaAgV8ChuIbY+yf0iPBLeCZlxYYs2x5zNscYhFSzkUjq7L9TYg5+5j5voqqiYXibzwLc9V1HC8ZNStk/EITY/CK5TAjZuIbYNaxKBfcSgrUPjqJFuGUUU8wxllQ0eYq4fHyEu0xQzCrQ1UQNXGjXREuOY7lgvgTSWOoJ4h74KDyMA2TSEC8Qrx8IC2I+Z9MR4J6SKRycBizHrrtPvgZQqzHTc9pagwWmYeOTT6GNspWoMHuKNy4pCUmTlcjTOMMzz/X4qrTDqvj2E811EvNz1EfSPqj4oNzF9rDFPOfUutsVtnTMeV8f3mublfEuM/k1LdwFyS9aQTxB4eRgfcX3A/E0xAHda3Pt4t0i3mfZAvMU0mve1qY6YD+cDI9npwLUxPEdoEtKSGCp/5fmxhyDH0i4qaYZvinkC6ZaoYf0fPAmvGB4iFhzW3GOir8dGpBeYHzDpVJ8RZBFqK0mWl4NxCVz4rj66HqEHDxYM2RiGo9vrqHK+onRcF8oeqHnSC8sA2wDcB8QDRADlLbPvg2n4sZ5m8hjrdR3IqrSCJZyc+2jjw50qJTXG7wbZwM1AK2U+OKN4M1Gr0i2U8OCsQDbAvEC8QBU5sWskuPbhX1EGfCCXFjD8QQlQD9xLawAwsAh5ggmgjC3tjJmNOBVZG1umbjUWJWvg8kQ8S5YuFyk+4lESagmiDQ7lQ8jA+WBwKB6JoPjf1iOw8W0Y42ioT27opUbmXL8Gx4ueLk2uqrco4gwYSyX4l+Of+njR5CtEqFkHDrizLgyuHmW3zsOpm4QtWDjb2F4Sqxxo/FqLlDcsXi1vrl5qEQtkW5ayuG933sgaET2QfxF+IeeHkYA8xTLAPEAUErprcT8zTEQYSU9cFpHutFsTDXqoW5YU+0I1t0K5Edszsy3UIV5lwOuCLyo2jqUbl4pCC5dKJpXT/r5Sl42zAqWKW1xRMGyyDIwQ+0W2NxeHD2ddDEKxCVvM2xxo9sSku+NofhhbAorgMrD3Ft155tdkIpQ5EQwzqDaIJHlkPPD2YDtgHiA+IFo5rp/eqBbLcSkKOLbGAvEqC5EM1BmnWz4Op9w+w4IC8QyUS134Su5U1yEFDNcZAlSkMxbiNnXNC4OmO+K0uUtUACsIVgcTdHPXRyaRElipS98HGIhwub42TrTC8VVcVwsp2Onkis/DVNsEyhjMdoORtIJ4lP0y14YDbc8+YeiAeIAa+O5CAaiuiMrtsU2xLlydyK266Z8SjcPsmXFE4W7xBvnV7ldbxAaxyQsoiSo1r1yrR2NCG1zfKocOswioqazxmX5JuaIs5aG9yrt0wNcgKJxgUc2S+P0f3qks9dRhDLieR44yD3Epqbf52GDpo/ELI9nmKq3lWe1PcT28DDZj6oN4gHZB5rXqd31FLEtBG4QPuFCos+dZrqFw8sCMt8OtRz/4CXwFxAgmlZhKdFvh2DnZFmsxE3FEuCWiaoLHs6DzRKbGLAUiQKxHa3jVBa6VZfG483cCJuHBEigxUruA2iJXGJffUSYjng3E0MfemuCKx+KMoMYY5VjluGKbZdtm9wOHdvOoCgSg0Yo1AiWck2aicgI0WwKXU+0qPA4sXgGrgYvisXHaECW9siclVpwF6lWyR3cNw4FKdEURxbfiKweN8KsEQtS1gie4KNkVjhwvUmRfCNO2iaMecsOMIavjD/x4W+AW8EqXo4saivmC48Tqco740vi2YDsLXTQfijKBGWOVfI5fzmq33BiEKFLlq2ucR94mlhQ3LXcsswAkeU4envgq24KB74cSkfcTxBZOKfHKrkrkuMyS5rJFvfBuGrhuGug6V5SgeRHY4ZAgXjFVEFxMHh2eDSOBMsv648R2eBXYrhmC3wS04MR2OBj9zSMINuI1X3BqDyYjnPDpOptEMxKLl8qj/ewtHR3+LFohPWzlKhyP+PGwsxVbe+4HiNoPrDCmZUPCo+yNXh51BoZs40/2EAWMVyziLfM3cIWHmaxxqhwMswKNdCKw4xjpR/VxC4Y744pgpcKoXqFswC65jT4MxxhKgBamQ4P/AB4M4lVzsOLkrgLlwGolb4yPGw8GYoy8WZleZXnoNFcOk65uIBTuX+jAf3tvhrlZH4u6OOWo5NhBi6tauIlpzk1AsmCbIOOLqPB741BjFVsBg3HsYNa6Ac/5weyN5QTRChTlpf2l2BFVAxADRy7PBpfTiuDon/hFfQwRXXpa3wMzZivhq4GmyI3by8DjB3ErUGL4i2t40cGxKiYzEAvHS/HYhk6aMMTeehuD1No6aP4rqaxzu86D2wXilTzwFsVKnKxwOfX+R0IQZQgZJflhuKmXKdMM6iFoF4gWiVWuK5wfBGbREjscNKRhDiC04JtOBg9tXg/8JQcyl1AzCNzecUFIKc8JXKy8Go8VyLaJg1NRwZGzU35uiO/gdjowUp0qXfGh1Ylc7D8bZysjkjnKKvq8jgWDGE3KqXMUcG10Gwlyl4jo8C2cC1U3qVTz/C+FzS6e0bouaDhUVENVLGD81Ae+C0pwNMSuhN3gY8Ady71HEvMRTxo/svDtwPmLbwsjg/8ADppsl2xcRl1dCX58DsPVlgRKaeFhbFvjMvY0jl5/ja3P/VybgcPFYvmpXjz/AHwTUu+HT4Ns6FeZ/Jo4qWcEVNy7XFS8VxhXJDMdh/w6CCoq7+O0MW88pkRI2cbnI0y7IjFlODNoVDo6gbhodnhON3XES7kJYXqumZ6inB5l2lS3nV1Jt5VQfinO5TCCmo6HIy5CinF1yjgLtGUxwsFeFQhHXW8QhriwpBAPXFKjciLDm4NRjEgLNdBt9Qa1AM8XoDvhWPxCx/eu+Ihw/sqHFoggRb43c3WudEIdPbbqVcKhKCRKU5r4ZlhEBCO89NHbZy6EPxaZZQbm48DkX/LkazLg1cZThoqhmN8O1kaKR0IRiZ67jscASmWPxCD8DGIRs5OR4vHFrDE8Xxebqqu46EIN4aDzNEm64wMuWM9wbhyhykUGeFR4GHZ5HAtcEChhuHuZXgUyTKtUeKoPiLM6M2SDU8UQ5PtFcga/jC4S44VNOTaj9QLZgJuHA5GE38bxESEZiHk0H32zPKBTGyivhdX4iBZwcHbbgoFs+6JRHgjlVGJUXjJdnQ42S+FtuH1N5ioQ1Da/nBBaosZ4wHBudyujz4rEehiZDnbgHfTV6ig9CaWTd2OMWDVY3EE/HxFnlpwxIqblqrkxNIbXK3TlUkOP+V1IrHXeQMxb76BUOttnAw/vaqvUZnm+NfBtnZUOBa6O7IpKSaoR6FWTgabhqboAS8QvpylKdFbX11dmJYkuOoxHa9Rk6BeI3WNR7OxBGO0vBD8UQKa5zHJqxfPRo1Fi6isRlOL3Hg5IBxpxu6m5o75kjNQraBSgX0oIYg6CxXEBZqhBarlcKgEDfAAvCWMAYjNBwF8DTDojnRDgUv7yUoOLrMdlmyZFRKLXjUVqw58qqihaBZd8BMMdnilOzcdRgZRK88CmSNjTHl2zsp3ETcJo/F0R23BjEdVFZeTnD05RWwcVFZ4ayXAtoihtuJgRisPA6LFkyKkWZ1sifmJ+YgzqNAraZlS0YOVYYagy614joQnjncALvg2cshylhy7DNhwQxRzohxbv0HhFQgwsjQtSjvjA+3JEkvlm5vi7yx2L4vzs6g10E2QMjqLeYLhVmOVO1jGLSotnDsfijaMrQaMdnlVSGboI7PC2nvgayS1+0MEyo3HYeDYlhOuw4AIu8y3zFXcQXe41NHGFINKg6vllVFZYLRwFxRy6LyAoc1wbOTnFZkPuP1zQMYN5AkNOMvFVLua8PgPSVCIvfFRqEIUcuIEtO+AWzVSnp282lFxKYMeDDoFjhF4gPiA0PgGXQ0PxdlweSHuUiKqcnLqRcKDDotYiiVNfAyMVtnC687PAEX7luHOuNXAweGxI/oQbWVbNEqJSkGm5Y0MyxTFHmG7hxu6iyc24EPNxfiad54NxqHU45VS8wKCEGw88gKY1DyF54OEgR2mHFa23pgHFy2UtDUXXLlErkat1DyMI/RANEAPlS21E4fZPrYaAhwR2L/F2RdIHKQTHY8/9XQltxcGbOBXVpzFfAWDzZ5qYq2g0yTZwL7HY4GCLIq4ArvkmvgWQF1FtaIjTCKhSFMbmb63D65x0Zc74UFsuWwa6DTcO/uXeWBQr+wKK6AVCn1FhhyYc26WMZ0QM8nqhcHrh6YB4+WyIbYl5ieo+iK8HHaeUfOsU7Y1kbmGCO5XuBL1ZXDqUJ+KLRCCLploTdyMjFKlK4VZfLwwmp+utMMDwd+CIGfMIJ5mPMevAtCXZ0qLI4WAgUpKhzqGhxphVFd0VrmJdxsJaaivviqLJcuGFsDJZkHS/iWyoXEF0qkMy+FEHgYqqAFHZB3ErIiVH0RDxBvEHgjMBofLZ7iPmIeZ6YjwT6IvFPMV2yx5irvqS1x/eSWqEvLVcZhcrFk/9iBRX4rrps8jA8U6dnjX/ACBfRMXqWLweBC14JZA9QiLVzH4SyolKPKpuBdpevhjTcaxgtVfSrxDROMfC8k21xsgiLfW7pKq4FdkGYJXqCWryQXQMxMtIbQ/BzL9xDzK/M8EG0Rp4i8W8xXzFts3xfwXiuRM1ErHCKyf3g4FyIRFUMlxVkmaqIPxx287Of+2CDJBSGb1yteMWeCCheKo/vC22Gr4GXLn+Xh3ZLC8oYzPngg1wIXwdDOvHT7VFXfQgXKBRiZhGq/DKrug7mmxH1Ye0U9zcZmkPjs9ynbEvMZJ8Q+An8pb5inmWvCLGKlauXeeRW/iej5lb4VCWq5Z4rvUE0MxCMYfSHsIxbP5Bp8uuYu/3CXDgTkg3sBpBbXmOKNQa1EtXKBXjZP51xPOk3E8cjbjh0+uSJUZVB1HXJeZ9/ETfIXTKWmTceziZ/wA/NfFxLzENsQj4CP1j6YpFtsU89Ui6xyIEPPJGAYIAWlPCnHxEeZsIEekFuY5aEwANT6YeaoPywPlgUPRAtEo9fmM2c6ocC11C6i3A8QE14lhYRW3EWHii/GyYw64CHJ57QO0WZUYcOo0L4+iCZxBK+Atsl0fRAtEANHw2RDbEvMSiPBLeoyU8y/cWdze+99X4jDOucG2WPwDFhEL4qWoqcxm9SuDMG0QTxBvEH8w9oDvMAKqBeIFolHj9K6mLm5cVCHBy6jWoh1D3En2iHhngRlRAFHDqLY+ps9BmnTSokbhNjM+jgJKieU158yW2J+Z90HqPoRVCEUn3RbbxRNS35kIrUGIAVAXbAlpcPwAviVUlAh7g0PIwHlh5YeqB+JR65r9aKga0ca+RaIQq8sA2vgCNw4VN+47iA4i1iYDxDGN9FlQgkPaQHuHkYeiBWvnxE9sQ8x8GZ9DFeCL6qLeZbtlLSxzxkY4Gp4EQHDL8Rwxv8EiAXKUorgUgmKluhg3iHmSHsw8iwCAeIBolH7nchDDEVUwDTl0zUI64UtnqCqC6IqLO4IZfwwQbZtmJeY+MYjwR8BFor5iu2Z883XXCyJBlXBFWCaqClDXBmEGpdypVfJSwbRBPEGgm2FNsdxmCkgtH+E8kFNTYwoaYrL5pdrDzMAgGiU8ED5dbn2RLbEvM9BPpGfU8VikKfMEqkzDggmfivAEvLyzpiLLKzfA0xWt5uLL4E6IL4g3iHlieWHkYDD0QDRKPB/jAIXFmDUVU0/JYbie2J+Z64iFeCLxTzPthRaxuUViWxmK4F4YfcaqzqfAb6BlFSMarYa3LLiIKqXeIJDysPZn2wDxAfEC0Sq4qGP8AJE3lT6Rn3FZeUvM+6IT6GPoRTRLlGBaUoC7Ny7i2V0v4ApXiCHBs4vFfJS6h4xgniDeoeRgWzuB7hVqU+JR/n0VIe5lZTSoFRi8W++lc7Fyx9DEc2n4w2ifRBIe2HswHzAPEA8TSEr/UCymXWoWXUXw9qauVRcI0gtqIsX8tLBNEE8Qme6HtAcD8Q1iUNf7PeaislmC0wlnWi4jASufqVwD4IJogkCeIRF5YeRh5CBeIBolc1/uSq8xWSBwTfALqWwEs8TzMQTbA+WB9w8hAdEAalf8AwMbHqWHkWBwLxANH/wCYv//EAC4QAQACAQIEBgIDAQEBAAMAAAEAESExURBBYXEggZGhscHw8TDR4VBgQHCwwP/aAAgBAQABPxD/APWi3Ll8Fy5cuXLly5cuXLly5cuXLly5cuXLly5cuXLly5cuXLly5cuXLly5cuXLly5cuXLly5cuXLly5cuXLly5cuXLly5cuXLly5cuXLly5cuXwXLl/wDTuL4Rf/NQAAAAAAAAAAAAAAHDIIIGD/zrlxYyyw9U7p3TvnfO+d8753zvnfO+d8753zvnfO+d8753zvnfO+d8753zvnfO+d8753zvnfO+d8753zvnfO+d8753zvnfO+d8753zvnfO+d8753zvnfO+d8753zvnfO+d8753zvnfO+d8753zvnfO+d8753zvnfO+d8753zvnfO+d8753Tuh1TqcUUGH/ADFjwI78K2gXsXH/ABo/4zP2SX/oS/8AQl/6Ev8A0Jf+hL/0Jf8AoS/9CX/oS/8AQl/6Ev8A0Jf+hL/0Jf8AoS/9CX/oS/8AQl/6Ev8A0Jf+hL/0Jf8AoS/9CX/oS/8AQl/6Ev8A0Jf+hL/0Jf8AoS/9CX/oS/8AQl/6Ev8A0Jf+hL/0Jf8AoS/9CX/oS/8AQl/6Ev8A0Jf+hL/0Jf8AoS/9CX/oS/8AQl/6Ev8A0Jf+hL/0Jf8AoS/9CX/oS/8AQl/6Ev8A0Jf+hL/0Jf8AoS/9CX/oS/8AQl/6Ev8A0Jf+hL/0Jf8AoS/9CX/oS/8AQl/6Ev8A0Jf+hL/0Jf8AoS/9CX/oS/8AQl/6Ev8A0Jf+hL/0Jf8AoS/9CX/oQS6StcOJhh14HVnW42oNw/5LF4ngYjeN2F5LbsAFAB0/87UEpxAbLDVPxM6cC2W8YG4f8djwMbwl1xyhi4Y4WVdlT9Wn6lP1KfqU/Up+pT9Sn6lP1KfqU/Up+pT9Sn6lP1KfqU/Up+pT9Sn6lP1KfqU/Up+pT9Sn6lP1KfqU/Up+pT9Sn6lP1KfqU/Up+pT9Sn6lP1KfqU/Up+pT9Sn6lP1KfqU/Up+pT9Sn6lP1KfqU/Up+pT9Sn6lP1KfqU/Up+pT9Sn6lP1KfqU/Up+pT9Sn6lP1KfqU/Up+pT9Sn6lP1KfqU/Up+pT9Sn6lP1KfqU/Up+pT9Sn6lP1KfqU/Up+pT9Sn6lPa8b4cpjVrk3qbzrcC3iyxD/jsU1pjYtDpywAMFRaYF6Aaq7QkmmzD8h1Y/VW8gOgCFT8H+5+T/AHPyf7n5P9z8n+5+T/c/J/ufk/3Pyf7n5P8Ac/J/ufk/3Pyf7n5P9z8n+5+T/c/J/ufk/wBz8n+5+T/c/J/ufk/3Pyf7n5P9z8n+5+T/AHPyf7n5P9z8n+5+T/c/J/ufk/3Pyf7n5P8Ac/J/ufk/3Pyf7n5P9z8n+5+T/c/J/ufk/wBz8n+5+T/c/J/ufk/3Pyf7n5P9z8n+5+T/AHPyf7n5P9z8n+5+T/c/J/ufk/3Pyf7n5P8Ac/J/ufk/3Pyf7n5P9z8n+5+T/c/J/ufk/wBz8n+5+T/c/J/ufk/3Pyf7n5P9z8n+5+T/AHPyf7n5P9z8n+5+T/c/J/ufk/3Pyf7n5P8Ac/J/ufk/3Pyf7n5P9z8n+5+T/c/J/ufk/wBz8n+5+b/cNDXMP3GJZBVj6/k6w6NV8PUTknMiCAEcVKDtTJ2mHh38Jw/46xyi5jekyAzkjoxjtpujrb9j/wChtUMRpQAdxvyhpAO5FeU63gEXAf8AFYopqRDCya7c4aShYBm3S/It8otqqreV59f/AEPOVfssYaShzBT2mjx7FHiOH/FY8RzWg/ML4K1YNyXk9v8A0RBC/Z490hpKAHK3liv74GQ4Cjwf8c0RxzUl+9AeU5SkxTj8GX/0VjGVb2L4esJTbj3Fi0iyRcKxNH/FcpzRRazWljxk4d4ta8pq1QV8iwfHh0LWiFLLk+YanlDr78p9AmoPq694CWjp9CNA1xc+QfMWb523a9e5OefBZuespuespuespuespuespuespuespuespuespuespuespuesJYapLNyWbym56zqHrBHROChrrKbnrKbnrKbnrKbnrBHRL78eg9ZZvLN5Zues6h6yzc9ZZues38dhqh3nUPWWbnrLN5ZvLNz1lNz1nQes6D1gi4T14ONZ1D1lm8puSzc9ePeKGrTtLNyU3PWU3PWU2es+dpZs9ZTc9ZTc9ZTc9ZTc9ZTc9ZTc9ZTc9ZTc9ZTc9ZTc9ZuJ68QvErkW86B8h4YtQK78k5JqOLomj/inSaI49Zkoc8QQAAKJS4GO1ge6QVL1G3v4GraWhLq79DMPANKRb0w72wgADAAoJR4MQGE1OzyZlZfrwK5G2p1hnTTgPt9flBBcoWVmCtp+B/U/A/qfgf1PwP6n4H9T8D+p+B/U/A/qfgf1PwP6l6+y9NHbpLENFCvWJfjZAalOsA0/L6T87+p+B/U/E/qBo3VgFFhNNeUux/GLItTZJ+B/U/A/qfgf1Pwf6h6wWgyaQ2HgJZoVhqE2on4n9T8r+p+V/U/A/qfm/wBT3Lv6YElR3T2l2q71/owBLdBBeSD7wzy7aBOvN5XEUoBpEpHqeAOYoBFs688HrD83+J+B/U/K/qflf1PwP6n4H9T8T+p+J/UoQmUGTRDocLTfA7UNHnUMv4flPwv6n439TBLn58oMFAG5otHbgTI4ywMC06T8L+p+B/U/A/qPZYIGxRy6zkt4NIfHZBqCtaz8D+p+B/U/A/qfgf1PwP6n4H9T8D+p+B/U/A/qfgf1KuVz/MjwMT0BAB5cLrO2YdmHF5Lb5g6KCvzGcbWy78AzDDNE0f8AFbzSxxazraYS3FUndNvx4DiUtL+4XL1gyLwNVzTmu/8AA6MJ2mCrUIdMnuPDYoF2L9P5HamOb1L2WCRRxvYJ7OfQUfHhQdtF0bB9xSFpAOdtQwhRHkH14ai5z5OBX6xbsh8F/iSM2IbQGuNvJ5855V0eHSUKyK9AfIYafwEjm7NuUD7hNSBX0sT1fDUBpHov74WtWtYhloFp5KF93wYWD3UyexFGKO70J8MHThDy/jBdS56ir6hznnd3Lw9xrpUfMEOhjaipTWoXrj74RpDBBNH/ABhjwxx6zP1YjCaAEJuBT74tvKLzGiBmJb99T4On8R9RXRxn2g2F55mUknsQHtf8gjUxt6gr9Rh7Al0L9IOvg0Myo0bZRXyQRUPHQ2+x4XSMbY+tlL7BwoK17tRX+MS4AI9DQ0A6FvXhdZ2gUSJg7t+38KX19kqV9QLal6lPqdPCQMYXvYp88Mqfss/AwSYAAHI4ukoA5VOykXf5GDV71DT+Ml3SR1Inbgd4PSC/0IS3LT3gMwQw6QQYgx/xpmhii1lvlcFAVM6Kw9zidl3FMB5e5T1hp/ESWifugpbAShmibsV8P5NjE/N/pL5MFOyj7QK7eBzKabCHoqQaBj2Y8I6SlPI1UR6jAuHTUj9afD+QjAOXNAIeo8AssneWiBZR46AP4GUlRXRAfIY3bmrHeEIpbNls+6+HQO/9X1LuCgWNdLmaOPJiG2x+yK+wQH70z1q+oafxtlCg6O36pwImeKr5KA/MCpyk0L8cJ0ggghxwn/E0MWGPDHrLE8/omAq1Mk3QHoqe3AtC7S+CpEzq15FeHHj7W6VznkEaSQFRlgmiO8PAaOin1TO/mZlmFNuw1/jcpnsPd6+yVDYe2rfCWKgnsLNYrdxVfmaHDLqlT2PCo9LTsBc1A2d0YtCxAQq7xb7vh2kAoL9YgWNjzPFTqYOBjq7zsre0HPb+AtMIeQv1GW1z3U+00QP+Yhh0ADYPD1m/dnDIpdNgHxfhERcffKovcmv413LH3YaY/jLQCzvg9jjSJSk3AV7vCiWzsnOGHSGGHEOOA0/4nPFhj1i1rWVNyBPp+AoZBeZbrrwIzAnRy9rg80AtgKPBbyBtgy/EVnZG8AUBsAHrMjz6RGHgy5XzSYGtiu9QuY1ojyHG8/OPqfmH1Mth1EEamfDyt7ME/MPqfgH1AgH3D6ggG6aNqPYJjjPpaeGNpJIbunzAop5YlSMqHoKeo+EhrGDYQ90hob1FLLTvI+0HTwnyK8Lg6tCNQGndHmmbq0Gx0dmET2FHv4R5x+ed+Frjbzk1T5mjwMRdNIqGppPwD6h/c/0QhQoNoUfMAANAqASVC6XJ71DwgvM71U4XQaA+t4DBiSXkEsS84kZe0hALY9ifjH1Pzj6gILMgTkM+EBDjuQZWV/V/RD84+JTxf+HKGsPYoAtTzXgaznwE5qaPYjB0Ij6v2hg0g0hgxDj/AIp4XrHrOhZwq4DI8zJ7DwMzL0g6Ar3MwPA+4G23/wBIABoARamz1eoGngdw0h+UTSVPIn7iOmWdbh7J4aOAbN9T7DK7SuhK1wekWk7TS0DdC3u+Gp+enQfkEXK+dQTRKM7t+3hK1pK4ClV+VCj3CGnhTlZvS3vCaPb5kmaLq9B4c82VPWB2iIFjnZVXtUMeDG0tugKxnrYO9qV0IcakWsHYAew+Ky1d+xRhrLnQoerD2DwFbWUdQPdIaZq56TyJ5QqHPeQH18OuACdnF8wKKox0npPLjYVZaxB01c7pb7sN/A4+USyy5LBBpBpDggmiD/itLHhjwykXIV4Wo00bCl+rh30ll5yPVf0gV4L0VZdk3wvrFG73a+Dw4LBhup+UnfiLEtQB1YBygXyB4atconSrwfeEkQHzCMAFDkBXg5T5jDkPgwuLY7zg92VgFBtQPDylN9gD6rwahtt6LA+GGnh5rRdw0exLAL7CW+kPAtSrGxrspY9WGsCqpT3CfTw5YpKrWxT5goGxXhs01J3l+HiMC2w7iP1NGOeCIjQt1pfv4M2+woHV68VoV5FxKNE+pb58KlOUjpavhLvO+fCEFJG9i/YYRMIAbEv5qHra4RDpDpBDBj/imLWLDFhitbGLe7GazGh3F7Jw5QQwtr9CPvwhCuFOYazXSVXBglAMnZn4B9T8A+p+AfU/APqMo2Yzjk9PAYUsONxZ9hhgxp4UthpNkL7B4BtAjpVb+oh4HSZOx6uMMP2XjooHhsdhY6pt6JwAQZBdwIGngJtA9YH6jMtrX7qy37MdFoQ8DMnDf+wHxFoV0I9YF11L/XhuFkRzbK+Dwk85B9oPoHi/JkJ+pjFRXsAwiGgV4OQYfsBeq+BrhRa3VfcMIrBHQPDz0O7igPe/EIZX3S5PeERYM6PMD+0hhhg0ghhxDT/i1rHhj1gpndy3y+ozMlq2+F7HA2gcyd9Q+vCK9V2iJSekTAARoa22HufxWro/5ENHgdt4DpQDpUPv4Fpj2sgPvxa0hm6U9iZ4L/s1R8w08LWFinsacMRF63wHseG5Fd+JfBYFaSzYz7+HrNg7BfqKsq2z1H7j6oM81fcwqHtofXhIpjXdAp7vhVJ2IpKu4GT8+LdP1xEuiiJ5DV71DwVO4YOrbeieCyC1OggPAyqtPOk/fxZcBl2/oKcmbMe8f8ghh0g0hh4TT/h8uDnjwxzHeQXBZQMh1H6jPKrJedt8DUgEHLXfxB6k00VyTkm8doRjA9gbfw6GuwSinoHhUOgUvII6Krb6rwUONRu9Cvnw0u2O+o/UVxaq7qrEbLAnZV+FQweBLaY3QLZnOM72mWGwubqoe6f28JB0x96ir5OGsw5vQPvwq2ruJ/pKk0AIXpQwb+ob+B0j6sYbkpUqVwqUklrdwB+YGnA9BXiHSQV5xWCjt64ey8KXGQuiB4ERsv0WgfVh4asAt9ADxE4V5kYH3R0mBtlT5EMEGkMPCYf8Nij1jwzqaOGnAe/C/YfBcG1psEnw+OpkYGTqPJN4XQg0antD31/gug1xdC+V+ElmkC6qD3SF1nLz8GDBr1DT2PCrbMIc1lPRYFCbYg0dDdwg+4eA3OQO4p8w0XMKhq2NOwfEC6jdoK+vDzdPN1/pFoV0My1Skestt6J4cGlT3Cr4hnMuwtLopT3YYPAlyqVuuNYOc/U/2n6n+0xo1yZSmXqQwVtLMo76Jn1qHjxSAGuXgKCUztAssJLjcU/Hg6a/539PDrKg7Av1EZVcl1H78OkUxWONbkfSo4M6TFVW+p4BBpDBBNH/ABHhesWGdsH6cHXeQml7rwaY1Tg1Q9xDTxgcqL8knJIrTQhXJDrubnius7QrcCHdnw7s+p+ALYAuIYBV7j+3hCqD63sX1LAV0MsWil99L8V4cHFC3Lt+OCYAJdCrDw4dXjZq33SOQVSnO0Jpjj7AfXh0zd/I/twuUcG72q/gOkqtsTNmj4E3nUPPa8askSiDyesex4Ld2D3P7TpIV4LNpftwB9+F21d3MHzBQbAeFUUgBusHRxvkEJFr6Es6wQQ4IYIJo/4pax6xYZolQEcpdjAJ1X4V4Esklsfh085TOHLyWp5+38FOxtPP9DoxBINQB8Ik1fznB8wgQVhuC/e/D7GWVB7r4ECSqzoH3NIVHYK+vDoJ82/0iF6gfNr7mI6PQA+vCBTERuFHuwgNmjPVnwYeGnUSttQwx1Q155HxDn4XyAj0Ur6hKbUqO4Ae9/wcpmICdEs+7wGoErew+7/I1YU7e1vseC6FdDMtopHqLbeieH1KEwq9iGnhfEih3D2GaEOxbAUef1Bahgh0g0g/445otYtYKnCi/HAc8BbiD4fDd5oA6HINnuQwG2bE5+NLhmIIqc+f+OXh2q8uLRzeBhMNOnVrengsWiH0FfqHhYICfRRU9WXxgr0NvxDn4Uw9CPOr4J30jey3wo9U8IoKWHZM11Z3lt+ZdIp6lRg8DAtBdg/ymgu0V8psed+38Oa7Bu2H1wYBTfbjQ9j+QR3IjoHgFOWghztqaRo+wH14OUxJ5s7FfEMBqrrQPlOUqK0qRuaQww8AQw0Q/wCKUeseGXHqQLQDL9R+prMl7pfvwljhmt165V5PkctYbKC9gdEeZ4yNvl2gLXqEAYNDCbOngzAInZKe58LpGyINOhDwFV8/2UfaHhppsjsX9I3l4doe7DTwsJ5GAqeowmM6+e8JVasA3Z9oFYl4Gpd7VfHhGyoudqFmqCm90v3ADRiHNWpSpU+wH1/BiQiHZFXvHWjr7ufuXKtacQWKD1stn58B/BUG9F/H8DNt0XRavweBcaFb5Hx4eUUA0hsiv14s4BsU2+xHKdBs9c8Ihghh4T/hsdRx6wVfIIFAHLEEJBXNkQKPbxoOVnXdoLv9oJCQsRsTfxIJSWeGECxywD1+geHXDy7BcW5FxuLr2rwEHZXdyl91Q8GYgzW1J+oAeS90r8yxhKhepXwh4Bb0V+RcZJtvO4/cdGtZiGkh0Le74WNdU7F+QQlhBZj0A+Q+ENYO+Q92CgY8pUpYY3S3sSvA4GEYuwjUGWfmH3D8I+YgNhQsc3mbwibGG9i/a4DtCA6GPAltQX9E8ZmYi87Fz3vwA4KX/VrxRNrC6QT5D4ibKedqH44VO4sOxiHMEEOCHSHhP+GxR6x6yp9XohpNTJd0r7SHguXLnLlHU3N3qvl5bTQ+IABy8CBopdtwgfL4Rf5j1R9w0stGrxO9SiGS3pYDws2Av1QQMARckONwA978L+tAgo+YKBsVNMj/AHQQRqIHQx4PK5kwOpygewxxfSWzQBs5vnwipa8nFwdWEyYt9mg+E6QUFoHlPp4cS2M/MYeBw/kWQ9A8Z4sOnsLE1d68P34NIR73VfB4QdUpXlQsuPs17ovhURdAtgKh7/k/M64noI93HrBmGCDBBpB/xWh4VrFrCHyBXO9fS+FFupHWz44hGm62GVTyGfg31Px76n499T8e+ovwVzmsdukzoIbRycx7y1PTmqvVTXr4SUHm17zjpGq7qmoj6V4WYUfNxs+x4HAvSEeVSjqbfPh3M8iL9SXVryzDyt2r637eGkGg3rb24CBXd+VHxDfwOIZLZRdaYFLfUpWj5lYRY2Cng5TFzQvp9nDScb9VT8HhQKmt2AuZAkbqq+E0BHtsI+LhxYt8kehYPW/G2UEOoo+YKB0ONXprLdMmPQHyHw0jQX6FPdgoGwFeFShcWdA+4GjEdgr6lctOLzxwnMMMGDgH/Fc0UWses3QT24elIOE+Q8c9l72aB8vh9eF9QV6XMKDlUcPpuoWHgJiqV8hfqVw37m3740Tqj1NTHYY06B4OUIlpEbn2PALm+tCoT2a2go8OYw24VA9rgB24G6tQBKLnYHhvFdW2oA+7grtneyAew+F9oyTYJbpT2JcZYje0x4akuUHU/AkJZhk/sD5D4RUsFNhp7sLrOvgq5VIyDbMnshxFMCkvKpb/ACivU8YmKE68z28C6F94WUCDZzfPh3u8qFg6+G/aMLsq/UNICmtSulsMOYeEMQw/8RynPNEWses3myfOF+UGwCyqPzOSvzxZ6wJ2Vfh4ROa8yCrh+X9k8JqKH+qPuUDYDjatBh3H2PDyjX9heyy/DwYpsvHTN8Q8J2gvNmlfCYCuwm4rexCuXgcEyyKjqK9k4UMNLexXw8OsmnzGIrZJ3tuKbzd2VD5fC6TJtgxuEHxNM7QH6eLu1fPhcRzV9LVHN8AXiEiUi86HsPBiQhp3IPdI6OFHjuQAzsAgaccvZu4tEAkBByorw0CMi9gPEWsYcPVn0hLCOBM7tQw5hghxDwn/AA3SPEcesFLqBBQGhiU6opjd/wBoFFcepGel4TnUquip8IQ1pyDuUqGngXACTccvY8Daiv8AKj3g08DkZX9idIIfe/Abv+eQPDmGwd3Sj6BDcG1bNU+UPDn4bUaOE+0JeFHWNS6e3hVC6H1ufBnLoEUQmicILe74fYjaCvxHAtA7qrGLoA7oPuCYUU21A8NOqD+gB7r8Lo78u8uWhx1BfdfBk5AVQdB/SFnRw9R4XBcqFyY6ieyeCwCxvs5HhA2aYOo/HxHJl9Dsh6pw2o+x+4YIYYccc/4bHhj1i1lJqwbQlxgRdxq+7xEAwrzq/wDHhW/s50W1+SGp+XAFRQeZ/ofCOPCdwU9/ArFrDuL4RvKQl6RVNV3uP34BbMlvneE79LfIWKDbVuqsdMsGbOX8nhoeu3mMUZVi81V+4gS9C4wCvOCWvv4OUxIApuCvvUWk60RcJDeb8V4V86B14eiwAUaEvwtLoFaDJ4cgKjgpZO8/F/qfi/1Px/6isyBU1PRjia+mBCJKAAeBfiiIH1WGHcH0n7og+F0lRNlfyn08GXC97Kh8sNPDmwaYdxp4TWW7RPfWhBEbbwnpePbhGThGaDhH/EU0sU1JbV6B58HuBAbKPgcTWefz18ByhgEra5iafZhXhEGjmtgLbgy11woy+bb5+BZfgkj8nM9PBRzKi6A+b8NDtLLqQe7DQ358SADMleQvvwpq6UpveoguuAyy7ARJSGg9geHmDlaaW0eR7yqjlF+wI/MPLAvkV9eEn+CoUHPoQMSLJBk3i+RCAUAKK8NvssOgv5eFqWe6KAfdhp4QrfwMPRV6AfIw+2iq5H1qaOOk0kHTqPhUzPqlbNnwvhdCmN6BbEjtw91x5MseYHeuV8nh1FIdgX6l7RZ3tPhRRNTB3hGWFOwvvc/EYJmru3BBkghgxB/xWiLDFrHrKeZ+DhcxTDtD73xJtZTwljQ0+mdyVCCtDG1uh0IFaeAwD5cgWyy2/wB8rLXlfg3tVed4Q2iAvOz28I1bkXnT68JkgWHRHlKOMFItd6czowAAAFAcvBygJEMNnJ5FHCxMCeofmoeGvG591A4vt5mIR+Q+dr/SGn8A6Eb0F/UTU3MdR+41ML/MQfDDnxZqFQnsRMg6TIGvxV9eEWFZjqKQaAtteAXisy2IH2hp4M+0j9/94KDbHhxf8W5QAUaGJiLdc9lzBBpDpDBBjh0f/fcuXLlxYiwx6zWnmI9Y+9LbYBWXQg3e14ADgRtVj5/iWtZWVTAcqv1NHr4BlFvRuuCDxQw7Dw360F2g+XgIbVS7dqe0Df8AEGIWTldFe70IgZlLKNrw6i7zZ9H+QczLWsGY/q3hytweRR5cCQp5uAPv+FrkYuqIfMFAlvUTnc+x4KG0anoZjpWQ72vqoS4m0C7i8OIhMbi2/B4FAV0Ne0Wskeqpt7nhxQV/cKvx4r00AO2D6pNE6h3o/cMMMEEOOE/+q+C+EO7h0zBMDMTO8EJQmgVKqQHUH/RgAGgV4AmiFXkaefuJf8JryfBBzWaThFoWj2PfwMGumm4BewwwY08Oai2NkPxXheuuuKOnnpKD5bhuPUbP4XC4ZoGqy3j3CU5o3fY410hXbhZ93+NajwEBbmZ+x7HC6Fjkq7yW29E/hoL5Lj2U1ekesnDuNPYHgH+9RR9w0S3QcK/d/Ffh0jC9wKe7P1xqMt9cB9wB9PSw+vCTXQJtyqeKwDA71uZJVzixNlYZywaQTGaeEZcuXL4X/wDBcuXLiOFlhh6p3Tu4uDWYXM6sJQQyNj8ISvqGdxUfHhG05mkGxPSBsqO/6R9oN341hI55dvs0ln1jnB3d+r0gVp4BtyzbJQg08NCth+i8QlDRa7tabue2sENRewdEefjwAMWHVmVMg5A67Nh68TWNXFn3Lo+P4iKFaKA6sA0RyO5+QImtSVqdVd+DiltLvbX3C0IN5B9fw0g6A2pR8o6bYm6TXfL78DUpT9xs+xDThRlz88+/Bymc8D7Lfp4MQvnqW+Ic/C1nYLopXiwgjbhA9+CssgHy42sjqKYOLpvKb8JJBAy/47lx4DDLLDDDLG7lFhntPNDgOqas1p+GlxYt6CxyoHseJKz2VJ/XSPFGhY62v3GINqLEV6a8XSL3OaqWuQLYj4nFGnX+z0ijmyLewcjoeJoWBzLJW05QPHtw/Xy/WS/Xy/Qw1aDXysT2rxcq5RYXPms9fI7aTW0ogLzpcPkwm1liWPnxSgxdA+7AqsoHS9X9XKXU37Jc3qzfjnlV8u8TR3gKyqdyz9fD9fD9dL9ZL9fD9fABlu0BLZH0iy276gnko94Evv0rXzuGCuNairrC0L5wz/HD9fD9fD9fD9dL9ZL9PB/wYPImAsjRahXC8kgMpB1ISw8rlPzsGkKgSJ+sk/5sHKpD2AYXeGnCnp1oFMZek/Xw/Xw/XwXK1ekB2lK1EAGvPwAPypWoDmFf1w/Xw/Xw/X8DoF8NCAANdvDoLB0tvHVv2hMtAuInq73nLwviOOGHA8M8MEGDDxXLlx4DLLD1SnnwVrRl6TTkG7gjNA6CaiK6obgOxDaAdSFtg6mIKW5sMS7QJs5h3JuZMTkmGeTce0dICNAXue6/wdcCf1hIHNuVx73KYl2L6goO6gB9Ejlq16rK+f8A8yHRcVvZQgeV1AaT0B+SIUAyCPYjNCt386v/AHNC1dxaJW8fOwICXNPXH3MccKqaXBqlXMh1QQwL5TQPVQJb6MuKOHgdfwfKDDw3FjHVnUnUnUZ6k5Ut3EzRdBmC4L6s0/eXgsl4vlBvjXpPiKg+b3LQKcWWlXNQVLsFy0oNdxSe1f8AoreLV9nLLMoNXC8Xf1HMH2VHe3s+JyrNY3Yn50AgFXd4No87M0ReUAOR6cSKF68yC0l6x151JdznX4Sh4Li8TzuZWruxPlQgNcPVMDwX3gRgWhlO2vtNssZmFjN1Y+5glGctp+VIyULmU8rRkDmMvrc3lHFOsg8owzrp9l3vHvLONocepB9eKF154Sj5goNKK/8AROLs5ZpQH5gVwrgeBaly8SjJ/iWzoYz4Rg3K3i03KG7+p1p1Zk148ocVi1lNyoMHNhmPMwxp4Ndlw09YxjcuD1Ue8o1NBa74A87lUa2Y6NsaxfvbF6vjQSks2Yd0QND6MGLrnO+qVW5kU9S/WWY7FIHosgqtUAm9IME5OfUsfaCcrjW7BmMDbVD6J/6CpW1mvJfOzwPU/dqDuJ233DPxDtCsrt9ipf2ppQvnbNcUzrd7BFUU0mbZusyoAdsDk2eZZfeUNCUrubQ0mORirCb6z3gR+YBKmxVHpEvcDJ1P2CBPUhYjokMWwpiv5ddzk+DLBHwHBTUlYyqzVXwQn3Lj1ZeUVLrvLEJbmhVO+T5l6FcUMe+X3jJc1c3m/wAG25S7h48i3pL+qlrIgGp42BUGxVJKEC/VqtK8A4sPcUs9oE5wCLy19pgp9ZnYeL8pj0FnE00a9+v/AJXzgi0NvSJg86WFx0q15PmHL5RKB585Zt6TQPZY6h5zCmFqDnpfKBX6g33xKg9hoCg0uNq+9QD2ZlHup9pRt6wK04qoQYYlyjTTeo7RADGqxdANr7R/ae25oC42xLeesYgfAC6YOO/aZMCRl+q58+B0lq+2k0+IYooocHiak1ppCqU7x0YlDLtl3OHacmhNE61nzENMadP4NjccfdcEZFW8m9UpJusL4980aCKw6PNmMvK7OnIH8OM9I3cSWpDp1+HWCxZiJ9M+neOvJhYFqpu/+J7w4FNZMwKAFXAVEy0TdVQWrDX/ACuX83cX8SxVdlEEPTkB8xHWEiA9sxq9WtqDyG9blfndCZEIaWdGPSZYbCoC0c85qNSjkFWWq62tnkRSqNDVm33LWFtMYxX8S4SvGKKp1IK7TKCsyzKrufUAlLnAetMvukNt0FGbu2u0QFpsNHinNHdW1byYJagsekLcEPkzTnV4eKOPwC1iwxEqfC6DEAREdEiXEIjkdRi+sTWL11PSY4DNig6vXyWYW5os5lPEmvTumOauB3gYB56++JO9UdWaOUkbsJT1orzSArrXWPVNV1S/xW1w1jn5PQuBG/kPZqrvflCMYYAl6B9XtE55b6Oq/wDg1xy9YNqy7ZiJQBzWQsN0K1G8vR0RfKD2M5K/Aiez157pGkCXoZ31id7ofioOonLI9GYQM0SIOWCYKwd5XbzOLTWywZvKDQl0dRuNI6DrHJF0gg4qy813jp0gmJfT6Yd9RPstlKCWaNumjUK5D50FPIWKkUj2aahoKvQjjQgefiI4a51G1KCFXkA3szEQQ5gRPXwDV5Cku64INBMw7aix3zowtZFGDG/O42AXDzlv+YzGe/Qe9fcEDphR0HaMHSArQWwqUQCNTDyhj9yzrvmGrXELZ0lrNqLvhL65/BNLiGCLTwjnmhnPEETprIUI0aF/4hJp0S5RKIB9C7GDzDnEtBUi+QxPmTJkgUsNflLg2u+U8ltDngbsB5ioF7BizpbrHHLwl+7V9V5ENNK/hIc8a4d9A85Q0dBUTZa+0hxyoAHQIJ9XQnMDatMf9y5lrI8gtlQKI7hPc5T+57xQS49SHuJSRr0a948liBk3y0j+irUCW+vke8sV1nAVHlChCk1ysyNtrD22jmaAuVDvi75RW1yNDxIKwahzllJ02ccBPyl0WrYs8413wvMxAwtLzBQZuAuhfOVNUPaEAU7UJcZ1JyuOZ5mp2gGSq3pbswnmsEEUKtU6w8eIeOS1mujwCAsF6aHvMas/ltdbXTMBhylIXrRz6QUQ1UGqyyhxzl29WK6LzK2rdcz6BKKa60v1WIAoRxnzl6cWV2bto5Zgex/ESHFyJFGyuBo9pJ3LcQ3ahO48nl84ZHL3onUBHtOxke/GLgiimiEEGGYGak1pmZXdN2spyDsPmRAqFqqxPxezAp9Kc+0VhJf9ZbYqrq6UQlFmEptoU3Ot10lXN9E3aL8xCGdPGqwAfRgRqo6r0jsZ6xAS/dzUfWNVHbqNANA6HArwoTcye3y/6TjWGdMz9ghhNdiJXeuPSWVduW/iMztgo9bgBGDmw+blCS6FfxPWpB9GBJ1zIlDa60xUWKUm1w41ERKUZLQN3VqCebhRwzR05+052bHI5a3FUyokVo5V6SwqyPoNNLH6lYXCjnUS+uIv+ocJed3lLVqViu0AOu/KC3ECO5aR2aa8LVGANVYNpxAFbgO90wIXGuor7xMlQlDVOk6v1Fl/0o8hbnSChJC9w6DQ4XJUJ9SnZmXNJBEbLHZyMVblApq5nrEaU2d9R7mOb/ONFdg9eVw3S2ih7fcSIH4KkrtlKGqA0R2vzhoMbsX6VBiYGSwN84NDIFQGw7T2Sg+ONks34WcMnqciuQgooLEdLzYdNIgBTZ5Nzvli2230l8Olwe8UceCPSPhIdZrTGzVmtMziavC9m+5+b2Z798s/I7o/myngGiQnRKuMdmHzIq3Yin7PjgJDliaJ1evlc1yEgHk+CmBoVTYDMYtTejyDg9X0hkTzrra3aYgAWr9AjHnr4Pg+5S1oph7jTOnM0Er6/wCN+d+FzJVl2MsFQyulsglhN8f3F5O1IxQnu1mk5VMZf3N+Za3DkmH0uNNZyb4VG/RuR73F6N8AfYhKCAummIirkN0eioGMgdQcTCtWdXKIFJdO5TLsOTkZv+F+aiusLXMtNmZdKdZoBd3Qt3jl2AFWCrDhWBAro2Okv2Bbqwad0jwzZmKUCj5io5majnMprG98mOSp1ZrZ+S3lKthOrpWQ0tv28HpARTiochXJ/sd5DYOChgNoGywyrzaSJEUAod0vFxQrHmD7EUooIMBy0mG2+YHysEynQH4hZedV8JKHQ/nu5S3BphPQhQowSmoHC5cuX0lvjMP3jLHF9D8Q90P4oQ1uDuPVgbuuke1y+NvfbKjbTulJHmsp7/iBW0Otw0jAqB6Tf2h0dQvj+aZT9x0gFaDijiwR6R8BDwMbNWak18TW4J9J9z83sz375Z+H3T8pscEHkRJstW06LnyMqD6gKHf3BFcM0ts2wnzjHMdY+60fKJ4uK6n13vpML9DQn0ToZj/rLUh8l38fzAZfQwD90fL/AO7TXHVl+sEJHIsypMlpbD1iARr8OcMkLud/Etuewb73AKxvIHuQJobzjy0hgbqj4TtzDIpbapzAH2g3qisrt6S1aWdsS4gJS8pqhfaChWtg5xIEDvoPnKCFZbTvnXiE/wAqsCBy01cSzQZEQcle3JtCNgrqBy6Xn1nMQ76m2L/gDziEUNRKSL0GFbUqyaFawqab06O8M6tFdeCJiC3UY6zNSg+MSWXz52CMStEspRLN5+HebE1/3paPeBMhv99Mc4Vr3cq6x9aZoivNZXAGBChS5HXWFe5R7QfZW1m11ZcsNEZNaHSJ2juJK6spAlcFgu0KsjdVL7Ba0fuFWU0DfiMARolkIllgAlNXtHTOtyfglQ25zfMuBhyAnmy5292U+xCtS7AN3yvErx3dpileVvOsQNAOxDHh1by+chpKY/SWJqF8vCZTVXWJzCgUj1OGVs4vc/1HRnfo9RwuLBOThzIRIZjeFqzVmrNSGu2+5+b2Z798s/Hbp+Q2PCdvi293lhlJWlOZHNwHcZbrsaB+HoTmrlW76/wfAMbFrJkDzLPOUigQwrU6PX/5LDWbB7IbWXK1salU86CVhaHZIt02uRfUTiNoJ8wqHvh+jFnB6v1UJthpRj5M7eU7ekfFqaXERbmoH+4gLVNPKc3cjLfhWHgX0zDTjoMslBkA0m+JgVcZwiy+RlGevn4b3o70JCn0wSm5QhqAVaqTtpFYVvoxYvK3ntEgjmMwneGtAbxxCFuiirda5w5jlhJvk8GkHfqjpKpV5CwaKcmor6+vwRSYhLV+0HqMDAa82XuQe6eXOtI6AVC3dUKq44u1zPtWVNh0D4YHSmLQe05Y2n9u5SssGA2MTQh2KlSjaVKNpXABao3cQlQDLS+4tS+yFj+R+dwR7y8RVqZ58WlyqY7xRXDLRWJjFvlBimbl3kGaOutxpuoz9xL1z3zFUVSGpDOce1EoYq6HP9kErPQc9UQ1GAg1BRmEF5S4GOhpS1iPMhWzBeAbd5V6AQpcyOUaIsWqUu1ecRPBWdyuV9eALoKGtHHrm/T/AHDSYMUdCxy1gfQ1eFigcopgudSSe65SjQ95YckQ86fU5Sx8lnpwuLBFpw6IRiXxPWmpMTNeY9jPxezPdvln4bdPy2x/L+H3eCkZVXoW9i3r/GoassA2hbBRRXS23rBCoeaKgxpfD2maeJm9x5Tmj7CAUxs+EJYap5l/qKxHlR+bl1S3IfCe94PjVpjSf1HKFctvRpcmoXwAOcIxXWOr4VSKoDmwMMZSldohBFImzeYxRBpEQKRpNmGdGAGNljI1zinob8KGK6OtkIgaC8sQW9gEwPN6QQo6C8OUo9Zb0m+QM10iWo9YoKnJY+VROTQ5+iw5QcogRAMbx+k+FLoAM0c4gIrqMHnFB3cK9dYaUjep8glET+I1hYPQUrPqixT0v+HCyYly4I8+Hsqvygy9ub4ZaCZzB8S0GutT5rK1taVGF4Qz3N5uuVTXjl1oiteAy8kYjZUW0FYAu1XzljvndRrRrRadZYrtq9S6scscuC8OAHMHJ5lkXwVE2S+DqTaL3BFIrpXyh04anaHeXo3ZHJQE+Y/Uc23tXeVumN0S6nReL5GpUGQTdcyw5L9MS7L6x6FeWU65hpDOkBOANRgtHeaHDZj2SQhr6B9Uvc1Ztqf9Ry7S13ZkBKowrxfSY6H5lJgdVyetcC5ol904HFgnJw6eKokKas1ZhZqxDXpN5tWW2sqWmgXkF8uq9obcp5/mhrrN9j+VGrygIrp58blgihUyuD6Z8ppz09IF6C9idAMCj0nUIKq9LmMd4GROhc1Wbrb+ILd6TT63BU3gAfEojdanxE0qrVt2uVB4UEEiMN8UVzjvPsNae/OAGh7QcAVqsc29e8wtQU2V/Ia6X0dGWdIN7oRvRq3WEeQTodtHmy41hMybsN7BfWW9nhxKQks2OWCrGrVZnEgJ3kWV4NVKt3e7DFh09BfBujTcoAhAcDKstyrNC6XjU94FqCOwsHFogh0ut6iiTdWBLxGn7v8AWuNHdSfExQE2oz5sUeJ5UPhlTan4KqHQJMillOvRYePzRymhb0CDrcRWINlniOuwN2XbHaXF3s75JcDZ0HzLKO2AewS5re++YA+UT83KyVXgiZx3jHC0+rxiAGgHsT4240WKF4zZtDuLXxtQ8LjX0UDyBFYy1PKiH9dGBZq3X0l5XoAikrbkuiXi4xRFFOlMtvXLnzSyTKbVL3j0bODrMR0DHZYlWkekCuCughtmwAK03YP3tN6V7IbSyX+i36gSJHLaFBgPTigW0pSaaQzjVrOVepYaMNtXVBEBLwouY9GVHFUdYc1v1VBSaXjHAcs0m9b/AMRWHgZBVf3PAkdeqVrk6XCC0soY5lbtcO+X7o+HQcZ+AkSak1pgZqwXBuTXXc8prDyNQLE2SD4UbSLtnI9pVVpmCGgyekcKsUrCOyfwmQNSg1XyjD2abXuDl8iU+DpYumvzekuzFZAOgFVDm4NAN/VmQPeVHwuDV+IPKOcNeBRSZdpWYrSgKesq7Bql8JkaAUNG0WRbPA7dZfCGoLGdcTPstCl1Zg158RYdTBQ5lKp0KpHW9cc4OMuXm85QaG6YYQUcawORyah/rhsc2AYizVUGzzX+HkwGxXYUxNz5E7cERDcIC2xzbHJZCyt8shKYUhIuijXtNJ/COseMh2XoRDgepfeUe9BPdYtIClAgNVrjWD0hbvfmMpQquTzF0YN+YnIlVpKlJXEy0WsB5zq7EPVolCvmXXoURd2QVet8FD99IcPpU5mB+3nHvASd8XTk+UG/BgTPZ8p9xXOVPCZ1x6yP6hmAbS3yH++EwEBSt4BpQObCVXtwpAtEO4jN84gQ6A5msCQqkojS6jzYYrdckXRAJY59ZvevOMgL6dankwjpFUCKG4HK6QJm8tFbLvBQKUlIerpGda8wZybq1WBCFfS17MRbrb6W5j3+8JBbFtcy9Z5nrLDVDzIZL5evACK5lhXLXQhw64Vd2BaaQ/qQ6IWua63vLASQcHIhhAtCChGvUjo9MxexKbDfimaVkTp2deGCgxZgBDSJd3hxU0w6xM8O5Ax5o9KXUvBVq9SExQ0D2OIsHgmjwMMOswM1owOiWJqQqeSgYe8J+X3T8/sgK5zoDfRTNsANPdzXnAEXyAn3Lvujvmpr79k+IawXcvmGfNC/CxrDc8z6hkj0e4a+8ZmDE1OdnHe4InsDegaET8KXgAVo0MbQgWgoLr3jkb0l5rdFQKrerhwvqFGyHhWmFwmwrPYiVa1INogaNkoA7m1XH/ASFcgvPBcy9JZshVfcy3n87R85A9mRfiI+3EWBod1olkL1qXV3pDFCCBRp0c8pyl7MwLnwHz1hws3OBhlNMx7TfT+fCUd9WD4uIYfon4JeKhzE+2V7voL4mt2bT2IQU7e692BV2/7icnDbPjhRTG0WNT5Bi7IfjvK8m8mvzCSiOiN/wOjHwZSm6F8j3i62Lu+R593xecp3M+jns2lkIgPJ9/8ASA1s/YHnxoxy+iXxXIdf1r+uBZssi4UgPLnDgI0+jTuEhHjCYETZMPB8tp9+OH4+hP1HY7RHNQMkdNotCkgwiQETDdYkq+dxRHFcmDnejpMSk82FmeUFezHoH9vPgqQLz3Sn1B+AKLQqa8jcSYXnq9YlukG0paHWiEsbfaU/cVOtdFLXzjB1EX4COWl+QSqajm3feJIVIDmx34DSKXTpuQl531hSmymLozVzNDONnS+0uGJzjyb+/DqRYJSo2GAmdMtxg7tbCGiUrOtPaKMZ69BAevBf0b6jxOScs0eI5Tnhww4YdeANSOd5ae8IsWxuaqtHQnPYJsUzAIT0Zwb9I94htKlvQAYCClM4jYdgKIR5gP0kF7cMKx7FZns0MQrKAsHuYYsYzS5ecRUfksuiqq+ks8KLYJdBwVTawkKVo6wI4X6sy05CU1uyrHOE85SdPIatryiLRClNmH+Bae7HVoltdFxBnakUFbzeU1TjsvTme0KqFrIKtBzF3h63BlaKqi9PKIW1S2DKjlKXGTJYKK3sZoSKAbFtGaqVfnpKDN9HzYu/DCQCgxNLHpb3CZpV6j9yxAxGpQ+I4KRzX7XU12pzN+8HKE2X1NMDsV/BZvGhDjTHq6HnFjTRPcOPaJ0t5j2aEVt5guI1XRwbL3gU4x2KlnEZyg9yB7mpATuYYyKF+vf2lm/hG4uFybk32Iteito1fEcCklmqunWZFGjg2dYJrFOAegY5HBKLdTW+3zmCOjwNcuvTFw08CwQLi1NCrotw0e5bMhXQx6w1lRGaXs/1Q09oCW17GG/NWYByyDbXV45z1vYcKsy+sKH4zTHBV1+vVoWvQhVdAqGU7FWq8iNLhTKzhriisRyUGInPvKI5xJxWPREfKK8xQTPnUKXICyrjXWijeLlctcE0cD6gaRs1EzWTgLz/ALkn14HSfqOg+pjQ7n9xhhRVVLbNO8QfRQNbZo5DpcxmuW+vDIOV13B8LowRhjMNaDeO9ehpE3mv1VyTrMi4tvoYasvPxDxtJ4Jo8HLhGsGGa0OsJU0w9CXUXJoK1WYN+Qwq7WTF9gdnEKt6WG5Vh0X58EHK6K0rPtU5pwJWxJpLJzC0pjBArZLUGSvKOToV5AU/35wNWa6gKMac5d0zVnrKscLKddyJERpGxi30YEaLA1SsR9ERZ8oZ0t8HlFldWaZaB3GR1/0j6gBKhO4SUOT3fyqarbdGzvRcRM3q2+kY86RPWVpBpl9pg5lqCKEVl3ecNNkUPmZEkRRfWrmm24AHapXWVmaRWc6kB5s1o8Gr2xLHbUprJm2Hj4CKnRrlFtdWFjCQ1bx5kIGtaC/TWFvE77T9AObM+2hwHT9jG1K5W15vFFVk6yp6QHEjdrVrfPigE1AKvtC1SPpvXnuuk1QSKwDXYdyDfF9KUzfY82ZIAujkOhCcl456DrE44lJeFUYCnn4UtPsR0YOKotsV4evhKZu3kMfHAsM0P23nCjF0bY9Y0874YYup7ppdvAFpObjovlHS2aLgOQKc5VyaJiCyljbldL94cUGnvVewNYkpPR95faa5cu/EhP8Ajj9cLs0CTl37IzgCJ2xYYEzYXMr8ACmMMobxBZ1YpsU6UVwuLsw30D0WFpKFzEsYhmEJ8z7h0hkTLcvW7fWWm1bsraoqry5hTRFZV2jvvwuvYAO9H48DpKXqE6crT6xKRUmqaOGrfsDkPPyw+UamMCg71wZRoR5/58Lox8YcxCaYhp2vJqz4mYv6dFmdgg+/Cpyx6cOmaPEGsGGDWHDRmXqkCx5NZhXXQ5AXKRp0Tq3i+/tEVsU2dW2pBiNjDocK9m/ONKIPUHJNkv11sXyqKjouVWU/rg1WfQ0gZldm4Vmly/ME/RBzUdAq7CVl59poNx35iabjp254nuADAhttL1+0UQirRXrllgTnQ6jLVoz3Uf0kezN0q91leqcwA+hcrLE5p9hqGFhOdz3g/oa+oFSuspKhiXGhbQdWELQm5xdJyVPIdur0lMkxkLryfOPH7cQ6BpMgP0CkYuttoYM6c6mgr3k19jERq+pqGtCPsoitWWpzHrkOZURtXR6P2nKha1XMTk9PAtax15bSqefZyOfhTYFA8xVY7TAHtITRLV9+BrrXXaITAFYNRibXdRg9l9QFsGxlZlj68yyguwTYavccaVd4HYD536cEHUHuSz29mXa2c7nfgWf8EK2ERq9oRBtAu6NgWTlnETdCAoaxcJIcVtzLOmXpM89ZyYiFUzfn+rhevIezLNeuHAmRSKBzGFqIA3XaWObQLRsHJwusI7UAJz9lpDBKDjawY9JYsq9CwoVEKDseHWFe9uGkZgOq/uZQZnaarScqZ4StWPQdtFrYHsCw3SBRQ3UQaoc2qyKVrpRt2S7cwANRQeZGR6K+Z/TiU1O7xzOUC7RAJd0b64PgdGGhY+qyX84ZM3dZzERBZapqXN4FiJRms0cK7+tTs14eUp60+1P3xdPsH3ldN+6Fzv0fTMfByTkmnh0eJzQ4YNYAK6CRWxzLh5WR0t36NVGPMbhYwVeptUEJuMrOVdL2N4thZCnIBW7lm8GkpQS2K2gZ2FCk5NssDDlLlzGXJIFrQpoM3LKueVFc7xrcsJiWSKVRHUckINdyxexC88c2H1ZS1XkqPcg4Bm18IFaSpRwrxClQhATHO4rhyw2U0DmXBc6XZ9RxqLmPpAqUvy4JeicXbhenOoDtX4twnHSIEdRoOsuSLKx/b18CXiiZU6BAJEBKS6FKuYt7cX1VZeVZjXnEDTUGbNyvh+Q1HUedWa8DoWcg7HUgQTAaI6PG9ClBzT8WPOJWonPPhucbhzWjcVLFFeGDhUjYLyx0ig1URfS5Z9Ksu6G4QsKTUuJdPpxTRgfSCNMINCvPgzdII7JEUVWnmwWjcqA0AErtgQ3S98XxLvPC9tNy260aHGk0BrAIfXALQ5EiMjOUjkOQNwUFAgYB0lctDUpOaveOXO2ptYT4ZeXpZYnnHa3TMx3c9ko8K6LQ3Mkc9yRdIBWVM6TCKVlmOjOjr4LV5H64+5hwAAFzUOYxzQb9YQEBBmz14MZhYNjauWII9JSdeDcLgDLoF6yreX8vV5PzBebP1f0eDTMKDMrcpl8KAk1TWlMVxFWCqktjg5ROVN14AGR1kW7e+DzipTTqCQ3uRXkXwukoDT1Af1xwSa1Mu3c9s6bL2ZyHlwcs5ePp8LOeHDBrDrDFuavmcnhWYzTE+pC44jApFwNdNIw4rFqeDkTpMkr8Er642cSFMNaPkwpQdn4MOXyC/Uz8KwNwwxLLz/7EFJI8MEKdcxdEhQi3sQAudUAeYxrvdRtrXLNdZZ4BqaVgKgaXFy7plESmoYNdZhAoIIL3jRXSJ3LTQYNADSM+uVW0JMt3TlCBHFBmzb1mdbUegeFhziUdoSGu6uOx4WrLgJ3tfKJpgTIwLDqNLx0iBeIVmS50y+FuoAqmfY8FCKfYY21e5iDRq6QaHAuUKAC93EApG4r1sSvOArUWDvDkePTVRegQ7PUKEppremYNlpTzNuAuqMaDnDhBBgCjBghzTNtJd63gsvja8QOi2/ac3Axq9E86CBTlMJax5rMcmPaPG4qdMMENOhx80jjWocXw6FBZz0zKI0X7YKH9+oYs8Kn6+0D7nRpHEGOYiIi7B5UrIgKXIrmoGxA7uB6hTz5nnCNsYtg2Jh3zAQ1qcyuV9Y6fP28THF1vdMz2IPDNww3134WnQxOeDceBt1fFAOenKO4ytEGxpgEfJYiljRVreORNHtVKs0TpEQouSS7tbX14PQSe3lGZqKmvMSASmj7N+5FjyYBq8vLeX57KGmt1z8o2FqtyLyYlytsxdhk7iQ8C0nJrQILfWPzuO5YWkJr4El0trgF5wBnqIOAQCloc2HKdKv6F+HlCFLfeA464n5FBT6nUoPaak0xTl4dM0eF4Thh1h1gtMmEXCbMCgeZgb6bwmGs+rtfcF+jmBa8+u3Am/wC/0LiKUmRGpqyzoXsfCWed1tfcsPUEwh9qbIlpL7sHS4tNTTQfYtrw3lNXT0xrKnQcqy1F0oxHfBj6kVo3naPveBFnv0d8w2IFbA8+OXrgVSyD0VIKHxBFqaZtd4Vg+VlNieVQGOBVAVzsIwTBU3lWuq8M7dCno4ITD/QD5hoW+bvvMm+vQ4XUHZcSzrAmRN6GpW8r3RegO+gR21wQLmDPN0iFABbo0PCj6UJ1G3tw5xrN0XgjXTlwPOhLS00HqxhosSDDcYAhXQoO3SADoRfRMC5AQCosSkl4/wCw8FugTh5l23fzOaXQbF3Nao65mRkP7JcYabhfqSiQec1XkxZ7wClc2w5AOhsQ4lYFrcqjYAHdXrczny5RTcg6AlJfbE2K9sV9SpOiJP02q+GkOc9Df1LU/swx5wDIJEwdByxh8Wur9tROaPuSms9fg4aFi50GHkoTXK81mr05SqxtDfU4emz3qcxLL7cLWqiysZM+kA/M5LUXV9ppCdUANBfKpy0YehrU45AvKYIZ0nnLytMxoESHWuWWAaAl5Gp5U+U52S4pCsq63I+02VzL5QwERXUDVgCFv7P7ls0eAr1SgscTPrHUgHQ0IylCinSGmVAuwtfbg6LAAVug0lm0v6yh4cUX5Vo+469OGolEvR6b4dE178PLHpHNM0nheE4YdYdZkbmPagb84RTnJ6ZYuIK2wS226y+c678EI/0r/vFVdDvITgRuXAC17EajQK0L0w8DUXPRhGoBCL13c68Rbhw8iwvnWmZkbjaFJgAcgNJayA2hTbzxMnDNnl9tm8G+ABXdhzg6lRb4sbAsr0amAa0Ro7y8FZSGgIL9b5y6KnVqiozV0bx+UqC8RfTCSi//AKU4IFtJ3q364CdYE1lXMtuo6QqWwEA8g9bgvTYql3WsJiik6KbHbMygCUyl0PIIfooLcSo6ZVd2Fr2rgMMLQul1b0nfh8xiNCfEIyjuGlTSxpHC1Q6uxZsbbsCsJ0Yhsrs6RVU17s1fPh0UfQxW25fY4KjsC3WkPAlgGXDREDVuqxCh3Pbkt1tcl8pnm9T+G0TEzWnU4QtShErSABpDTDC8tSGEKa6TG8ElVC7daL0uUdGtgmalPOlcoVeuJc7tU8nHWYfqsdr1wOIaiqZyO8dYQNNaKe8IyFDDFN8pmL+kV9cLJ+jr6h0hnKtjXv4msHmYXzt9yzdAk06H0lnCvGpcWWOMR5dhEAqx2YRM7I0mznsDhn2UtohxMBSZcHInxF9oCw3baIgLTMcDzuEr0EQoMnWzlzuNYTMVbA8kiUkWHJlIlKDpa7YNacMO3T1KYejcl2ehiWChZWGrInRYdHQ+lw5+CuP8aMHMl01N9Y5jVs9QvCdJ126jV71vwVBxeitKhoNAT2RPE2ug+gM1XijrZ/R4VV/J4eWcvBpmjwsGIMMGs1pkYaDszqYH2gUV0byL+oe+cTAaDrKwbB3I6QWXo9sitNDiBfU8mSrGhToQG5WiddDrlECxd8Or4yZUUAXbHaoQW6Fzbcl+eRiyWC7RdckLTLSDraxNojpda0OY9b4cuIaulFaPlMm/SSmO/XgEyr5TlLd4/Awx3J61OgtXlaGmZag0cpdbJuVzqIxsAsGHuJnpLUzf5uAe8Q90fNI0edQVVgLboNCA05A9xY6Sq6BvmeFB6gcy0SvMivjoqR5icHsMNvmpzR1i0Qx3FgLylNQWLSsKeVc5y+9+OhhnN+7CMBzS9QBZ3aNOFIywLprmJS02XrCoJ37Z8n0hsm82s2XKXpczZ9Q374VzQrFs1jy0j1uzNtPLzLgxKNIusVo6r8QljyMqjuFf3CYAJSsd5Srv2r/XB30ehfDSDIpunNDeC76cwNNGUYJ7EvO7USdSJZ9GvO4Lbtt+SOH4ORT74IzdQvVjGqRRsjTx6kx6tGPWgCpTdgrR1gEAW6NDpHp5igAXrLTPlLVmmt55woiaQpIlibxFm1v9OFL1B1rKa95YVVHsOsO1jLMRfagphNWEsqvaWFIADoorBGrc5TnYXFRcCag1hpxEPPeqaqujpwVZaDzph4SlFozvaGoMmFZLMLedVWs5C6Iol4cqeNtVbRyucrrfqT78RP7von6mg4MzJ/SH6lSidHqOFaRacGmaPEw6zUmvMrMaZlKC0Cz0J+eQpTUSrBV1fN6QbL334Z65C+z64gaurAx5bdbzFPUhNSuO/hr+y1jR0W2CEiwxHlmXwu6IyK8MOfeBncOB61M9sQy5iaFq8HQZA7XZ88P2ogn34SbEj9KfqGkwfpe4RwCgyqli+9OIJ0PYU0g11IItCbE5je8vaC1CIDUvD7Rm9A0J6krIRTbNnszlGAfVRAeuLxwajQq5OWK63FcwFlDFgNXn1jtJdC+ZSDY2heusOF2Ii1hQT0GTqx6jIagt0nPYuaJGmI6iXk5SzwhrHJnnwdGWPqt9HCucxxQBdBHFvOZSVOTRUoupp04bO94OANkVuk94tQGaFkztHdci8qHgB8nvA+pdAWjTFFHRoB7eBplpoqRnUY+oM5Rm8vgz6lLg1cEceWEs0mt3o3UOIUG5kW9w5Sx0hooWoQJQEeqayv2fgGkqgvY/3wtoKyrhXnkEiz5jxv2PrCvqaMSweqR0P9zEhrQYG9PSASKSmpArUi0q60coH4Es0YK4XTd9KOGNfzT2l7eBbY0eUFdYluwRMgC60K23yOBBBLngcX2j1ETBq8jseJ29k95+44L8Fif2yjdYABqJonWJIi7za7u/g/WnBnQw9R4ecHuClUps1wqypk2tM8xwtn6Dh5YtOLyeJh4GtNWasuD+bhplgPZmahoaBG5znfghfw++TiwBqz3H9eEjBCuymAGL3pZlcHvhJQDVO+HzhekqPUv4iWiCcxoPWJkfCi7dMuhWlXctTC+dQ2EqmC7vWMs4Fd1fxweqf1/iph1208zhq75Vr+poillvlWD8x8aoBuEQNI5WO2c55G8SCqyDhjOzK13C4GW2gbsbmbI21pM8+UoVABQv9CsPaA9EQsTcYbJitKLrB3YrYjdH7mVahVgTymqCgAveVjMDPBlZFZjzD+55Q61LkIxYAF0NIMDsA45zXOWQBWO5hlnN17KnBYqKZqWwvMvNbkege83rABUcPMhxQjuSzliW1G7dcr3nTCp3/wAcMQa1+y/vxOm4AO/+eFIFWnex9Qe95Tb3jiKwqwEh6qllldruFeqaXKI3mo6dYKpy2KbNl82KiIEjyWngnEEVqVdfEGOxWs0Fb4YtDyNyCmDjQ2+epvEpGMKPC1nQ/L+wmpPInd4HYzSSnJwGGAaisG+8y+dyrVltpa9Z0R9RmSIGI3zldOFIGu8qE0QZkbWpLoszdKYx3y8RorWtqUfBUUkCI0jyfGqTtNz2PevgPUETGdezogTCiDimnHGsLJm8htXpKvVzBV1o1Od2Q8nhJjIEYmtGPV4scj6FT7m8qXkn5eF6RacCnJ4xBNSak1pd0LPeG2HMj669ORxyHp+1vviTrrpPIHNWipi5bG0mjmPByiV8zfkhfYx5zRF04VdrD+oEXEDmKY+IYcQGWVM3Qbr6ywWo1pUJlTD6Kn3woG56W4acBS6alnZiqNnJapgBIRxHNdWEw0APUT7mBKyQPrl9QbDWHMW511o3V9zKUhQeTVTnL6lCmcrVbNzXsrlu15esohshyjqsyrjUXf0npAbQi+TYdPJBznxMpVV84eDDFVzWVodZglxKjV/7mRijaiz68CIUqys2fMp+TWAbsbq55hMOLxGFb+QHUbCyehSPuuCmg1BD6EWchYrgoc8MZN19n3ANUbTTJZ88CNVadDqiMourrdcQdempt0lVrWp5pwwVyfU/uXpQaI1GbDXKl3W1L3CNVa2RCLWXWtJUURntWNZbQ1awgixx0i1kFqlcH49+GA7LXm4VnFnSM3fOr5w6536xZMZRgBuiCKl62y3I4dTF9B/cJQU+dVngLW5CkTRI11hWqussRuuGwpwrP9e++CQsgBexoca+Nfdv1MkI6Fajyb8bozIl/Ex9eFFIKJgulXQg6CsAA8zEEbputekKdczlTbjl3h4YKNBzeuZl2Jnu/peF5THVfJOORKuO9I8BF7KvmKcsX8Q0Q4h1g1hwxWjZR0nTv1jf3C8yc9LeCXOO5OHjXuvas19whqxx11qvJlN94dkS7y05OR14EDZp2QDVypo2OTqDwMIKJACB11jodEPd6womQWi3piMWXQ1GK7XeoXhlrR+iM0To1oyD04mGQukNvOYq2XQwPKfqd1Ic4Wwko3GOALhum0eT7TApoIEa/rSKBeAOWuPuBhMYsBaWt3faArQWw19WkwOkUCoK3NaqZuxpGxOTvL9BwJi93s3AqQn1xz7kPCzlLUVowJBCGmGC4I6J5PDJtxcx0sNC6g4TuQuifjKC++FSpUrw/sAf8Sl6tDeCr9OIsQI1adYfGaW4NaNWC05GvKSdIWfVcMRkY5jK8mdUpsx0mcdtgGLZQKzElgOit2il2ADqqfXAqzPubJoNz1bVZjBEpJRtDQ+zh2n5V9P1NEpY0z5eLbb+9RwUtqegL4cqcnqKmcTENX+lrwVULpmuQ7Vy58dROvH/ACfgYTQLUGrsH7j4BDpna1avxCobVrDDrOsuFHcmzWjrxF5y/SvhdJ1y+a405aPW4NJgWo/Azk4Vk4FiaPGzRDrDrDhnaK+0dUtnOaARbB9cwPMaWQSkLgVYNXAG0lSrtunlDThXhaP5GOsIS0JNgIYDrlW5cUWi94ICZeBJpVcWGSVCMoGqcV1G/KGkqVBWOz7l+KF4uowEt4KWVJ3qunB/Et+UIV2zbwCxp61wAeyevKFAeQHgAYIU7Aw3vc/UbhnS0fbhcLSVPwmnpCYLrorbNXH5cSAUSm3SYK0Lsavryh0pXEJWcRjgwJzFjpmvLi/KqGA20jrvtZD0SZAngfpTU6mYRlLRYngH8wGQORFTkWNMdmaGAAF8g3PP1itiD7Wp7qs8pmaaALtPyCT+v4q/sayi0GXzjKoZJph5cawoeeBFGTTT0Gt8uU2gP6Uwhb09Un6nKInIjkBml+oARGuj3TOwlPmHWGWjLdTU+iZlAnZhLj/iRpxG16XpBTIp2j+WW0OHWBRW3DV1C/m5ozKNz9T4szfTo++H4TAv6hoeCsGhT2rCbtbfKzHvEoBNOap4CSgVfas3vCkuQZ7tp58M4wl7msvb/T/3wOlS1GJYkGnlE8EkmUvLjm56wqobR1dXHgqL/Xvw6IuJQh8zxtt/3lNMs/EW4FpFkjmiaPGzTOaHWHDPWhjpBYvVLBNfKFvOJMIdOo6IonbhUK6rD8tRxVIriwFfwi/qGgw10uE0shtJQLdlWXNhimnU2gyoBEzQ3hhkA6gs1Jq/EOcNtbFS8LT7RIanVsucxKxpCmR24UhFZqKIrojNuwKFfUBxGM0F+Yk0ZnXQPWYjr2peFoxqGJUDYr2cElJzwHUj8QRyBHLvWM6xEDsuW5yZnKsFz2Ry65VqmpaIKHY18RO/7T55u6z6vQWHL7407mx53CAnxoUFBDrEKQa5ZJTSSo1YOcAYBqtB/creyezx3L4AmWd1ean3Ccz8FUrnwX502gzYUbM0+p/iGSYu1nqEudHlQYB3GyKwEheeY8kNs5mO5GW7U027Sts1AFw724zvMIWlXem69pazu4zAUvlUIx5bcdxGABAGS8MC0MFtZZYQSlGyWcmdcBTFbc+FUtfOa+4Zj7M8dfF23wux/vgwZeA7sgUVtiVZGZhrV5rrCAvZckJg3lRUsqLLpoTPVPojHQ7gzSPnQxTH0eGhpAbjpKXTRjUh87qqwSlquuV61wQCEjzerEK3yj2Anx4GAyJEpyN7MDs+gNqJs9ZSGRQgqLdXrpRG9vHJUNj1zOU9J0l/awfC6TSz13U+uGdoz0oORaTzdck5pcNx9cRZOFzR42ZcJ1mlmU5FbaN6fLw5oiYtEYTQhozFqjUuHaVdACueI9K04jLS41IoxNAo4sadaxcW4lCtWOGK1qDkdL7co6s7SvM2IDmD+o7L3gaFBAChZh7RctMpwyzkOPNa0RYY0BE8osPOBqRsESXmXpKONVVrWk5uDOlfbp4XV2meLse3ER50liQxspJxfB01mIIQKR6nL+FB1VDTn+ZqMPkGHmtODDmFHv8A44Fx9rJ5MZKzu0JYBS2NnWHSNOYo6rX6hCVTa0CUu0VgXSsZ0ZVVustYvCvWVPRA3V5e5CC8cPs4KZYZ7d+bA6DFrY7TRGYQrGoobiMirlXw2m0UHzEgoigFvklR+ZeqC5ZbbaDQmUdQwuZyCTN2BWWUO3UFo54hfNpFhvntCE/5dzRLm5P3TKzaaBWxda1KYg1GULEu8a+zBgK5cF3wF3T0Iw0gJKJFW1s8oiILBbW0QKVsFML4OiX9yHOArogxdeKvXwGp3lQN5TuI/elV0A8viFVjSLUKab1LIYgsDQG7MZDQ07cNMxKChF50HHn4GdV8/DvDpwvMLTjOYkSaINU2uWIWQ2bYe0svZpOif68LpNGgV1t/dBFApVGjRpfWBc8jdPUZjGSrY0Bx2mRHq8le/CtIsnG0+Nmmc854cMsNz7Tkx6HnUcr5ljo1DUARvAwJCWKDi4jKYHABtT0nWte3DIgMPaDwBAHlY+oai3EasiX5XHs3NDXq3rEnAVpkbdeDBSC6WGbmRrz3cM6Yb3Q0g7FCxSrOkIuG5LAoOxl8+BKiqeO4Yyho54bPDTzB+/Dzlw/eJ4KJW9TAq/RoO8TVg4wmgGue2vOHfi7IGQqKHrrNTm+BrPpDrZk8n5IQOYj9R/rxBMMk4VCNevrCCxdemL+oawtmrxcVVVtjio0fQW+URgyFNr3eGa9V7zmqbilPVFh4fzpoPuEADyvQj4FRsvORtwy4fiyVdQq1z8CV5pn7LQSfpqVPrgnKgl5W09Kg0wKOnmNiweDaqM8mGmsBPSKPIZ3rAe6cV3SFVgph03hZ6Y8AEaxqL58H1cj1NR0WsrrO2Y6P5aQ4VC2djm0BzgaavZqs0PFumtZli7XsgqE2cxKYzIWu56l2qaQ0BaGCOHTjsg1WnPOVW9avo8PSPyh8BR5Qdrv6azPGlObJbi2al/tU+vDVwZ9qVFLEdru+VRYyAoEgV7Vw/SmIz93YELDXVw8swrj8v8MQ6w4Z3Gj2jpCDy5UMULlxyj21WEQGi3zrbG0x2cqbm1/UY9UjRa5m0Mv/ACHEh56WlFroLNVrDUi1rWfyYioWWqiJOdg/cpHkNLDkbsKiK8g0Nh0haiI+YwYrBUqRo6Z+I6FdgalsnAYEHZKjht+QKqXl1dNpRbx6G5+7qE5TSWj1P8eAKAKrWM5hp6tAWrtRGv1uHlT8RGCFIliS6KM1svXk7kZ5+5p76DKCrqPNMbxMo4BADZDSvfTEBdBXpBKEhrDF7XxZdF3X5PcJomEM+5V9+BJXAUsMreKvEEgHuBqAyvOt8+UpN0PeuaJ+/iUNDhZhNZhlY+JeZwGJQD+2eBq0ogLIGG13L03AVLPXBmPSxnMto4pHDyI5y8AEaUaCxoOXASy5tL0JpL609IDOiZ6iYM/xQyXwdoNQ2dGIcFS9KWjhTQ1t5a398PmV1fTlhoNuDgXbMGzFQrelwgn5j6g8F1wyneBnaA5iNm1mJpzhcggVVo4ijli7GqfePRrluqEMnBaAb1TrEakU6wL7VrfkDvHhypexQhgCloBl2xFXJL5RLIDYPkKKx6cC1Iwec8zHl4gW/UGHgvq5L/dv1D4wcS+/vE7S537F79I4acMUtcB1Lwwb3gpTDJ1Q96H4d/EBxuYtYGu2rEBWwUZCoZ7iQ4SWFsdLhsejAH532T81VcC0moj/AJE5ocMWDzp7M5Qji58lWtNpXOG1Vopx3JgY4ECBbneT1hQEuLWNkbVyH04vTOlO64IKIGqC8KMBQy51FP4A6qq8w0WsWUGl/EtJWwz0U+ollPOUtecGSzzBFEGkBWLthGS6wnlCKQtwJy9Imq69fRQ616w32mZBv6DgtXhfpZ/Xgqaj5waKG00a2NmOY76y5W31JPvhSXLhaknMSWViNV/Yl1gPxQhx74giWJzGOhNikbS9xvylBxGwxC/SoiAltgS9asw9p14DyacnFwgRkWaNj0jM2AHcY460L5B8IUVULq/OK5w5PMSc0LOBzzIxilVO0cgurvWka6a2hytpfTgqTaMc4glJiEsudGELczQbxFDKi1efB0GGhK1uM8FWsKHOsaNqBSAA2XHklvZH5E9sR0Y8y2iwbAdeZiaa3wakXYdiWjgS1AUgplgy2VbweU9Znbi2SG1ZN01m9ZWlwJkNA25xGhy8Ide0tDPVzOY5cw6x1yqUXlsdP7IDM1aKRvXbUrrDJ1YzMIK89dPNfThyiwm6I64NGnSL4NWAne+XnCwWhya01gJAIYyQrwNlecYtt/aerFQ/3D98OTmEZ1vcx5wbO/gxzjhuHPIH6h4ML/GsSEnCATcirFALUrBMObuJRsSre/OPIDMMi4x0veOlqpG+S+u8tmTw1kGez4kAmRSliFNeUGAAHA5211joNHgDU11FrrHRI2tH+uUKqCmpYzDDyj0mojmj+HonNOaHDFe2PBwIguFkXsS53AF9h0O0bA5GtBgbWt+UEAg7hXHSWG7u9QcdINB1RUL1j4gXANWzmWvKcuJr0lBu6+kuAxnntmXnF44DzwvSjmMJgQ0KDzYC+ZMmcjXm6xfVZxWbyml6ecYpSvLung6QBhdBw+48CgdFsvgolCgW0ZjOqUUw2YndxLvJAQovk9ODbYiVWRVyhDNij0I21zqUPS51wIzMt061dWubDBh9CXS20L1CoU46BYjqTpd6UDfVzO0f+oMMmwheVqueZQV1m+S5ydt4NcyuXZdvWW+233rQfiYdtrm6JPeaM66MEJEBqq0ERSJzhug9enEXKBb1qc1xLUTvQG81gHLbfiY0A7HA2W/w4c5yhVlA4Fgv4YbaV2HWwwjVreOSiRHPPOKbEgsPmd+Gtm+IBLWbq0/EToMo7pR8wV0pzi9axKr0I0HnbBnHFSavkPaLGUKtm4sNxZmqsAHpc0cMhYtDmWL2fnxkQOwJAgr1UiqzClXiF1QdQaTPlN530luI+LQ59gZhVg/UrV83PFh1WLRaB9BjadLPWoB0piRY0iwUA52JdwQojRWFYQ65gjDbl9yjdpJeA1JBgcjprwBKcm0+YNbT0yeUtC2DHXdXlEM5LBVWtO8cf7K1g5HMXNHt6LXOZHgq5EwXK6gWY6A+xG3/AGCjr8QUK5p/alml1MHyJWkBgCB18W5Xwj74I0ACsc+vfgTO1CdlahsukwOtF8zliycbT/Bomhg1hwxekF94NlwTUyoXSYxyYWALUpKLDpvKCmVNTpcY3ajLWBQAU24Tej14/kHlfU6XtKb65gBd643rTNVZF7j9zlLn1JqwwsHdnjYRKxaOW8y15YSm6a82Hf1GW4s7BeIUtb0O1uGOrBPK8jMAZ1pGs54GoqOA6Kpy5VOkAAbBQezwyLY+ofqGkNrdXxHXmMaTPQRcI4b1p14EIPFbGlxtN5+olRwUjCVXNR+EmDaEyMwcghzaPKGZqc1zWzVH2mwgcLOsUlWCbvbMyreXoR9TKSpHRgnUSdRSozPW42e8zAJTcWtoFs7TLfki3OnnUatTAwXXaCUQxaA5eUQGyHslzlKLGmD1+FQVvzz6hz4YAhL1lW6VKGSWICsGy6zqS3DNXpAqmgPK/wDajdIoHWAZhcWvSGS4KypEvUEyMvjfEKCNLOXtwQjKgM9Y2WghcB3irysdhWI7WC52zMhQpaYG/wDkGEqOkAF92/McQVJq5jBEsK2P7TR4XQULQXjmxZAxagasNMMsBDasxwJhEBG7SzIfeLw1WsOfmYVARs5RpAFQEi3aurtGJioP8y5+kriRioY2FWaqyqlRL9M4NqffchRhWino71nnpGHTho5bKWuDOspdXsQbvOWtLeNnRhWNkPJiw74Bfa4JLUCtHI3rnBMscy/Jgldub5JUYbZPjw141otx3lnhPxFgLo/y1cHbvZnyEFbw3PzYZnuvKyaB04ntFdDpGqYBCVxafc8Oo42n+FzQaw4Zijs3FZ6D7RS0VCdMxcSTnX9MTKm0cMX0Q1mR4tYWXtBZJFPLilVjzdf2eCiSWMCukRzGlrU5SlZVZ35fQZygJP8AKT6482ZXXXgAoAbRxcq6qFkLWHvwRTBBqbgE34BHeZZeapVPaCzmiXqssgZyl5l4pKGA7GveGu4U9INJQR9XT78Jqd4Jeqfu++CH+lH9RlnCYg0g6rn5Ssf5zTruL58sRbVcq3OUNZmXKnCoAQlnOtr63DNsJYBaL7uIcD12QtBTQl0WWN1zZjq40hq/aXAAUa3M67GCYaou0EUNbJUvm9m6QDVY01v7zlllWaQRLEe3Bo4A5vr0qKtQo2Qr3M0PAViwI8sn9POU+hsa+d1oM8+Cq3QFU60xrDG43AnarvtDByqWb8TMcW9DLRrMd1HSyhV86RJeFOa07baR4paNOjQaQKGYTQDAeDm+TA3xHo6dSW3U6MrcsUXuhrR9xE1R568D39IYBdCr3jpvaAOM7Q0ggErmh15FsOiNdu23frB9VWq0nO1iLJHla/aevhzniLwLeStZW5M5p9rqU+YaIL3gf4GciBoA7H8NyzfhiZTQvLGA5ggkha+ZfjGV1s581AER3A9ljrBOSi+xORIwqD1hTfnpGWbUFIvhmPk1IdVi+c+4VQi3h81e0ps+XhXm5tZjQxCrRFc79Zz0NTQ1de8pFAuKfNjdYNxM5t/Bmd5oYW3SCMJMhL3VcqlhrHamqr1cOs4nL/AzmmhgwzmnWgsJ2q+SmadCcvALJc5YMhYs5xDdXHeRystx3Cvuw/uZeTKx2Eyb6BrlgZezTnKNPqLVz8ukZaQ4gsLUF568KOd+ihpPx4C/vwohGJQHV8hh55g2I6ozLDSdMJfcTgUR5C2ro3lp82SWp5w+0yobkw0o5GGUApIhdu0rcv7w9FMNIgJal/DpFS988VwpQLV6EUtieZbqo5c9GGCvdDJAFRbGwAHzHvtCotg51H0jONRVaA0ZBbiGoQWY00mGsYSZ9W4TWQMvKxguorRsOINsINgdGsK6L3l2IkN1bdRTD80DYYz8y5aO4sNBs3sp5xRluzYNSyUfQoXfqrCrws5l1ZtHgqGxUVRKGMnONaHVBMopAA0h5S1rBNNS70lbtTbqse0XoV1FINHzc+kCr4JYkOpVZ8gNJzTnvCnPLeWwq5K2tQwANbvHQ7jKWukYmLG13pCz4up80TFiLAOJQD2IawkA6uyOnrHFAyYU4d7ESK6bKeeXKZAZuHdvTY5eIkEUGxOpOYIHyAveU4iSWdRzIQjtq4q5K9XlNP5EHYcwUL3Q92Yke616EGsCcyPPWg6zFmYOP9h/BeZeJcUJa4/8RZd4TY/C5fWV/EqW1+bn5sPYt3Me0LGyIPSOtk5Xp5rLqgeX0Ev/AMUckgnalmVuZiorBhlOrKqeb68RHOE2d5gQcug6Y9Yh1AbWc19eOS9EZytkvtDfJ/Q4oPKhBg/Vl6xs2DSOb5S4QJjTqWoBtDbQIbuq7kyM5Md29gGApXaAKmqYKk1FKJfm28PLxNP8Dwc80MGGIp7ScwvfkTrnfQ1waImXe0HKVdOPZH3xso/Zg/Uq1YqrbdF6uDqA6TS1xeuJy40cq+5HDuC4oDqELoavBAQC1DAbvCyqFycczGebKQsBh0LRjRiGks2vyb++Do9oL7yWKKFc8784oOlOlk84UhQ2bzVRlHLlCgLcF2gpNciZ2miBZYR0SoHdCtkU41WmhOjnjPpLsIp6LXiIBIJzV4G6Zx1nMTG85lvK5WYIh0saO/NhUADuTvF5iwssNOx04gvUtHeIUoA7F+/CvjpoMr83gsUoghpUJKgHQ7HLhYQxqc53ZA4JRvOmSwaRTlEZMrnbmm2fmF1nWeX+cUNyWFBhbBf5iZ4D+9q3V7meWkPIAAFAGh4EsmQJsgdzc+kpDi9XaWzAazC6nCvVTNgwZirS09Dzm9OanNcZzgxwC40mXFheh5iPzltFI/HmhO9qmrutV/hrEpAqIWVxuXiGqUc0EvcftvuInbS++RB4uRaHvW0VHkCBRbbNaeuIE9C0noEHQXoz3ZcWTkH3iKjvUo+hM4/133CfUS/MBoB2J3h4RHhyjn/MqtduNiWmjrrWeIGsBqoJTVxZL2i1ea8CQG1XKWiyUtUMVFCgmlKsJ6Qi76S1aMuRqx6RIZ8pcShUOWQs86qPxU2CqkYvTlcYtpxUrzHJfECoDP2CaQww6cTT/A8HPNDBrOsiz3gEp0cRdTF9/Cw6gLdjSZ0/qA+4cDANMez/AFRoyC7bBhS71Ysc4+lbyDQfOVGihZbyL5kbGkV3MPDOut7D98MKzrYD8ho4ghodLdIDnDACwjCW9tyc9HDwuXmDo6OsPKJTtQUfMhpABKJNcBnnc5QQyUs6B5Cng1QI0VBVuO0IxKBAKuAO8MFTUi844iGboF65+YoRVK1HgowFJDR17Rr4GumrpNF2xTC1oKbSsw07KPB1siUS1bV3hrGKW0cxwSxDVJjIA4U1XW00PB0jTARwEGg6PeNiCmyBjJv4KoufiEZk0uFNIdSEjBhBsDzy03pKnbSrJY1jpFAt0ixxbKcaHOJbfNlbJUHiqGCrYFLKa2xM4sKuv3RhypsQ+zF4rql94AznoH3KlnCyB2KVBlGViF7urKIY/h9nLfLLrHa4PxL/AEn4NSx8m+1BjdbkPa5eG0P1BDoRYQ1syx7Z0reBzdJlwtgnoMYtDd/lKJQqPUpFDvdTXGfg1VRo50zMyAXwrKty1xwHbMy59iv4sUAqhcgNmUz0FcBaGC1vnMJItUu9BBRBpCk7nApCv7QsruzfpAChxRswuYFeFQMod2Yrv18IOx6LQc6NTM1FlgJ0BeTclG2eF9YU3Zn1hYWhdJctosWSq/GkANJRGFrNV94NjkQw6Q6QQYh/geHnhww6zuBPuLRcxMmBey398aq396P1xYC+0a+4qwsNHrH3I4tPhLmoQVlTMdQBZh1tjjLDpV4P6gtkgLJCviU3AlMO+6R5ePAS3BpRWk0osORI005Pkwu0bNl8+WzBQcACwIUbcEsbgD2igKYB3oqEyLUmLwZfYiSNU1pzcOvPjmDCntSGnAPx1zOmfN81AoU2xtYa5Yhs2XvCSBHnYGnlpiJsMuKuX6hEUNRpgmAjmqtSB0wnNWJmttYHBB2EXnOpNG03INzkdY8ZWr09HYOR4ExK8sGkenz+Z6KhLrqPeaqKFI8mGdOCxjoXDzFYXwnOvTpkrDndx0bJfblWBn4gFtBCX7/23BQDl/FcuWby5cEsAN2pZYjX7RgblG9+JLXDb6/WoG3XL+xlw2nafggCbM5vmpc9EYHmxNBHUY9iIWt1/viNs919prMJ1PW9eAK0FrK+q4XnSr18uLIQDQ6hrW5z44khttpe0AhdaOe9Y2ERZiul7wQd9ALsp5RaJSg81axDI9w1qMjJOX1Dz/iXuZBj7l2iG7VYyxrAJoTXrxVhe8WHcU1avdVRKA+Di1arGF2lY9QKhbyuuec5SHmf4YUwDVSPIJSJPM90UgQU9hve4Dn6i9CFlV+fzrKvFaUGvWe29fA8WqQRQMC9s1e7/UHC0JpcIQ/wM54dZoYNYsO30miNTYyYoFE5SkyiG9Ry3Rc9fGqNavRMefAxdaztNV9uAYw53cui1C6o1nL15coqwGXQW85bQ4PdLZfVgcqMGE0E3u/mPSFV25c4o6gL0oCR8pUjsRM1p3KJrVRFSFvmMH2hOZXvTlMt95q2WbG/KvCjwntwhpwS4zchaqrTPLq5wCR7O3N+5CDLG2oLE84HzJq6G6Dkbm8a5kUcmNU8FBWvWNRHzcsWvQcNO+2/SPVyE0L5LbeYYM2enV+vG2Z0XkfyjhcdbvhHrHrkp9xsbJkQXvA5/wAkPaBT4Lly5eL5TlH7B9x2nOsjW/wrggLZPzZEHf5s6XAk29+oJege6r3Zc4Dy9yqKKm9RR6EXtndmOdc98wxpjtL7+De9JfEaPUlW65gLDrVjFW17RdHjURr0m+mJv0jEeE0HLnlKpRQAuha5a5/wBWVq6UusROrBDQC8tzXRluxDCMUJyuUrkCLMNocAlVzOXDk9IhqDznuA3witJ/m0jdWHOn6spq95/AJXofRT4l+VNw/lYYgXEWrIDn6wDDRCpNOjyhmW3+7KqgWEGtOU0t9gSneB4b4Dc91hqe+kZZW/ql/ZdT7lklucehLr9ug7CZPALp8SH8DwnWaGDDHh5gmiUq6U3qfmJgcA3iMAhtTqhU6o+pxML4Y6tDdzMFoAq6VEUBSYTh3jChQdm8BGMftZdEHmMJqLkafWBGCN9ZYumcyq7KMuavRnHKUAihpizy6w3gI0qzqN9ZzYTEXfcvnFzVseOaoTwRmwcAa0b1EencjBHSnyxAqjRJxSCajcDUAasOeczBeX7l8aiXk8jzB1JQrkVYHNDOl6woZaKUA6HlcvIjHEGF094cmS0DsqzyG0PWkIGAu17zVppvPa8PaJgDz6O14IAP4rly9YiCORn0uGsZ1geRcqMcAA9V7RwBmsn5sSYj0PqNEyjIADyzLMG6F+rAFoqILKuww7Q7VAGatGrl4Bu35QBoHpw7/zANFxQG7lboRW+L61qvKwlX0bqLav3l1RAFRq/l1XSGXBVu35nVhfFIxmgYdA8NKhhqzuh5xAz6k9+0+BB0wuvHbULDNkT+gLiDXW2kCUF1bB5BK5J5jnzB0ubEe8qKNz1PIJriPwMz3th8rhf4qciBWkrMqVnxnetAhuN2L8S69TMAbs7ZpUPKzHYyrqL0j9l+eD+1iC+9Se+IPAQSX4ObhdKYOIGH+DlOec00MOGVXNQxgGrLa1ox9RmHLMopy2C4mTRQC17vOZar4JObhz4qe6UtNpzLjXclI8g4jTzAiXkNtL2hBISW2WCMVpny2hNYdTZkV7hoouOQjEFAcU36RAOE93YYQCWDZt82Rkcnzy31pyCMTTXrz6OnHlLMIhCpU5YaeTOPS5p5/h0IXPSi+SxAdyKHsR8V5ufaVvH2wFB4aJRKNpRtKKqV4LqGqS1RIqje1j5mIf6fhJd+ZJfqktbPlmfmIvun0AlIcvUxPNmnhtVQVbQad9QjCrEgaGjUwGJc5CtcussjjiGrQXkzWYOoAGbc+XaM4ijSmjPzEJcU7LdA8ytSB8rjde9MLmcScNaXC1BKxTaf8A4UgspLSNo0O5iBtfK9L7yoyQ5ApFcufiLZD0B59dyM47JopFtVnSY7z0PaMV+Lc4qUzzJ8XKSk7w9PtFoiOYj7sDiC5V32YaWJz+pUHqv5lfvKDB7L6nsMhKlNpVSvEg1p3lz5qYXkd30grTtl+4Z6qBK2Zfw5RHFdbU9GMEuQfRVPcLc1Id2+Ag4JnpwknCIIP4QPtiDH8HKc0OsOGHDMO44ad+ntG7ULOaOjXU84vO0uoGL61LQfzgwpyoVECmjnh0zfumi9fglPbeAscCU/5dYoaod2AHOwwueNc36ygdCMWbaTQE3fui0asWDvG01FsFMtGmYvdiw1AiL3W/ImICQlzyce0AthAFAfx2cLN5ZvwUBXAS6vjNfKMWzBmbVLK5YZd/gvSFYTsPkwF3NkHxcVCm/wDQwdBXve6xZunID2LizkdRo9LifVBllGxDpB13xF+Yl324Y/vJATOXOoCx4GsKCdq4UH20ss840JSA5ByqMxYFkwbCJILOQMI7Q3AVFFnWKWo6wDi65nAyNFbFAVeY6t6CmgIkIKlpurmeaQE1Hn/GlqHmT3Iv4EO1fYr9alaWXNh8xjGPM/YEyYGzn9QDsNp6I3CuhABo6BDMgKAFulKsjy+3SvVthQGA0xp/BfH22giQXjXN8S1eSLBkvm1b9YMbjcCZVbuxZq+lvuWVI7AQZMjZnxPdXGHEHAMOEk40ggggg6IdMOFJ6HEuh4oMMD+Dlw6WHWHWVLYnB4ILRa5HWB9ULCkOEOUUtWRJkKCbRUAUB5f6mWb98Dw6kCQnJdEVbdZuDY1aI7qIncYJEbDPK46KxzbfMrwY0ofUFohsYlY3lHjvMuWXUvvHgFzVE1LdgvzHEam34SBvm3n1qW/5E3YatW3N7FQaLELCFvVhGRyMrKdMS4GLkA9iK1RSul6y+BAIAcjfSPCop3Fo6Ws5wYEbXezNfAkC5Gm2LhseMSFRdBzCufBh+4W1HGNiXOGrFZdfiJpkcGxygOAVcAasy+DCwKHnTntGOkFATqcnlDiZxiBaAq7Qgh0SsEUvyjII1Ki3LhuS/sBbviU/u9a0VbO6E9+2Z+CubE1nd351GMns3wsDVG9me0UiJsi+qykdwDvhgZbm4D5EAw7ey+YJXaPuIbXbM+IGdYH8C0Zx3nswpPj7b4gOO52Gu16gmSfhOkVoXVWKNG8gMUtHpQl358572jcNhCOyHBJJOGQdEIOiEnTDoh0zth0w6YdMOiHRDoh0Q6YdMOmHTDpnRnQnTlPKdCdOVcUIfxBrNDOeO47oS8FimqF8+4Rh6vFRTayILblFmWDy0gIcUVobUc7uZ+ux9AfX8RhEl2h3xNo+8b7iqJ7Imv8A4JwRxxW3b1EOPTKfhcIfxl2h9M+78rLGxvL6aP4wDjTts9Ze/wDWpFELys7g94L7h6epM9WAuqOnmlPpiSwisWMV5ROdWaVZyZoxBjRKfaPEVqcr5DrUdSKVE5gXnek5Vy8FdF+pdelQ08YW0oHCuXWVgsK+K2hqyrU1ZFtJgVa2lctj4qQBDdQgaKArQyX2c+UqHqisBdeRinaYgLrdOUHkUyq2iAPIma9i9K6zZpcJGcPpA5R3Hbo+LlGccgf4qaw3UYetyjVTWgfEp7TdfwwwGVzJ+8o8FpU+oJgOxKlEqGPBcNJoy7oS28+MItbzMGyvRHzB33ZBOtvw0iROrNv3LwC3ICWKqLrlPf4URdcwppO2FeUIOPvLwg6J2Qgg6YdMHtL7Q6YdEIOiC2h0Q6IdMOmdGD2g9odEXaHRDoh0Q6Z0IdEOidGdGdGdKV8pVy4QgQ/jc00sGsuo2fM3hFPDXURq+eYrlQUVn2G/N2lufTci86Mb40BqJoylIAFFpT51fCggOaqWlwagH0uPoJOSfgS3qXAnotnyMYNR5U/RD3uN/LDCnEhtoZuI/EpXctVzofuEG8puZsQ877YI7LOYOWs83vAYEFqwr2r3/gEIFB1L141sy/PHI2FTW6usUohKAZarfOXLrqyqOxLjDDd3SlgUDWgl6Eou/JVfxoag85+YAbEq290tfKN13JHzOS3qvgRYqeYxPeH36gAUYekuhDm/QSm6kwiOaXSwQB1pbfMWSApQKNjpKlEo24UeL20k+5oJ7X+Ic1h5MwZ8F+5RRL1MaqvJa3Fsh6ZR23pQBHb82T33hhBBwCThkloQYQggggkkkkkgggggkkkk6YQQQQQdEIIOmEkkkknRDoh0Q6IQT0YdPgAKQIH8bOaaWDWX04fMIYy030A2dmJYcG4qGgQxlfeAdekGNRRpaNfW7lmYc+Lb11gwVboe0YIXNX3EFYF3cwKwVlDHVO8PDkiuXTikONqaoE5kzWnZtjCc3a3TMCap1q834fzVEgpBkRqIljkV1eNOzFDVCewMme4mvqUKLtPlNHp2vq40UXX9JEvWOZV7sZZLmCHxKq+OeR5EIzW9v3hddpn1PaTD+Czc4J6l3ZaY/czV35oPtTZYO7brRKGl1s+CXlTvSvzLMBqqGWD5Ck9bAojqL3b4DiSThkkdsIIIOAQdPBJJIIIIOiHRCSSSSToh0Qggggg6IQcMkkkggg4BJJJJBBBwDCEkkBAgfyMGsGGDWYt7ZlSchl+G/dYxLK8TEVjPLyImuERGnYcr0I1C3I1btywHiVtmAZLGqZgcHppalYoCuk5IIfE9YIx2loeayhW1k4DdAOpnSHJbLrK3F4rtBeZQ2KVT4u2e3BLUHnKX8PNCUeQ0pnzUpKu/g3NKh+PBNEbsHrEBF5+7IiLR0T0CUtlc/voWBQ0+0GYonofCaKlb5/g8p7bgQRarpfiW6h0LPhPT5mVe7BFCdaRnxjn44Ai7e7MmtV1TDzQ4BxxwzhnRDoh0Q6J2Q6IdMOiHTDphBhpDoh0Q6IdEOmHTDph0w6YdMOmdCHRDog7TowO0DtOhA7Q6YdMOmdCHRAbQ6YQDaA2g7Qx0h0w6OIR2QwnZAQPGDDjCAlSv5mDWaWDWHWFcZSo+8CVnO7KwDnSVXaLShDAQMumPSAXhbYnBhV5828TLbALxA3VxXgMI7Zi7DoGCw9CdIhXq5A5ce8slorfQ1hosHIuu8qynJ1iXGtByORUckhQ8kigW6R9WZKzUyK3JC/Ihg0Hb+c1rs5XpcXx+59Ul/TbN8rFS/wCYC+LldZmwHyJrHbhXuypM6f1QShDYPiB1ZSUeF4IGUO895QxerHVfxPeSYZ6yEC3rQtDr+X7lhRXYi1g7qiV92cS+sLhSEEHBMZfbhHCToh0w4o6IdMHtDph0wg6IdEFtB7Q6IdMOmHTBbQe0HtDph0Q6J0IdMOmdGHTDph0w6YdMOmHRDonZDonZDpnbDpnZDph0Q6IdEI7IdMJOmHTxyTolOIRUqVKlSv8A42c0OGDWDWGhAqOyEQlTXeo6MXX6zzth57OXAqDfC8yv7m8tlloVApdFv0nIyQcusWBeUCswjEdXOlRCJSpIKBasvlgA1TjlpL8CitDOlhD56ePutmUtmjLyJci5yK98wb1xP3udHEke0NADsSpRtKleL3AhDPWjNT7ggluh0b9YAyHpHxcZpu6y2r9y3zE3MPISWl7zR+2+oxtrnvCLQ4RJxpBBwCCCCSCSSCCCCCSSSSSCCSCCDohBJJ0wkknoQg6IdEMJ0IdMJMYdEOiHRDCEEHBJOJxhxBFQ4BFSpXCv/seE6wazWlrigiMspDD93A+dPjEZ8tI8SHCgd4SSeYRvWn1KfImaPSbpHXVh4FnU+oAhNi+H8SgZQ7xSlOoJoy7N/Eua7jZ8RoSq/h+keJtDay18lEYKI8qB8R1VHqi17ubhBwDgnDJIJOAcAgg6YSSdPGMIdEOidCEkknTDohJB0Q6IQQQQQScMkk6IQQQYQk4ZJBBBBBwKQ4ZwCDiCKlSpUCV/x2CDWYJrzWlRIanIbML0FhGR6bkG9PBfE+yuoJp87mXlitiy2/Cd4W/MU/tGaDz/AKlj5el+ZZ4g7JAW6bFD2jvrCiOrPeFf1wdnCceST2TshB0Q6IdEOiHTDph0w6IV5Q6IYaQ6IdMOiHTDph0w6Z0YdMOmHRDoh0Q6YO0OmHTAbQ6Z0YdEOmA2gNodEOiHRAbQO07Z0IdMOmEEEEHRKQPCSGVhwDgVCKlSpX/R0Q4eFqzKzWjVYqxNSG0DfCCjUc6FQxr+jDM51VgVQW7vNsBLyueV6jZaV6ztPSdkFB9eE4Y4QR2Qg6J5oSdMOmadIPaHRB7Qi20FtDoh0Q6Z0YPaD2g9p0YdEOiHTDoh0Q6YdMOmGGk6MOmHRDph0w6IdEMNIdEOmHTDph0Q6IdEOiHRCCO2HTCTp8FOjwhUqBKlSpX/AGWHDwtea01vAk8YcMkggggggg4Ukgggggkkkkk6YQQQQQQQQdMJJJJOmEEHRCCDphJJBJBBBBBweyHgQ4ioErgqVK4V/wCDecHCuuak1+L52OvE7Z2TsheHTDGEkHRDCHRDphJJJJJ0Qkg6IdEIIOAJJONkEGEIIIMYcM6YQcAw4CDiySvAcA4ipUqBKlf+OSDhXXLxmtidCdOPTO2dkOmHTDph0w6YdM6MOidCHRDoh0Q6IdMDaHTDoh0w6YDaHTAbQ6IdEOmB2gdoV5Q6IdM7YV4CCAwMDwkhleMeAKgSpX/mGJwNeYmW8pqYnRj0Tsh0Tsh0w6YdEOmHTDph0Q6IdMOiHRDoh0Q6J0YdMOmdGHRDoh0Qw0lNoR2Tthwzp4hBxFQJUCVKlSv/AESR8JkejgIII6MMIQcM6J2w6IQQQcA4B0w4JJxJGErgqBKlf+uqJGGGXiTgHAI0Qg4BJJ4EOIIqVKlQJX/t6icR4NZXbjk18IVCKlSpX/4EqVKlSpUqBKlSpX/8Cb//2Q==;imageBorder=#020202;strokeWidth=3;" vertex="1" parent="7">
                    <mxGeometry x="510" y="110" width="220" height="220" as="geometry"/>
                </mxCell>
            </root>
        </mxGraphModel>
    </diagram>
</mxfile>